<?xml version="1.0" encoding="utf-8"?>
<!-- Generator: Adobe Illustrator 27.7.0, SVG Export Plug-In . SVG Version: 6.00 Build 0)  -->
<svg version="1.1" id="Layer_0_xA0_Image_00000180342931289837414710000016922989615846728084_"
	 xmlns="http://www.w3.org/2000/svg" xmlns:xlink="http://www.w3.org/1999/xlink" x="0px" y="0px" viewBox="0 0 1117.09 837.82"
	 style="enable-background:new 0 0 1117.09 837.82;" xml:space="preserve">
<g>
	<g>
		<path d="M702.17,279.11c-0.47,0.87-0.93,1.75-1.42,2.62c-0.8,1.43-2.54,2.91,0.71,3.72c1.2,0.3,1.41,1.83,1.45,3.03
			c0.12,4.72,0,9.24-2.24,13.77c-3.56,7.21-4.66,15.21-6.17,23.08c-2.44,12.65-5.38,25.21-8.02,37.82
			c-1.54,7.37-2.96,14.77-4.27,22.19c-1.72,9.75-4.57,19.25-8.35,28.43c-1.46,3.55-2.1,7.32-3.26,10.96
			c-0.55,1.73,0.34,2.87,2.22,2.83c2.65-0.06,4.41,1.33,5.98,3.24c2.48,3.03,4.93,6.06,6.78,9.53c2.29,4.31,5.77,7.69,9.08,11.17
			c1.45,1.52,3.26,2.59,5.37,3.07c1.09,0.25,2.04,0.43,3-0.52c1.3-1.28,2.84-1.17,4.15,0.04c1.38,1.28,1.47,2.9,0.62,4.49
			c-1,1.9-2.75,2.51-4.81,2.49c-5.71-0.07-10.09-2.68-14.14-6.6c-5.63-5.47-8.86-12.62-13.81-18.54c-2.36-2.82-4.34-3.1-7.5-1.07
			c-3.22,2.07-5.33,5.16-7.59,8.11c-6.03,7.86-10.93,16.53-17.22,24.2c-1.61,1.96-3.59,3.61-5.21,5.56
			c-7.76,9.32-24.37,6.63-29.26-2.5c-1.16-2.16-2.76-2.67-5.18-1.83c-9.75,3.39-19.95,3.16-29.96,2.43
			c-7.65-0.56-13.15,1.39-16.76,8.2c-0.21,0.39-0.6,0.68-0.85,1.06c-4.65,6.93-11.31,8.26-19.13,7.44
			c-9.32-0.98-15.09-5.68-17.16-14.79c-0.53-2.36-1.72-3.04-4.09-3.24c-8.86-0.74-17.77-1.27-26.45-3.46c-2.02-0.51-3.6,0-5.21,1.4
			c-2.4,2.07-5,3.94-7.63,5.72c-6.09,4.13-15.75,3.39-21.42-1.41c-6.6-5.59-11.9-12.21-15.93-19.85c-0.55-1.05-1.42-1.56-2.35-2.14
			c-5.26-3.29-11.3-5-16.56-8.28c-1.24-0.77-2.42-0.5-3.61,0.1c-3.2,1.6-6.06,3.67-8.49,6.3c-7.76,8.43-15.1,17.21-21.95,26.4
			c-0.33,0.44-0.67,0.86-1,1.3c-1.28,1.68-2.88,2.82-4.85,1.33c-2.02-1.52-1.2-3.42,0.01-5.05c7.69-10.37,15.86-20.36,24.81-29.68
			c2.09-2.17,4.69-3.7,6.97-5.28c-14.94-18.93-24.06-40.25-28.07-63.89c-1.29-7.6-3.16-15.1-4.92-22.62
			c-2.79-11.95-4.89-23.98-6.06-36.21c-0.57-5.94-2.12-11.8-1.95-17.84c0.05-1.64,0.1-3.29,0.79-4.81c0.67-1.5,1.89-2.26,3.53-1.84
			c1.5,0.39,2.38,1.55,2.13,3.07c-1.56,9.51,2.05,18.53,2.48,27.84c0.53,11.25,3.85,21.97,6.12,32.88
			c2.16,10.4,4.44,20.77,6.74,31.14c2.96,13.38,8.81,25.53,16.01,37.08c2.53,4.06,4.64,8.45,8.86,11.23
			c1.3,0.86,2.46,1.35,4.01,1.11c3.16-0.48,6.34-0.41,9.52-0.22c4.34,0.26,7.59,2.42,9,6.41c1.7,4.81,5.01,7.16,9.54,9.14
			c8.97,3.93,18.15,6.84,27.84,8.16c0.36,0.05,0.77,0.03,1.07,0.19c4.58,2.56,7.28,0.11,9.83-3.42c4.05-5.62,8.66-10.74,14.02-15.18
			c2.76-2.29,5.76-3.68,9.38-3.86c3.04-0.15,5.03,1.13,6.18,3.9c1.9,4.58,2.73,9.41,3.38,14.28c0.4,2.98,1.09,5.89,1.84,8.79
			c0.36,1.41,0.97,2.1,2.55,2.23c10.89,0.86,21.81,0.37,32.71,0.51c1.36,0.02,2.12-0.71,2.88-1.71c2.85-3.77,5.53-7.67,7.9-11.76
			c2.02-3.49,4.61-6.54,7.26-9.52c3.07-3.44,7.12-5.28,11.62-6.08c3.22-0.57,5.81,0.42,7.93,3.05c3.57,4.43,6.21,9.38,8.76,14.41
			c0.37,0.73,0.69,1.48,1.04,2.22c2.33,4.97,2.26,4.78,7.2,2.77c7.14-2.9,13.12-7.75,19.81-11.39c2.66-1.45,5.45-2.49,8.23-3.55
			c7.38-2.8,13.57-7.22,18.79-13.1c1.14-1.29,2.42-2.45,3.69-3.61c0.55-0.5,1.04-0.97,1.19-1.75c1.82-8.94,5.61-17.25,8.25-25.92
			c1.69-5.55,3.02-11.2,4.01-16.94c1.78-10.38,4.03-20.66,6.29-30.94c2.55-11.61,5.18-23.21,7.15-34.94
			c1.08-6.45,3.03-12.72,6.01-18.6c1.44-2.84,0.72-5.85,0.88-9.45c-2.69,2.6-5.12,4.67-7.77,6.47
			c-10.64,7.23-22.75,10.71-34.95,14.1c-15.44,4.28-31.38,6-46.93,9.78c-13.05,3.18-26.2,6.03-39.61,7.41
			c-1.44,0.15-2.9,0.29-4.35,0.3c-18.99,0.04-38.01,0.73-56.97-0.64c-14.95-1.08-29.9-2.22-44.83-3.53
			c-16.91-1.48-33.5-4.45-49.67-9.48c-11.05-3.44-20.73-9.62-29.67-16.88c-4.16-3.38-6.42-7.83-5.99-13.39
			c0.06-0.81,0.09-1.65-0.01-2.45c-1.54-12.21,4.6-20.68,13.61-27.65c8.12-6.29,17.1-11.07,26.94-14
			c18.27-5.46,36.43-11.32,54.98-15.78c14.27-3.43,28.7-5.58,43.43-5.43c8.54,0.08,17.09-0.01,25.63,0.04
			c1.57,0.01,2.68-0.17,2.61-2.11c-0.02-0.61,0.27-1.24,0.5-1.83c0.68-1.72,1.86-2.77,3.79-2.23c1.8,0.5,2.49,2.02,2.01,3.64
			c-0.67,2.26,0.17,2.58,2.17,2.54c20.46-0.46,40.85,1.48,61.28,1.97c2.54,0.06,5.09,0.07,7.63,0.04c2.13-0.03,4.17,0.27,6.06,1.29
			c0.82,0.44,1.7,0.75,2.61,0.66c8.81-0.87,16.64,2.13,24.22,6.09c9.66,5.04,19.95,8.77,29.5,14.07c6.88,3.82,12.64,8.7,16.88,15.45
			c3.63,5.8,4.12,11.86,2.76,18.32c-0.3,1.41-0.86,2.79-0.68,4.28L702.17,279.11z M540.9,259.24c1.34-11.3,2.63-22.2,2.31-33.25
			c-0.07-2.48-0.78-3-3.1-2.96c-8.18,0.14-16.36,0.15-24.54,0.03c-12.8-0.19-25.4,1.46-37.84,4.24
			c-20.84,4.67-41.17,11.24-61.55,17.55c-8.02,2.48-15.32,6.65-22.07,11.69c-8.01,5.98-13.47,13.26-11.95,24.01
			c0.06,0.45,0.05,0.91,0.01,1.36c-0.42,4.13,1.43,7.27,4.54,9.67c8.9,6.86,18.33,12.85,29.25,15.94
			c15.06,4.26,30.37,7.14,46.01,8.49c14.94,1.29,29.89,2.45,44.84,3.52c18.51,1.32,37.07,0.63,55.61,0.63
			c1.63,0,3.27-0.15,4.89-0.33c14.12-1.52,27.96-4.65,41.73-7.96c14.49-3.48,29.37-4.99,43.73-9.1c11.2-3.2,22.35-6.33,32.29-12.78
			c4.26-2.77,7.82-6.12,9.86-10.64c3.02-6.7,3.93-13.5-0.58-20.2c-3.6-5.35-8.23-9.4-13.86-12.39
			c-12.28-6.53-25.14-11.82-37.65-17.86c-2.33-1.12-4.84-1.51-7.39-1.74c-0.82-0.08-1.64-0.12-2.27,0.59
			c-1.5,1.69-3.08,1.21-4.93,0.48c-4.2-1.65-8.28-3.35-13.1-3.25c-8.62,0.17-17.27-0.24-25.88-0.82
			c-12.52-0.84-25.05-1.14-37.6-1.07c-1.29,0.01-2.59-0.22-2.46,1.84c0.8,13.32-1.68,26.45-2.37,39.69
			c-0.07,1.44-0.42,2.96,0.37,4.63c2.35-3.25,4.51-6.27,6.72-9.25c1.78-2.4,4.22-3.39,7.17-2.97c1.7,0.24,2.94,1.11,2.91,3
			c-0.03,1.71-1.07,2.8-2.71,2.85c-1.93,0.06-2.96,1.18-3.89,2.57c-2.41,3.62-5.17,6.98-6.64,11.21c-1.13,3.25-4.28,4.38-6.76,2.24
			c-5.97-5.14-9.7-11.89-12.16-19.3c-0.45-1.35,0.18-2.74,1.45-3.57c1.38-0.9,2.82-0.69,4.08,0.24
			C538.54,257.11,539.58,258.11,540.9,259.24z M579.76,464.98c2.18,0,4.36-0.09,6.54,0.02c4.81,0.25,9.34-1.14,13.94-2.17
			c0.6-0.13,1.99-0.05,1.27-1.41c-3.32-6.24-5.93-12.88-10.55-18.37c-0.88-1.05-1.87-1.28-3.15-0.94c-3.24,0.87-5.93,2.49-8.21,5.04
			c-4.39,4.92-7.26,10.86-11.14,16.11c-0.99,1.34-0.43,1.72,0.95,1.71C572.86,464.97,576.31,464.98,579.76,464.98z M649.44,446.56
			c-4.67,2.3-9.77,3.26-14.14,5.91c-5.11,3.11-10.24,6.19-15.42,9.19c-1.95,1.13-4.07,1.98-6.11,2.96c-0.77,0.37-1.36,0.65-0.75,1.8
			c2.99,5.62,12.48,8.07,17.4,4.3C638.81,464.29,643.83,455.2,649.44,446.56z M491.26,460.17c7.96,2.39,16.08,2.34,24.06,3.31
			c0.99,0.12,1.37-0.34,1.1-1.27c-1.65-5.68-1.71-11.67-3.37-17.35c-1.12-3.84-2.47-4.47-5.7-2.08
			C500.96,447.52,495.95,453.59,491.26,460.17z M554.48,471.56c-1.34-0.81-2.45-0.5-3.5-0.51c-7.9-0.14-15.82,0.28-23.71-0.39
			c-0.83-0.07-2.18-0.66-1.95,1.23c0.49,4,3.7,7.64,7.65,8.69c3.19,0.85,6.43,1.13,9.72,1.01c1.4-0.05,2.72-0.32,3.86-1.15
			C549.83,478.06,551.89,474.65,554.48,471.56z M448.06,455.54c1.02,1.54,1.56,2.46,2.19,3.31c1.94,2.66,4.45,4.78,6.82,7.02
			c6.13,5.77,14.83,5,20.3-2.03C467.39,462.42,457.81,460.02,448.06,455.54z"/>
		<path d="M702.08,279.22c4.21-1.83,8.6-1.71,12.7-0.13c7.25,2.79,14.76,4.28,22.36,5.51c17.21,2.78,34.59,4.3,51.8,7.01
			c18.26,2.88,36.62,1.48,54.94,1.88c1.57,0.03,2.14-0.9,2.49-2.01c2.12-6.61,5.02-13.09,3.98-20.31c-0.8-5.52-0.36-11.07-0.47-16.6
			c-0.07-3.55-0.55-7.05-1.05-10.56c-0.25-1.78-1.08-2.13-2.7-2.17c-13.58-0.36-27.04,0.74-40.46,2.74
			c-4.22,0.63-8.49,1.13-12.76,0.97c-13.22-0.5-26.27,1.67-39.42,2.33c-9.82,0.49-19.59,1.28-29.22,3.16
			c-6.32,1.23-12.52,3.12-19.07,2.62c-0.96-0.07-1.69,0.59-2.54,0.9c-1.48,0.55-2.93,0.52-3.88-0.94c-1.02-1.57-0.43-2.96,0.81-4.14
			c1.16-1.09,2.59-1.94,4.15-1.83c9.89,0.68,19.14-3,28.76-4.16c8.05-0.97,16.15-0.94,24.16-1.93c14.99-1.85,30.09-1.68,45.12-2.74
			c7.05-0.49,14.07-1.63,21.11-2.39c9.08-0.98,18.16-0.44,27.24-0.53c2.58-0.02,3.83,1.33,4.28,3.95c1.22,7.1,1.78,14.24,1.54,21.43
			c-0.18,5.55,0.86,11.05,0.57,16.6c-0.1,1.83-0.26,3.6-1,5.31c-1.83,4.25-2.4,8.92-4.43,13.13c-1,2.07-2.27,3.21-4.53,3.21
			c-14.72-0.01-29.46,0.33-44.16-0.2c-8.03-0.29-15.98-2.27-24.01-3.14c-14.71-1.6-29.35-3.68-43.98-5.88
			c-7.46-1.12-14.8-2.61-21.78-5.56c-2.09-0.88-4.31-0.44-6.48-0.5c-3.85-0.11-4.82-1.33-4-5.12
			C702.17,279.11,702.08,279.22,702.08,279.22z"/>
		<path d="M515.25,183.45c0.61-13.73,2.64-27.12,10.02-39.09c2.58-4.18,5.8-7.88,9.45-11.21c1.84-1.68,4-2.21,6.32-2.84
			c8.45-2.29,15.15,1.21,21.56,6c7.06,5.29,12.24,12.09,16,19.99c2.25,4.74,1.33,9.85,1.19,14.78c-0.18,6.48-1.41,12.81-4.85,18.5
			c-4.75,7.85-11.61,13.46-19.6,17.59c-4.85,2.51-10.36,1.3-15.58,1.04c-5.85-0.3-11.02-2.71-15.87-5.93
			c-5.91-3.92-9.35-9.02-8.65-16.38C515.32,185.09,515.25,184.26,515.25,183.45z M521.33,183.46c0,0.91,0.08,1.83-0.01,2.73
			c-0.54,4.96,1.86,8.27,5.8,10.87c3.92,2.59,8.02,4.8,12.79,5.01c5.01,0.22,10.28,1.59,14.9-1.43
			c9.97-6.53,17.97-14.35,18.77-27.37c0.47-7.67,0.87-15.09-4.6-21.39c-0.41-0.47-0.63-1.12-1.03-1.6
			c-5.59-6.7-11.55-12.97-20.69-14.54c-2.95-0.51-6.06,0.13-8.36,2.06c-4.49,3.77-8.07,8.37-10.61,13.69
			C523.44,161.59,521.75,172.39,521.33,183.46z"/>
		<path d="M885.58,715.47c-2.76,3.22-5.99,4.64-10.07,4.01c-2.82-0.43-4.38-2.02-4.62-4.85c-0.2-2.36-0.14-4.75,0.32-7.06
			c1.6-8.06,7.75-9.12,14.71-7.04c0.92,0.28,1.72,0.85,2.77,0.93c1.87,0.15,3.08,1.37,3.17,3.18c0.48,9.4,0.68,18.78-4.7,27.17
			c-3.08,4.81-7.2,7.88-13.15,7.88c-4.03,0-6.12-1.68-7.91-6.21c-0.76-1.92-0.92-4.02-3.46-5.05c-1.83-0.74-1.17-3.22-1.48-5.59
			c-0.84,1.88-1.38,3.27-2.05,4.59c-1.78,3.5-4.55,4.57-9,3.55c-3.2-0.73-4.35-2.41-4.38-6.49c-0.05-4.84,0.5-9.57,3.01-14.02
			c-6.65,1.38-10.06,5.03-10.97,11.51c-0.5,3.59-1.99,5.4-4.16,5.05c-2.08-0.33-3.1-2.18-2.33-5.83c0.94-4.5,1.03-9,1.05-13.54
			c0-0.54,0.06-1.1,0.18-1.62c0.46-1.99,1.25-3.83,3.72-3.46c2.34,0.35,2.63,2.17,2.35,4.17c-0.03,0.25,0.05,0.51,0.11,0.98
			c2.01-1.3,4.08-2.12,6.22-2.82c3.56-1.16,4.14-1.04,5.72,2.45c2.04-2.7,4.79-3.82,8.05-3.73c0.7,0.02,1.16-0.35,1.7-0.7
			c3.23-2.09,6.27-0.87,6.71,3c0.41,3.59,0.24,7.26,0.32,10.89c0.05,2.23-0.75,4.73,2.35,5.84c0.85,0.3,0.94,1.51,0.85,2.44
			c-0.19,2.06,0.41,3.96,1.08,5.85c1,2.8,2.2,3.34,5.01,2.19c0.91-0.37,1.87-0.83,2.57-1.5
			C883.89,727.25,885.37,721.62,885.58,715.47z M857.51,710.2c-0.92-0.12-1.26,0.2-1.54,0.55c-3.11,3.75-4.21,8.15-4.2,12.92
			c0,0.65,0.03,1.36,0.9,1.41c0.91,0.05,1.18-0.72,1.45-1.39C855.85,719.38,856.61,714.84,857.51,710.2z M876.91,711.02
			c-0.02,1.08-0.22,1.83,0.35,2.23c0.57,0.4,1.24,0.15,1.75-0.3c1.8-1.57,3.06-3.55,4.18-5.63c0.3-0.56,0.2-1.04-0.38-1.38
			c-1.7-0.99-4.82,0.14-5.38,2.05C877.09,709.11,877.02,710.3,876.91,711.02z"/>
		<path d="M933.53,351.67c-4.25,4.46-9.12,6.74-15.22,6.29c-6.46-0.47-10.07-3.91-10.03-10.35c0.01-2.17-1.18-3.8-1.88-5.59
			c-0.57-1.44-2.18-0.8-3.08,0.3c-2.66,3.25-5.17,6.59-5.43,11.05c-0.05,0.89-0.29,1.8-0.63,2.62c-0.5,1.18-1.48,1.85-2.8,1.77
			c-1.43-0.09-2.34-0.93-2.7-2.3c-0.54-2.09-0.13-4.15,0.32-6.2c0.85-3.85,0.97-7.76,0.69-11.65c-0.15-1.99-0.21-3.81,2.12-4.3
			c2.2-0.46,3.32,1,3.94,2.9c0.11,0.33,0.2,0.67,0.35,1.18c2.37-1.84,4.74-3.38,7.75-1.69c0.15,0.08,0.48,0.13,0.49,0.12
			c1.43-4.12,6.29-0.92,8.47-4.08c1.53-2.22,4.51-2.12,7.09-1.73c2.08,0.31,3.21,1.8,3.19,3.83c-0.05,5.05-2.06,9.34-5.64,12.85
			c-1.14,1.12-2.7,1.41-4.31,1.39c-0.66-0.01-1.6-0.34-1.82,0.68c-0.19,0.89,0.33,1.59,1.08,2.04c2.63,1.55,5.39,1.37,8.15,0.5
			c1.57-0.5,3-1.37,4.16-2.54c1.68-1.7,3.47-2.57,5.96-1.16c-0.15-5.69,1.2-10.71,3.83-15.4c2.81-5.03,8.16-7.35,13.7-5.92
			c1.93,0.5,3.81,3.88,3.85,7.21c0.06,4.73,0.01,9.45,0.02,14.18c0,0.96-0.21,1.97,0.84,2.69c1.62,1.11,1.77,2.71,0.93,4.33
			c-0.78,1.51-2.19,2.13-3.87,2.04c-1.95-0.11-3.3-1.15-3.75-3.01c-0.33-1.39-0.27-2.88-0.42-4.66c-2.33,2.46-3.9,5.52-7.27,6.42
			C937.6,356.55,935.23,355.5,933.53,351.67z M940.08,349.76c4.38-4.64,6.81-9.5,7.88-15.05c0.14-0.74,1.01-1.64,0.17-2.23
			c-0.84-0.59-1.96-0.31-2.83,0.24c-0.67,0.43-1.38,0.95-1.8,1.61C940.64,338.81,939.38,343.7,940.08,349.76z M915.58,342.27
			c2.5-1.3,3.03-2.95,3.53-5.27C917.55,338.62,916.51,339.93,915.58,342.27z"/>
		<path d="M273.17,337.21c-7.32,2.39-11.18,0.86-12.98-5.33c-0.68,1.62-1.19,2.92-1.75,4.19c-1.63,3.68-3.64,7.13-6.74,9.78
			c-1.9,1.63-4.25,1.73-5.34,0.22c-1.48-2.05-0.39-3.51,1.28-4.83c1.12-0.89,2.06-1.97,2.69-3.27c-0.8-0.63-1.54-0.3-2.22-0.35
			c-3.62-0.26-5.45-2.03-5.61-5.68c-0.15-3.55,0-7.1,1.42-10.44c2.1-4.95,7.06-7.18,11.54-5.22c1.9,0.83,3.41,1.9,3.6,4.32
			c0.08,1.06,0.98,2.06,1.72,3.48c0.58-1.51,1.02-2.72,1.52-3.9c1.06-2.5,2.72-4.32,5.6-4.52c3.1-0.22,6.08,0.09,7.89,3.08
			c0.66,1.1,1.15,1.41,2.53,1c2.37-0.72,4.24,0.7,3.77,3.13c-1.75,9.03-2.24,18.42-7.3,26.57c-2.55,4.11-6.14,5.72-10.84,5.09
			c-1.82-0.24-3.17-1.11-3.12-3.11c0.05-1.84,1.37-3.01,3.04-2.81c4.35,0.52,5.91-2.26,7.25-5.52
			C271.88,341.26,272.83,339.51,273.17,337.21z M266.59,328.93c0.14,0.88-0.56,2.25,0.6,3.03c0.74,0.5,1.78,0.28,2.56-0.28
			c1.93-1.37,3.52-3.09,4.75-5.11c0.29-0.47,0.86-1.26-0.28-1.39c-1.65-0.18-2.43-1.26-3.28-2.5c-1.06-1.55-2.44-1.3-3.21,0.48
			C266.97,324.93,266.64,326.79,266.59,328.93z M252.45,321.8c-0.77-0.03-1.34,0.17-1.85,0.62c-1.27,1.12-2.67,6.38-2.05,7.98
			c0.47,1.2,1.09,0.58,1.57,0.02c1.67-1.95,2.81-4.23,3.85-6.56C254.68,322.26,253.4,322.07,252.45,321.8z"/>
		<path d="M672.34,748.71c-1.45,2.62-2.68,4.84-3.91,7.05c-3.21,5.78-7.18,7.58-13.64,6.17c-3.03-0.66-4.81-2.34-5.03-5.3
			c-0.49-6.77,0.15-13.43,2.69-19.8c0.92-2.3,2.28-4.34,4.02-6.11c3.03-3.1,8.62-3.45,12-0.77c1.1,0.88,1.6,2.01,1.08,3.37
			c-0.61,1.6-1.89,2.07-3.52,1.91c-1.57-0.16-3.12-1.65-4.68-0.54c-2.06,1.48-3.16,3.76-3.88,6.12c-1.2,3.92-1.89,7.96-1.73,12.08
			c0.04,1.07-0.67,2.65,0.93,3.04c1.65,0.41,3.49,0.6,4.85-0.88c0.61-0.66,1.08-1.46,1.53-2.24c3.13-5.4,5.59-11.26,10.65-15.32
			c0.84-0.68,0.49-1.69,0.54-2.56c0.14-2.49,0.98-3.93,3.91-4.11c2.46-0.15,4.81-1.37,7.43-1.12c3.34,0.31,4.97,1.78,5.15,5.11
			c0.06,1.17,0.02,2.37-0.09,3.54c-0.57,5.78-3.56,7.93-9.29,6.89c-0.85-0.16-2.07-1.27-2.64-0.04c-0.6,1.27-0.12,2.64,1.05,3.66
			c2.6,2.26,6.57,4.1,9.98-0.01c2.09-2.51,4.45-4.77,5.35-8.09c0.42-1.55,1.62-2.48,3.32-2.14c1.83,0.37,2.45,1.78,2.34,3.48
			c-0.1,1.56-0.69,3-1.45,4.36c-1.48,2.64-3.6,4.77-5.55,7.05c-6.35,7.44-16.7,3.06-20.25-2.67
			C673.18,750.29,672.91,749.74,672.34,748.71z M684.62,737.51c0.01-0.79,0.27-1.75-1.06-1.67c-1.4,0.08-2.18,1.06-2.41,2.22
			c-0.23,1.17,1.02,0.97,1.72,1.16C684.32,739.6,684.51,738.58,684.62,737.51z"/>
		<path d="M934.25,724.03c-4.85,3.33-9.84,2.57-15.02,0.72c-0.07,1.03-0.1,1.92-0.21,2.79c-0.22,1.71-1.05,2.99-2.92,3
			c-1.98,0.01-2.95-1.25-3.06-3.13c-0.24-4.29,0.43-8.52,1.18-12.72c0.83-4.64,1.95-9.23,2.96-13.83c0.3-1.34,0.85-2.6,1.65-3.71
			c1.06-1.47,2.45-2.29,4.21-1.26c1.59,0.93,1.84,2.43,1.08,4.02c-1.26,2.65-1.69,5.51-2.52,9.17c1.65-1.77,2.79-2.93,3.85-4.15
			c1.87-2.15,4.27-3.34,6.98-3.97c1.78-0.41,3.37,0.01,3.98,1.9c0.61,1.91-0.44,3.25-2.16,3.81c-5.32,1.74-7.7,6.37-10.48,10.57
			c-1.03,1.56-0.54,2.75,1.59,2.86c1.99,0.1,3.99,0.55,4.92-2.08c0.43-1.23,1.8-1.75,2.98-1.25c1.85,0.79,2.17-0.12,2.33-1.6
			c0.13-1.26,0.38-2.51,0.51-3.77c0.24-2.36,1.24-4.34,2.91-6c0.73-0.73,1.89-1.63,2.61-1.09c2.9,2.15,5.44-0.15,8.1-0.4
			c4.7-0.45,6.31,0.91,6.5,5.63c0.14,3.51-0.44,6.83-1.64,10.13c-0.8,2.2-1.21,4.55-1.81,6.83c-0.44,1.65-1.36,2.89-3.23,2.68
			c-1.95-0.22-2.79-1.6-2.69-3.47c0.17-3.21,1.31-6.2,2.3-9.21c0.51-1.56,0.98-3.1,0.99-4.77c0.01-1.43-0.43-1.78-1.77-1.17
			c-4.76,2.14-6.64,6.17-7.38,10.98c-0.15,0.98-0.11,2-0.3,2.97c-0.29,1.54-1.04,2.79-2.76,2.93c-1.69,0.14-2.7-0.81-3.17-2.4
			C934.66,724.74,934.45,724.44,934.25,724.03z"/>
		<path d="M183.9,454.78c0.98-0.63,1.63-1.12,2.35-1.5c4.55-2.42,8.46-0.39,8.64,4.7c0.2,5.9,0.09,11.81,0.06,17.71
			c-0.01,2.01-0.72,3.74-3.07,3.68c-2.18-0.06-2.83-1.73-2.84-3.63c-0.04-5.35-0.01-10.7-0.01-15.99c-1.26-0.33-1.52,0.52-1.9,1.04
			c-2.27,3.08-4.11,6.42-5.66,9.92c-0.44,1-0.81,2.03-1.35,2.97c-1.12,1.98-2.52,3.76-5.13,3.19c-2.7-0.59-2.62-2.88-2.62-5.01
			c0-1.8,0-3.6,0-5.62c-2.24,1.06-3.62,3.12-5.27,4.8c-2.74,2.8-5.91,4.05-9.82,3.62c-3.75-0.41-5.62-2.22-5.67-5.96
			c-0.03-2.9,0.1-5.79,0.17-8.69c0.01-0.27,0.06-0.54,0.14-0.8c1.09-3.45,7.37-7.47,10.97-7.02c2.68,0.33,4.04,1.88,4.03,4.56
			c-0.03,4.97-2.47,7.64-7.45,8.18c-0.69,0.07-1.58-0.12-1.72,0.9c-0.11,0.79-0.34,1.71,0.19,2.37c0.59,0.75,1.53,0.43,2.29,0.24
			c1.1-0.27,1.83-1.14,2.62-1.89c1.64-1.56,3.23-3.19,4.94-4.68c1.03-0.89,2.43-1.87,3.71-1.16c2.61,1.46,2.64-0.45,2.88-1.97
			c0.38-2.43,1.43-4.47,3.14-6.21c1.17-1.19,2.37-2.36,4.25-1.78C183.6,451.34,183.81,452.91,183.9,454.78z"/>
		<path d="M227.51,454.69c8.76-2.99,11.96-2,14.52,4.85c1.41-4.25,5.7-4.84,8.1-7.82c1.66-2.06,4.76-1.39,7.2-0.47
			c2.19,0.83,2.55,2.86,2.61,4.96c0.14,4.83-0.69,9.4-3.48,13.46c-2.37,3.45-5.82,3.74-9.47,3.06c-3.22-0.6-4.7-2.84-4.93-6.67
			c-2.01,3.56-4.88,5.32-7.82,7.05c-2.58,1.52-5.34,2.24-8.28,2.4c-3.37,0.19-5.6-0.67-7.65-4.1c-2.02-3.37-1.4-5.91-0.38-8.88
			c1.03-3,2.27-5.93,3.28-8.94c0.71-2.11,1.47-4.17,0.72-6.59c-0.61-1.98,1.23-4.03,3.24-4.22c2-0.19,3.36,1.17,3.57,3.56
			C228.98,449.19,227.9,451.86,227.51,454.69z M236.08,462.4c-0.07-3.17-1.87-4.17-4.68-2.46c-3.15,1.92-4.62,5.25-6.46,8.22
			c-0.69,1.11,0.37,1.33,1.29,1.24c3.58-0.38,6.46-2.21,9.1-4.49C236.07,464.28,236.14,463.33,236.08,462.4z M253.7,457.84
			c-4.19,1.08-5.61,2.81-5.49,6.67c0.03,0.82-0.43,1.97,0.82,2.3c1.16,0.3,2.15-0.1,2.76-1.2
			C253.12,463.2,253.96,460.68,253.7,457.84z"/>
		<path d="M986.87,240.84c1.47-0.93,2.29-2.32,3.19-3.66c0.98-1.45,2.34-2.11,3.99-1.27c1.69,0.86,1.97,2.55,1.16,3.99
			c-3.18,5.69-7.18,10.86-13.05,13.87c-5.71,2.93-11.75,0.03-13.11-5.83c-1.26,0.59-1.61,1.91-2.37,2.82
			c-3.23,3.87-7.91,5.08-13.07,3.27c-4.28-1.5-6.08-4.43-6.16-9.8c-0.07-4.33,0.77-8.48,2.23-12.53c0.62-1.73,1.71-3,3.68-3.21
			c1.58-0.17,2.95,0.27,3.67,1.76c0.68,1.4,0.05,2.47-0.88,3.67c-2.95,3.77-3.04,8.26-2.2,12.65c0.46,2.42,5.62,2.94,7.45,0.8
			c2.13-2.48,4.06-5.16,4.01-8.69c-0.02-1.43,0.62-2.5,1.95-2.97c1.9-0.67,2.87-1.98,3.4-3.88c0.7-2.51,2.56-3.6,5.11-3.67
			c3.87-0.1,7.13,1.42,9.79,4.05C988.11,234.64,987.41,237.73,986.87,240.84z M977.84,240.22c2.17,0.38,3.08-0.96,3.21-2.71
			c0.17-2.31-1.98-2.83-3.47-2.93c-2.65-0.19-1.79,2.38-2.15,3.79C974.93,240.37,976.74,239.99,977.84,240.22z M982.24,246.23
			c-2.06,0-3.75,0-5.45,0c-0.61,0-1.34-0.2-1.45,0.73c-0.11,0.89,0.47,1.33,1.23,1.5C978.81,248.96,980.57,248.19,982.24,246.23z"/>
		<path d="M181.85,394.78c-0.64-3.99,0.12-6.45,2.2-7.05c2.62-0.76,3.77,0.96,4.66,3.24c2.2-1.85,4.23-3.64,6.86-4.5
			c5.07-1.65,7.49,0.03,7.6,5.34c0.08,3.63,0.1,7.26,0.15,10.9c0.03,1.93-0.55,3.54-2.76,3.64c-2.11,0.09-3.14-1.31-3.24-3.27
			c-0.14-2.72-0.08-5.45-0.17-8.17c-0.02-0.67,0.36-1.6-0.5-1.93c-0.77-0.29-1.3,0.49-1.85,0.91c-1.67,1.25-2.41,3.15-3.35,4.9
			c-0.9,1.68-1.71,3.41-2.67,5.06c-0.93,1.59-2.28,2.66-4.25,2.29c-1.97-0.36-2.49-1.88-2.62-3.65c-0.02-0.33-0.21-0.65-0.54-1.62
			c-1.06,1.28-1.84,2.27-2.67,3.22c-4.55,5.17-10.56,4.92-16,2.87c-2-0.75-3.28-2.19-3.72-4.35c-1.65-7.99,2.38-16.8,9.5-20.68
			c0.24-0.13,0.48-0.27,0.73-0.36c2.8-0.94,5.87-1.95,8.2,0.44c2.36,2.41,1.01,5.32-0.29,7.85c-2.25,4.37-5.13,8.02-10.72,7.91
			c-1.02-0.02-1.5,0.42-1.49,1.46c0.01,1.02-0.08,2.13,1.17,2.46c2.5,0.65,5.04,1.12,7.19-0.94c1.24-1.19,2.54-2.36,3.59-3.72
			C178.15,395.36,179.44,393.97,181.85,394.78z"/>
		<path d="M138.27,391.88c1.09-1.43,2.12-2.92,3.28-4.29c2.07-2.45,4.62-4.09,7.95-4.16c3.24-0.07,4.98,1.24,5.44,4.47
			c0.85,5.97,0.63,11.96-0.13,17.93c-0.16,1.26-0.26,2.53-0.41,3.79c-0.21,1.77-1.15,2.9-3,2.89c-1.86-0.01-2.79-1.22-2.96-2.95
			c-0.11-1.07-0.1-2.2,0.11-3.26c0.9-4.59,0.82-9.22,0.74-13.85c-0.01-0.84,0.42-2.04-0.68-2.38c-0.94-0.29-1.68,0.6-2.24,1.3
			c-3.07,3.85-5.57,8.07-7.9,12.39c-0.56,1.04-1.09,2.11-1.76,3.07c-1.13,1.62-2.64,2.62-4.66,1.73c-1.99-0.87-2.06-2.71-1.56-4.44
			c0.78-2.65,1.12-5.31,1.16-8.05c0.03-1.74-0.59-2.08-2.08-1.47c-0.5,0.21-1.04,0.33-1.56,0.48c-4.28,1.29-4.26,1.3-4.76,5.87
			c-0.09,0.8-0.26,1.63-0.57,2.37c-0.55,1.3-1.61,1.99-3.05,1.77c-1.41-0.22-2.26-1.14-2.41-2.57c-0.09-0.81-0.09-1.65,0.03-2.45
			c0.27-1.8-0.41-2.48-2.23-2.29c-0.97,0.1-2.03,0.04-2.97-0.23c-1.78-0.53-2.8-1.81-2.38-3.71c0.43-1.95,1.78-2.89,3.82-2.62
			c0.44,0.06,0.86,0.3,1.3,0.38c2.2,0.43,3.75-0.01,3.76-2.71c0.01-2.08,0.15-4.17,0.29-6.25c0.08-1.17,0.13-2.37,0.43-3.49
			c0.42-1.58,1.55-2.49,3.25-2.24c1.7,0.25,2.48,1.42,2.47,3.07c-0.02,2.54-0.12,5.09-0.15,7.63c-0.01,0.53,0.03,1.48,0.2,1.52
			c2,0.43,3.79-0.82,5.81-0.77c1.15,0.03,0.68-1.26,0.75-1.98c0.12-1.26,0.04-2.55,0.2-3.8c0.2-1.62,1.1-2.76,2.83-2.77
			c1.84,0,2.88,1.16,2.94,2.93c0.1,2.97,0.03,5.95,0.03,8.93C137.82,391.73,138.05,391.8,138.27,391.88z"/>
		<path d="M997.58,342.19c-3.41,3.19-6.94,6.4-10.39,9.72c-2.87,2.76-4.45,2.86-7.46,0.08c-2.87,5.03-7.52,5.18-12.4,4.28
			c-3.94-0.72-5.57-3.08-5.82-7.04c-0.37-5.94,1.16-11.34,4.16-16.37c2.1-3.53,5.08-4.81,8.76-4c1.39,0.3,2.3,1.1,2.49,2.52
			c0.18,1.43-0.44,2.76-1.82,2.97c-6.76,1.03-6.21,6.75-7.44,11.33c-0.09,0.34-0.08,0.74-0.01,1.08c0.25,1.28-0.84,3.18,1.35,3.59
			c2.06,0.39,4.23,0.65,5.53-1.68c0.93-1.67,1.88-3.32,2.77-5c0.47-0.9,0.88-2.1,1.87-2.2c2.61-0.26,2.78-2.22,3.12-4.05
			c0.44-2.41,0.71-4.85,1.12-7.26c0.35-2.07,1.29-3.79,3.73-3.38c2.32,0.39,2.56,2.25,2.3,4.23c-0.5,3.68-0.83,7.38-2.2,11.58
			c2.58-1.65,3.98-3.59,5.51-5.36c1.25-1.45,2.46-2.94,4.15-3.89c3.69-2.09,6.81-0.36,6.9,3.83c0.06,2.72-0.01,5.45,0.06,8.18
			c0.04,1.63,0.37,2.91,2.6,2.15c1.72-0.58,3.37-0.22,3.96,1.77c0.6,2.03-0.6,3.3-2.29,4.1c-4.27,2.01-9.2-0.5-10.03-5.2
			C997.73,346.06,997.72,343.91,997.58,342.19z"/>
		<path d="M126.02,324.97c-2.33,0.89-4.24,1.68-6.2,2.35c-1.14,0.4-1.13,1.27-1.15,2.19c-0.04,1.72-0.01,3.46-0.18,5.17
			c-0.17,1.74-1.18,2.91-3.03,2.85c-1.72-0.05-2.57-1.21-2.74-2.84c-0.1-0.9-0.14-1.82-0.09-2.72c0.11-2.15,0.27-4.12-2.73-4.58
			c-1.41-0.22-2.18-1.62-1.97-3.17c0.21-1.56,1.21-2.55,2.77-2.43c2.01,0.16,1.98-1.04,1.92-2.38c-0.15-3.06,0.22-5.96,2.29-8.45
			c1.3-1.56,2.81-2.58,4.68-1.38c1.96,1.25,1.56,3.04,0.44,4.76c-0.35,0.53-0.79,1.04-0.97,1.63c-0.49,1.57-1.04,3.57,0.04,4.67
			c0.9,0.92,2.4-0.62,3.6-1.16c2.5-1.13,4.79-2.48,5.88-5.25c0.28-0.73,0.91-1.36,1.49-1.92c1.17-1.13,2.58-1.44,3.97-0.5
			c1.41,0.96,1.31,2.29,0.89,3.87c-1,3.83-3.03,7.42-2.83,11.82c1.6-0.97,2.2-2.51,3.05-3.78c1.38-2.07,2.94-3.93,4.96-5.37
			c1.91-1.36,4.05-1.7,6.19-0.68c2.05,0.97,2.19,2.93,2.15,4.91c-0.03,1.63-0.02,3.27,0,4.9c0.02,1.96-0.66,4.18,2.51,4.61
			c1.07,0.15,1.42,1.55,1.26,2.74c-0.2,1.41-1.11,2.26-2.35,2.77c-3.51,1.43-7.17-0.84-7.44-4.74c-0.17-2.51-0.03-5.04-0.68-7.85
			c-1.65,2.41-3.36,4.78-4.93,7.24c-1.46,2.3-2.74,4.71-4.14,7.04c-1.16,1.93-2.76,3.27-5.16,2.56c-2.23-0.66-2.51-2.58-2.58-4.6
			C124.81,333.24,125.54,329.31,126.02,324.97z"/>
		<path d="M956,291.6c-2.67,4.26-5.95,8.11-8.09,12.74c-0.69,1.48-1.34,2.99-2.53,4.16c-1.28,1.25-2.79,1.76-4.48,1.1
			c-1.65-0.65-2.28-2.07-2.16-3.74c0.32-4.62,0.71-9.23,0.53-13.86c-0.01-0.36-0.06-0.72-0.09-1.22c-1.29,0.15-1.82,1.16-2.41,1.97
			c-2.93,3.96-5.48,8.13-6.92,12.89c-0.43,1.41-0.96,2.77-2.45,3.42c-1.95,0.86-4.3-0.14-4.33-2.26
			c-0.08-6.58-1.24-13.27,1.58-19.63c0.49-1.09,0.97-2.18,2.13-2.72c0.97-0.46,1.94-0.42,2.83,0.23c1.08,0.78,1.28,1.88,1.2,3.14
			c-0.07,1.06-0.99,1.95-0.55,3.29c1.72-2.28,3.39-4.43,5.56-6.1c1.38-1.06,2.82-1.98,4.63-2.14c2.93-0.26,4.71,1.2,4.89,4.13
			c0.09,1.36,0.03,2.72,0.03,4.09c0,1.34,0,2.69,0,4.61c1.61-1.25,2.26-2.61,3.06-3.81c2.23-3.31,4.33-6.72,7.46-9.32
			c1.33-1.11,2.74-1.87,4.48-1.16c1.87,0.76,2.35,2.4,2.36,4.23c0.02,3.91,0.03,7.81,0.01,11.72c-0.01,1.28-0.08,2.46,1.39,3.19
			c1.05,0.53,1.41,1.66,1.15,2.83c-0.29,1.28-1.17,1.96-2.44,2.27c-3.63,0.87-6.09-0.99-6.14-4.75c-0.04-2.99-0.01-5.99-0.01-8.98
			C956.45,291.8,956.22,291.7,956,291.6z"/>
		<path d="M122.24,455.17c1.96-1.52,3.35-2.71,3.98-4.65c0.66-2.03,2.52-3.06,4.19-4.09c1.09-0.68,2.34-0.34,3.2,0.66
			c1.1,1.29,0.99,2.77,0.07,4.03c-1.9,2.61-2.57,5.54-2.75,9.04c1.71-1.38,2.39-3.15,3.51-4.55c1.68-2.11,3.51-3.95,6.44-4.09
			c2.97-0.14,4.73,1.23,4.85,4.24c0.16,3.9,0.03,7.81,0.04,11.71c0,0.85-0.36,1.77,0.85,2.3c1.97,0.86,2.34,2.54,1.53,4.31
			c-0.93,2.04-2.82,2.8-4.97,2.59c-2.03-0.2-3.47-1.37-3.52-3.49c-0.08-3.36,0.08-6.72,0.14-10.08c0.02-1.08,0-2.16,0-3.62
			c-1.62,0.94-2.16,2.3-2.85,3.47c-1.66,2.82-3.38,5.6-5.42,8.16c-1.28,1.6-2.81,2.64-4.96,1.88c-2.13-0.76-2.32-2.55-2.29-4.46
			c0.04-2.25,0.01-4.5,0.01-6.79c-1.75,0.07-2.61,0.81-2.82,2.62c-0.3,2.61-0.87,5.19-1.41,7.76c-0.18,0.87-0.49,1.77-0.96,2.52
			c-0.94,1.47-2.36,2.07-3.99,1.29c-1.53-0.73-1.93-2.1-1.42-3.69c0.76-2.34,1.24-4.73,1.52-7.18c0.14-1.16,0.16-1.85-1.3-2.03
			c-1.53-0.19-2.39-1.3-2.4-2.85c-0.01-1.58,0.95-2.73,2.41-2.85c2.1-0.17,2.19-1.34,2.12-2.94c-0.08-1.9,0-3.81,0.03-5.72
			c0.03-1.8,0.68-3.38,1.83-4.73c1.14-1.34,2.59-1.76,4.12-0.83c1.48,0.9,1.68,2.42,0.94,3.83
			C121.69,449.46,122.22,452.04,122.24,455.17z"/>
		<path d="M990.92,712.37c0.15-1.95,0.96-3.4,3.25-3.48c1.27-0.04,1.44-1.26,1.97-2.04c2.41-3.6,5.15-6.6,10-6.46
			c3.7,0.11,5.27,1.92,4.7,5.62c-0.69,4.47-4.91,8.81-9.48,9.78c-0.91,0.19-2.2,0.02-2.02,1.57c0.16,1.37,1.33,1,2.14,1.03
			c4,0.16,7.62-0.46,9.62-4.6c0.55-1.14,1.72-1.67,3.01-1.31c1.37,0.38,2.07,1.37,2.16,2.81c0.11,1.87-0.72,3.33-1.92,4.65
			c-4.7,5.15-12.78,5.44-17.72,3.76c-2.81-0.96-3.56-3.37-3.45-6.16c0.05-1.36,0.51-2.99-1.74-3.62c-0.05,3.13-2.12,3.66-4.63,3.59
			c-0.45-0.01-0.91,0.02-1.36,0.03c-5.78,0.11-5.78,0.11-6.07,5.98c-0.06,1.27-0.02,2.55-0.13,3.81c-0.15,1.74-1.02,2.99-2.88,3.01
			c-1.87,0.02-2.82-1.21-2.9-2.96c-0.09-2.17,0.01-4.36,0.05-6.53c0.04-1.95,0.85-3.91-0.17-5.87c-0.2-0.39-0.09-1.23,0.21-1.54
			c2.86-2.98,2.95-7.12,4.53-10.63c0.82-1.82,1.51-3.71,2.85-5.24c2.01-2.29,5.59-2.95,8.2-1.52c1.32,0.72,2.12,1.79,1.79,3.33
			c-0.33,1.55-1.52,2.47-2.99,2.19c-2.47-0.47-3.21,1.01-3.87,2.81c-0.06,0.17-0.13,0.34-0.19,0.51c-0.64,1.98-2.27,4.39-1.66,5.84
			c0.79,1.85,3.72,0.47,5.67,0.9C988.87,711.84,989.81,712.1,990.92,712.37z"/>
		<path d="M262.51,391.15c2.27-1.54,4.39-2.31,6.55-3.01c1.25-0.4,2.48-0.68,3.65,0.14c0.59,0.41,1.08,0.43,1.75,0.17
			c2.26-0.9,3.65,0.11,4.53,2.39c0.74-1.18,1.34-2.27,2.06-3.27c1.57-2.19,3.45-4.01,6.25-4.48c3.2-0.54,5.37,1.38,5.1,4.61
			c-0.29,3.44-1.73,6.46-3.69,9.25c-0.45,0.64-0.92,1.26-1.25,2.02c2.48-1.38,5.17-2.46,6.26-5.48c0.52-1.44,1.71-2.14,3.26-1.81
			c1.7,0.36,2.37,1.66,2.28,3.25c-0.05,0.96-0.36,1.98-0.8,2.85c-2.56,4.94-10.97,9.18-16.38,8.34c-2.35-0.36-4.16-1.38-4.55-3.95
			c-0.15-1.01-0.74-1.58-1.5-2.14c-1.48-1.09-2.94-2.35-3.42-4.13c-0.56-2.11-1.54-2.11-3.29-1.45c-3,1.12-4.98,3.25-6.5,5.92
			c-1.31,2.29-2.51,4.63-3.87,6.88c-1.12,1.86-2.75,3.02-5.02,2.24c-2.08-0.71-2.47-2.56-2.34-4.46c0.39-5.65,1.1-11.23,4.55-16.02
			c1.04-1.44,2.15-2.82,4.21-2.34C262.61,387.18,262.47,389.06,262.51,391.15z"/>
		<path d="M442.89,78.66c-2.69,2.9-4.26,5.85-5.75,8.85c-1.29,2.61-2.51,5.25-4.2,7.63c-2.02,2.86-4.5,3.75-7.57,2.83
			c-2.8-0.84-4.41-2.99-4.51-6.39c-0.28-9.56,0.35-19.07,1.47-28.56c0.18-1.53,0.6-3.04,1.37-4.4c0.8-1.4,1.96-2.24,3.6-1.69
			c1.76,0.58,2.33,2.03,1.93,3.72c-2.19,9.27-2.21,18.73-2.36,28.17c-0.02,0.94-0.33,1.99,0.57,3.02c1.63-1.43,2.4-3.37,3.26-5.18
			c2.1-4.46,4.56-8.68,7.71-12.49c0.64-0.77,1.27-1.55,1.96-2.27c1.51-1.57,3.24-2.78,5.55-2.07c2.34,0.72,2.6,2.87,2.87,4.84
			c0.67,5.06,0.75,10.14,0.71,15.24c-0.01,1.32-0.25,2.69,0.31,4.09c1.33-0.24,1.31-1.37,1.63-2.24c0.54-1.48,1.57-2.24,3.13-2.01
			c1.55,0.23,2.32,1.3,2.54,2.8c0.7,4.7-5.7,9.81-10.12,8.06c-1.75-0.69-2.65-2.1-3.09-3.88c-0.74-2.96-0.42-5.97-0.51-8.96
			C443.3,84.91,443.63,82.01,442.89,78.66z"/>
		<path d="M1044.83,326.83c1.36,0,2.74-0.14,4.07,0.04c1.49,0.19,2.52,1.13,2.59,2.71c0.08,1.7-0.9,2.74-2.5,3.08
			c-0.97,0.21-2.01,0.07-2.98,0.27c-1.23,0.26-3.02-0.62-3.56,1.12c-0.59,1.91-0.75,3.92,0.99,5.57c2.27,2.15,2.91,4.94,2.85,7.96
			c-0.03,1.55-0.63,2.8-1.75,3.85c-3.52,3.31-10.82,3.85-14.65,0.85c-1.13-0.89-1.5-0.31-2.18,0.28c-3.47,3.02-7.32,3.3-11.44,1.54
			c-2.7-1.16-4.08-3.11-4.01-6.15c0.07-3.06,0.89-6.28-2.21-8.7c-1.17-0.91-1.09-2.69,0.05-3.96c1.05-1.18,2.43-1.34,3.68-0.44
			c1.26,0.9,1.69,0.23,2.24-0.75c1.02-1.84,2.32-3.46,3.91-4.86c2.04-1.81,4.42-2.45,7.08-2.06c2.19,0.32,3.39,1.57,3.42,3.85
			c0.06,5.04-4.66,10.91-9.57,11.84c-1.03,0.2-2.36,0.02-2.34,1.63c0.02,1.38-0.87,3.02,0.59,4.04c1.29,0.89,2.78,0.69,4.1-0.22
			c0.85-0.59,1.41-1.37,1.78-2.35c0.48-1.3,1.4-2.16,2.85-2.14c1.45,0.02,2.43,0.83,2.7,2.24c0.22,1.16,0.92,1.27,1.89,1.47
			c1.7,0.36,3.35,0.79,5.1,0.52c2.86-0.45,3.63-1.97,1.57-3.98c-3.42-3.33-3.32-7.29-2.69-11.39c0.67-4.32,2.14-5.49,6.53-5.65
			c0.64-0.02,1.27-0.06,1.91-0.09C1044.83,326.9,1044.83,326.87,1044.83,326.83z"/>
		<path d="M514.35,73.67c0.89-0.9,1.83-1.76,2.67-2.7c2.55-2.85,5.74-4.19,9.51-3.62c1.94,0.3,2.4-0.48,2.53-2.1
			c0.16-1.9,0.38-3.79,0.65-5.68c0.26-1.81,0.89-3.47,3.08-3.53c2.36-0.06,3.13,1.67,3.27,3.59c0.19,2.62,0.14,5.26,0.15,7.9
			c0.01,7.81,0.01,15.62,0,23.44c0,3.63-0.88,5.15-2.97,5.19c-2.19,0.05-3.1-1.5-3.11-5.32c0-1.42,0-2.84-0.42-4.37
			c-1.08,2.14-2.03,4.36-3.25,6.41c-2.81,4.74-6.07,6.09-11.49,4.97c-3.69-0.76-5.27-2.62-5.5-6.37
			c-0.35-5.68,0.66-11.03,3.77-15.89c0.29-0.45,0.46-0.98,0.68-1.48C514.05,73.98,514.2,73.83,514.35,73.67z M515.5,88.73
			c0.51,0.85-0.84,2.64,1.15,3.19c2.01,0.56,3.54-0.18,4.48-2.07c0.16-0.32,0.39-0.61,0.55-0.94c2.01-4.15,3.92-8.35,5.14-12.81
			c0.68-2.5-0.12-3.28-2.65-2.66c-0.82,0.2-1.49,0.64-2.09,1.2C518.05,78.37,515.67,82.88,515.5,88.73z"/>
		<path d="M407.63,627.34c-0.9,0.43-1.03,1.2-1.39,1.79c-3.14,5.05-6.26,6.17-13.14,4.85c-2.62-0.5-4.03-2.44-4.14-5.09
			c-0.19-4.36-0.14-8.71,0.96-12.99c2.12-8.23,6.73-11.39,15.1-10.11c1.19,0.18,1.17-0.41,1.3-1.13c0.37-1.96,0.67-3.94,1.13-5.88
			c0.37-1.55,1.37-2.63,3.06-2.59c1.81,0.05,2.8,1.19,3.06,2.91c0.16,1.07,0.19,2.17,0.19,3.26c0.02,7.63,0.02,15.27,0.02,22.9
			c0,1.34-0.04,2.43,2.01,2.08c1.77-0.3,2.88,0.99,3.12,2.72c0.3,2.09-0.76,3.51-2.65,4.25c-3.02,1.18-6.63-0.5-7.82-3.63
			C408.06,629.69,407.92,628.59,407.63,627.34z M394.99,623.25c-0.05,4.93,1.2,6.15,3.98,4.83c1.02-0.48,1.63-1.42,2.16-2.39
			c1.49-2.75,2.18-5.76,2.9-8.77c0.56-2.32-0.16-4.47-2.12-5.38c-2.22-1.03-3.69,0.94-4.74,2.68
			C395.35,617.28,395.1,620.75,394.99,623.25z"/>
		<path d="M407.24,555.39c-0.78,1.7-1.39,3.11-2.06,4.5c-1.84,3.86-4.92,5.31-9.12,4.83c-4.08-0.47-6.47-2.52-7.17-6.59
			c-0.67-3.87-0.59-7.79-0.32-11.68c0.2-2.97,1.94-5.25,4-7.23c1.25-1.2,2.79-1.41,4.17-0.2c1.31,1.14,1.4,2.75,0.33,3.91
			c-3.66,3.95-2.43,8.66-2.29,13.2c0.04,1.21,0.37,2.32,1.94,2.52c1.49,0.2,2.4-0.39,3.08-1.65c1.4-2.59,1.92-5.47,2.74-8.24
			c0.64-2.17,1.11-4.4,1.76-6.57c0.53-1.78,1.59-3.17,3.65-3.06c2.01,0.11,3.04,1.47,3.37,3.35c0.4,2.32,0.72,4.66,1.09,6.99
			c0.47,2.98,1.4,5.81,2.76,8.51c0.58,1.15,1.4,1.91,2.76,1.81c1.31-0.1,1.41-1.27,1.74-2.16c1.39-3.67,2.13-7.5,2.51-11.4
			c0.21-2.09,0.54-4.18,1.94-5.85c1.15-1.37,2.61-2.1,4.31-1.01c1.57,1.01,1.72,2.53,0.84,4.06c-1.18,2.07-1.13,4.38-1.43,6.61
			c-0.5,3.72-1.49,7.28-2.83,10.77c-0.97,2.53-2.19,4.82-5.39,5.05c-3.75,0.27-7.16-0.3-9.2-3.87
			C409.25,559.93,408.37,557.75,407.24,555.39z"/>
		<path d="M206.04,265.65c0.05-1,0.2-2,0.14-2.99c-0.18-3.26-1.45-3.51-4.46-3.33c-6.62,0.4-7.17,4.83-7.47,9.73
			c-0.08,1.36-0.01,2.74-0.21,4.08c-0.25,1.69-1.19,2.93-3.06,2.84c-1.82-0.09-2.72-1.29-2.85-3.05c-0.23-2.92,0.15-5.81,0.67-8.67
			c0.2-1.1,0.15-1.69-1.1-2.26c-2.63-1.21-2.7-4.09-0.08-5.42c1.71-0.87,2.11-1.95,2.04-3.64c-0.07-1.63-0.11-3.3,0.8-4.77
			c0.92-1.48,2.27-2.16,3.95-1.54c1.61,0.6,1.97,1.93,1.7,3.56c-0.82,4.94-0.79,4.97,3.88,3.37c1.54-0.53,3.05-1.18,4.52-1.88
			c1.72-0.82,3.39-1.51,4.98,0.16c0.83,0.88,1.24,0.06,1.75-0.36c2.11-1.72,4.52-2.11,6.88-0.89c2.45,1.26,2.22,3.78,2.01,6.05
			c-0.36,3.84-2.5,6.26-6.15,6.92c-1.15,0.21-1.92,0.52-1.83,1.81c0.08,1.1-0.64,2.48,0.83,3.14c1.2,0.54,2.53,0.72,3.5-0.45
			c1.39-1.68,2.66-3.46,4.01-5.16c1.27-1.6,2.83-2.95,4.83-1.39c1.96,1.52,1.16,3.39-0.05,5.06c-1.17,1.62-2.36,3.23-3.59,4.8
			c-3.21,4.11-9.1,4.85-13.29,1.7C206.4,271.55,205.9,269.98,206.04,265.65z"/>
		<path d="M1055.54,716.99c0.1-1.99,0.15-3.99,0.33-5.98c0.15-1.65-0.5-1.72-1.88-1.35c-6.73,1.76-6.74,1.73-6.8,8.68
			c-0.01,1.63,0.15,3.27-0.32,4.88c-0.54,1.86-1.61,3.18-3.69,2.82c-2.15-0.37-2.5-1.97-2.32-3.93c0.23-2.53,0.21-5.07,0.37-7.61
			c0.07-1.15-0.27-1.65-1.5-1.58c-1.99,0.1-3.46-0.73-3.49-2.89c-0.03-2.15,1.47-3.05,3.39-3.13c1.73-0.08,2.08-0.95,2.05-2.46
			c-0.06-2.81-0.04-5.63,0.05-8.44c0.06-2,1.01-3.47,3.06-3.99c1.23-0.32,2.36-0.06,3.23,0.92c0.79,0.9,0.97,2,0.42,3.05
			c-1.27,2.42-0.46,5-0.68,7.49c-0.12,1.34,0.61,1.52,1.69,1.22c0.96-0.27,1.91-0.59,2.89-0.79c0.88-0.17,2.21-0.62,2.62-0.22
			c2.54,2.48,4.34,0.2,6.51-0.62c3.71-1.41,9.82,2.84,10.35,7.14c0.73,5.94-0.53,11.37-4.48,16.03c-2.14,2.52-5.27,3.45-8.36,2.37
			c-3.08-1.08-3.48-3.64-3.46-6.41c0.01-1.73,0-3.45,0-5.18C1055.51,716.99,1055.53,716.99,1055.54,716.99z M1061.83,722.98
			c3.39-3.48,4.35-7.17,3.96-11.32c-0.14-1.53-1.21-1.82-2.49-1.91c-0.95-0.07-1.32,0.38-1.34,1.25
			C1061.87,714.77,1061.29,718.53,1061.83,722.98z"/>
		<path d="M369.8,73.81c7.87,2.33,10.31,10.39,5.26,16.5c-3.37,4.07-7.8,6.52-12.88,7.68c-3.18,0.73-6.45,1.07-9.68,1.5
			c-1.8,0.24-3.4-0.26-3.78-2.24c-0.41-2.1,0.91-3.27,2.81-3.65c2.85-0.57,5.74-0.89,8.59-1.44c3.85-0.74,7.18-2.49,9.88-5.37
			c1.45-1.54,1.9-3.35,1.09-5.27c-0.77-1.82-2.55-1.35-4.06-1.45c-2.39-0.16-4.44,0.57-6.27,2.13c-1.32,1.12-2.78,2.06-4.44,2.62
			c-1.75,0.59-3.5,0.71-4.6-1.1c-1.1-1.81-0.55-3.54,0.91-4.92c1.82-1.71,4.16-2.51,6.34-3.63c4.46-2.29,7.01-6.42,9.44-10.59
			c0.64-1.1-0.32-1.53-1.17-1.56c-4.27-0.19-8.55-0.17-12.59,1.42c-1.89,0.75-3.61,1.24-4.73-0.79c-1.08-1.96-0.07-3.87,1.72-4.54
			c6.56-2.49,13.37-3.49,20.09-0.89c3.16,1.22,3.95,5.15,2.38,8.75C373.07,69.39,371.36,71.42,369.8,73.81z"/>
		<path d="M607.24,383.75c-2.98,2.79-5.71,4.54-9.34,4.34c-4.28-0.24-5.82-1.73-5.9-6.06c-0.11-5.7,2.47-10.16,6.59-13.77
			c3.16-2.77,7.57-3.07,11.16-1.11c0.39,0.21,0.79,0.47,1.21,0.56c3.96,0.79,4.66,1.32,4.28,5.31c-1.07,11.27-3.41,22.26-8.61,32.42
			c-3.05,5.95-10.78,8.84-17.11,6.75c-1.45-0.48-2.3-1.47-2.16-3.06c0.14-1.59,1.17-2.49,2.65-2.65c1.8-0.19,3.63-0.13,5.44-0.18
			c2.23-0.06,4.13-0.84,5.25-2.85C603.99,397.53,606.03,391.19,607.24,383.75z M598.21,379.9c-0.12,2.45,1.07,2.21,2.19,1.49
			c2.4-1.54,4.07-3.81,5.56-6.19c0.49-0.78,1.47-1.58,0.47-2.61c-0.92-0.94-2.06-0.68-3.01-0.14
			C600.38,374.18,599.04,377.08,598.21,379.9z"/>
		<path d="M590.87,77.44c3.55-2.76,6.7-5.6,11.42-5.64c3.1-0.02,5.18,1.2,6.63,3.84c5.63,10.21-1.45,22.47-13.1,22.6
			c-2.44,0.03-4.96,0.35-7.12-1.21c-1.09-0.79-1.38,0.14-1.88,0.72c-1.03,1.19-2.27,1.91-3.84,1.21c-1.7-0.75-2.02-2.28-1.75-3.9
			c1.18-6.98,2.38-13.96,3.66-20.93c0.61-3.33,0.62-6.68,0.67-10.05c0.03-2.05,0.45-4.05,3.01-4.01c2.53,0.03,2.9,2.04,2.96,4.08
			C591.66,68.59,591.45,73,590.87,77.44z M595.21,92.17c6.64-0.06,10.7-5.22,9.14-11.46c-0.72-2.87-1.93-3.51-4.49-2.13
			c-3.37,1.81-5.8,4.64-7.64,7.92c-0.91,1.61,0.24,3.42,0.19,5.17C592.38,92.57,594.31,91.97,595.21,92.17z"/>
		<path d="M722.52,92.06c-3.93,4.66-8.56,5.35-13.68,3.91c-3.61-1.02-5.15-3.22-5.32-6.97c-0.23-5.2,0.7-10.12,3.15-14.74
			c1.92-3.62,5.06-4.54,8.91-4.51c3.18,0.03,5.7,0.81,7.28,3.75c0.9,1.68,1.3,3.38-0.42,4.64c-1.7,1.24-3.19,0.48-4.5-1
			c-1.97-2.24-5-1.74-6.32,0.98c-1.28,2.65-1.99,5.44-2.01,8.41c-0.01,3.48,0.84,4.28,4.32,3.95c1.69-0.16,2.81-1.17,3.88-2.31
			c4.01-4.27,6.49-9.4,8.14-14.95c1.68-5.67,2.85-11.45,3.76-17.29c0.39-2.54,2.23-3.73,4.2-2.91c1.56,0.65,1.98,1.98,1.98,3.55
			c0.01,3.77-1.02,7.37-1.89,10.98c-1.3,5.38-2.77,10.72-4.22,16.07c-0.63,2.3-1.02,4.6-0.95,6.99c0.05,1.87-0.01,3.8-2.29,4.38
			C724.43,95.55,723.37,94.16,722.52,92.06z"/>
		<path d="M453.04,551.75c-2.16,2.79-3.29,6.07-5.49,8.74c-2.11,2.57-4.64,4.05-8.06,3.45c-2.28-0.4-3.99-1.66-4.16-4.04
			c-0.44-6.37-0.21-12.72,2.07-18.79c2.04-5.44,8.27-7.93,13.55-5.36c1.07,0.52,1.25,0,1.63-0.59c1.04-1.59,2.39-2.54,4.35-1.87
			c2.06,0.71,2.53,2.4,2.48,4.36c-0.12,5.26-0.21,10.52-0.33,15.78c-0.03,1.46-0.18,2.76,2.1,2.19c1.43-0.36,2.7,0.47,3.33,1.83
			c0.74,1.59,0.6,3.18-0.47,4.63c-1.48,2-5.17,2.96-7.97,2.12c-2.78-0.83-3.05-3.03-3.04-5.41
			C453.05,556.45,453.04,554.1,453.04,551.75z M441.43,557.3c0.4-0.02,0.52,0.01,0.56-0.03c4.1-4.49,5.54-10.31,7.85-15.69
			c0.16-0.36,0.06-0.69-0.34-0.89c-1.41-0.69-5.91,1.19-6.45,2.81C441.56,547.94,441,552.49,441.43,557.3z"/>
		<path d="M540.96,690.82c-3.62,3.95-7.64,5.09-12.24,4.67c-4.38-0.4-6.5-2.58-6.69-6.98c-0.2-4.68,0.59-9.03,3.63-12.78
			c1.57-1.94,3.49-3.19,6.03-3.22c3.35-0.03,6.74-0.32,10.05,0.35c1.58,0.32,2.04-0.18,2.28-1.65c0.36-2.23,0.87-4.45,1.48-6.63
			c0.61-2.16,1.77-3.94,4.4-3.52c2.68,0.43,3.02,2.47,2.91,4.74c-0.19,4.03-1.13,7.91-2.6,11.64c-2.37,6.02-3.29,12.22-2.78,18.66
			c0.15,1.84-0.4,3.37-2.38,3.67c-2.06,0.31-3.31-0.98-3.66-2.86C541.05,695.17,541.11,693.35,540.96,690.82z M536.19,678.58
			c-5.69-0.01-7.69,1.78-8.05,6.96c-0.04,0.54,0.02,1.09-0.04,1.63c-0.16,1.6,0.46,2.18,2.14,2.3c3.86,0.29,5.92-2.43,8.19-4.68
			c1.32-1.31,3.7-2.48,2.81-4.79C540.31,677.51,537.72,679.06,536.19,678.58z"/>
		<path d="M781.67,605.21c0.11,7.65-1.76,14.74-6.22,21.05c-3.69,5.22-8.75,7.12-14.99,6c-4.3-0.77-6.84-3.4-7.03-7.76
			c-0.27-6.23,0.75-12.31,2.76-18.21c0.33-0.96,0.78-2.18,1.73-2.32c2.71-0.41,3.5-2.67,4.71-4.47c3.29-4.93,8.02-5.88,13.41-5.04
			c3.16,0.49,5.34,2.89,5.62,6.13C781.79,602.11,781.67,603.67,781.67,605.21z M775.67,606.54c0-1.44,0-2.07,0-2.71
			c-0.01-3.45-0.57-3.94-3.97-3.46c-2.98,0.41-5.8,3.88-6.31,7.94c-0.18,1.45-0.53,3.13-2.03,3.11c-2.85-0.03-2.94,1.9-3.18,3.72
			c-0.35,2.69-0.5,5.4-0.71,8.11c-0.15,1.89,0.85,2.81,2.65,3.11c3.78,0.65,6.5-0.96,8.56-3.97
			C774.11,617.37,775.59,611.76,775.67,606.54z"/>
		<path d="M576.04,376.2c-4.21,4.61-7.78,9.29-10.85,14.33c-1.33,2.18-2.74,4.29-4.46,6.17c-1.66,1.82-3.71,2.83-6.09,1.81
			c-2.25-0.96-2.17-3.17-2.04-5.19c0.25-3.73,1.15-7.35,2.21-10.92c0.98-3.3,2.1-6.57,3.18-9.84c0.61-1.84,1.62-3.45,3-4.81
			c1.23-1.21,2.68-1.67,4.15-0.51c1.45,1.15,1.48,2.73,0.51,4.15c-2.99,4.38-3.53,9.63-5.09,14.61c1.95-2.7,3.87-5.42,5.85-8.11
			c1.61-2.19,3.25-4.37,4.93-6.51c1.02-1.3,2.26-2.37,3.79-3.05c3.19-1.42,5.53-0.29,6.42,3.09c0.85,3.21,0.5,6.5,0.59,9.76
			c0.04,1.63-0.01,3.27,0.09,4.9c0.07,1.25,0.37,2.21,2.08,2.16c1.95-0.06,2.97,1.29,3.08,3.14c0.1,1.89-1.06,3.03-2.78,3.57
			c-2.31,0.72-4.92-0.4-6.59-2.76c-1.67-2.34-1.95-5.03-1.96-7.79C576.03,381.68,576.04,378.94,576.04,376.2z"/>
		<path d="M916.97,247.07c2.21-4.21,3.95-8.49,6.46-12.4c1.74-2.71,3.92-4.76,7.18-5.41c4.34-0.87,6.8,0.78,7.67,5.12
			c0.76,3.78,0.38,7.61,0.45,11.42c0.05,2.72,0.05,5.45-0.03,8.18c-0.06,1.92-0.88,3.47-3.04,3.46c-2.14-0.02-2.98-1.49-2.99-3.47
			c-0.03-4.63-0.01-9.27-0.03-13.9c0-1-0.02-2-0.09-3c-0.15-2.08-1.23-1.98-2.45-0.89c-0.73,0.65-1.27,1.53-1.8,2.36
			c-3.1,4.86-4.82,10.36-7.13,15.58c-1.58,3.57-3.23,4.86-5.96,4.42c-2.77-0.45-4.42-2.59-4.46-6.25
			c-0.09-6.63-0.03-13.26-0.03-19.9c0-2.63,0.8-5.01,2.38-7.11c1.04-1.38,2.38-2.06,4.03-1.19c1.65,0.88,1.98,2.48,1.2,3.99
			C915.1,234.26,917.52,240.74,916.97,247.07z"/>
		<path d="M708.98,623.16c-5.12,0.01-5.14,0.01-6.05,5c-0.23,1.24-0.27,2.52-0.37,3.78c-0.13,1.66-0.95,2.79-2.64,2.95
			c-1.84,0.18-2.91-0.92-3.28-2.6c-0.34-1.52-0.16-3.07,0.12-4.6c1.29-7.04,2.84-14.02,4.85-20.89c0.66-2.25,0.84-4.63,1.37-6.93
			c0.48-2.06,1.41-4.06,3.97-3.51c2.65,0.57,2.28,2.74,2.02,4.84c-0.58,4.71-2.04,9.2-3.25,13.75c-0.48,1.81,0.08,2.15,1.76,2.2
			c8.15,0.26,8.23,0.24,9.14-7.82c0.27-2.43,0.43-4.88,0.64-7.32c0.16-1.85,0.64-3.6,1.9-5c1.03-1.15,2.37-1.36,3.72-0.64
			c1.28,0.69,1.66,1.9,1.35,3.27c-1.4,6.29-1.5,12.76-2.6,19.06c-0.74,4.23-1.29,8.59-2.64,12.72c-0.6,1.84-1.79,3.08-3.86,2.53
			c-2.11-0.55-2.43-2.21-1.97-4.12c0.08-0.35,0.18-0.7,0.26-1.06C714.66,623.15,714.66,623.15,708.98,623.16z"/>
		<path d="M491.31,610.81c-1.99,0.24-3.66,0.28-4.49-1.58c-0.75-1.69,0.2-2.99,1.23-4.17c0.95-1.09,1.94-2.17,3.03-3.12
			c1.28-1.12,2.73-1.79,4.5-1.02c1.78,0.78,2.15,2.31,2.22,4.02c0.14,3.47-0.35,6.88-1.04,10.27c-0.18,0.88-0.48,1.74-0.17,2.88
			c1.6-2.9,3.11-5.65,4.64-8.4c1.35-2.44,3.27-4.34,5.67-5.75c1.7-1,3.54-1.47,4.85,0.41c1.32,1.89,0.32,3.45-1.36,4.6
			c-4.63,3.18-6.42,8.15-8.3,13.07c-0.47,1.24-0.2,1.89,1.25,1.88c2.29-0.02,4.54-0.19,6.67-1.1c1.39-0.6,2.49-1.4,2.61-3.14
			c0.12-1.67,1.1-2.73,2.84-2.66c1.68,0.06,2.55,1.18,2.92,2.75c0.63,2.66-0.76,5.66-3.82,7.51c-5.1,3.1-10.63,3.5-16.26,1.88
			c-1.33-0.38-1.95-0.53-2.77,0.75c-1.02,1.6-2.7,2.14-4.55,1.47c-1.78-0.65-2.34-2.12-2.33-3.91c0.02-5.22,1.88-10.15,2.44-15.29
			C491.13,611.81,491.2,611.46,491.31,610.81z"/>
		<path d="M865.21,187.1c-2.4,3.06-4.21,6.5-6.09,9.89c-1.41,2.55-2.91,5.03-4.98,7.12c-1.48,1.49-3.21,2.16-5.19,1.29
			c-1.89-0.83-2.02-2.6-2-4.4c0.03-2.65,0.6-5.22,1.05-7.82c0.62-3.58,1.13-7.17,1.64-10.76c0.22-1.55,0.65-3.02,1.29-4.43
			c0.78-1.71,2.09-2.59,3.95-1.9c1.74,0.65,2.25,2.19,1.67,3.81c-1.3,3.66-1.04,7.52-2.03,11.58c1.34-0.63,1.58-1.63,2.03-2.4
			c2.16-3.71,4.58-7.21,7.79-10.1c1.49-1.34,3.16-2.28,5.2-1.49c2.15,0.83,2.42,2.77,2.43,4.75c0.02,5,0.05,10,0.01,14.99
			c-0.02,2.02,0.4,3.36,2.9,3.11c1.66-0.17,2.82,0.77,3.02,2.48c0.21,1.79-0.79,2.9-2.41,3.51c-3.79,1.43-9.04-1.96-9.38-6.26
			c-0.26-3.25-0.13-6.54-0.16-9.81c-0.01-0.98,0-1.95,0-2.93C865.7,187.24,865.46,187.17,865.21,187.1z"/>
		<path d="M657.31,635.51c-0.73,0-1.45,0.02-2.18,0c-4.48-0.14-6.7-2.2-6.9-6.67c-0.12-2.62-0.16-5.01-2-7.34
			c-2.08-2.64-1.05-9.27,1.75-11.03c5.44-3.42,11.25-5.97,17.87-2.91c1.8,0.83,2.85,2.13,3.08,4.13c0.76,6.56-3.8,15.85-12.66,14.76
			c-1.05-0.13-2.03-0.16-2,1.4c0.02,1.39,0.81,1.57,1.95,1.62c2.86,0.11,5.56-0.13,8.08-1.77c1.89-1.23,3.95-2.26,6.22-2.65
			c1.64-0.28,3.18-0.01,3.73,1.86c0.51,1.77-0.34,2.93-1.95,3.69c-2.29,1.09-4.55,2.25-6.81,3.39
			C662.8,635.34,661.87,635.52,657.31,635.51z M656.65,620.4c3.27,0.03,6.28-3.14,6.15-6.17c-0.02-0.58-0.12-1.01-0.66-1.34
			c-2.36-1.46-5.64-0.38-6.53,2.22c-0.29,0.85-0.47,1.74-0.77,2.59C654.12,619.71,654.81,620.59,656.65,620.4z"/>
		<path d="M452.19,376.97c1.5-1.1,2.47-1.86,3.49-2.55c1.52-1.02,3.17-1.74,5.01-2.01c5.4-0.79,7.2,0.58,7.52,6.02
			c0.16,2.71,0.18,5.45,0.05,8.17c-0.17,3.6-2.22,6.15-5.66,7.17c-3.37,1-6.86,0.77-10.28,0.45c-2.34-0.22-6.97-5.46-6.77-7.57
			c0.99-10.5,1.04-21.02,1.11-31.55c0.01-0.79,0.23-1.63,0.55-2.36c0.75-1.71,2.1-2.57,3.95-1.99c1.78,0.57,2.04,2.01,1.83,3.74
			C452.12,361.77,453.13,369.11,452.19,376.97z M462.33,383.14c0-0.79,0.03-1.33-0.01-1.88c-0.07-0.88,0.34-2.03-0.53-2.53
			c-0.97-0.56-1.88,0.3-2.7,0.82c-2.43,1.54-4.05,3.88-5.91,5.98c-0.74,0.84-0.51,1.27,0.43,1.85c2.41,1.5,4.95,1.23,7.32,0.36
			C463.18,386.9,462.04,384.58,462.33,383.14z"/>
		<path d="M819.11,722.85c-2.82,4.37-6.99,4.72-11.4,4.32c-3.45-0.31-5.31-2.15-5.5-5.56c-0.22-4.11,0-8.13,1.76-12
			c2.93-6.44,5.69-8.27,12.77-7.55c1.89,0.19,2.5-0.08,2.59-2.07c0.17-3.81,1.32-5.29,3.48-5.16c2.14,0.13,2.99,1.81,2.97,5.54
			c-0.06,8.18-0.06,16.36-0.09,24.54c0,0.91-0.01,1.82-0.13,2.72c-0.24,1.72-1.11,2.94-3.01,2.87c-1.86-0.06-2.75-1.25-2.84-3.02
			c-0.07-1.35-0.01-2.71-0.01-4.06C819.5,723.24,819.31,723.04,819.11,722.85z M808.22,717.89c-0.09,3.24,0.5,3.71,3.33,3.21
			c1.4-0.25,2.19-1.22,2.93-2.24c1.35-1.86,2.01-4.04,2.71-6.19c1.32-4.12,0.15-5.4-4.11-4.58c-1.2,0.23-1.9,1.01-2.43,1.98
			C809.24,712.64,808.09,715.28,808.22,717.89z"/>
		<path d="M477.26,90.06c-1.31,0.6-1.68,1.59-2.24,2.36c-3.09,4.26-7.29,5.09-12.11,4.04c-2.91-0.63-4.48-2.34-4.66-5.27
			c-0.46-7.5,1.16-14.23,7.15-19.42c2.48-2.14,5.16-3.29,8.44-3.06c2.32,0.16,4.57,0.76,7.01,0.25c1.86-0.39,2.98,1.17,3.04,3.05
			c0.26,7.28-0.4,14.53-0.73,21.79c-0.07,1.62-1.14,2.73-2.85,2.73c-1.82,0.01-2.84-1.13-3.04-2.88
			C477.16,92.54,477.26,91.39,477.26,90.06z M464.24,87.9c0.37,0.75-0.62,2.16,0.87,2.66c1.33,0.45,2.75,0.38,3.83-0.68
			c0.84-0.82,1.6-1.74,2.29-2.69c1.82-2.51,3.23-5.26,4.37-8.14c0.44-1.13,1.74-2.59,0.81-3.45c-1.25-1.17-3.23-1.05-4.93-0.52
			c-0.66,0.21-1.24,0.73-1.81,1.18C465.95,79.15,464.6,83.19,464.24,87.9z"/>
		<path d="M116.7,260.94c-0.22-2.87,0.06-6.27,1.64-9.47c0.89-1.8,2.11-3.16,4.25-2.28c2.15,0.89,2.18,2.76,1.36,4.6
			c-1.8,4.01-1.12,8.2-1.01,12.34c0.05,1.86,0.9,3.36,2.99,3.65c2.19,0.31,2.71-1.44,3.37-2.9c0.87-1.93,1.04-4.02,1.17-6.11
			c0.12-1.94,0.68-3.77,3-3.83c2.3-0.06,3.33,1.52,3.63,3.64c0.24,1.71,0.38,3.43,0.72,5.12c0.21,1.09,0.06,2.85,1.52,2.82
			c1.3-0.03,1.4-1.76,1.62-2.86c1.04-5.07,1.91-10.16,2.35-15.32c0.16-1.81,0.68-3.24,2.64-3.59c2.06-0.37,3.57,1.38,3.41,4.16
			c-0.26,4.53-1.16,8.99-1.91,13.46c-0.35,2.06-0.7,4.12-1.6,6.03c-2.21,4.69-6.9,5.97-11.03,2.9c-1.03-0.77-1.45-0.76-2.4,0.12
			c-5.36,5-13.65,2.33-15.23-4.81C116.67,266.27,116.7,263.92,116.7,260.94z"/>
		<path d="M235.59,383.94c-1.93,1.97-2.65,4.08-3.13,6.31c-0.3,1.42,0,1.88,1.66,1.58c3.91-0.7,7.31-2.6,10.81-4.24
			c1.58-0.74,2.95-1.03,4.19,0.34c1.17,1.29,0.93,2.76-0.06,3.99c-2.75,3.41-3.09,7.46-3.23,11.56c-0.07,2.05-0.28,3.94-2.84,4.17
			c-1.96,0.18-3.2-1.37-3.21-4.15c-0.01-2.16,0.26-4.32,0.42-6.84c-2.35,0.54-4.68,1.06-6.99,1.62c-1.18,0.29-1.11,1.27-1.13,2.19
			c-0.04,1.82,0,3.64-0.12,5.44c-0.12,1.76-1.06,2.97-2.91,2.97c-1.86,0-2.72-1.23-2.89-2.99c-0.07-0.72-0.12-1.45-0.09-2.18
			c0.07-2.36,0.52-4.81-3.31-4.51c-1.35,0.11-2.14-1.28-2.11-2.72c0.04-1.57,0.96-2.71,2.46-2.79c2.58-0.13,3.12-1.44,3.28-3.79
			c0.3-4.41,2.49-8.11,5.37-11.37c2.25-2.55,5.25-2.71,8.29-2.07c1.5,0.31,2.51,1.42,2.76,3.04c0.25,1.64,0.29,3.29-0.35,4.83
			c-0.73,1.77-1.5,3.67-3.88,3.63C236.27,387.94,235.78,386.14,235.59,383.94z"/>
		<path d="M439.63,626.95c-4.55,5.29-8.83,6.13-13.76,2.85c-2.69-1.79-4.18-4.26-4.25-7.5c-0.06-3.09-0.1-6.18-0.02-9.27
			c0.08-3.26,4.1-8.37,7.16-9.25c1.32-0.38,2.57-0.23,3.42,0.98c0.82,1.17,0.67,2.4-0.1,3.56c-0.1,0.15-0.2,0.33-0.34,0.42
			c-5.46,3.09-4.03,8.32-4.02,13.09c0,2.2,1.54,3.21,3.42,3.67c2.09,0.52,2.73-1.16,3.19-2.59c1.47-4.57,2.8-9.19,4.18-13.79
			c0.18-0.61,0.27-1.25,0.49-1.83c0.64-1.7,1.8-2.75,3.72-2.54c1.9,0.21,2.87,1.45,3.09,3.26c0.12,0.99,0.13,1.99,0.14,2.99
			c0.01,6.81,0.01,13.63,0.01,20.44c0,0.36,0.01,0.73,0,1.09c-0.07,2.06-0.49,4.02-3.04,3.97c-2.32-0.05-2.83-1.85-2.95-3.84
			C439.85,630.79,440.22,628.9,439.63,626.95z"/>
		<path d="M903.66,293.22c3.51,0.5,6.24,0.11,7.13-4.12c0.43-2.01,2.24-3.27,4.45-2.16c2.09,1.05,1.88,2.97,0.96,4.71
			c-1.09,2.05-0.93,4.21-0.93,6.38c-0.01,2.54,0.03,5.09-0.03,7.63c-0.04,2-0.69,3.73-3.03,3.75c-2.33,0.01-3.02-1.64-3.03-3.7
			c0-1.63-0.08-3.27,0.01-4.9c0.08-1.48-0.46-1.84-1.91-1.68c-2.25,0.25-4.54,0.44-6.79,0.29c-2.55-0.17-3.1,0.95-2.93,3.19
			c0.14,1.89-0.03,3.81-0.08,5.72c-0.03,1.4-0.53,2.65-1.22,3.85c-0.85,1.49-2.03,2.46-3.78,1.84c-1.9-0.67-2.38-2.33-1.75-4.01
			c0.89-2.39,0.68-4.82,0.85-7.25c0.18-2.54-0.34-3.81-3.28-2.89c-1.65,0.52-3.1-0.27-3.56-2.08c-0.45-1.78,0.47-2.98,2.06-3.68
			c0.66-0.29,1.41-0.58,2.09-0.53c2.45,0.19,2.73-1.12,2.7-3.16c-0.06-3.8-0.38-7.64,0.81-11.36c0.63-1.97,1.6-3.7,4.01-3.1
			c2.51,0.62,2.45,2.71,1.89,4.63c-1.06,3.67-0.57,7.4-0.7,11.1c-0.05,1.29,0.5,1.81,1.79,1.71
			C900.82,293.31,902.28,293.28,903.66,293.22z"/>
		<path d="M464.11,682.72c4.16,0.8,5.15,2.97,2.76,5.94c-4.15,5.15-8.76,9.5-16.25,8.55c-5.57-0.71-7.86-3.16-7.74-8.77
			c0.11-5.31,1.95-9.86,5.47-13.85c4-4.53,8.98-5.9,14.74-5.04c3.14,0.47,4.49,2.32,4.24,5.54
			C467.12,677.9,465.7,680.23,464.11,682.72z M449.64,684.16c-0.23,1.22-0.48,2.17-0.58,3.14c-0.35,3.19,0.26,3.86,3.45,3.91
			c4.31,0.08,6.51-3,8.95-5.73C457.36,686.75,453.45,687.12,449.64,684.16z M459.07,675.45c-1.68,0.02-3.09,0.58-4.31,1.57
			c-0.53,0.43-1.34,0.8-1.02,1.69c0.32,0.9,0.97,1.43,2,1.54c2.29,0.25,3.42-1.2,4.45-2.86
			C461.14,675.88,460.75,675.24,459.07,675.45z"/>
		<path d="M581.97,683.1c1.59-2.18,3.1-4.42,4.77-6.53c2.56-3.25,5.53-5.8,10.08-5.35c2.75,0.27,4.07,1.55,4.27,4.33
			c0.25,3.48-0.23,6.87-1.3,10.2c-0.75,2.34-1.29,4.75-0.47,7.2c0.62,1.86,0.48,3.47-1.6,4.25c-1.89,0.72-4.08-0.5-4.58-2.72
			c-0.6-2.68-0.32-5.4,0.16-8.11c0.5-2.82,2-5.47,1.62-8.63c-1.8,0.35-2.69,1.66-3.54,2.87c-3.04,4.29-6.44,8.33-8.93,13.01
			c-0.6,1.12-1.26,2.21-2.26,3.04c-1.13,0.94-2.42,1.29-3.81,0.74c-1.43-0.56-2.01-1.73-2.07-3.22c-0.25-5.86,0.49-11.58,2.18-17.2
			c0.94-3.11,3.13-5.04,5.87-6.45c1.62-0.84,3.29-0.83,4.3,0.9c0.97,1.67,0.42,3.34-1.2,4.22
			C582.51,677.24,581.79,679.88,581.97,683.1z"/>
		<path d="M1011.39,185.25c3.02-0.23,6.58,0.08,8.94-3.28c0.67-0.95,1.87-1.12,2.98-0.64c1.21,0.52,1.78,1.54,1.72,2.84
			c-0.11,2.46-1.66,3.93-3.62,5.07c-3.54,2.06-7.47,1.97-11.38,2.1c-1.16,0.04-2.63-0.7-3.45,0.75c-0.67,1.21,0,6.01,0.96,6.67
			c1.71,1.18,2.78,2.62,1.41,4.53c-1.5,2.09-3.5,1.44-5.34,0.37c-2.61-1.52-3.1-4.06-3.21-6.8c-0.1-2.44,0.6-4.96-1.7-7.04
			c-1.1-1-0.45-2.66,0.82-3.53c1.04-0.71,1.24-1.61,1.42-2.74c1.26-8.14,5.14-14.87,11.28-20.28c5.44-4.78,9.57-1.78,12.48,2
			c0.99,1.28,0.94,2.79-0.31,3.95c-1.25,1.17-2.63,0.97-3.99,0.07c-3.52-2.36-3.45-2.28-6.5,0.94c-3.21,3.39-5.26,7.36-6.44,11.83
			c-0.84,3.17-0.83,3.18,2.44,3.19C1010.27,185.25,1010.63,185.25,1011.39,185.25z"/>
		<path d="M1047.35,188.25c-3.95-0.66-7.81,0.08-11.61,1.55c-1.99,0.77-3.01,1.95-3.23,4.16c-0.31,3.08-0.48,6.15-0.51,9.24
			c-0.02,2.79-1.19,4.33-3.17,4.16c-2.52-0.22-2.93-2.03-2.9-4.12c0.03-1.63,0-3.27,0.06-4.9c0.08-2,0.92-4.02-2.58-4.29
			c-2.24-0.18-2.48-4.2-0.09-5.03c4.62-1.6,5.15-5.42,6.46-9.14c2.08-5.93,5.17-11.41,8.81-16.52c2.63-3.69,8.83-3.03,11.05,0.99
			c0.64,1.15,0.6,2.28-0.27,3.29c-1.04,1.21-2.54,1.44-3.71,0.66c-2.29-1.54-3.18-0.23-4.1,1.54c-1.84,3.54-3.75,7.05-5.54,10.62
			c-0.37,0.74-1.12,1.73-0.47,2.5c0.6,0.71,1.52-0.09,2.28-0.25c2.77-0.58,5.56-0.94,8.38-0.63c0.89,0.1,1.8,0.3,2.62,0.64
			c1.5,0.62,2.35,1.79,1.96,3.45C1050.4,187.86,1049.08,188.37,1047.35,188.25z"/>
		<path d="M812.48,198.02c-0.75,1.11-1.25,1.84-1.75,2.57c-2.38,3.49-5.76,4.55-9.76,3.82c-3.16-0.57-5.14-2.77-5.23-6.06
			c-0.14-4.9-0.08-9.8-0.01-14.7c0.03-2.33,1.03-4.4,2.2-6.36c0.89-1.49,2.25-2.2,3.93-1.51c1.75,0.72,2.21,2.42,1.46,3.88
			c-2.65,5.19-1.32,10.7-1.6,16.07c-0.05,0.96-0.53,2.36,1.03,2.71c1.3,0.29,2.33-0.37,2.99-1.45c1.93-3.17,3.95-6.31,4.76-10.03
			c0.45-2.04,0.89-4.08,1.52-6.07c0.57-1.79,1.79-3.03,3.85-2.73c2.06,0.3,2.88,1.81,2.9,3.71c0.07,4.72,0.06,9.44,0.04,14.16
			c-0.01,1.34,0.03,2.24,1.77,2.71c2.32,0.63,2.61,3.31,0.8,4.99c-2.43,2.26-7.01,1.14-8.13-2.03
			C812.91,200.68,812.81,199.58,812.48,198.02z"/>
		<path d="M431.26,672.45c8.57-0.78,10.36,3.14,7.41,11.23c-0.34,0.92-0.95,1.74-1.46,2.6c-0.38,0.63-0.72,1,0.17,1.73
			c3.06,2.51,3.14,5.78,0.4,8.59c-4.46,4.58-13.81,3.72-17.19-1.71c-0.93-1.5-1.88-2.75-3.45-3.62c-1.4-0.79-2.34-2.06-2.05-3.82
			c0.26-1.56,1.3-2.33,2.85-2.39c1.39-0.06,1.18-1.21,1.29-2.01c0.32-2.38,0.98-4.6,2.38-6.57
			C424.1,672.96,427.58,671.96,431.26,672.45z M431.01,678.51c-3.92-0.01-6.45,2.99-5.95,6.92c0.16,1.26,0.89,1.16,1.74,0.98
			c2.86-0.61,4.85-2.35,6.14-4.9C434.25,678.95,433.95,678.52,431.01,678.51z M427.76,692.69c1.71,0.76,3.37,0.96,4.95,0.04
			c0.52-0.3,0.74-0.74,0.53-1.36c-0.27-0.77-0.73-0.56-1.27-0.34C430.57,691.61,429.16,692.14,427.76,692.69z"/>
		<path d="M560.17,625.09c2.4-1.89,4.03-3.83,5.28-6.02c1.41-2.48,3.29-4.57,5.06-6.75c1.45-1.78,3.36-2.56,5.58-1.84
			c2.31,0.75,2.66,2.75,2.66,4.86c0,4.18-0.02,8.36,0.03,12.55c0.01,0.85-0.34,2.34,1.5,1.33c1.71-0.93,3.21-0.55,4.19,1.15
			c0.99,1.71,0.2,4.02-1.66,5.19c-3.98,2.5-9.53-0.5-10.03-5.55c-0.23-2.25-0.09-4.54-0.11-6.81c-0.01-0.96,0-1.92-0.3-3.02
			c-2.06,2.91-4.1,5.73-6.54,8.23c-2.38,2.45-5.17,3.66-8.61,2.92c-1.64-0.35-2.97-1.25-3.11-3c-0.52-6.45-0.73-12.8,5.36-17.27
			c2.16-1.58,4.14-1.99,5.28-0.47c1.51,2,0.55,3.72-1.09,4.94C560.54,617.88,559.65,620.93,560.17,625.09z"/>
		<path d="M775.05,716.35c-0.07-7.45,0.96-14.63,4.48-21.36c2.16-4.13,5.16-7.45,8.72-10.31c2.17-1.73,4.22-1.67,5.25,0
			c1.31,2.13-0.03,3.43-1.51,4.86c-5.7,5.49-10.06,11.75-10.48,20.02c-0.2,3.9-0.23,7.81-0.39,11.71c-0.12,2.87,1.3,4.35,4.02,4.89
			c3.41,0.68,6.86,0.61,10.31,0.7c1.63,0.04,3.28,0.02,4.9,0.2c1.52,0.17,2.51,1.13,2.55,2.71c0.04,1.59-0.9,2.72-2.41,2.81
			c-6.25,0.35-12.55,0.9-18.65-1.05c-4.42-1.41-6.63-4.56-6.77-9.17C774.99,720.34,775.05,718.34,775.05,716.35z"/>
		<path d="M902.18,240.45c-0.14,5.93-0.63,11.78-4.14,16.9c-1.65,2.41-3.85,3.77-6.81,3.87c-4.2,0.15-6.6-1.75-6.88-5.96
			c-0.53-7.93,0.64-15.75,2.21-23.5c0.21-1.03,0.83-2.02,1.42-2.92c2.86-4.37,9.47-4.07,12.1,0.51
			C902.06,232.81,902.32,236.59,902.18,240.45z M896.11,240.4c-0.07-1.81,0.01-3.61-0.35-5.42c-0.29-1.45-1.35-1.63-2.38-1.79
			c-1.49-0.22-1.11,1.17-1.26,1.89c-0.43,1.95-0.68,3.93-0.99,5.9c-0.64,4.04-0.79,8.12-0.79,12.21c0,0.68-0.21,1.59,0.78,1.78
			c0.8,0.15,1.37-0.41,1.79-1.02c0.46-0.67,0.94-1.35,1.25-2.1C895.68,248.19,896.15,244.34,896.11,240.4z"/>
		<path d="M389.45,693.97c0-4.54,0-9.08,0-13.62c0-1.74,0.22-3.45,1.01-5.02c1.11-2.21,2.81-2.78,4.89-1.46
			c2.13,1.35,4.42,0.62,6.62,0.68c2.47,0.06,4.6,0.57,6.49,2.26c3.43,3.07,3.7,7.12,0.44,10.46c-3.1,3.18-6.71,5.66-11.16,6.38
			c-1.87,0.3-2.11,1.14-2.09,2.68c0.05,4.09,0.01,8.17-0.02,12.26c-0.01,1.4-0.28,2.73-1.65,3.52c-2.14,1.23-4.5-0.28-4.57-3.15
			c-0.12-4.99-0.03-9.99-0.03-14.98C389.41,693.97,389.43,693.97,389.45,693.97z M400.46,680.65c-1.45,0.32-3.85-0.97-3.91,2.12
			c-0.03,1.57-1.32,3.81,0,4.52c1.45,0.79,3.36-0.69,4.86-1.72c0.22-0.15,0.48-0.27,0.66-0.47c0.95-0.99,2.99-1.54,2.51-3.14
			C404.05,680.14,402.02,680.78,400.46,680.65z"/>
		<path d="M785.97,207.21c-4.7-0.05-6.56-1.91-7.18-6.23c-1.1-7.6-0.69-15.24-0.89-22.87c-0.07-2.49-0.82-3.21-3.22-2.52
			c-3.03,0.87-6.33,0.21-9.3,1.72c-1.1,0.56-2.37,0.1-3.12-1.01c-0.79-1.17-0.69-2.43,0.05-3.6c1.14-1.79,2.98-2.29,4.93-2.44
			c7.35-0.59,14.61-1.63,21.71-3.72c1.29-0.38,2.65-0.74,4.03-0.52c1.58,0.25,2.77,1.03,2.86,2.78c0.09,1.71-0.89,2.69-2.49,3.08
			c-2.64,0.65-5.29,1.3-7.94,1.92c-0.92,0.22-1.74,0.4-1.63,1.69c0.67,7.79-0.29,15.64,0.96,23.41c0.17,1.04-0.02,2.28,1.66,2.25
			c2.13-0.03,4.02,0.65,3.85,3.14C790.05,207.11,787.68,207.15,785.97,207.21z"/>
		<path d="M178,260.44c0,1.14,0.01,2.05,0,2.96c-0.02,1.51-0.13,2.86,2.14,2.92c1.35,0.03,2.07,1.33,2.16,2.76
			c0.12,1.83-0.65,3.18-2.27,4c-2.29,1.16-5.06,0.67-6.59-1.44c-0.94-1.29-1.41-1.28-2.34-0.11c-2.6,3.25-6.1,4.01-10.05,3.44
			c-3-0.44-4.71-1.94-4.91-4.92c-0.39-5.96,0.92-11.51,4.33-16.54c3.27-4.84,13.31-6.16,17,1.53
			C178.36,256.88,177.82,258.8,178,260.44z M162.16,266.85c0.22,0.55-0.41,1.55,0.59,2c0.87,0.39,1.77,0.17,2.57-0.36
			c1.08-0.72,1.81-1.75,2.5-2.82c1.35-2.1,1.71-4.55,2.41-6.88c0.82-2.72,0.14-3.43-2.66-2.95c-1.3,0.22-2.05,1.07-2.68,2.09
			C163.22,260.61,162.56,263.6,162.16,266.85z"/>
		<path d="M973.2,191.75c0.12-3.93,0.8-7.69,2.14-11.43c2.4-6.7,16.61-7.45,19.99-1.55c2.16,3.77,1.27,7.79,1.11,11.7
			c-0.12,2.92-1.34,5.61-3.05,8.04c-3.73,5.3-9.77,6.84-15.6,3.96c-2.55-1.26-4.13-3.2-4.35-6.1
			C973.31,194.83,973.27,193.29,973.2,191.75z M990.55,186.99c0.04-5.86,0.04-5.85-5.23-5.32c-0.54,0.05-1.1,0.08-1.63,0
			c-1.81-0.26-2.61,0.71-3.15,2.27c-0.99,2.88-1.28,5.83-1.21,8.84c0.04,1.76-0.43,3.81,1.97,4.51c2.4,0.71,4.63,0.66,6.43-1.49
			C989.95,193.14,990.68,190.05,990.55,186.99z"/>
		<path d="M928.93,192.86c0.14-2.03,0.3-4.3,0.47-6.56c0.08-1.01,0.09-1.79-1.38-1.45c-1.63,0.38-2.91-0.29-3.41-1.93
			c-0.49-1.61,0.17-3.26,1.62-3.63c4.96-1.24,4.31-5.06,4.23-8.59c-0.06-3.03,1.01-5.5,3.13-7.55c1.3-1.25,2.83-1.82,4.38-0.51
			c1.54,1.3,1.43,3.05,0.19,4.36c-2.5,2.65-1.38,5.87-1.66,8.83c-0.14,1.53,1.3,0.84,2.04,0.72c3.22-0.54,6.42-1.2,9.64-1.75
			c1.16-0.2,2.35-0.27,3.52-0.29c1.76-0.02,3.07,0.77,3.26,2.6c0.19,1.88-1.06,2.79-2.76,3.12c-4.46,0.85-8.9,1.81-13.38,2.46
			c-2.51,0.36-3.38,1.3-3.45,3.96c-0.12,4.54-0.4,9.07-0.36,13.61c0.02,2.13-0.55,3.99-3.05,3.95c-2.48-0.04-3.02-1.95-3.03-4.04
			C928.91,197.82,928.93,195.45,928.93,192.86z"/>
		<path d="M601.27,759.38c-9.26,0.58-8.54-2.8-8.35-9.78c0.05-1.75,1.06-2.93,2.91-2.96c1.87-0.03,2.73,1.18,3.02,2.89
			c0.67,3.96,0.67,3.99,4.65,3.71c1.35-0.1,2.7-0.34,4.04-0.58c1.01-0.18,2.54,0.15,2.83-0.96c0.27-1.03-1.08-1.77-1.84-2.5
			c-0.85-0.81-1.77-1.59-2.78-2.18c-6.11-3.59-5.21-12.57-1.21-16.38c3.91-3.72,10.29-3.53,13.55,0.6c1.17,1.49,1.74,3.13,0.25,4.66
			c-1.53,1.57-3.16,1.03-4.54-0.35c-1.7-1.7-3.43-2.02-5.17-0.2c-1.7,1.78-1.62,4.87,0.26,6.29c2.4,1.81,4.75,3.64,6.54,6.09
			c3.48,4.75,1.89,9.24-3.84,10.42C608.15,758.86,604.66,759.58,601.27,759.38z"/>
		<path d="M237.09,328.75c1.67,0.08,3.25,0.24,3.74,2.12c0.47,1.79-0.62,2.92-1.86,3.91c-3.81,3.05-7.8,5.63-13.05,5.01
			c-4.42-0.51-6.65-2.85-6.68-7.32c-0.02-2.17,0.16-4.31-1.3-6.23c-0.62-0.82-0.56-2.18,0.28-2.75c1.8-1.21,2.28-3.16,3.25-4.84
			c1.07-1.86,2.7-2.9,4.9-2.88c2.89,0.02,5.8-0.25,8.59,0.89c3.67,1.49,4.74,3.39,3.81,7.25
			C238.39,325.48,237.72,326.97,237.09,328.75z M228.44,325.49c2.17,0.21,4.13-0.11,4.05-2.31c-0.07-2.06-2.2-1.09-3.44-1.32
			c-1.77-0.33-3.12,0.27-3.13,2.26C225.91,326.21,227.75,325.16,228.44,325.49z M232.6,331.57c-2.41,0-4.1-0.01-5.78,0
			c-0.61,0-1.37-0.18-1.45,0.76c-0.08,0.89,0.46,1.31,1.3,1.39C228.65,333.91,230.43,333.46,232.6,331.57z"/>
		<path d="M973.11,300.14c0.27-1.51,0.41-3.31-2.41-3.88c-1.31-0.26-1.75-1.77-1.43-3.16c0.32-1.43,1.4-2.36,2.73-2.2
			c2.44,0.3,2.82-1.19,3.26-2.96c0.57-2.29,1.23-4.56,2.34-6.66c1.47-2.77,3.59-3.74,6.56-3.11c2.36,0.5,4.01,2.54,4.31,5.32
			c0.61,5.54-1.6,9.49-6.91,12.41c-2,1.1-3.16,4.41-2.26,6.45c0.53,1.19,1.65,1.19,2.56,0.89c1.43-0.46,2.1-1.66,1.93-3.18
			c-0.07-0.62-0.46-1.2-0.52-1.82c-0.19-2.17,1.71-3.61,3.75-2.88c1.48,0.53,2.34,1.68,2.79,3.14c1.03,3.33-1.31,8.42-4.66,10.22
			c-3.03,1.62-8.41,0.67-10.6-1.86C972.97,305.05,973.09,302.86,973.11,300.14z"/>
		<path d="M681.25,81.84c0-1.36-0.03-2.73,0.01-4.09c0.09-3.13,0.52-5.5,3.96-7.48c3.38-1.94,6.48-2.52,10.03-2.25
			c3.84,0.29,5.55,2.49,4.93,6.23c-0.22,1.34-0.55,2.68-1.04,3.94c-1.91,4.97-4.46,6.56-9.81,6.37c-0.74-0.03-1.97-0.82-2.04,0.82
			c-0.05,1.16-0.21,2.34,1.22,3.01c2.32,1.07,5.16,0.4,6.6-1.74c0.78-1.17,1.79-1.86,3.21-1.47c1.36,0.38,2.1,1.38,2.22,2.79
			c0.23,2.61-1.1,4.38-3.26,5.49c-3.97,2.02-8.05,2.08-12.07,0.13c-2.58-1.25-3.98-3.38-4.02-6.31c-0.02-1.82,0-3.63,0-5.45
			C681.21,81.84,681.23,81.84,681.25,81.84z M690.53,78.5c2.26-0.04,2.73-1.81,3.15-3.42c0.34-1.3-0.83-1.1-1.57-1.1
			c-1.61-0.01-3.68,1.91-3.6,3.35C688.59,78.67,689.75,78.3,690.53,78.5z"/>
		<path d="M898.21,769.86c1.52-1.15,1.89-2.4,2.41-3.52c1.06-2.31,1.99-4.67,3.05-6.98c0.91-1.97,2.3-3.39,4.68-2.8
			c2.28,0.57,2.7,2.41,2.7,4.47c-0.02,6-0.01,11.99,0,17.99c0,2.09-0.46,4.03-2.96,4.06c-2.49,0.04-3.05-1.91-3.1-3.98
			c-0.05-2.17-0.01-4.33-0.01-7.32c-1.53,2.22-2.62,3.82-3.73,5.4c-1.03,1.45-2.29,2.58-4.13,2.86c-2.93,0.44-4.76-0.99-4.93-3.93
			c-0.28-4.74,0.28-9.43,0.98-14.1c0.32-2.14,1.39-3.93,2.77-5.53c1.25-1.45,2.79-2.21,4.52-0.86c1.58,1.23,1.53,2.93,0.37,4.35
			C898.5,762.8,899.08,766.23,898.21,769.86z"/>
		<path d="M613.73,87.96c0.09-4,0.42-7.97,1.97-11.74c2.18-5.3,7.5-8.74,13.14-8.47c2.44,0.12,3.81,2.28,2.51,4.4
			c-0.73,1.19-0.48,1.82,0.09,2.84c3.25,5.79,0.73,17.59-4.58,21.49c-2.95,2.16-6.21,1.8-9.35,0.6c-2.84-1.08-3.6-3.63-3.77-6.4
			C613.69,89.78,613.73,88.87,613.73,87.96z M619.76,87.84c0.45,1.25-0.96,3.39,1.52,3.92c2.17,0.47,3.03-1.24,3.85-2.75
			c1.68-3.08,1.7-6.45,1.39-9.79c-0.15-1.62-1.65-3.05-2.8-3.39c-1.21-0.37-1.87,1.62-2.38,2.83
			C620.13,81.55,619.9,84.62,619.76,87.84z"/>
		<path d="M462.55,614.04c2.35-2.38,4.75-4.24,7.54-5.63c5.39-2.68,8.76-0.86,9.57,4.99c0.77,5.5-0.19,11.05,0.67,16.56
			c0.3,1.91-1.15,3.05-3,3.17c-2.05,0.14-3.32-1.02-3.38-3.07c-0.11-4.08-0.03-8.17-0.1-12.25c-0.02-1.31,0.53-3.28-0.73-3.72
			c-1.24-0.43-2.6,1.03-3.58,2.09c-2.99,3.23-5.22,6.93-6.84,11.03c-1,2.54-2.82,3.4-4.58,2.43c-1.25-0.69-1.68-1.83-1.67-3.19
			c0.03-4.9,0.04-9.8,0.07-14.7c0-0.45,0.04-0.91,0.13-1.35c0.39-1.98,1.04-3.93,3.53-3.65c2.53,0.29,2.66,2.32,2.51,4.35
			C462.62,612.08,462.6,613.06,462.55,614.04z"/>
		<path d="M907.19,389.28c2.02-2.49,3.84-4.72,5.64-6.96c1.2-1.49,2.44-2.93,4.02-4.04c1.5-1.04,3.08-1.35,4.38,0.21
			c1.27,1.53,0.83,3.1-0.51,4.36c-3.33,3.12-5.75,7.01-8.82,10.34c-1.26,1.37-1.15,2.35,0.05,3.67c1.46,1.61,2.81,3.3,4.49,4.72
			c1.53,1.29,2.31,3,0.75,4.74c-1.43,1.6-3.06,1.05-4.63-0.06c-2.26-1.6-3.92-3.76-5.62-5.89c-0.69-0.87-1.28-1.21-2.13-0.22
			c-1.63,1.91-4.05,3.05-5.07,5.58c-0.55,1.37-1.84,2.04-3.37,1.58c-1.48-0.45-2.14-1.63-2.18-3.12c-0.04-1.64,0.73-2.98,1.8-4.14
			c0.8-0.86,1.7-1.64,2.57-2.43c4.28-3.87,4.33-6.06,0.18-10.25c-1.23-1.24-1.75-2.63-0.7-4.13c1.05-1.51,2.58-1.49,4.14-0.79
			C904,383.29,904.79,384.35,907.19,389.28z"/>
		<path d="M490.9,554.62c0-0.91-0.07-1.82,0.02-2.72c0.14-1.48,0.16-2.63-1.94-2.61c-1.41,0.01-2.27-1.11-2.37-2.54
			c-0.1-1.44,0.69-2.72,1.98-2.91c3.94-0.59,3.8-3.54,3.85-6.29c0.07-3.53,0.57-6.87,2.72-9.79c1.24-1.69,2.62-3.43,4.89-2.01
			c2.23,1.4,1.65,3.49,0.31,5.2c-2.35,3.01-1.49,6.63-2.11,9.97c-0.24,1.27,0.78,1.22,1.6,1.19c2-0.07,3.99-0.18,5.98-0.28
			c3.37-0.16,6.74-0.16,9.88,1.32c1.8,0.85,3.13,2.19,2.2,4.31c-0.86,1.98-2.59,1.95-4.41,1.25c-4.98-1.91-10.09-0.13-15.13-0.47
			c-1.18-0.08-1.21,0.92-1.24,1.72c-0.09,2.36-0.19,4.72-0.15,7.08c0.04,2.96-0.9,4.57-2.91,4.71c-2.11,0.14-3.22-1.46-3.25-4.65
			c-0.01-0.82,0-1.64,0-2.45C490.85,554.62,490.87,554.62,490.9,554.62z"/>
		<path d="M187.46,320.27c3.23-2.58,5.88-4.59,9.46-4.79c3.9-0.21,5.77,1.33,6.11,5.2c0.52,5.93-0.59,11.76-1.19,17.61
			c-0.17,1.63-1.29,2.63-2.99,2.58c-1.72-0.06-2.61-1.24-2.83-2.81c-0.36-2.55,0.14-5.07,0.62-7.56c0.47-2.44,0.31-4.88,0.35-7.33
			c0.03-1.35-0.62-1.61-1.7-1c-2.26,1.26-4.15,2.93-5.43,5.21c-1.33,2.37-2.62,4.77-3.91,7.16c-0.88,1.63-2.03,2.93-4.09,2.29
			c-1.94-0.61-2.24-2.28-1.97-3.99c0.65-4.22,1.13-8.44,1.27-12.72c0.04-1.3,0.66-2.63,1.22-3.86c0.74-1.65,2.04-2.65,3.93-2.04
			c1.96,0.64,2.16,2.24,1.78,4C188.02,318.66,187.85,319.07,187.46,320.27z"/>
		<path d="M478.98,381.79c0.06-1.18,0.08-2.36,0.2-3.53c0.66-6.61,1.79-7.95,8.27-9.66c2.23-0.59,4.04-2.3,6.64-2.01
			c3.62,0.4,5.14,1.68,5.15,5.27c0.02,5.81-1.18,11.34-4.05,16.46c-2.38,4.24-5.42,5.5-10.33,4.27c-3.87-0.97-5.59-3.35-5.81-8.08
			c-0.04-0.91-0.01-1.81-0.01-2.72C479.02,381.79,479,381.79,478.98,381.79z M485.08,381.6c0.02,0,0.04,0,0.06,0
			c0,0.72-0.03,1.45,0.01,2.17c0.07,1.24-0.11,2.61,1.66,2.94c1.59,0.3,2.5-0.34,3.23-1.73c1.74-3.34,2.76-6.85,3.01-10.6
			c0.1-1.49-0.34-2.24-1.79-1.12c-0.96,0.75-2.03,1.2-3.17,1.45c-1.87,0.4-2.79,1.45-2.79,3.38
			C485.29,379.26,485.15,380.43,485.08,381.6z"/>
		<path d="M863.98,772.15c-0.16-4.43,0.28-8.33,2.24-11.99c2.65-4.96,7.2-4.87,11.82-4.65c3.93,0.19,6.08,2.95,7.98,5.87
			c0.84,1.29,0.37,2.73-0.93,3.58c-1.5,0.98-3.05,0.64-4.18-0.64c-1.57-1.77-3.15-3-5.79-2.82c-2.14,0.15-3.38,0.93-4.1,2.85
			c-1.44,3.78-1.03,7.7-0.82,11.58c0.08,1.56,1.48,2.14,2.9,2.44c2.81,0.6,5.6,0.48,8.35-0.26c1.92-0.52,3.79-0.63,4.5,1.63
			c0.74,2.37-0.88,3.53-2.86,4.15c-4.37,1.35-8.82,1.36-13.12-0.08c-3.68-1.23-5.78-3.96-5.96-7.95
			C863.92,774.48,863.98,773.12,863.98,772.15z"/>
		<path d="M615.58,692.64c-0.89-0.1-2.25-0.18-3.58-0.42c-3.04-0.56-4.45-2.14-4.5-5.19c-0.03-2.19-0.22-4.23-1.31-6.26
			c-1.06-1.98-0.7-4,1.84-4.76c1.16-0.35,1.49-1.24,1.97-2.07c2.51-4.39,6.97-4.78,11.19-3.76c2.28,0.56,2.92,2.54,2.7,4.74
			c-0.52,5.11-3.73,8.64-8.79,9.71c-0.6,0.13-1.43-0.02-1.44,0.87c-0.01,1.07,0.94,0.96,1.61,0.98c2.38,0.09,4.71,0.02,6.54-1.92
			c1.19-1.26,2.69-1.69,4.1-0.41c1.55,1.41,1.34,3.15,0.17,4.65C623.55,692.07,619.86,692.54,615.58,692.64z"/>
		<path d="M555.18,688.36c0.36-5.19,0.97-10.3,4.97-14.23c0.06-0.06,0.16-0.12,0.18-0.2c0.83-3.08,2.7-4.71,5.98-4.03
			c3.62,0.76,6.11,3.12,6.88,6.61c1.57,7.11-0.55,13.33-5.87,18.25c-2.57,2.37-5.83,2.42-8.95,1.06
			C555.08,694.39,555.08,691.37,555.18,688.36z M561.22,687.38c0.29,1.07-0.44,2.23,0.58,2.9c0.68,0.45,1.42-0.01,1.93-0.55
			c2.84-3.06,4.29-6.62,3.74-10.85c-0.24-1.86-1.15-1.71-2.37-0.8C561.89,680.47,561.9,684.12,561.22,687.38z"/>
		<path d="M166.78,339.62c-4.47-0.41-8.73-1.6-8.33-8.69c0.06-1-0.07-2,0.02-3c0.16-1.75-0.16-3.11-1.83-4.14
			c-1.41-0.87-2.11-2.35-1.28-4.01c0.83-1.65,2.28-2,3.93-1.33c0.79,0.32,1.31,0.19,1.95-0.36c3.34-2.87,7.29-2.3,11.16-1.78
			c1.7,0.23,2.62,1.51,2.73,3.27c0.25,4.1-3.13,7.81-7.23,7.94c-3.54,0.12-3.72,0.37-3.4,3.86c0.11,1.16,0.49,1.87,1.73,2.01
			c1.16,0.13,2.32,0.08,2.72-1.19c0.73-2.3,2.03-3.53,4.44-2.45c1.93,0.86,2.24,3.71,0.75,6.01
			C172.42,338.41,169.95,339.71,166.78,339.62z"/>
		<path d="M621.71,623.14c-0.25-6.21,2.14-10.73,6.63-14.07c3.79-2.82,11.42-1.22,13.99,2.71c0.71,1.09,0.77,2.24,0.03,3.32
			c-0.81,1.2-2.05,1.58-3.35,1.09c-1.35-0.51-2.63-1.23-3.88-1.94c-1.7-0.97-3.16-0.64-4.4,0.73c-2.4,2.63-3.32,5.75-2.93,9.29
			c0.14,1.26,0.97,1.66,1.97,1.91c2.58,0.64,5.02,0.47,7.24-1.23c1.6-1.22,3.28-2.29,5.43-2.2c1.73,0.07,3.05,0.75,3.35,2.56
			c0.27,1.7-0.67,2.77-2.27,3.2c-1.35,0.36-2.49,1.07-3.6,1.86c-3.8,2.71-8.04,2.73-12.26,1.55
			C622.88,630.6,621.7,628.5,621.71,623.14z"/>
		<path d="M962.27,761.35c0.48,3.69-1.48,7.23-4.15,10.45c-2.95,3.56-6.06,7-9.07,10.51c-1.11,1.3-2.25,2.56-2.76,4.31
			c-0.42,1.45-1.58,2.24-3.15,1.97c-1.54-0.26-2.3-1.37-2.5-2.85c-0.27-1.95,0.55-3.55,1.77-4.97c3.31-3.86,6.48-7.85,9.99-11.51
			c4.61-4.81,4.36-10.22,2.63-15.97c-0.46-1.53-1.26-2.72-2.91-3.32c-1.78-0.65-3.02-1.97-2.22-4c0.84-2.13,2.6-2.17,4.57-1.58
			c2.5,0.75,4.3,2.18,5.41,4.59C961.59,752.69,962.24,756.58,962.27,761.35z"/>
		<path d="M237.33,256.21c2.33-2.73,5.04-4.59,8.12-5.96c1.97-0.88,4.01-1.46,5.18,0.9c1.09,2.21-0.41,3.71-2.31,4.46
			c-4.27,1.69-6.73,5-8.71,8.91c-1.72,3.39-3.64,6.68-5.49,10.01c-0.89,1.59-2.05,2.93-4.1,2.38c-2.09-0.56-2.25-2.35-2.28-4.15
			c-0.06-3.59,1.14-6.96,1.77-10.43c0.58-3.21,1.12-6.43,1.8-9.61c0.26-1.22,0.74-2.44,1.38-3.52c0.81-1.38,2.15-2.02,3.72-1.33
			c1.55,0.68,1.98,2.01,1.67,3.62C237.79,252.95,236.79,254.29,237.33,256.21z"/>
		<path d="M834.14,189.63c2.37-2.98,4.25-5.66,6.98-7.54c1.05-0.73,2.11-1.43,3.43-1.53c1.32-0.1,2.35,0.42,2.9,1.6
			c0.55,1.17,0.51,2.55-0.57,3.24c-7.28,4.62-9.9,12.53-13.99,19.41c-0.14,0.23-0.27,0.47-0.42,0.7c-0.98,1.55-2.21,2.82-4.22,2.13
			c-2.05-0.7-2.22-2.48-1.89-4.29c1.26-6.99,1.93-14.01,1.28-21.12c-0.15-1.69,0.57-3.11,2.44-3.38c1.95-0.28,3.03,0.78,3.48,2.64
			C834.17,183.99,833.83,186.54,834.14,189.63z"/>
		<path d="M514.35,73.67c-0.15,0.15-0.29,0.31-0.44,0.46c-3.38,0.84-6.85,1.18-9.85,3.38c-3,2.2-5.1,4.76-5.81,8.48
			c-0.54,2.84-1.27,5.65-2.01,8.45c-0.47,1.79-1.43,3.31-3.55,3.04c-2.21-0.28-2.86-1.98-2.89-3.97c-0.03-2.29,0.33-4.55,1.11-6.68
			c1.44-3.95,2.4-7.94,2.37-12.18c-0.01-1.6,0.46-3.23,0.89-4.79c0.48-1.77,1.65-2.9,3.6-2.5c1.97,0.41,2.47,1.93,2.29,3.75
			c-0.04,0.43-0.14,0.86-0.28,1.75c1.78-0.97,3.21-1.8,4.69-2.55c1.87-0.95,3.83-1.67,5.98-1.58
			C513.67,68.86,514.86,70.37,514.35,73.67z"/>
		<path d="M666.61,90.17c1.03-0.35,0.78-1.05,0.79-1.66c0.02-1.55,0.68-2.66,2.28-2.91c1.64-0.26,2.84,0.5,3.55,1.95
			c0.82,1.67,0.64,3.36-0.19,4.98c-1.77,3.49-6.19,5.08-9.82,3.57c-2.52-1.05-3.08-3.19-3.08-5.57c-0.01-8.34,1.47-16.43,4.28-24.28
			c0.83-2.33,1.8-4.58,3.78-6.19c1.26-1.03,2.67-1.26,3.99-0.22c1.35,1.07,1.45,2.63,0.55,3.92c-4.5,6.46-5.18,14.01-6.27,21.44
			C666.23,86.84,665.87,88.53,666.61,90.17z"/>
		<path d="M734.7,625.48c-2.73-0.35-4.78-0.22-6.84,0.12c-1.94,0.32-3.83,0.1-4.24-2.24c-0.43-2.44,1.32-3.37,3.35-3.77
			c3.5-0.69,7.06-0.6,10.58-0.28c3.75,0.35,5.24,4.1,3.3,7.94c-0.52,1.02-1.22,1.94-2.03,3.18c1.42-0.45,2.49-0.9,3.6-1.1
			c1.26-0.23,2.35,0.25,2.96,1.44c0.6,1.18,0.51,2.51-0.53,3.23c-3.96,2.77-7.6,6.31-13.07,5.83c-1.81-0.16-3.47-0.36-4.34-2.18
			c-0.94-1.96,0.02-3.47,1.25-4.93C730.59,630.46,732.47,628.16,734.7,625.48z"/>
		<path d="M526.98,364.39c-0.32,6.12-1.08,11.41-2.33,16.64c-0.27,1.14-0.32,2.33-0.49,3.5c-0.25,1.67-0.09,2.56,2.15,2.38
			c2.45-0.2,4.1,2.3,3.75,4.95c-0.42,3.21-3.35,5.48-6.83,5.29c-3.33-0.19-5.07-2.1-5.18-5.72c-0.16-5.37,0.06-10.69,1.5-15.93
			c1.01-3.69,0.95-7.55,1.4-11.33c0.23-1.9,1.14-3.37,3.3-3.22c2.19,0.15,2.79,1.72,2.72,3.67
			C526.97,364.79,526.98,364.98,526.98,364.39z"/>
		<path d="M931.05,752.44c-0.37,3.45-1.31,6.78-2.25,10.09c-0.44,1.56-0.19,2.18,1.53,2.09c1.63-0.09,3.27-0.02,4.9,0.06
			c1.75,0.08,3.01,0.9,3.11,2.77c0.11,2.05-1.23,2.97-3.04,3.13c-1.9,0.17-3.84,0.31-5.71,0.07c-2.48-0.32-3.16,0.92-3.41,3
			c-0.14,1.16-0.39,2.36-0.86,3.42c-0.72,1.63-2.04,2.68-3.91,2.17c-1.91-0.52-2.5-1.96-1.99-3.84c0.17-0.62,0.21-1.16-0.08-1.82
			c-1.38-3.06-0.96-5.56,1.43-7.84c0.91-0.87,1.42-1.8,1.68-2.99c0.83-3.72,1.72-7.43,2.65-11.12c0.48-1.89,1.63-3.13,3.73-2.71
			C930.66,749.29,931.19,750.71,931.05,752.44z"/>
		<path d="M277.01,467.12c0.82-6.03,3-12.68,5.02-19.36c0.65-2.16,1.25-4.36,2.51-6.3c1.13-1.72,2.63-2.76,4.56-1.67
			c2,1.13,1.52,2.87,0.74,4.75c-3.18,7.64-5.51,15.56-6.71,23.76c-0.52,3.53-1.31,5.17-3.41,4.85
			C276.67,472.67,277,470.25,277.01,467.12z"/>
		<path d="M641.77,88.84c0.28-5.86,2.15-11.39,3.68-16.98c0.28-1.01,0.96-1.97,1.62-2.82c1.04-1.35,2.46-2,4.06-1.07
			c1.75,1.02,1.69,2.64,0.99,4.3c-0.25,0.58-0.67,1.09-0.89,1.68c-0.69,1.91-1.89,3.8,0.3,5.65c0.74,0.63,0.69,1.85,0.61,2.85
			c-0.27,3.29-1.09,6.46-2.62,9.38c-1.05,2.01-2.55,3.75-5.14,3.14c-2.67-0.63-2.55-2.95-2.61-5.06
			C641.76,89.57,641.77,89.2,641.77,88.84z"/>
		<path d="M470.02,692.59c0.66-4.22,1.23-8.45,2.01-12.64c0.63-3.4,1.29-6.78,1.29-10.26c0-1.79,0.54-3.42,1.81-4.71
			c1.05-1.07,2.32-1.5,3.71-0.72c1.5,0.85,1.55,2.17,1.3,3.77c-1.29,8.51-3.08,16.94-3.83,25.52c-0.18,2.07-0.44,3.9-2.97,4.09
			c-1.97,0.15-3.07-1.41-3.14-4.22c-0.01-0.27,0-0.55,0-0.82C470.14,692.61,470.08,692.6,470.02,692.59z"/>
		<path d="M628.13,738.2c0.62,6.69-1.43,13.13-1.88,19.72c-0.11,1.66-1.18,2.65-2.87,2.69c-1.57,0.04-2.6-0.88-2.87-2.38
			c-0.2-1.14-0.32-2.38-0.09-3.5c1.57-7.51,1.51-15.11,1.46-22.72c-0.01-0.98,0.17-1.99,0.39-2.95c0.39-1.71,1.46-2.73,3.3-2.55
			c1.91,0.19,2.53,1.58,2.55,3.27C628.16,732.59,628.13,735.39,628.13,738.2z"/>
		<path d="M906.35,194.22c0.39-4.42,0.73-8.85,1.2-13.26c0.35-3.24,4.31-6.37,7.59-6.14c1.4,0.1,2.46,0.73,2.8,2.14
			c0.38,1.53-0.27,2.97-1.64,3.35c-2.92,0.81-2.96,2.99-3.09,5.29c-0.16,2.71-0.42,5.42-0.59,8.13c-0.07,1.17-0.02,2.31,0.58,3.42
			c0.82,1.51,0.54,3-0.61,4.27c-1.03,1.14-2.38,1.35-3.74,0.83c-1.62-0.62-2.28-1.99-2.32-3.67c-0.03-1.45-0.01-2.9-0.01-4.35
			C906.46,194.23,906.4,194.23,906.35,194.22z"/>
		<path d="M632.76,366.53c0.47-6.3,0.85-12.63,3.09-18.64c0.28-0.76,0.61-1.53,1.07-2.18c0.93-1.32,2.22-1.93,3.77-1.2
			c1.53,0.72,2.12,2.13,1.54,3.64c-2.82,7.4-3.5,15.1-3.48,22.92c0,1.86-0.93,3.18-2.93,3.21c-2.01,0.03-2.9-1.32-3.04-3.14
			C632.67,369.62,632.76,368.07,632.76,366.53z"/>
		<path d="M471.26,551.01c0.09-4.61-0.59-9.29,0.96-13.79c0.21-0.6,0.35-1.23,0.62-1.8c0.7-1.47,1.85-2.31,3.5-1.9
			c1.67,0.42,2.49,1.77,2.09,3.33c-2,7.89-0.95,15.9-1.08,23.87c-0.03,1.82-0.9,3.04-2.73,3.09c-2.08,0.05-3.22-1.37-3.32-3.27
			C471.13,557.38,471.26,554.19,471.26,551.01z"/>
		<path d="M538.87,621.47c0-2.08,0.1-4.17-0.02-6.25c-0.24-4.15,2.07-6.56,5.45-8.27c1.53-0.78,3.09-0.75,4.1,0.8
			c1.06,1.63,0.63,3.34-0.99,4.23c-2.32,1.28-2.58,3.17-2.47,5.48c0.13,2.89,0.03,5.8,0.04,8.69c0,0.9-0.01,1.77,0.36,2.66
			c1.1,2.59,0.57,4.21-1.46,4.81c-2.09,0.62-4.47-0.82-4.83-3.19c-0.27-1.78-0.14-3.61-0.17-5.42
			C538.85,623.82,538.86,622.65,538.87,621.47z"/>
		<path d="M536.23,387.94c0.91-6.97,3.18-14.04,5.54-21.08c0.62-1.86,2.2-2.74,4.15-1.93c1.87,0.78,1.97,2.41,1.46,4.14
			c-1.1,3.74-2.27,7.45-3.29,11.21c-0.65,2.41-1.51,4.73-0.92,7.42c0.52,2.35-1.72,4.66-3.88,4.64
			C537.28,392.32,536.13,390.85,536.23,387.94z"/>
		<path d="M633.73,754.17c0.9-6.06,1.59-12.73,3.27-19.24c0.49-1.89,1.59-3.17,3.68-2.74c2.12,0.44,2.64,2.15,2.21,4.01
			c-1.46,6.37-2.23,12.84-3.21,19.28c-0.28,1.86-1.1,3.43-3.28,3.23C634.07,758.49,633.6,756.75,633.73,754.17z"/>
		<path d="M272.32,452.81c-0.48,6.39-2.58,12.32-5.08,18.13c-0.63,1.47-1.88,2.27-3.54,1.83c-1.64-0.44-2.28-1.76-2.27-3.33
			c0.01-1.85,0.85-3.5,1.49-5.2c1.53-4.06,3.37-8,3.38-12.52c0.01-3.01,1.45-4.64,3.38-4.32c2.66,0.43,2.74,2.5,2.64,4.6
			C272.31,452.27,272.32,452.54,272.32,452.81z"/>
		<path d="M612.64,613.16c-0.95,4.14-0.42,8.6-0.55,13.03c-0.04,1.38,0.09,2.67,0.99,3.85c0.94,1.23,0.88,2.59-0.24,3.7
			c-1.18,1.17-2.64,1.15-4.02,0.41c-1.57-0.84-2.31-2.34-2.46-4.02c-0.51-5.87-0.73-11.75,0.24-17.61c0.21-1.28,0.78-2.44,2.05-3.04
			C610.81,608.48,612.78,610.16,612.64,613.16z"/>
		<path d="M959.92,716.09c0-1.3,0.09-3.12-0.02-4.93c-0.21-3.41,1.58-5.67,4.17-7.45c1.49-1.02,3.15-1.17,4.39,0.38
			c1.15,1.44,0.83,3.06-0.52,4.12c-1.83,1.43-1.96,3.23-1.98,5.31c-0.02,3.35-0.27,6.71-0.48,10.05c-0.13,2.03-0.97,3.66-3.28,3.48
			c-2.3-0.18-2.88-1.91-2.76-3.93C959.56,720.95,959.74,718.78,959.92,716.09z"/>
		<path d="M503.49,387.63c-0.21-4.41,1.13-8.61,1.79-12.9c0.25-1.65,1.33-2.97,2.67-3.99c1.28-0.98,2.67-1.24,3.98-0.13
			c1.32,1.11,1.24,2.53,0.51,3.95c-2.58,4.97-3.23,10.28-2.66,15.76c0.2,1.9-0.24,3.33-2.2,3.74c-2.1,0.43-3.6-0.58-4.06-2.64
			C503.27,390.21,503.49,388.9,503.49,387.63z"/>
		<path d="M638.44,673.79c0-2.17-0.11-4.35,0.03-6.51c0.17-2.48,1.68-4.14,3.81-5.25c1.25-0.65,2.48-0.54,3.49,0.5
			c1.01,1.04,1.27,2.56,0.35,3.47c-2.18,2.19-1.69,4.8-1.73,7.38c-0.03,2.17,0,4.35-0.06,6.52c-0.06,1.85-0.89,3.22-2.88,3.29
			c-2.03,0.06-2.9-1.35-3.01-3.15c-0.12-2.08-0.03-4.16-0.03-6.24C638.43,673.8,638.44,673.79,638.44,673.79z"/>
		<path d="M718.64,720.34c-0.18,4.45-0.82,8.83-2.26,13.05c-0.56,1.65-1.38,3.16-2.96,4.09c-1.31,0.77-2.6,0.81-3.74-0.27
			c-1.06-1.01-1.21-2.34-0.47-3.48c2.43-3.73,2.98-7.88,3.09-12.17c0.03-1.32,0.43-2.5,1.44-3.4c0.95-0.86,2.05-1.18,3.26-0.64
			C718.19,718.04,718.7,719.06,718.64,720.34z"/>
		<path d="M96.75,463.61c-1.49-0.08-3.14-0.05-4.74-0.3c-1.61-0.25-2.65-1.29-2.53-3.01c0.11-1.69,1.21-2.65,2.85-2.74
			c4.24-0.24,8.52,0.14,12.72-0.96c1.37-0.36,2.45,0.6,2.88,1.96c0.43,1.37-0.12,2.5-1.24,3.33c-1.45,1.07-3.17,1.32-4.89,1.47
			C100.16,463.49,98.53,463.52,96.75,463.61z"/>
		<path d="M558.28,75.8c1.99,0,3.98-0.06,5.97,0.02c1.73,0.07,2.99,0.93,3.08,2.78c0.11,2.03-1.23,3.04-3.03,3.11
			c-3.98,0.13-7.96,0.14-11.94,0.02c-1.71-0.05-2.96-1.11-2.95-2.94c0.01-1.96,1.29-2.93,3.17-3c1.9-0.08,3.8-0.02,5.7-0.02
			C558.28,75.78,558.28,75.79,558.28,75.8z"/>
		<path d="M94.89,328.2c-2.53-0.13-5.1,0.12-7.44-1.14c-1.55-0.83-2.74-1.99-2.07-3.9c0.71-2.05,2.46-2.36,4.24-1.72
			c2.84,1.02,5.74,0.45,8.6,0.66c1.27,0.09,2.55,0.09,3.48,1.17c1.42,1.66,0.6,4.14-1.68,4.58C98.35,328.17,96.6,328.1,94.89,328.2z
			"/>
		<path d="M96.92,255.74c1.72,0,3.45-0.1,5.16,0.03c1.65,0.13,2.67,1.13,2.69,2.85c0.02,1.6-0.9,2.66-2.43,2.76
			c-4.06,0.27-8.13,0.43-12.2,0.5c-1.43,0.02-2.32-0.98-2.48-2.42c-0.17-1.55,0.6-2.61,2.01-3.18
			C92.01,255.34,94.49,255.74,96.92,255.74z"/>
		<path d="M392.41,100.55c-3.91,0.07-10.14-6.21-10.05-10.12c0.03-1.42,0.67-2.46,2-2.93c1.5-0.52,2.92,0.03,3.42,1.41
			c1.07,2.98,3.36,4.6,5.86,6.13c1.35,0.83,2.08,2.07,1.52,3.69C394.73,99.99,393.71,100.52,392.41,100.55z"/>
		<path d="M491.42,703.15c0.95-3.16,1.84-6.78,4.37-9.65c1.13-1.28,2.7-1.56,4.17-0.51c1.39,1,1.43,2.41,0.74,3.88
			c-1.21,2.6-2.38,5.23-3.62,7.81c-0.71,1.48-1.94,2.17-3.57,1.73C492.12,706.05,491.47,705.01,491.42,703.15z"/>
		<path d="M96.08,390.09c1.63,0,3.27-0.14,4.87,0.04c1.58,0.18,2.71,1.16,2.69,2.88c-0.02,1.83-1.16,2.91-2.9,2.96
			c-2.98,0.08-5.97,0.05-8.94-0.17c-1.84-0.14-3.43-1.1-3.24-3.26c0.19-2.13,1.79-2.73,3.72-2.68c1.26,0.03,2.53,0.01,3.8,0.01
			C96.08,389.94,96.08,390.02,96.08,390.09z"/>
		<path d="M915.62,278.16c1.65,0.12,2.78,0.95,2.89,2.61c0.12,1.81-0.92,2.89-2.74,2.92c-1.7,0.03-2.69-0.95-2.73-2.65
			C912.99,279.35,913.99,278.44,915.62,278.16z"/>
		<path d="M638.24,693.15c-0.11,1.71-0.93,2.8-2.66,2.86c-1.71,0.06-2.77-0.9-2.84-2.6c-0.07-1.7,0.92-2.77,2.61-2.85
			C637.07,690.48,637.98,691.52,638.24,693.15z"/>
		<path d="M632.19,390.28c0.27-1.79,1.14-2.87,2.82-2.87c1.83,0,2.82,1.13,2.74,2.94c-0.07,1.71-1.14,2.61-2.83,2.56
			C633.2,392.84,632.42,391.73,632.19,390.28z"/>
		<path d="M486.34,523.45c1.69,0.11,2.8,0.93,2.85,2.67c0.04,1.7-0.95,2.78-2.65,2.86c-1.72,0.08-2.74-0.94-2.81-2.65
			C483.65,524.58,484.63,523.65,486.34,523.45z"/>
		<path d="M917.04,165.18c-1.65-0.2-2.75-1.07-2.78-2.78c-0.03-1.72,1-2.74,2.71-2.77c1.72-0.03,2.74,0.94,2.76,2.69
			C919.75,164.05,918.74,164.96,917.04,165.18z"/>
		<path d="M549.55,603.69c-1.69-0.22-2.71-1.14-2.68-2.85c0.03-1.72,1.06-2.71,2.79-2.67c1.72,0.04,2.72,1.06,2.69,2.78
			C552.31,602.66,551.23,603.53,549.55,603.69z"/>
		<path d="M513.3,358.85c1.64,0.22,2.7,1.12,2.65,2.84c-0.06,1.7-1.11,2.7-2.81,2.67c-1.72-0.03-2.68-1.09-2.65-2.8
			C510.52,359.81,511.57,358.96,513.3,358.85z"/>
		<path d="M712.98,752.33c-0.2,1.7-1.12,2.69-2.84,2.64c-1.71-0.05-2.72-1.07-2.66-2.79c0.06-1.69,1.11-2.71,2.81-2.67
			C712,749.55,712.85,750.65,712.98,752.33z"/>
		<path d="M971.56,696.5c1.81,0.2,2.85,1.09,2.88,2.77c0.02,1.68-0.93,2.72-2.64,2.76c-1.82,0.04-2.9-0.99-2.87-2.81
			C968.95,697.53,970.12,696.75,971.56,696.5z"/>
		<path d="M274.78,441.33c1.82,0.21,2.87,1.07,2.88,2.8c0.02,1.73-0.98,2.73-2.69,2.74c-1.71,0.01-2.75-0.98-2.76-2.69
			C272.2,442.46,273.31,441.61,274.78,441.33z"/>
		<path d="M644.71,728.06c1.74,0.1,2.81,0.94,2.83,2.69c0.02,1.71-0.96,2.78-2.67,2.81c-1.69,0.03-2.77-0.96-2.82-2.68
			C642.01,729.15,643.07,728.27,644.71,728.06z"/>
		<path d="M652.77,65.36c-1.69-0.28-2.69-1.21-2.62-2.93c0.07-1.74,1.12-2.69,2.84-2.61c1.7,0.08,2.7,1.12,2.62,2.84
			C655.53,64.37,654.42,65.21,652.77,65.36z"/>
		<path d="M619.75,600.43c1.72,0.09,2.76,0.95,2.81,2.65c0.05,1.67-0.87,2.79-2.55,2.87c-1.8,0.08-2.92-0.97-2.94-2.77
			C617.04,601.49,618.11,600.61,619.75,600.43z"/>
		<path d="M551.55,362.41c-0.15,1.71-1.07,2.71-2.8,2.67c-1.71-0.03-2.73-1.05-2.7-2.76c0.04-1.69,1.09-2.72,2.78-2.71
			C550.55,359.63,551.43,360.71,551.55,362.41z"/>
		<path d="M256.01,383.21c-0.2,1.66-1.12,2.64-2.83,2.59c-1.68-0.05-2.73-1.04-2.7-2.72c0.03-1.8,1.15-2.85,2.95-2.76
			C255.13,380.4,255.94,381.53,256.01,383.21z"/>
	</g>
</g>
</svg>
