<?xml version="1.0" encoding="UTF-8"?>
<svg id="Layer_0_Image" data-name="Layer 0 Image" xmlns="http://www.w3.org/2000/svg" viewBox="0 0 1117.09 837.82">
  <path d="m250.02,335.12c3.81-2.53,7.82-2.95,11.94-2.95,59.36,0,118.73-.27,178.09.1,38.99.24,77.98.59,116.98.76,17.77.08,35.4-1.24,53.06-2.73,6.87-.58,13.79-.93,20.69-.95,45.36-.08,90.73-.27,136.09.07,17.51.13,35.07.72,52.41,3.63,3.39.57,6.68,1.66,10.03,2.46.87.21,1.83.48,2.68.33,3.58-.66,6.03,1.27,8.4,3.44,1.17,1.08,1.33,2.42.49,3.7-1.04,1.58-3.05,2.29-4.26,1.19-2.7-2.45-6.05-1.89-9.07-2.75-10.36-2.96-20.97-4.07-31.69-4.74-34.96-2.2-69.96-1.02-104.94-1.28-18.45-.14-36.91-.1-55.36,0-14.27.08-28.5.91-42.7,2.51-6.04.68-12.15.98-18.23,1-32.45.09-64.92.54-97.36-.06-71.36-1.31-142.71-.19-214.07-.64-2.74-.02-5.44.13-8.07.99-1.61.52-3.21.54-4.9-1.09-.37,6.44-.23,12.31.41,18.14.52,4.7.92,9.4.92,14.14-.03,17,.55,34.02-.15,50.99-1,24.23-2.07,48.46-4.31,72.64-1.47,15.89-3.11,31.8-2.95,47.86.34,34,.1,68,.1,102,0,.99,0,1.97,0,3.39,3.4-2.2,6.87-1.72,10.27-1.72,86.91,0,173.82-.01,260.73,0,5.56,0,11.06-.46,16.57-1.18,3.41-.45,6.89-.49,10.34-.49,60.27-.03,120.54.02,180.82-.05,12.47-.01,24.83-1.43,37.17-3.16,6.28-.88,12.6-1.82,18.98-1.72,14.82.23,29.62-.58,44.43-.71,7.16-.06,14.34-.25,21.52-.37,1.08-.02,2.2.02,3.25.26,1.39.31,2.16,1.31,2.13,2.78-.02,1.46-.81,2.38-2.21,2.73-.61.15-1.26.22-1.89.2-9.45-.28-18.89.59-28.33.53-13.64-.08-27.25.6-40.89.73-7.77.08-15.56,1.33-23.28,2.5-10.1,1.53-20.25,2.23-30.42,2.25-59.91.11-119.82.11-179.73,0-9.48-.02-18.79,1.78-28.27,1.77-87.36-.12-174.73-.03-262.09-.19-3.79,0-6,1.92-8.61,3.75-.64.44-.47,1.14-.47,1.75-.03,12.9-.36,25.81,1.33,38.65.21,1.61.96,1.69,2.18,1.53,5.85-.8,11.7-1.58,17.55-2.39,5.42-.75,10.89-.27,16.33-.63,1.78-.12,3.34.66,3.46,2.69.13,2.16-1.33,2.96-3.27,3.23-5.6.76-11.26-.01-16.87.87-5.65.89-11.33,1.62-17.01,2.29-1.68.2-2.15.87-1.89,2.46.58,3.61.42,7.26.38,10.89-.1,8.9,1.16,17.76.7,26.67-.05.91.03,1.84-.15,2.71-.31,1.48-1.25,2.42-2.84,2.45-1.59.03-2.52-.91-2.93-2.36-.15-.51-.17-1.08-.15-1.62.43-10.91-1-21.77-.74-32.68.19-7.64.02-7.64-7.5-7.62-7.45.01-14.91.06-22.36-.04-1.98-.03-2.74.37-2.51,2.56.82,8.05,2.21,15.96,3.75,23.92,2.15,11.14,5.07,22.12,6.68,33.37.69,4.82,1.88,9.63,3.43,14.26,2.03,6.08,6.38,9.16,12.99,10.27,6.35,1.07,12.63.99,18.97,1.34,19.24,1.04,38.59.37,57.72,2.34,28.2,2.9,56.42,3.05,84.67,3.17,22,.09,44.01.36,66-.19,34.73-.87,69.45-.25,104.17-.43,10.38-.05,20.62,1.83,30.98,2.37,17.52.91,35.04,1.8,52.59,1.54,6.73-.1,13.46-.13,20.18,0,16.93.35,33.79-.28,50.54-2.99,4.02-.65,8.15-.84,12.23-.83,24.83.04,49.57-2.15,74.37-2.93,14.82-.46,29.63-.25,44.44-.45.72,0,1.47,0,2.17.16,1.38.33,2.22,1.26,2.3,2.69.08,1.45-.71,2.39-2.03,2.9-.33.13-.7.21-1.06.25-.45.05-.91.06-1.36.06-27.46-.28-54.88.61-82.29,2.22-14.87.87-29.79,1.07-44.68,1.66-8.64.34-17.07,2.54-25.71,2.95-3.09.15-6.17.34-9.26.34-19.82.03-39.64.29-59.45-.06-19.08-.34-38.14-1.42-57.13-3.48-2.34-.25-4.72-.34-7.08-.34-30.36-.02-60.74-.52-91.09.14-33.36.73-66.72.57-100.08.41-22.15-.1-44.36-.22-66.37-3.58-1.25-.19-2.54-.24-3.81-.21-12.83.34-25.63-.53-38.42-1.12-9.16-.42-18.38.13-27.48-1.12-3.46-.47-6.97-1.01-10.38-2.05-7.83-2.37-11.59-8.51-13.36-15.55-3.2-12.75-5.31-25.77-8-38.65-2.33-11.17-5.15-22.32-5.27-33.85-.02-1.65-1.13-1.63-2.18-1.76-5.59-.7-11.08-1.96-16.6-3.06-9.82-1.97-17.96-6.99-26.02-12.59-12.41-8.63-22.04-19.99-31.88-31.18-3.88-4.42-6.29-9.77-8.63-15.09-8.3-18.93-10.32-38.84-7.31-59,1.62-10.91,6.92-20.83,14.31-29.28,5.88-6.72,12.45-12.76,19.43-18.3,4.48-3.55,9.67-5.73,15.41-6.41.54-.06,1.08-.14,1.61-.26.15-.03.27-.22.53-.45-2.16-1.41-4.56-2.2-6.83-3.21-1.76-.78-3.35-1.78-2.86-4.03.49-2.27,2.35-2.47,4.28-2.46,6.09.02,12.18-.02,18.27.02,3.99.02,5.75,1.73,6.23,5.67,1.35,11.18-3.77,19.85-10.73,27.8-.52.6-1.28,1.02-2,1.39-1.64.84-3.24.81-4.32-.87-1.01-1.58-.39-2.98.94-4.08,4.8-3.97,7.28-9.42,9.53-15,.17-.42.28-.87.35-1.31.06-.35.01-.71.01-1.76-1.26,2.45-3.04,2.74-5.04,3.12-4.8.93-9.74,1.14-14.43,2.74-5.89,2.01-10.1,6.36-14.62,10.27-2.54,2.2-4.88,4.63-7.28,6.98-9.32,9.13-15.6,20.21-17.21,32.98-1.84,14.56-.82,29.18,3.8,43.4,3.68,11.32,9.05,21.4,17.25,30.23,8.58,9.22,17.48,17.89,27.7,25.31,11.05,8.01,23.74,10.53,36.76,12.36,1.16.16,1.47-.32,1.44-1.33-.02-.45,0-.91,0-1.36-.25-20.91.31-41.8,1.08-62.7,1.25-34.08.09-68.17.59-102.25.38-25.81,1.76-51.59,2.75-77.38.83-21.7,3.15-43.31,2.9-65.08-.42-35.9-.11-71.82-.12-107.73,0-2,.08-3.98.71-5.92,1.59-4.87,5.66-7.03,10-7.87,11.13-2.17,22.17-4.96,33.5-6.01,9.32-.86,18.45-3.23,27.83-3.62,2.72-.11,5.45-.26,8.17-.26,125.36-.01,250.73-.06,376.09.03,23.18.02,46.32,1.52,69.25,4.92,10.78,1.6,21.44,3.9,32.36,4.46,3.36.17,6.72.31,10.08.31,21.45.03,42.91.05,64.36,0,6.69-.02,12.85,2.2,19.09,4.12,1.72.53,2.81,1.84,2.21,3.78-.6,1.93-2.18,2.25-3.97,1.95-.27-.04-.54-.11-.79-.21-9-3.55-18.4-3.69-27.9-3.59-17.54.18-35.09.1-52.64.03-13.39-.05-26.64-1.37-39.77-4.16-11.58-2.46-23.43-2.98-35.19-3.96-25.49-2.13-51.05-1.59-76.59-1.59-111-.01-222,.04-333-.07-11.44-.01-22.59,1.92-33.87,3.21-11.85,1.35-23.44,4.03-35.18,5.9-2.19.35-4.12,1.18-6.05,2.28-1.74,1-2.4,2.39-2.56,4.18-.09,1.08-.04,2.18-.04,3.27-.03,41.27-.04,82.54-.1,123.82-.01,7.92-.96,15.78-1.66,23.65-.84,9.43-.41,18.9-1.07,28.33-3.6,51.56-2.69,103.21-2.77,154.83-.02,14.64-1.02,29.25-1.42,43.87-.37,13.63-.16,27.27-.24,40.9,0,1.39.43,1.94,1.87,1.93,9.09-.08,18.18-.13,27.27-.12,1.94,0,2.7-.6,2.57-2.69-3.03-47.22-.58-94.49-1.39-141.74-.28-16.46.51-32.86,1.95-49.27,1.88-21.45,3.27-42.93,4.43-64.44,1.32-24.46,1.11-48.9.62-73.32-.26-12.67-.82-25.41-1.74-38.1-.04-.54-.09-1.09-.1-1.63-.03-2.05.64-3.73,2.94-3.8,2.13-.06,2.96,1.45,3.11,3.4.21,2.81.42,5.61.66,8.77Zm-80.37,189.43c1.51.99,2.83,2.09,3.74,4.21.58-4.73.55-4.76-3.74-4.21Z"/>
  <path d="m863.99,564.4c0,63.97,0,116.6,0,169.24,0,6.22-1.49,7.37-7.7,7.78-47.12,3.09-94.3.53-141.44,1.62-17.88.41-35.76,1.02-53.64,1.81-11.52.51-23.04,1.23-34.55,1.85-17.63.95-35.27.15-52.88.66-104.79,3.07-209.59.7-314.39,1.47-3.12.02-6.11-.17-8.99-1.6-1.57-.78-2.64-1.69-2.3-3.51.33-1.82,1.7-2.41,3.41-2.49,2.5-.12,4.49,1.56,7.08,1.56,91.82-.1,183.63.35,275.44-.34,27.42-.21,54.87-.9,82.31-1.38,16.24-.29,32.44-2.01,48.7-2.52,10.17-.32,20.33-.77,30.5-1.05,46.62-1.29,93.25-.35,139.87-.71,6.98-.05,13.87-1.81,20.9-1.49,1.15.05,1.68-.43,1.61-1.6-.04-.63,0-1.27,0-1.91,0-104,0-207.99,0-311.99-2.48-21.92-1.26-43.93-1.57-65.9-.04-2.49-.6-4.48-3.3-5.82-2.71-1.35-4.99-3.61-7.38-5.56-1.5-1.22-2.15-2.88-.84-4.54,1.33-1.69,3.08-1.33,4.61-.2,3.12,2.31,5.92,5.04,9.72,6.4,1.61.58,2.2,2.35,2.51,4.01.45,2.41.82,4.82.82,7.3-.04,15.36-.75,30.77.12,46.08,3.31,58.05.04,116.13,1.4,162.85Z"/>
  <path d="m903.81,737.08c0-132.61,0-265.21-.01-397.82,0-4.45.77-4.11-4.02-4.08-3.18.02-6.35.2-9.5.75-10.29,1.81-20.67.84-31.02.99-2.54.04-4.13-1.37-4.53-3.85-.9-5.52-2.49-10.88-2.29-16.63.34-9.71.08-19.45.11-29.17,0-1.51.1-2.82-1.9-3.27-1.13-.25-1.56-1.44-1.49-2.64.19-3.13,5.16-6.24,7.88-4.81,1.06.56,2.04.52,3.13.54,12.55.15,25.06-.73,37.59-1.01,6.78-.15,10.23,3.12,11.06,10.01.99,8.23,1.19,16.49,1.1,24.77-.06,5.36,0,10.73-.01,16.09,0,1.36-.1,2.71.74,3.94.42.62.54,1.48.17,2.1-1.33,2.19-.89,4.59-.89,6.91-.02,121.25.14,242.51-.18,363.76-.05,19.16-.27,38.34-.73,57.5-.12,5.2-1.73,10.36-2.65,15.54-.05.27-.2.52-.21.79-.36,7.63-4.51,9.13-10.87,9.35-7.81.27-15.63.08-23.45.07-1.18,0-2.38-.1-3.3-1.01-.87-.86-1.06-1.91-.66-3.01.44-1.24,1.43-1.89,2.71-1.93,2.91-.08,5.81-.1,8.72-.11,5.18-.02,10.36.05,15.54-.03,3.87-.06,4.36-.76,5.18-3.69,3.65-13.16,3.25-26.61,2.95-40.05.28,0,.56,0,.83,0Zm-45.19-432.54c.37,7.12-.81,15.38,1.33,23.54.59,2.26,1.31,2.74,3.5,2.87,12.94.76,25.73-1.5,38.6-1.78,1.79-.04,1.78-1.05,1.77-2.32-.04-9.45.05-18.9-.12-28.35-.07-4.08-.53-8.16-1.06-12.21-.44-3.35-1.56-4.12-4.87-4.15-3.91-.04-7.81.04-11.7.43-7.98.8-15.98.43-23.97.47-2.57.01-3.7.59-3.56,3.51.27,5.62.08,11.26.08,17.99Z"/>
  <path d="m345.03,697.6c0-7.45-.01-14.9.01-22.35,0-1.45.09-2.91.24-4.35.11-1.11.59-2.73,1.48-2.7,3.11.12,3.84-2.25,5.35-4.07,1.14-1.37,3.25-1.53,5.1-1.5,15.8.22,31.62-.63,47.41.52,1.09.08,2.18.1,3.27.1,26.99.11,53.97.3,80.96.27,6.93,0,13.74,1.27,20.65,1.38,2.51.04,3.74,1.82,3.71,4.21-.17,15.06.99,30.17-1.83,45.13-.54,2.85-.83,5.75-1.09,8.65-.17,1.83-.91,3.89,2,4.66,1.17.31,1.33,1.88.89,3.1-.53,1.48-1.75,2.01-3.24,2-6.45-.07-12.9-.11-19.35-.24-3.63-.07-7.26-.39-10.89-.39-23.17-.04-46.35.24-69.52-.1-18.53-.27-37.06-.39-55.6-.43-2.78,0-5.34-.42-6.04-3.79-.05-.24-.23-.59-.41-.63-3.73-.78-3.09-3.74-3.11-6.3-.04-7.72-.01-15.45-.01-23.17Zm144.36,28.99c5.14,0,9.48-.02,13.81.01,1.11,0,1.38-.42,1.18-1.49-.5-2.64-.08-5.27.43-7.85,2.9-14.74,2.39-29.66,2.38-44.56,0-1.19-.27-1.79-1.63-1.88-4.89-.34-9.77-1.16-14.65-1.19-32.17-.18-64.34.12-96.5-.9-11.8-.37-23.63-.01-35.45-.11-2.52-.02-4.91,1.48-7.92.12,0,3.44,0,6.51,0,9.59,0,14.27.61,28.53.02,42.8-.17,4.14-.05,4.22,4.12,4.24,17.63.07,35.26-.07,52.88.49,9.63.3,19.27.05,28.9.05,12.63,0,25.27.01,37.9-.03.87,0,2.32.65,2.53-.77.49-3.3,2.88-3.43,5.29-3.34,2.11.08,3.33-.8,4.32-2.59,3.07-5.53,3.43-11.65,4.35-17.82-1.14.3-1.32,1.08-1.69,1.67-1.52,2.45-3.53,3.89-6.55,3.39-2.89-.49-4.43-2.53-5.12-5.08-1.21-4.44-.96-9-.4-13.52.18-1.45.89-2.78,1.82-3.92,1.25-1.53,3.34-1.69,4.54-.39,1.27,1.37.73,2.78.17,4.31-1.44,3.9-.97,7.83-.14,12.32,3.41-4.46,5.55-8.84,7.52-13.33.7-1.6,1.73-2.9,3.71-2.55,2.06.36,2.72,1.96,2.79,3.83.07,2.18.2,4.38,0,6.54-.99,10.82-1.08,21.89-8.62,31.95Z"/>
  <path d="m732.61,171.17c-6.97.83-13.76-.2-19.83-4.39-1-.69-1.83-.53-2.72.16-3.61,2.8-7.98,4.34-11.69,6.97-7.22,5.1-15.25,5.23-23.51,3.99-9.46-1.43-17.89-4.73-24.84-11.8-9.89-10.05-8.89-30.12-.55-37.36.81-.7,1.39-1.25.26-2.35-7.26-7.04-8.21-15.61-5.67-24.87,1.57-5.75,2.92-11.48,6.32-16.69,4.94-7.56,11.75-10.13,20.24-9.39,1.91.17,2.29-.25,2.6-2.12,1.38-8.49,4.2-16.54,8.63-23.92,2.62-4.37,6.38-6.92,11.95-6.55,6.86.47,13.8-.4,20.61,1.31,4.58,1.15,8.28,3.37,10.22,7.78,1.88,4.27,4.32,6.64,9.6,5.87,4.7-.69,9.53-.1,14.31,1.05,10.47,2.54,19.26,14.08,18.28,24.46-.26,2.76-.77,5.45-2.43,7.69-.95,1.28-.43,1.71.49,2.58,7.23,6.86,13.78,14.21,17.13,23.87.84,2.43,1.43,4.85,1.38,7.44-.09,4.91-.02,9.81-.1,14.72-.1,6.28-3,10.95-7.98,14.73-7.21,5.46-14.95,9.93-23.11,13.78-6.2,2.93-12.68,3.67-19.6,3.06Zm.18-6.03c3.85-.14,7.79.59,11.61-.72,10.86-3.75,20.57-9.5,29.37-16.84,2.32-1.94,3.3-4.58,3.37-7.48.14-5.54.12-11.09.12-16.63,0-.71-.18-1.45-.4-2.13-3.38-10.27-9.82-18.31-18.35-24.74-3.04-2.29-3.45-4.4-.72-7.17,2.13-2.16,2.9-4.68,2.99-7.63.11-3.48-1.37-6.34-3.09-9.14-5.52-8.96-16.77-10.01-25.8-8.38-3.22.58-5.54.56-7.71-2.09-1.86-2.27-3.47-4.67-4.79-7.26-1.34-2.62-3.42-4.04-6.25-4.78-6.27-1.63-12.66-.8-18.98-1.22-3.53-.24-5.88,1.24-7.32,4.08-4,7.86-7.71,15.85-7.72,24.97,0,4.41-1.93,5.7-6.07,4.18-5.89-2.16-12.83.12-16.72,4.99-4.04,5.07-5.14,11.17-6.62,17.12-1.44,5.83-1.3,11.56,3.11,16.36,1.04,1.14,2.17,2.19,3.22,3.32,2.65,2.81,2.54,5.21-.47,7.61-1.88,1.5-3.65,3.14-4.56,5.34-3.05,7.39-3.17,17.66,3.38,24.79,5.9,6.43,13.48,8.93,21.72,10.21,7.02,1.09,13.71.71,19.78-3.62,3.77-2.69,8.14-4.4,11.91-7.13,2.01-1.46,4.46-2.08,6.65-.51,5.54,3.95,11.63,5.41,18.35,4.51Z"/>
  <path d="m845.81,113.64c-.07-8.82.03-16.73,2.15-24.43,2.27-8.24,5.85-15.79,11.67-22.2,8.06-8.87,16.99-16.64,27.4-22.63,3.51-2.02,7.39-2.62,11.34-3.42,10.75-2.17,18.88,2.54,27.07,8.41,11.43,8.18,20.93,18.14,27.48,30.45,4.89,9.18,8.41,19.09,8.28,29.86-.1,8.35.42,16.81-2.26,24.85-6.82,20.48-19.83,34.93-41.31,40.3-7.2,1.8-14.68,1-21.91-.55-10.3-2.21-19.91-6.01-28.33-12.67-5.46-4.32-9.73-9.49-13.19-15.41-2.61-4.48-4.53-9.3-6.49-14.09-2.58-6.27-1.8-12.87-1.91-18.47Zm6.06.18c-.93,7.17.61,15.3,4.47,23.12,3.86,7.83,8.38,14.96,15.52,20.35,8.36,6.32,17.79,9.85,27.93,11.48,7.08,1.14,14.2,1.37,21.21-1.37,7.13-2.79,13.99-6.11,18.99-11.89,8.41-9.72,14.47-20.71,14.95-34,.13-3.63.04-7.27.15-10.9.31-10.24-3.07-19.64-7.8-28.3-5.77-10.58-13.79-19.46-23.74-26.61-7.23-5.19-13.98-10.65-23.86-8.71-3.22.63-6.42.9-9.34,2.56-10.21,5.83-18.98,13.39-26.7,22.21-2.47,2.82-4.5,5.89-6.18,9.26-4.94,9.91-5.85,20.52-5.62,32.8Z"/>
  <path d="m510.58,170.05c-11.32-.17-20.82-.37-29.48-4.92-9.62-5.06-17.95-11.65-23.66-21.13-1.31-2.18-2.63-4.35-3.91-6.55-9.07-15.55-7.94-31.38-1.15-47.3,1.21-2.83,2.79-5.5,4.21-8.24,8.87-17.08,23.48-26.56,41.85-29.96,15.93-2.95,31.63-1.56,47.08,4.42,13.38,5.17,20.19,14.79,23.32,28.06,3.25,13.8,2.8,27.54-.04,41.32-2.78,13.52-10.83,23.39-21.12,32.08-11.4,9.62-24.45,13.02-37.12,12.23Zm-2.71-6.12c1.73,0,3.45-.03,5.18,0,11.32.19,21.34-3.11,30.17-10.41,8.65-7.15,16.08-15.09,18.92-26.27,3.65-14.4,4.09-28.85.29-43.36-2.7-10.31-8.66-17.32-18.6-21.55-13.42-5.72-27.34-6.96-41.4-4.91-17.79,2.6-32.08,11.15-40.6,27.73-1.66,3.23-3.5,6.39-4.89,9.73-3.92,9.41-5.28,19.44-2.48,29.08,3.69,12.69,11.13,23.3,22,31.32,9.42,6.96,20.09,8.9,31.42,8.64Z"/>
  <path d="m694.43,725.26c-17.18-.74-34.79.58-52.42.57-1.09,0-2.19-.02-3.26-.18-1.62-.24-2.72-1.17-2.7-2.89.02-1.71,1.1-2.63,2.73-2.87.89-.13,1.81-.12,2.72-.13,20.63-.3,41.26-.38,61.87-.97,14.09-.4,28.17-.34,42.25-.47,3.2-.03,6.34-.43,9.5-.69.95-.08,1.93-.04,1.95-1.6.08-8.9,1.18-17.76.99-26.68-.14-6.55-.77-13.04-1.53-19.54-.19-1.66-1.22-1.49-2.31-1.55-7.53-.36-15.06-.62-22.58-1.12-16.53-1.09-33.04-.38-49.56.2-13.53.48-27,2.25-40.56,1.83-1.37-.04-2.74.01-4.03-.51-1.97-.79-3.1-2.96-2.33-4.6.91-1.93,2.38-1.93,4.34-1.45,4.55,1.1,9.24.7,13.82.33,11.15-.91,22.32-1.16,33.47-1.88,10.26-.67,20.53-.42,30.79-.57,9.92-.14,19.76,1.13,29.65,1.5,2.72.1,5.45.1,8.17.19,4.81.17,6.63,2.33,7.25,7.01,1.22,9.22,1.63,18.46,1.38,27.73-.16,5.99-.62,11.97-.96,17.96-.06,1.11-.32,2.18-1.14,2.99-.55.54-.73,1.01-.62,1.88.35,2.79-.53,3.48-3.5,3.85-9.51,1.18-19.06.8-28.59.84-11.45.05-22.9.32-34.8.81Z"/>
  <path d="m601.39,387.6c2.77-3.18,4.28-6.99,6.11-10.61,1.03-2.03,1.66-4.91,4.82-4.2,3.15.71,2.89,3.53,2.9,6,0,1.15,0,2.3.28,3.59,1.98-4.4,5.29-7.27,9.41-9.42,4.45-2.33,8.92-1.45,12,2.64.85-.18.64-.99.87-1.52.68-1.6,1.79-2.59,3.6-2.18,1.99.45,2.46,1.98,2.22,3.78-.36,2.79-.84,5.57-1.17,8.36-.2,1.71-.24,3.44-.26,5.16,0,.65-.36,1.63.63,1.83.84.17,1.18-.7,1.6-1.27,2.29-3.12,2.77-6.85,3.54-10.49.22-1.06.37-2.15.54-3.22.32-1.97,1.13-3.63,3.4-3.49,2.49.16,2.9,2.1,2.91,4.15.01,3.27-.04,6.54.02,9.81.02.92-.19,2.03,1.18,2.44,1.61.48,2.37,1.67,2.08,3.34-.3,1.75-1.62,2.54-3.2,2.95-1.2.31-2.55.25-3.37-.57-1.52-1.52-2.32-1.08-3.53.42-1.89,2.35-5.3,3-8.21,1.89-2.79-1.07-3.59-3.39-3.69-6.1-.04-1.08,0-2.17,0-3.94-2.69,3.91-4.85,7.63-8.98,9.02-4.07,1.36-8.06,1.05-11.61-2.39-.24,2.25-.35,4.28-.7,6.26-.97,5.48-4.02,8.7-9,9.66-1.46.28-2.91.33-4.18-.62-1.49-1.11-2.04-2.6-1.34-4.31.64-1.56,2-2.08,3.6-1.6,2.39.71,3.59-.55,4.38-2.52,1.55-3.84.66-7.83.44-11.94-.69,1-1.35,2.02-2.07,3-1.18,1.62-2.44,3.18-4.34,4.03-4.03,1.8-7.17-.14-7.2-4.51-.04-4.45-.03-8.9.01-13.35.01-1.08.18-2.17.43-3.22.44-1.87,1.53-3.25,3.63-2.84,2.12.41,2.54,2.09,2.27,4-.56,3.97-.08,7.95,0,11.99Zm29.63-7.66c.27-1.89-.81-2.6-2.57-1.83-3.62,1.59-6.57,3.93-7.35,8.12-.25,1.37-1.02,3.13.48,3.98,1.56.88,3.38.41,4.81-.83,2.79-2.44,4.45-5.47,4.63-9.44Z"/>
  <path d="m896.68,205.55c-.78.97-1.51,1.99-2.34,2.91-2.37,2.6-4.87,3.22-8.09,1.87-.86-.36-1.29-.41-2.11.19-4.64,3.43-9.23,2.08-11.41-3.22-.8-1.93-1.02-3.99-1.34-6.49-2.71,2.88-5.15,5.5-7.62,8.1-1,1.05-1.92,2.24-3.09,3.05-3.23,2.25-6.56.64-6.72-3.24-.14-3.36-.1-6.72-.04-10.08.07-4.27.2-8.54.39-12.8.07-1.44.28-2.91.69-4.29.51-1.71,1.68-2.93,3.64-2.49,1.83.4,2.44,1.86,2.16,3.56-.74,4.6-.39,9.25-.78,13.86-.18,2.14-.32,4.31.19,6.99,2.5-2.46,4.85-4.51,6.58-7.17,1.24-1.9,2.45-3.83,4.07-5.45,1.1-1.1,2.42-1.64,3.96-1.15,1.57.5,2.32,1.74,2.43,3.29.21,2.99.24,5.99.46,8.98.3,4.06,2.07,5.09,5.7,3.44.78-.36.6-1.02.7-1.61.75-4.65,2.59-8.88,5.02-12.86,1.76-2.9,5.92-4.6,9.23-3.93,2.21.45,5.83,4.88,5.95,7.23.19,3.57-.78,7.03-.97,10.57-.07,1.36-.05,2.72.01,4.08.08,1.76-.45,3.12-2.36,3.37-2.05.27-3.34-.85-3.72-2.77-.24-1.21-.04-2.51-.04-3.78-.18-.06-.37-.12-.55-.17Zm-.51-11.82l-.66-.45c-2.8,2.27-3.52,5.64-4.18,9.05,1.61-2.87,3.23-5.74,4.84-8.6Z"/>
  <path d="m577.62,196.88c4.55-.76,8.65-1.96,12.92-2.19.47-.02.95-.5,1.35-.84,1.91-1.64,4.14-2.16,6.6-1.99,3.29.22,4.89,2.36,4.1,5.57-.57,2.32-2.1,4.12-3.8,6.32,1.84-1.15,3.22-2.17,4.72-2.92,1.62-.82,3.27-.71,4.27,1.04.94,1.65.11,2.94-1.22,4-2.71,2.14-5.4,4.29-8.11,6.42-1.3,1.02-2.75,1.78-4.39,2.07-7.09,1.25-10.52-2.36-9.11-9.54q.65-3.29-2.75-2.55c-1.68.37-3.36.77-5.05,1.12-3.09.65-4.19,2.38-3.5,5.6.63,2.97-.26,4.7-2.55,4.93-2.25.22-3.75-1.41-3.83-4.23-.03-.99-.11-2.05.17-2.98.64-2.2-.89-3.04-2.35-3.04-1.6,0-4.09-1.2-4.62,1.79-.34,1.94-.97,3.82-.49,5.9.47,2.01-.62,3.38-2.67,3.65-2.17.28-3.48-.79-3.69-3-.21-2.19.17-4.35.59-6.49.32-1.6.78-3.18.36-4.84-.08-.33-.11-.84.08-1.06,2.67-3.05,2.5-7.34,4.63-10.61.3-.46.62-.9.98-1.3,1.23-1.4,2.73-1.93,4.33-.81,1.53,1.07,1.47,2.68.61,4.13-.88,1.5-1.67,3.01-2.04,4.72-.12.56-.66,1.29.22,1.63.6.24,1.39.11,1.77-.41,1.48-2,2.89-3.82,5.76-1.98.54.35.88-.75,1.15-1.28,1.17-2.27,2.44-4.47,4.35-6.21,1.5-1.37,3.22-2.49,5.01-.73,1.76,1.73.87,3.48-.62,4.98-1.35,1.36-2.52,2.83-3.18,5.11Zm20.44,7.46c-2.19.88-3.8,1.53-5.53,1.29-1.38-.19-1.81.45-1.72,1.68.11,1.47,1.24,1.18,2.02.97,1.98-.53,3.38-1.95,5.23-3.93Z"/>
  <path d="m515.39,482.48c2.42-1.06,4.12-2.58,6.43-2.62,2.07-.04,4.03.37,4.38,2.72.37,2.49-1.37,3.29-3.56,3.4-1.45.07-2.52.99-3.65,1.73-2.58,1.7-5.39,2.03-8.36,1.62-1.4-.19-2.9-.63-3.52-1.82-1.26-2.44-4.18-3.58-4.77-6.46-.2-.96-.94-.95-1.7-.91-1.09.05-2.19.18-3.27.1-1.46-.11-2.21.53-2.45,1.91-.27,1.52-.51,3.04-.8,4.56-.32,1.7-1.22,2.94-3.07,2.86-1.97-.09-2.82-1.41-2.9-3.29-.09-2.12.54-4.12,1.01-6.16.56-2.37-.1-3.25-2.55-3.18-6.4.2-5.04-1.17-5.95,5.42-.37,2.7-.61,5.41-.94,8.12-.25,2.04-1.16,3.59-3.47,3.28-2.28-.3-2.85-2.09-2.65-4.07.32-3.25.77-6.49,1.23-9.72.17-1.22.15-2.2-.88-3.18-1.32-1.27-1.22-3.04.16-4.08,1.59-1.2,1.64-2.65,1.59-4.3-.06-2.3.1-4.56,1.46-6.53,1.09-1.58,2.51-2.53,4.39-1.49,1.77.98,1.71,2.61,1.02,4.28-.21.5-.49.98-.63,1.5-.97,3.73-.27,4.65,3.51,4.72,1,.02,2.11-.18,2.97.18,2.69,1.15,3.21-.35,3.76-2.49.7-2.72,1.61-5.41,3.31-7.72,1.22-1.66,2.75-2.97,4.8-1.51,1.86,1.32,1.45,3.17.32,4.83-1.56,2.3-2.19,4.97-3.04,7.55-.58,1.75-.34,2.84,1.91,2.41.8-.15,1.63-.19,2.44-.18,2.94.02,5.2-.5,6.54-3.81,1.32-3.26,4.36-4.16,7.81-3.27,2.03.52,2.97,1.88,3.04,3.97.11,3.27-1.09,7.05-3.94,11.65Z"/>
  <path d="m678.53,688.06c.47,6.49-.65,12.25-3.41,17.6-1.19,2.3-.16,3.36,1.62,4.29.71.37,1.57.47,2.28.86,1.24.67,1.85,1.78,1.5,3.19-.34,1.38-1.31,2.17-2.75,2.22-2.27.09-4.33-.56-5.97-2.17-.93-.92-1.62-1.2-2.64-.07-3.65,4.06-8.49,4.2-13.12,2.93-8.88-2.44-15.48-9.33-13.37-21.61,1.24-7.2,5.16-12.89,9.94-18.11,1.12-1.22,2.55-2.06,4.3-2.09,4.08-.08,8.17-.33,12.22.47.62.12,1.26.2,1.89.18,4.7-.13,7.01,1.79,7.48,6.51.21,2.07.03,4.17.03,5.8Zm-7.88,12.36c1.95-4.42,1.95-8.67,1.89-12.94-.04-3.24-1.72-5.37-4.9-5.99-2.96-.57-5.96-.5-8.95-.44-.95.02-1.81.3-2.41,1.06-4.17,5.22-7.94,10.56-7.76,17.76.17,7.04,6.44,12.47,13.49,11.37,3.38-.53,5.05-3.61,3.6-6.63-.94-1.97-1.94-3.89-3.3-5.61-1.24-1.57-1.96-3.29-.13-4.78,1.89-1.53,3.63-.61,4.93,1.04,1.22,1.55,2.24,3.24,3.55,5.16Z"/>
  <path d="m473.99,380.57c-2.87,2.26-4.95,4.71-6.51,7.6-1.03,1.92-1.95,3.9-3.09,5.75-.83,1.34-2.21,1.89-3.8,1.48-1.55-.39-2.24-1.62-2.25-3.06-.07-7.54-.32-15.08.14-22.61.03-.45.13-.9.25-1.34.48-1.78,1.55-2.97,3.51-2.66,1.99.31,2.69,1.79,2.43,3.63-.53,3.77-.29,7.53-.27,11.72,2.42-2.26,4.49-4.23,6.6-6.16,1.83-1.67,3.89-2.89,6.42-1.8,2.36,1.02,2.59,3.28,2.73,5.52.13,2.18.34,4.35.51,6.52.15,1.91.45,3.63,3.08,3.28.45-.06.97.34,1.55.57.82-4.76,1.3-9.45,3.97-13.58,2.05-3.18,5.3-4.27,8.48-5.54,1.19-.47,2.82.04,2.99,1.2.46,3.26,4.43,4.61,3.96,8.48-.57,4.75-1.17,9.36-3.94,13.41-2.8,4.11-6.75,5.7-11.59,4.71-2.31-.47-3.25-2.11-3.81-4.13-5.62,2.62-9.28.71-10.31-5.39-.41-2.39-.66-4.81-1.03-7.6Zm17.51,8.28c.26.95-.54,2.25.61,2.72,1.23.51,2.23-.42,3-1.34,2.3-2.76,2.96-6.11,3.34-9.55.2-1.81-1.5-2.18-2.48-2.84-.9-.6-1.41.75-1.86,1.47-1.83,2.93-2.08,6.29-2.62,9.54Z"/>
  <path d="m741.74,198c-2.22,2.37-2.98,4.68-3.86,6.93-.43,1.09-.85,2.22-1.49,3.19-.83,1.24-2.13,1.71-3.59,1.24-1.37-.44-2-1.52-2.02-2.92-.03-2.42,0-4.84,0-7.71-2.21,1.71-3.36,3.7-4.42,5.75-.84,1.62-1.67,3.23-2.93,4.57-1.14,1.21-2.54,1.8-4.18,1.26-1.69-.55-2.37-1.92-2.42-3.58-.07-1.9-.02-3.8-.02-6.23-2.09,2.23-2.8,4.69-4.17,6.74-.6.9-1.12,1.88-1.83,2.68-.86.95-2.04,1.18-3.25.72-1.12-.42-1.89-1.3-1.81-2.48.34-5.05.22-10.16,1.49-15.11.42-1.64,1.45-3.01,3.42-3,1.87,0,2.61,1.35,3.08,3.08,1.91-1.91,3.51-4.47,6.65-3.35,3.78,1.35,1.91,4.96,2.64,7.44,1.59-1.45,2.97-3.23,4.78-4.24,2.14-1.2,4.14-2.23,5.27-4.61.52-1.1,1.88-1.38,3.14-.93,1.38.49,1.96,1.56,1.88,2.98-.03.62-.17,1.24-.3,2.15,1.24-.79,2.27-1.61,3.42-2.15,3.53-1.66,6.46.12,6.59,4.01.1,2.81.06,5.63.01,8.45-.02,1.35.08,2.4,1.65,2.97,1.19.43,1.71,1.62,1.46,2.93-.27,1.4-1.21,2.15-2.61,2.42-4.1.77-6.46-1.13-6.56-5.39-.05-2.35,0-4.71,0-7.79Z"/>
  <path d="m411.58,524.11c-1.49,3.29-2.95,6.59-4.47,9.87-2.25,4.87-5.43,5.5-9.16,1.77-.6-.6-.84-.55-1.51-.13-4.04,2.5-5.88,2.43-9.26-.42-.72-.61-1.34-.67-2.2-.59-4.53.4-6.99-1.33-8-5.84-1.01-4.48-.83-9.02-.11-13.54.31-1.93,1.33-3.3,3.46-3.03,2.16.28,2.8,1.92,2.51,3.83-.4,2.62-.38,5.25-.37,7.88,0,1.28.1,2.54.77,3.9,1.32-1.6,1.46-3.5,1.92-5.27.51-1.95,1.2-3.87,3.69-3.51,2.43.34,2.7,2.36,2.73,4.37.04,2.43-.28,4.87.19,7.46,1.37-.38,2.37-1.49,3.88-1.14,1.47.35.97-.96,1-1.62.12-3.26-.17-6.54.36-9.79.1-.63.17-1.26.32-1.88.45-1.94,1.35-3.55,3.65-3.17,2.36.39,2.62,2.24,2.29,4.2-.54,3.23-.57,6.47.12,9.93.62-1.41,1.23-2.82,1.87-4.21,1.09-2.4,2.08-4.85,3.67-6.97,1.35-1.8,3.14-2.81,5.44-2.31,2.35.52,3.01,2.43,3.28,4.51.4,3.15.7,6.32,1.08,9.47.11.96.07,1.95,1.38,2.36,1.5.46,2.13,1.69,1.81,3.22-.33,1.6-1.49,2.45-3.04,2.75-2.93.56-5.32-1.42-5.9-5-.37-2.3-.55-4.63-.81-6.95-.19-.04-.39-.08-.58-.12Z"/>
  <path d="m423.52,569.3c-5.27.33-7.24,2.95-8.95,8.73-.3,1.03-.33,2.15-.4,3.23-.13,2.14-.87,3.91-3.31,3.77-2.43-.14-3.01-2.02-2.95-4.12.12-4.26.28-8.52.41-12.78.06-1.87.8-3.52,1.61-5.15.85-1.7,1.86-3.29,4.1-2.8,2.37.52,2.3,2.45,2.09,4.72,1.94-.69,3.69-1.29,5.42-1.92,1.48-.54,3.03-.67,3.89.81.75,1.3,1.31,1.5,2.58.72,1.29-.79,2.85-.73,4.24-.33,1.6.46,1.9-.16,1.84-1.55-.05-1.08-.05-2.19.1-3.26.24-1.72,1.25-2.89,3.06-2.87,1.8.02,2.91,1.15,2.98,2.92.12,3.08.05,6.17.05,9.25,0,3.54-.01,7.08-.03,10.62,0,1.01.05,1.98.7,2.84,1.22,1.6,1.43,3.3-.4,4.48-1.94,1.25-3.92.52-4.92-1.31-1.09-1.98-1.77-1.99-3.67-.83-5.36,3.27-10.32.3-10.25-5.94.02-1.63.15-3.27.46-4.87.28-1.47.86-2.89,1.33-4.37Zm4.32,7.81c.15.66-.44,1.74.6,2.03.91.26,1.45-.64,1.82-1.33.89-1.66,1.77-3.33,2.48-5.07.32-.78,1.23-2,.04-2.52-1.12-.48-2.46-.2-3.22,1.19-.97,1.77-1.57,3.62-1.72,5.7Z"/>
  <path d="m430.67,481.16c1.57-1.01,2.56-2.81,4.76-2.86.76-.01.75-.92.83-1.53.25-1.98.56-3.95.69-5.94.24-3.45,2.3-5.62,5.01-7.31,1.29-.81,2.65-.71,3.7.47,1.04,1.17,1.21,2.87.1,3.7-3.25,2.46-2.78,6.06-3.38,9.36-.33,1.78-.51,3.59-.84,5.37-.24,1.3-.27,2.32.9,3.38,1.82,1.64,1.6,3.77.37,5.7-1.21,1.89-2.99,3.04-5.3,2.47-2.33-.58-2.95-2.45-2.83-4.66.04-.78,0-1.56,0-2.86-1.5,1.18-2.61,2.06-3.73,2.92-3.08,2.36-6.48,3.22-10.24,2.03-2.9-.92-4.86-2.71-5.19-5.95-.11-1.07-.58-2.09-.78-3.15-.46-2.43-.98-4.83,1.69-6.57.75-.49,1.05-1.65,1.56-2.5,2.5-4.18,5.98-6.46,11.05-5.82,2.84.36,4.43,1.94,4.58,4.79.17,3.35-1.25,6.15-2.95,8.96Zm-8.52-1.68c2.3-.91,3.65-2.17,4.52-3.93.3-.6.97-1.39.2-1.91-.63-.43-1.39.14-1.91.65-1.35,1.33-2.41,2.84-2.81,5.19Z"/>
  <path d="m389.95,482.55c-1.34,2.97-2.67,5.95-4.04,8.91-.38.82-.8,1.65-1.36,2.35-.91,1.13-2.14,1.73-3.62,1.3-1.5-.43-2.31-1.63-2.27-3.07.2-7.3.96-14.53,4.71-21.02,1.4-2.42,3.33-2.65,5.33-.76.64.6.93.73,1.77.35,4.74-2.14,6.75-.79,6.78,4.44,0,1,0,1.99,0,3.1,1.2,0,1.43-1.04,1.98-1.65,1.16-1.27,2.18-2.68,3.43-3.86,1.64-1.56,3.68-2.09,5.8-1.2,2.08.88,2.35,2.83,2.32,4.83-.08,5.35-.15,10.71-.25,16.06-.03,1.51-.67,2.67-2.26,2.98-1.64.32-2.84-.4-3.53-1.9-.72-1.55-.51-3.2-.41-4.83.17-2.68.3-5.36-.11-8.25-1.21,1.41-2.37,2.86-3.63,4.21-1.17,1.26-2.37,2.53-3.71,3.59-1.34,1.05-2.95,1.47-4.59.57-1.54-.84-1.98-2.28-1.94-3.93.01-.72,0-1.44,0-2.16-.13-.02-.27-.03-.4-.05Z"/>
  <path d="m459.43,202.7c1.48-1.71,2.77-3.19,4.05-4.68,1.13-1.33,2.42-2.47,4-3.22,3.57-1.7,6.51-.28,7.42,3.57.14.6.24,1.21.4,2.09,1.6-1.48,2.97-2.92,4.51-4.13,1.69-1.32,3.63-2.25,5.8-1.19,2.11,1.03,2.38,3.08,2.4,5.13.01,1.72-.1,3.45-.24,5.17-.14,1.7-.38,3.28.67,4.94.94,1.5.32,3.17-.91,4.48-1.16,1.23-2.58,1.76-4.2,1.17-1.77-.64-2.49-2.11-2.37-3.89.19-2.88.53-5.74.84-8.98-1.8,1.07-2.48,2.63-3.27,4.07-.91,1.67-1.68,3.43-3.02,4.83-1.26,1.32-2.77,1.77-4.46,1.09-1.55-.62-1.97-2.02-1.97-3.57,0-2.59,0-5.17,0-8.42-3.03,3-5.17,5.74-6.9,8.82-.98,1.74-1.92,3.52-3.11,5.11-.91,1.22-2.32,1.79-3.89,1.19-1.45-.56-2.02-1.75-2.02-3.24,0-3.82-.01-7.63.03-11.45.02-2,.94-3.69,2.13-5.2,1.09-1.39,2.58-1.78,4.11-.84,1.45.89,1.58,2.32,1,3.85-.37.98-1.23,1.8-1.01,3.31Z"/>
  <path d="m569.82,431.16c-2.97,1.12-5.33,1.65-7.8,1.26-3.37-.52-4.94-2.26-5.15-5.63-.29-4.86.52-9.42,3.52-13.4,2.01-2.66,6.61-3.89,9.59-2.58,1.31.57,1.96,1.61,1.76,3.05-.19,1.45-1.14,2.15-2.52,2.47-1.43.34-3.21-.43-4.26,1.2-1.36,2.11-2.02,4.41-2.05,6.95-.03,2.21,1.08,2.17,2.6,1.59,1.23-.47,2.1-1.43,2.9-2.42,1.87-2.34,3.65-4.75,5.53-7.08,1.19-1.47,2.59-2.75,4.66-1.69,1.95,1,2.03,2.84,1.78,4.74-.05.36-.1.73-.22,1.06-3.25,8.85-6.07,17.88-10.45,26.29-1.06,2.03-2.5,3.79-4.14,5.37-1.57,1.51-3.41,2.4-5.68,2.06-2.26-.34-3.87-2.28-3.48-4.4.41-2.26,1.82-3.37,4.12-2.74,1.78.49,2.27-.9,2.9-1.85,2.79-4.18,4.41-8.9,6.38-14.25Z"/>
  <path d="m544.31,438.37c-1.1.24-1.96.51-2.84.62-3.72.45-6.57-1.52-6.84-4.98-.44-5.58.11-11.05,2.09-16.36,1.76-4.74,5.35-6.62,10.11-6.84,1.15-.05,2.65.21,2.81,1.23.51,3.22,3.21,5.45,3.09,9.11-.32,9.72-1.51,19.19-5.41,28.18-.39.91-.81,1.84-1.38,2.64-.88,1.23-2.18,1.6-3.63,1.26-1.37-.32-2.22-1.23-2.45-2.62-.41-2.44-.28-4.9.11-7.33.21-1.31,1.11-2.17,2.42-2.21,1.67-.05,1.89-1.06,1.94-2.7Zm-3.51-5.4c.8-.75,1.2-1,1.43-1.36,2.65-4.07,3.38-8.75,4.19-13.41.17-.97-.44-1-1.16-.95-1.25.09-1.97.87-2.44,1.91-1.91,4.2-2.48,8.6-2.02,13.81Z"/>
  <path d="m510.39,428.1c.31-1.79.16-4.17-1.05-6.61-1.3-2.61-.09-4.52,2.78-4.66,1.33-.07,1.68-.81,2.17-1.65,1.24-2.13,2.76-4.04,4.62-5.67,2.48-2.17,5.39-2.5,8.44-1.85,2.68.57,3.99,2.34,3.86,5.13-.12,2.45-.46,4.89-1.24,7.22-1.9,5.7-4.71,7.62-10.8,7.31-1.55-.08-2.95-.34-2.83,1.96.1,1.93-.62,4.21,2.55,4.36,3.97.18,6.74-1.93,8.84-4.9,1.19-1.68,2.32-3.04,4.35-1.95,2.16,1.16,1.87,3.28.88,5.01-2.9,5.11-10.86,10.32-18.46,7.01-2.42-1.06-3.97-2.86-4.11-5.6-.07-1.45-.01-2.9-.01-5.11Zm9.86-6.76c2.6-.04,4.37-2.6,4.52-6.21.02-.51.3-1.14-.33-1.43-.55-.25-1.06.13-1.47.45-1.75,1.35-2.86,3.2-3.93,5.08-1.03,1.81-.21,2.22,1.21,2.1Z"/>
  <path d="m936.31,208.06c-1.11.92-2.15,1.94-3.33,2.74-2.18,1.48-4.58,1.78-6.97.59-2.28-1.14-2.56-3.32-2.56-5.59,0-7.05,4.13-13.74,9.53-15.44,1.91-.6,3.74-.73,4.58,1.47.81,2.13-.47,3.37-2.33,4.23-3.4,1.56-5.21,4.54-5.52,8.93.94.4,1.25-.47,1.67-.93,3.68-4.09,6.66-8.59,8.14-13.98.63-2.27,1.35-4.54,2.72-6.5,1.15-1.64,2.75-2.54,4.7-1.65,2.09.96,1.97,2.82,1.36,4.69-1.41,4.3-4.13,8.1-4.84,12.68-.13.88-.29,1.75-.5,3.02,2.01-1.1,3.81-1.63,5.05.3,1.3,2.01.78,4.03-.6,5.81-3.36,4.32-8.25,4.15-11.1-.38Z"/>
  <path d="m693.15,708.16c2.21-5.96,5.62-10.7,7.24-16.31.35-1.22.69-2.46,1.23-3.6.62-1.33,1.77-2.14,3.3-1.92,1.66.23,2.61,1.35,2.68,2.98.13,3.08.14,6.18.16,9.26.02,4.27.02,8.55-.02,12.82-.02,2.04-.47,4.04-3,4.05-2.54,0-2.96-1.99-3-4.04-.03-1.88,0-3.75-.64-5.78-.8,1.56-1.54,3.15-2.41,4.66-1.93,3.34-4.24,4.35-7.72,3.46-3.32-.85-4.79-2.79-4.76-6.64.03-5.18.19-10.36.3-15.54,0-.45.06-.91.1-1.36.18-1.96,1.07-3.41,3.2-3.3,2.17.11,2.84,1.73,2.8,3.65-.09,4.72-.24,9.45-.32,14.17-.01.86-.28,1.8.87,3.43Z"/>
  <path d="m464.7,527.8c-2.75,2.88-5.34,4.99-9.17,4.72-3.94-.27-6.09-2.1-6.27-6.02-.13-2.81-.07-5.62-.01-8.44.04-1.82.78-3.26,2.83-3.31,2.2-.05,2.99,1.43,3.07,3.37.08,1.99.02,3.99.09,5.99.03.76-.33,1.76.67,2.14.96.36,1.76-.21,2.43-.86,1.78-1.72,3.18-3.72,4.29-5.92.61-1.21,1.2-2.44,1.82-3.65.81-1.58,1.98-2.67,3.9-2.26,2.04.43,2.72,2.05,2.78,3.87.18,5.08.12,10.15-.65,15.21-.45,2.97-.85,5.91-2.17,8.66-1.32,2.74-3.28,4.78-6.1,5.92-2.02.81-3.95.72-5.4-1.15-1.33-1.7-1.17-5.43.29-7.48,1.24-1.74,2.87-2.6,4.91-1.46,1.18.66,1.44.06,1.64-.83.58-2.62,1.07-5.24,1.06-8.5Z"/>
  <path d="m958.57,246.15c-2.19,2.78-4.42,4.49-7.7,3.98-2.82-.44-4.32-1.83-4.39-4.65-.15-5.67,1.72-10.68,5.47-14.95,1.82-2.07,4.27-1.91,6.58-1.41,1.93.42,2.53-.32,2.97-1.96.42-1.57.99-3.11,1.69-4.57.88-1.85,2.28-3.29,4.51-2.42,2.32.9,2.19,2.94,1.5,4.84-1.67,4.6-3.44,9.14-3.98,14.08-.29,2.63-.35,5.24-.39,7.87-.01.84.13,1.57.76,2.23,1.49,1.54,1.33,3.11-.22,4.49-1.47,1.3-3.91.9-5.36-.7-1.64-1.82-1.03-4.11-1.45-6.82Zm-5.03-3.66c1.15-1.93,2.32-3.84,3.42-5.79.25-.44,1.07-1.06.11-1.53-.68-.34-1.16.2-1.54.76-1.35,1.94-2.48,3.97-1.98,6.57Z"/>
  <path d="m563.54,578.72c-.98.44-1.46.7-1.98.88-5.52,1.83-8.93-.99-7.97-6.66.53-3.13,2.12-5.78,4.38-7.99,1.32-1.29,3.03-1.88,4.77-1.22,2.1.79,2.78-.1,3.1-1.95.4-2.23.91-4.44,1.32-6.67.38-2.02,1.35-3.49,3.6-3.24,2.15.24,2.6,1.92,2.69,3.8.44,9.1-.53,17.94-4.36,26.34-.94,2.06-1.59,4.24-1.88,6.52-.25,1.9-1.16,3.42-3.33,3.13-2.12-.28-2.65-1.96-2.58-3.86.11-3.01,1.37-5.75,2.24-9.07Z"/>
  <path d="m542.27,532.12c-2.52,3.97-5.98,5.82-10.64,5.2-3.14-.42-4.72-1.99-4.91-5.11-.38-6.32,2.28-11.23,6.98-15.21,1.86-1.57,4.09-1.92,6.4-1.73,1.54.12,2.15-.37,2.13-1.92-.01-.79.21-1.62.48-2.38.42-1.22,1.32-1.96,2.65-1.99,1.45-.03,2.37.78,2.87,2.09.39,1.04.42,2.12.39,3.22-.08,2.81-.12,5.62-.16,8.44-.03,2.29-.43,4.51,2.43,5.9,1.81.89,1.49,3.78-.13,5.5-1.88,1.99-5.05,2.18-6.82.33-.6-.62-1.01-1.42-1.66-2.34Zm-9.4-2.61c.08.69-.3,1.46.61,1.68.86.21,1.62-.15,2.22-.74,2-1.94,3.01-4.46,3.98-6.99.24-.62.84-1.41.05-1.94-.61-.41-1.44-.2-2.04.25-2.61,1.99-4.35,4.53-4.82,7.74Z"/>
  <path d="m764.47,202.83c-2.38,1.37-4.19,2.1-6.29,1.91-2.31-.2-3.89-1.35-4.1-3.62-.35-3.7-.51-7.43.2-11.12.3-1.6,1.07-2.94,2.78-3.36,2.05-.5,3.72,1.26,3.31,3.72-.39,2.35-.48,4.67-.3,7.33,2.38-1.22,3.46-3.25,4.32-5.37.64-1.59,1.03-3.29,1.58-4.92.54-1.61,1.54-2.72,3.4-2.51,1.85.21,2.67,1.55,2.77,3.2.09,1.62-.02,3.27-.26,4.88-1.03,7-1.75,14.04-3.3,20.96-1.49,6.65-6.89,7.33-12.39,6.15-1.78-.38-2.84-1.89-2.99-3.82-.11-1.37.26-2.59,1.52-3.26,1.61-.86,3.04-.56,4.46.7,1.61,1.43,2.91.82,3.37-1.17.69-2.98,1.21-6.01,1.93-9.7Z"/>
  <path d="m433.51,388.3c-.05-6.12.65-12.13,2.87-17.89,1.02-2.64,2.29-5.16,4.38-7.13,2.84-2.69,6.98-2.65,9.8.05.98.94,1.97,1.87,2.92,2.85,1.21,1.25,1.61,2.73.51,4.17-1.22,1.61-2.83,1.4-4.36.41-.75-.49-1.43-1.12-2.09-1.73-2.09-1.92-2.53-1.9-3.98.61-2.95,5.1-3.71,10.75-3.96,16.5-.08,1.81-.07,3.63-.02,5.44.05,2.15.93,2.7,2.95,1.8,1.6-.71,2.83-1.94,4.07-3.15,1.82-1.77,3.58-3.61,5.47-5.31,1.34-1.2,2.98-1.62,4.38-.19,1.39,1.42.99,3.05-.24,4.39-2.84,3.06-5.68,6.12-9.03,8.66-2.2,1.67-4.71,2.27-7.44,2-3.78-.37-6.12-2.82-6.23-6.59-.05-1.63,0-3.27,0-4.9Z"/>
  <path d="m865.14,233.32c2.37-.71,4.4-1.43,6.58-1.43,2.89.01,4.78,1.34,5.74,4.08,2.99,8.53-5.16,18.79-14.15,17.79-.36-.04-.73-.08-1.07-.19-2.64-.86-6.42-7.87-5.58-10.54,1.92-6.09,3.1-12.28,3-18.7-.03-1.89.89-3.22,2.86-3.26,1.96-.05,2.95,1.27,3.14,3.1.31,2.97.03,5.94-.52,9.15Zm-.12,10.86c0,.81-.01,1.63,0,2.44.01.67.34.94,1.04.84,2.71-.35,6.39-5.26,5.95-7.92-.18-1.07-.56-1.56-1.8-1.36-3.31.53-5.25,2.67-5.19,6Z"/>
  <path d="m557.69,374.97c2.89-5.27,6.86-6.21,10.57-2.86,1.38,1.25,1.92,2.77,1.96,4.59.09,4.72-1.72,8.6-5.46,11.93,3.1,1.01,5.93,1.06,8.78.58,1.93-.33,3.57-.1,4.06,2.05.47,2.09-.83,3.34-2.69,3.74-5.29,1.13-10.91,1.34-15.11-2.16-3.34-2.79-6.23-6.65-7.32-11.24-.56-2.37-.76-4.83-1.19-7.24-.35-1.97-.22-3.84,2.02-4.39,2.42-.6,3.39,1.09,3.89,3.14.13.53.27,1.05.48,1.87Z"/>
  <path d="m707.56,238.99c-2.72,3.24-5.68,5.46-9.98,4.99-2.83-.31-4.3-1.64-4.43-4.5-.12-2.45-.03-4.89.6-7.3,1.46-5.63,4.57-7.85,10.34-7.26q3.95.41,4.94-3.35c.37-1.41.71-2.84,1.65-4,1.05-1.3,2.42-2.02,4.08-1.32,1.68.72,2.13,2.21,1.7,3.86-.55,2.1-1.24,4.17-1.92,6.24-.61,1.83-.88,3.7-.91,5.62-.02,1.2.11,1.88,1.63,2.19,2.6.53,3.23,3.11,1.55,5.29-2.3,2.98-6.29,2.86-9.24-.46Zm-2.32-7.47c-1.67-.72-3.38-1.19-4.49.05-1.46,1.63-1.67,3.82-1.31,6.26,2.93-1.45,4.27-3.87,5.81-6.31Z"/>
  <path d="m366.72,572.9c1.81-1.45,2.96-3.17,4.26-4.75.75-.91,1.42-1.9,2.28-2.69,2.73-2.48,6.07-1.43,6.69,2.22.45,2.67.48,5.41.71,8.13.07.79-.05,1.6.98,2.01,1.82.74,2.29,2.26,1.87,4.03-.43,1.81-1.76,2.68-3.53,2.89-1.91.23-3.4-.49-4.31-2.2-.83-1.56-.93-3.29-1.04-5.02-.06-.96.2-2-.69-3.26-1.75,2.05-3.42,4-5.08,5.97-.64.76-1.19,1.61-1.85,2.35-1.16,1.31-2.61,2.08-4.36,1.46-1.87-.66-2.57-2.27-2.53-4.11.14-7.36,1.27-14.62,2.25-21.89.16-1.22.82-2.4,1.41-3.52.8-1.5,2.07-2.39,3.82-1.74,1.75.66,2.32,2.27,1.67,3.8-2.05,4.81-1.31,10.04-2.55,14.96-.08.33-.01.71-.01,1.34Z"/>
  <path d="m437.9,525.35c-1.42,2.52-2.51,4.46-3.61,6.39-.63,1.11-1.37,2.15-2.41,2.92-3.09,2.27-7.28.57-7.52-3.2-.25-3.97-.33-7.97.5-11.93.6-2.85,2.4-4.6,4.87-5.81,1.48-.72,2.88-.54,3.88.84,1.09,1.53.71,3.12-.7,4.07-2.44,1.64-2.53,3.96-2.1,6.63.69-1.31,1.39-2.62,2.08-3.93,1.15-2.18,2.44-4.27,4.38-5.84,1.34-1.09,2.88-1.61,4.56-.83,1.67.78,2.28,2.24,2.29,4.01,0,.73,0,1.45.03,2.18.07,2.08-.82,4.67,2.81,4.74.74.01,1.23.97,1.47,1.81,1.01,3.53-2.82,8.76-6.52,8.87-2.4.07-3.86-1.26-3.98-3.82-.1-2.13-.02-4.27-.02-7.09Z"/>
  <path d="m322.53,561.97c-1.96-.11-3.39.72-4.9,1.29-1.59.59-3.13.51-4.04-1.12-.98-1.76-.22-3.27,1.3-4.2,3.64-2.24,7.71-2.74,11.8-1.88,3.05.64,4.03,4.53,2.15,7.95-.68,1.25-1.24,1.83.67,2.64,4.98,2.12,5.66,9.22,1.2,12.31-4.49,3.11-9.78,4.21-15.02,5.28-1.69.35-3.1-.5-3.49-2.28-.4-1.84.68-2.94,2.32-3.46,2.68-.85,5.4-1.55,8.07-2.4,1.2-.38,2.35-.94,3.5-1.47.67-.31,1.32-.71,1.19-1.61-.16-1.04-1.04-.84-1.71-.88-1.64-.09-3.26.04-4.77.81-.72.37-1.47.73-2.25.94-1.61.43-3.12.26-4-1.38-.82-1.53-.2-2.88.96-3.89,1.36-1.19,2.89-2.19,4.3-3.32,1.05-.84,2.13-1.69,2.72-3.28Z"/>
  <path d="m319.97,511.23c.45,0,.91,0,1.36,0,4.67.09,6.5,2.11,5.72,6.72-.71,4.16-2.93,7.77-4.76,11.51-.16.32-.39.61-.56.93-.45.85-1.54,1.92-.67,2.64.97.81,1.58-.71,2.34-1.21,2.78-1.82,5.02-4.46,8.31-5.5,3.32-1.06,5.26.12,5.87,3.54.14.77-.03,1.58.96,2.04,1.89.88,2.45,2.39,1.45,4.25-.94,1.74-3.35,2.21-5.28,1.13-.39-.22-.76-.5-1.09-.8-2.46-2.25-3.67-2.28-6.21,0-1.42,1.27-2.72,2.76-4.76,2.96-2.56.25-5.35.48-6.94-2-1.85-2.9-1.57-6.16.12-9.05,1.61-2.75,2.84-5.67,4.26-8.5,1.01-1.99.61-2.85-1.7-2.59-.54.06-1.09,0-1.63-.03-1.85-.12-3.2-.91-3.22-2.94-.03-2.06,1.39-2.83,3.18-3,1.08-.1,2.17-.02,3.26-.02,0-.02,0-.05,0-.07Z"/>
  <path d="m354.59,485.19c.07-2.94.77-7.42,2-11.8,1.44-5.15,4.26-7.02,9.49-6.52,7.19.68,8.23,2.04,7.31,9.26-.68,5.32-2.44,10.22-5.31,14.72-1.08,1.7-2.39,3.2-4.37,3.93-5.78,2.13-9.14-.81-9.11-9.59Zm5.95.56s.1.02.15.02c0,.54-.02,1.09,0,1.63.02.52-.16,1.2.48,1.42.59.2,1.02-.3,1.32-.74,2.93-4.18,4.49-8.85,4.95-13.91.05-.54-.44-1.44-.75-1-1.28,1.87-4.25,1.93-4.82,4.27-.67,2.71-.91,5.53-1.34,8.3Z"/>
  <path d="m621.64,534.86c-.86-6.9,1.43-13.3,3.13-19.77.52-1.99,1.63-4.51,3.94-4.31,3.07.27,6.83-.03,8.6,3.48,3.43,6.81,3.89,13.4-4.2,17.26-4.47,2.13-5.38,5.17-5.26,9.36.02.89-.17,1.81-.41,2.67-.41,1.47-1.44,2.34-3,2.26-1.55-.08-2.47-1.03-2.78-2.54-.56-2.8.08-5.61-.03-8.4Zm7.82-8.49c3.99-1.96,4.77-3.83,3.38-7.29-.22-.56-.31-1.34-1.11-1.31-.75.03-1.03.75-1.14,1.34-.41,2.29-.72,4.59-1.13,7.27Z"/>
  <path d="m610.27,529.65c-.85,1.55-1.45,2.85-2.22,4.03-2.82,4.29-8.48,4.3-10.95-.2-2.79-5.08-2.91-10.6-1.35-16.12.49-1.74,1.84-2.82,3.75-2.27,1.9.55,2.5,2.15,2.01,3.9-.8,2.89-.71,5.76-.15,8.63.17.9.1,2.32,1.26,2.42.99.08,1.13-1.27,1.46-2.06,1.28-3.1,2.4-6.27,3.74-9.34.61-1.4,1.5-2.69,2.38-3.95.91-1.3,2.21-1.91,3.8-1.47,1.72.48,2.49,1.8,2.54,3.47.1,3.36.08,6.71.1,10.07.01,2.08,0,4.14.71,6.18.61,1.77.3,3.56-1.75,4.27-2.04.71-3.18-.48-4.03-2.24-.76-1.58-.64-3.35-1.29-5.32Z"/>
  <path d="m386.09,578.88c-.12-2.91.12-5.76,1.1-8.56,1.96-5.63,6.27-7.9,11.78-8.55,1.63-.19,3.39.52,3.27,2.07-.22,2.8,1.2,5.17,1.33,7.82.14,2.94-.3,5.96,1.66,8.62.64.87.19,2.12-.67,2.97-1.01.99-2.38,1.42-3.49.76-1.6-.95-2.21-.43-3.1.93-1.91,2.91-5.07,3.94-8.35,2.92-2.11-.66-3.33-2.18-3.52-4.38-.13-1.53-.02-3.08-.02-4.62Zm6.55,2.68c2.24-3.88,3.39-8.05,3.63-12.72-3.58,1.99-5.08,7.18-3.63,12.72Z"/>
  <path d="m930.26,241.22c-.81,4.15-.09,4.9,3.9,4.1,1.71-.34,3.21-1.19,4.71-2.07,1.56-.91,3.2-1.1,4.34.58,1.11,1.65.45,3.23-.97,4.31-4.4,3.34-9.33,4.35-14.64,2.72-2.28-.7-3.6-2.41-3.7-4.86-.16-3.73-.21-7.46,1.61-10.9.13-.24.33-.51.31-.75-.55-4.99,2.53-5.59,6.39-5.42,1.62.07,3.26-.19,4.89-.12,4.12.2,6.12,1.91,6.33,5.27.25,3.95-2.27,7.29-5.96,7.91-2.47.41-4.85-.15-7.21-.77Z"/>
  <path d="m508.85,390.47c-.04-4.39.88-8.65,1.82-12.91.38-1.7,1.25-3.22,2.28-4.61.73-.98,1.97-2.03,2.98-1.4,2.11,1.33,3.92.23,5.89-.03,4.54-.62,7.08,1.57,6.79,6.08-.51,7.78-4.28,13.94-10.16,18.86-1.87,1.56-4.2,1.66-6.49,1.19-1.76-.36-2.88-1.56-3.08-3.38-.14-1.25-.03-2.54-.03-3.81Zm6.06.63c4.23-3,7.66-9.43,7.16-13.3-1.3,1.38-2.64,2.41-4.57,1.51-.98-.45-.99.48-1.12,1.02-.82,3.42-1.5,6.87-1.46,10.77Z"/>
  <path d="m356.67,530.69c-.27-3.31-.05-6.89,2.23-10.03.59-.81.39-1.73.37-2.63-.09-5.72,2.94-8.37,8.58-7.39,2.52.43,4.48,1.94,6.17,3.75,1.03,1.11,1.1,2.49.14,3.73-.97,1.25-2.27,1.48-3.64.77-1.12-.58-2.15-1.34-3.24-1.98-.48-.28-1.07-.43-1.54-.07-.62.48-.44,1.2-.14,1.74.43.78,1.02,1.49,1.58,2.19.96,1.21,2.06,2.31,2.9,3.6,2.1,3.25,2.8,6.81.9,10.3-2.02,3.71-5.5,5.43-9.68,5.49-3.04.05-4.46-1.4-4.61-4.48-.08-1.54-.01-3.08-.01-5Zm6.43-4.8c-.17.66-.31.99-.32,1.33-.04,1.54-.05,3.08-.03,4.61,0,.51-.22,1.17.35,1.47.68.36,1.21-.19,1.68-.57,1.91-1.55,1.33-4.2-1.68-6.84Z"/>
  <path d="m726.61,243.99c-4.94.01-5.76-.71-6.79-6.18-.11-.6-.44-1.18-.73-1.73-1.93-3.65-.24-8.64,3.6-10.27,1-.42,1.59-1.17,2.28-1.87,1.03-1.05,2.12-2.1,3.58-2.39,2.22-.45,4.63-.99,6.48.79,2.2,2.11,1.19,4.82.62,7.22-.4,1.67-1.07,2.56,1.39,3.3,2.25.67,1.97,3.11.96,4.89-2.39,4.22-6.08,6.35-11.38,6.23Z"/>
  <path d="m466.52,477.6c1.73-.81,3.33-1.34,4.6.31,1.25,1.62.7,3.29-.15,4.86-3.27,5.98-11.34,7.8-16.86,3.83-.29-.21-.61-.39-.93-.53-5.4-2.38-6.96-8.07-3.52-12.85.54-.75,1.31-1.88,2.02-1.64,2.83.96,4.46-1.35,6.66-2.04,5.8-1.82,9.09,1.3,8.18,8.05Z"/>
  <path d="m792.06,229.78c.03,5.25-2.65,8.16-8.08,8.63-2.21.19-3.17.88-3.36,3.16-.2,2.33-.83,4.64-1.43,6.92-.46,1.73-1.58,2.95-3.55,2.69-1.95-.26-2.65-1.7-2.77-3.5-.14-2.2.11-4.36.78-6.45.41-1.28.76-2.38-1.02-3.04-1.21-.45-1.66-1.65-1.44-2.94.24-1.43,1.18-2.32,2.59-2.38,1.57-.06,1.91-.9,2.06-2.24.44-3.82,2.47-6.78,5.42-9.11,3.94-3.11,8.64-1.6,10.08,3.2.52,1.75.79,3.55.72,5.08Zm-6.93-3.19c-1.33,1.25-1.76,2.91-2.38,4.46-.45,1.13.01,1.46,1.13,1.26,2.26-.4,2.75-2.47,1.25-5.72Z"/>
  <path d="m429.23,206.69c-.16-4.72.97-8.99,4.35-12.47,1.63-1.68,3.37-2.56,5.4-.61.69.67,1.51.47,2.31.5,5.51.22,10.21,3.4,10.86,7.38.95,5.79-2.75,12.68-7.91,14.42-3.07,1.03-6.27,1.04-9.38.1-4.18-1.27-5.63-3.79-5.62-9.32Zm6.08-.92c.07,2.12-.46,3.99,1.97,4.6,4.39,1.09,8.26-1.55,8.81-6.04.17-1.42-.24-2.43-1.52-3.16-2.25-1.29-5.24-1.98-7.13-1.46-2.12.59-2.13,4.04-2.13,6.07Z"/>
  <path d="m562.61,529.49c3.87.96,4.93.55,6.42-2.34.6-1.17,1.51-1.84,2.83-1.7,1.28.14,2.19.9,2.52,2.16.62,2.35-.17,4.27-1.93,5.87-3.09,2.8-10.02,3.76-13.61,1.42-2.76-1.8-4.9-4.67-6.02-7.61-1.13-2.99-.5-6.46,1.3-9.43.69-1.13,1.64-2.55,2.85-2.13,2.3.8,3.67-.58,5.37-1.43,1.87-.93,3.93-.81,5.88-.41,2.32.47,3.18,2.93,2.04,5.82-1.22,3.09-3.28,5.63-5.63,7.94-.58.57-1.19,1.09-2.03,1.85Z"/>
  <path d="m492.87,209.79c-.22-2.21.95-4.66.35-7.23-.16-.71.21-1.57.86-1.9,2.45-1.23,3.66-3.73,5.71-5.35.86-.68,1.68-1.39,2.74-1.74,2.13-.71,4.31-1.07,6.23.42,1.99,1.54,1.54,3.77,1.12,5.8-1.02,4.92-4.14,7.65-9.36,8.09-2.14.18-1.56,1.66-1.58,2.77-.02,1.75,1.21,1.46,2.31,1.14,1.95-.57,3.54-1.81,5.21-2.89,1.14-.74,2.26-1.57,3.5-2.07,1.44-.59,2.94-.43,3.8,1.11.76,1.36.46,2.77-.74,3.68-3.17,2.41-6.27,4.99-10.22,6.1-6.42,1.8-10.08-1.03-9.95-7.94Z"/>
  <path d="m531.74,389.75c-.13-2.16.34-4.42,2.02-6.3.44-.5.62-.98.57-1.7-.4-5.72,2.07-9.72,7.38-11.83,1.5-.6,3.13-.93,4.73-1.21,1.8-.32,3.35.23,3.79,2.19.45,1.98-.82,3.06-2.5,3.64-1.78.62-3.71.78-5.29,2.02-2.85,2.25-2.92,3.09-.24,5.45,1.7,1.5,3.63,2.73,4.94,4.64,3.1,4.53,1.57,9.09-3.64,10.71-1.91.6-3.87,1.01-5.89.78-3.79-.42-5.87-3.31-5.86-8.39Zm6.08.02c-.03,1.3,0,2.54,1.61,2.21.99-.2,2.86.22,2.65-1.42-.19-1.49-1.72-2.71-3.17-2.92-1.27-.18-.95,1.38-1.08,2.12Z"/>
  <path d="m635.54,695.44c0,7.63,0,15.25,0,22.88,0,2.1-.47,4-2.98,4.02-2.49.03-3.12-1.83-3.1-3.94.11-15.25.25-30.5.38-45.76,0-.45.04-.91.09-1.36.21-1.85,1.11-3.16,3.09-3.11,2.02.05,2.86,1.47,2.88,3.29.03,2.99-.12,5.99-.13,8.98-.03,4.99,0,9.99,0,14.98-.08,0-.16,0-.23,0Z"/>
  <path d="m540.27,208.94c2.15-.25,3.51-.85,3.97-2.74.41-1.68,1.52-2.48,3.19-2.22,1.83.28,2.48,1.62,2.55,3.34.07,1.73-.6,3.16-1.76,4.41-3.1,3.34-8.97,4.44-13.08,2.4-.4-.2-.81-.43-1.14-.73-2.88-2.56-2.05-6.4-3.1-9.58-.98-2.96,1.59-6.1,5.41-7.76.89-.38,1.44-1.07,2.09-1.68,1.07-1.01,2.25-1.79,3.75-2.06,3.73-.68,6.1,1.6,5.32,5.31-.94,4.49-3.52,8.02-7.2,11.32Z"/>
  <path d="m756.64,236.36c2.87-3.47,4.78-6.92,6.19-10.65.74-1.97,1.67-3.84,4.2-3.38,2.48.46,2.84,2.52,2.85,4.62.02,4.26.02,8.53,0,12.79-.01,2.03-.37,4.02-2.93,4.07-2.58.05-2.94-1.91-3.05-3.96-.03-.59.2-1.27-.56-1.82-.96,1.16-1.86,2.4-2.91,3.47-1.99,2.04-4.38,2.89-7.17,1.84-2.73-1.03-2.95-3.37-2.95-5.83,0-3.63-.19-7.27,1.37-10.7.82-1.8,1.98-3.27,4.16-2.46,2.16.81,2.2,2.68,1.56,4.57-.76,2.24-1.41,4.48-.75,7.42Z"/>
  <path d="m480.72,567.41c1.18-.48,2.23-1.02,3.34-1.32,2.56-.68,5.21-1.36,7.36.94,1.63,1.74,1.74,6.05.3,8.51-2.07,3.53-5.24,5.46-9.26,5.9-1.59.18-2.92.32-3.67,2.08-.54,1.27-1.87,1.68-3.25,1.31-1.26-.33-2.04-1.21-2.15-2.51-.09-1.07-.23-2.23.06-3.24,1.52-5.25.92-10.6.91-15.93,0-.54,0-1.09.06-1.63.18-1.55,1.04-2.54,2.61-2.65,1.68-.11,2.82.77,3.08,2.43.3,1.95.41,3.93.63,6.09Zm1.29,7.64c2.95-.48,3.38-.81,4.08-3.09-1.76.49-3.06,1.42-4.08,3.09Z"/>
  <path d="m680.73,195.74c.31-.83.67-1.65.91-2.5.57-2,1.7-3.39,3.91-2.78,2.23.61,2.4,2.46,1.93,4.42-.58,2.4-.92,4.82-.75,7.29.05.75-.45,1.89.48,2.17,1.05.31,1.43-.89,1.92-1.6,1.66-2.43,2.63-5.17,3.53-7.93.68-2.1,1.56-4.1,4.27-3.63,2.58.45,3.06,2.51,3.08,4.76.02,1.72.05,3.45.15,5.17.09,1.52.21,2.88,1.75,3.99,1.54,1.12,1.27,2.96,0,4.33-1.54,1.65-3.39,1.54-5.19.38-1.19-.76-1.61-2.11-2.25-3.73-2.17,2.98-4.52,5.04-8.25,4.64-3.54-.38-5.46-2.2-5.53-5.79-.05-3.08.07-6.17.12-9.26l-.07.08Z"/>
  <path d="m542.96,572.36c-1.78-.11-3.97-.78-3.93,2.48.02,1.61.68,2.12,2.12,2.03,2.04-.13,3.9-.82,5.67-1.77,1.74-.93,3.58-1.46,4.79.56,1.27,2.13-.08,3.65-1.85,4.7-3.71,2.21-7.69,3.21-12.01,2.2-2.06-.48-3.65-1.58-4.39-3.67-2.23-6.33,2.7-15.89,9.14-17.67.87-.24,1.78-.37,2.68-.41,3.88-.19,6.1,1.24,6.34,4.01.32,3.74-2.13,6.93-5.72,7.39-.9.11-1.81.09-2.86.14Z"/>
  <path d="m494.88,531.84c.12-2.72-.65-5.69,2.23-7.68.41-.28.29-1.35.39-2.06.51-3.73,2.18-6.74,5.65-8.43,2-.97,4.07-1.12,5.63.93,1.18,1.56,1.04,5.69-.15,6.97-.81.87-1.8,1.12-2.97.89-.69-.14-1.71-1.52-2.01.25-.2,1.14-.75,2.59.86,3.34.57.27,1.18.46,1.76.73,3.91,1.78,4.85,5.97,1.98,9.14-2.01,2.23-4.59,3.56-7.53,4.05-3.62.6-5.54-.96-5.82-4.6-.09-1.17-.01-2.36-.01-3.53Z"/>
  <path d="m735.26,688.6c2.83,1.01,5.54,1.54,8.38,1.28,1.9-.18,3.59.16,3.83,2.42.24,2.27-1.32,3.28-3.26,3.62-2.82.48-5.63.01-8.34-.73-1.82-.5-2.6-.19-2.95,1.79-.75,4.3-1.15,8.62-1.27,12.97-.03,1.09,0,2.18-.03,3.26-.04,1.92-.68,3.5-2.86,3.58-2.36.08-3.06-1.6-3.18-3.59-.25-4,.16-7.98.55-11.94.43-4.33,1.38-8.58,2.42-12.81.45-1.82,1.38-3.35,2.52-4.76,1.21-1.49,2.76-2.27,4.52-1.12,1.8,1.19,1.61,2.85.53,4.52-.29.44-.51.92-.84,1.51Z"/>
  <path d="m664.26,232.6c-1.85-7.64,2.39-13.55,9.48-13.48,2.23.02,4.03.96,5.68,2.3,1.44,1.17,2.02,2.69.95,4.32-1.11,1.68-2.82,1.59-4.34.62-1.69-1.08-3.27-1.59-4.95-.13-1.36,1.17-1.85,2.4-.44,3.94,1.74,1.9,3.15,3.99,3.25,6.72.08,2.05-.48,3.83-2.28,4.94-2.96,1.84-6.25,2.37-9.68,2.03-1.07-.11-1.82-.78-2.36-1.67-2.22-3.65.24-8.92,4.69-9.58Z"/>
  <path d="m680.8,195.66c-1.55,1.82-3.22,2.72-5.27.67-.41-.41-.65-1.25-1.47-.83-.69.35-.99,1.03-1.08,1.79-.13,1.18.5,2.05,1.11,2.98,2.97,4.5,1.6,8.14-3.56,9.43-2.66.67-5.37.88-8.1.67-2.51-.19-3.99-1.5-4.28-4.08-.22-1.91-.23-3.81.08-5.7.27-1.64,1.24-2.66,2.96-2.58,1.57.07,2.45,1.07,2.7,2.59.12.71.12,1.45.15,2.17.04.79.21,1.48,1.17,1.52,1.09.04,2.32.11,3.15-.56.7-.57-.28-1.24-.57-1.83-2.11-4.26-.76-9.48,3.23-11.99,2.13-1.34,4.56-1.57,6.77-.41,2.4,1.27,3.16,3.6,2.93,6.25,0,0,.07-.09.07-.09Z"/>
  <path d="m879.9,244.94c.6-4.69,1.9-10.37,6.83-14.39,2.14-1.75,3.26-1.27,5.32.59,2.28,2.05,4.37,3.87,4.03,7.38-.43,4.5-2.01,8.41-5,11.77-2.09,2.35-4.8,2.79-7.7,2.14-2.58-.58-3.51-2.37-3.47-7.49Zm6.22,1.5c2.46-2.53,3.44-4.96,3.78-7.69.06-.45.02-.96-.44-1.19-.7-.34-1,.27-1.23.71-1.2,2.33-2.15,4.74-2.11,8.17Z"/>
  <path d="m493.68,573.86c-.48-2.46.9-4.86,1.79-7.27,1.44-3.86,8.23-5.86,11.76-3.77,1.18.7,1.93,1.74,2.03,3.06.3,3.83.13,7.64-1.47,11.21-1.77,3.94-5.06,5.32-9.77,4.25-3.07-.69-4.33-2.78-4.34-7.48Zm9.36-4.34c-1.37,1.23-2.68,1.93-3.1,3.37-.23.78-.6,1.93.46,2.38,1.2.51,1.78-.42,2.13-1.43.44-1.25.56-2.54.51-4.33Z"/>
  <path d="m667.97,374.45c1.97-1.37,3.7-2.74,6.07-2.47,1.62.18,2.76.93,2.98,2.62.2,1.56-.57,2.77-2.03,3.12-3.17.76-4.47,3.27-5.58,5.83-1.21,2.81-2.22,5.73-2.51,8.85-.19,2.02-.88,3.91-3.39,3.72-2.43-.18-2.96-2.07-2.96-4.13,0-4.98.04-9.97.09-14.95,0-.72.09-1.45.27-2.15.52-1.97,1.56-3.55,3.77-3.73,2.1-.17,2.9,1.34,3.29,3.28Z"/>
  <path d="m522.57,575.73c-.31-4.51.73-8.84,1.78-13.16.43-1.78,1.21-3.43,2.3-4.89,1.18-1.58,2.67-2.69,4.61-1.36,1.78,1.22,1.46,2.96.54,4.6-2.33,4.15-2.94,8.7-3.14,13.35-.05,1.07.07,1.85,1.38,2.22,2.33.67,2.98,2.52,2.54,4.72-.48,2.4-2.05,3.82-4.48,4.06-2.41.24-4.29-.65-5.14-3.07-.74-2.11-.25-4.32-.39-6.48Z"/>
  <path d="m907.21,208.11c.85-4.67,1.7-9.67,2.7-14.64.3-1.51,1.11-2.92,2.46-3.8,1.38-.89,3.07-.94,3.85.51,1.09,2,2.33,1.43,3.79.87,1.82-.71,3.55-.61,4.32,1.41.77,2.02-.24,3.9-2.14,4.36-5.92,1.43-6.57,6.64-8.4,11.03-.2.49-.16,1.08-.31,1.6-.54,1.91-1.53,3.44-3.8,3-2.11-.42-2.42-2.18-2.46-4.34Z"/>
  <path d="m323.74,473.92c0,4.26.03,8.53-.01,12.79-.02,1.95-.49,3.81-2.87,3.88-2.55.07-3.11-1.83-3.1-3.91.05-8.71.13-17.42.26-26.13.03-1.92.87-3.46,3.03-3.45,2.15.02,2.97,1.52,2.98,3.48.03,4.45.01,8.9.01,13.34-.1,0-.21,0-.31,0Z"/>
  <path d="m518,206.92c.34-3.79.73-8.3,1.15-12.81.22-2.36,1.78-3.92,3.44-5.33,1.31-1.12,2.86-1.32,4.18-.05,1.32,1.27,1.09,2.79.1,4.19-3.44,4.88-1.94,10.63-2.8,15.96-.15.97.83.97,1.48,1.25,1.28.55,2.04,1.51,1.89,2.97-.15,1.43-1.1,2.25-2.36,2.71-3.63,1.34-6.81-.74-7.07-4.64-.08-1.17-.01-2.35-.01-4.26Z"/>
  <path d="m917.5,251.55c-4.05-.05-5.97-1.92-6.01-6.02-.05-4.44.3-8.87.99-13.26.36-2.32,1.52-4.26,3.11-5.92,1.26-1.32,2.85-1.76,4.37-.52,1.43,1.17,1.37,2.8.35,4.16-3.22,4.3-2.21,9.35-2.72,14.14-.09.87.33,1.27,1.21,1.44,1.89.36,3.32,1.36,2.92,3.5-.42,2.26-2.27,2.56-4.22,2.48Z"/>
  <path d="m714.03,703.19c-.43-3.92.49-7.68.56-11.49.04-1.97,1.07-3.46,3.02-4.1,2.28-.75,4.59,1.1,3.87,3.29-1.71,5.2-1.38,10.53-1.45,15.86-.01,1,.05,2.01-.13,2.98-.3,1.59-1.26,2.66-2.97,2.62-1.69-.05-2.74-1.12-2.86-2.73-.16-2.16-.04-4.35-.04-6.43Z"/>
  <path d="m590.38,416.73c.02-2.62-.3-5.25.17-7.85.31-1.73.93-3.32,2.15-4.6.97-1.02,2.22-1.23,3.49-.61,1.3.64,2,1.93,1.45,3.17-2.12,4.8-.89,9.82-1.24,14.74-.05.72-.02,1.45-.07,2.17-.12,1.84-.94,3.21-2.93,3.24-2.02.03-2.88-1.43-2.98-3.2-.14-2.34-.03-4.7-.03-7.05Z"/>
  <path d="m520.92,523.69c.12,3.66-.42,7.26-1.2,10.81-.58,2.64-2.16,3.95-4.06,3.39-2.46-.71-2.42-2.58-1.93-4.62.86-3.55,1.14-7.16,1.06-10.82-.03-1.18,0-2.38.24-3.52.35-1.58,1.4-2.56,3.12-2.44,1.72.12,2.63,1.18,2.74,2.84.1,1.45.02,2.91.02,4.36Z"/>
  <path d="m518.78,568.19c.17,4.17-1.43,8-2.46,11.92-.38,1.43-1.66,2.17-3.21,1.93-1.65-.26-2.47-1.36-2.62-3.01-.09-1.03.27-1.96.57-2.91,1.04-3.29,1.95-6.6,1.66-10.13-.16-2.03.52-3.74,2.85-3.83,2.31-.09,3.09,1.54,3.19,3.58.04.81,0,1.63,0,2.45Z"/>
  <path d="m907.02,236.36c-.34,3.41-.65,7.01-1.08,10.59-.2,1.71-1.18,2.9-3.02,2.86-1.82-.04-2.82-1.2-2.92-2.95-.28-4.81,1.07-9.49,1.3-14.28.07-1.42,1.41-2.31,2.97-2.21,1.56.1,2.5,1.07,2.72,2.56.15,1.06.03,2.16.03,3.42Z"/>
  <path d="m681.29,236.88c-.04-2.74.31-5.44.93-8.1.42-1.81,1.49-3.03,3.45-2.73,2.15.33,2.73,2.01,2.42,3.9-.54,3.24-.8,6.48-.75,9.77.03,1.96-.77,3.48-2.92,3.54-2.15.06-2.99-1.43-3.12-3.37-.07-1-.01-2-.01-3Z"/>
  <path d="m486.39,525.05c-2.25,0-4.5.06-6.75-.02-1.7-.06-3.05-.81-3.17-2.68-.13-1.97,1.07-2.91,2.93-3.23,3.42-.58,6.83.33,10.27-.02,1.26-.13,2.17.82,2.41,2.14.26,1.4-.28,2.5-1.49,3.22-1.29.76-2.72.91-4.19.59Z"/>
  <path d="m458.59,572.82c-.81,0-1.63.02-2.44,0-1.66-.06-2.79-.86-2.97-2.55-.19-1.69.72-2.82,2.32-3.18,2.98-.67,6.08-.37,9.08-1.18,1.17-.31,2.21.69,2.53,1.99.37,1.5-.23,2.69-1.46,3.51-2.15,1.44-4.61,1.41-7.07,1.42Z"/>
  <path d="m336.67,586.98c-4.23-.16-5.84-2.53-4.4-6.55.34-.94.7-1.88,1.19-2.74.79-1.41,2.04-2.13,3.65-1.65,1.64.49,2.19,1.79,1.98,3.42-.09.69-.5,1.38.37,1.92,1.53.95,2.05,2.33,1.23,3.96-.82,1.64-2.42,1.71-4.02,1.63Z"/>
  <path d="m520.72,556.62c-.13,1.66-.93,2.8-2.66,2.87-1.72.07-2.78-.93-2.86-2.62-.09-1.71.87-2.77,2.61-2.85,1.73-.08,2.67.9,2.92,2.59Z"/>
  <path d="m690.74,215.22c1.73.11,2.78,1,2.79,2.72.01,1.7-.98,2.78-2.69,2.79-1.7.02-2.76-1-2.79-2.71-.03-1.72,1-2.64,2.69-2.8Z"/>
  <path d="m722.49,684.6c-1.7-.11-2.8-.97-2.85-2.67-.04-1.69.96-2.76,2.66-2.82,1.72-.07,2.75.94,2.81,2.64.06,1.72-.93,2.66-2.63,2.85Z"/>
  <path d="m522.29,512.24c-1.7-.14-2.78-1.03-2.79-2.74-.01-1.69.99-2.75,2.71-2.78,1.73-.03,2.74,1,2.77,2.7.03,1.71-.98,2.65-2.69,2.82Z"/>
  <path d="m590.05,438.33c-1.69-.21-2.7-1.09-2.69-2.8.01-1.7,1-2.73,2.68-2.73,1.79,0,2.88,1.04,2.81,2.88-.06,1.7-1.19,2.5-2.8,2.65Z"/>
  <path d="m909.36,221.02c1.68.24,2.71,1.13,2.68,2.86-.03,1.74-1.07,2.7-2.77,2.66-1.7-.04-2.72-1.06-2.68-2.77.04-1.71,1.13-2.57,2.78-2.75Z"/>
  <path d="m333.2,486.4c-.12,1.65-.94,2.76-2.62,2.86-1.82.11-2.91-.91-2.92-2.73-.02-1.68.96-2.69,2.67-2.72,1.7-.03,2.61.96,2.88,2.6Z"/>
  <path d="m895.42,293.74c-.04,1.15-.61,2.07-1.34,2.91-1.72,1.99-3.31,4.12-5.19,5.94-1.53,1.48-1.18,2.37.14,3.72,1.64,1.68,3,3.63,4.45,5.48,1.22,1.54,1.59,3.19-.14,4.54-1.67,1.3-3.33.67-4.6-.73-1.46-1.61-2.77-3.35-4.08-5.09-1.1-1.47-2.02-1.65-3.42-.21-2.03,2.09-4,4.21-5.68,6.59-1.19,1.68-2.68,2.73-4.58,1.48-2.05-1.35-1.58-3.29-.4-5.02,1.84-2.71,3.94-5.24,6.43-7.36,1.55-1.31,1.38-2.24-.02-3.44-1.24-1.07-2.53-2.04-3.97-2.84-1.59-.88-2.54-2.24-1.65-4.06.94-1.91,2.62-2,4.44-1.29,2.25.88,4.14,2.34,5.67,4.13,1.3,1.53,2.07,1.11,3.12-.2,1.77-2.19,3.63-4.3,5.53-6.37.99-1.08,2.26-1.54,3.7-.85,1.09.52,1.53,1.49,1.59,2.66Z"/>
  <path d="m411.29,712.26c-3.21.57-6.13,1.33-9.03,2.43-3.36,1.28-6.99,1.05-10.32-.64-2.41-1.23-4-3.17-4.22-5.95-.14-1.69-.65-2.29-2.04-.97-6.31,5.98-13.45,5.84-21.1,2.9-.02.3-.14.6-.03.77.78,1.35,1.2,2.7.04,4.03-1.03,1.18-2.39,1.25-3.76.82-1.79-.56-2.61-1.92-2.59-3.73.06-5.72.07-11.45.29-17.17.13-3.44.61-6.87.95-10.31.06-.63.17-1.26.3-1.88,1.51-6.99,5.67-7.69,11.77-5.5,6.62,2.37,8.79,11.06,4.95,17.02-1.53,2.38-3.42,4.47-5.42,6.46-.77.76-1.5,1.59-2.11,2.48-.78,1.13-.66,2.05.91,2.34,3.64.68,7.16,1.04,10.31-1.69,1.97-1.71,3.96-3.55,6.78-3.8,1.14-.1,1.1-1.04,1.28-1.8,1.55-6.54,6.95-10.12,13.68-9.05,4.1.65,6.17,3.02,6.13,7-.05,4.99-2.85,8.82-7.03,9.34-1.69.21-3.44-.04-5.16,0-.78.02-1.96-.75-2.15.77-.14,1.17.25,2.22,1.46,2.64,2.14.75,4.29.74,6.35-.32,3.1-1.59,6.25-2.47,9.84-.45,0-4.85,0-9.38,0-13.91,0-2.29.54-4.32,2.55-5.71.85-.59,1.94-1.26,2.77-.76,2.01,1.21,3.67.53,5.64-.1,2.17-.7,4.26.22,5.34,2.29,2.69,5.17,3.42,10.74,2.24,16.4-.72,3.44-4.21,5.5-8.42,5.67q-3.66.15-3.77,3.86c-.06,1.91-.06,3.82-.21,5.72-.14,1.83-1.05,3.21-3.04,3.2-2.13-.01-3.06-1.51-3.12-3.42-.11-2.98-.03-5.97-.03-8.97Zm-47.03-13.81c3.06-2.67,5.27-4.93,7.01-7.57,1.77-2.69.99-6.28-1.58-7.9-1.77-1.12-3.83-.32-4.08,1.75-.52,4.3-.86,8.62-1.34,13.72Zm58.81-3.64c-1.56,2.86-2.48,5.47-3.12,8.17-.23.97-1.25,2.48.74,2.76,1.58.23,3.27-.1,3.49-2.1.31-2.85.01-5.67-1.11-8.83Zm-25.01,4.65c2.5.07,3.67-.82,3.83-2.71.16-1.88-1.2-1.71-2.36-1.74-2.17-.06-4.74,1.55-4.56,3.04.25,2.08,2.2.86,3.09,1.41Z"/>
  <path d="m463.21,706.1c-1.09,1.17-2.06,2.33-3.15,3.36-2.46,2.32-5.3,3.09-8.51,1.77-3.12-1.28-3.73-3.93-3.69-6.93.08-5.38.99-10.43,4.9-14.58,3.52-3.74,8.04-3.82,12.38-3.06,4.47.78,6.4,4.29,5.74,8.87-.58,4.04-1.25,8.06-1.21,12.17.02,1.58.18,2.57,2.17,2.51,1.94-.07,3.42.92,3.34,3.08-.07,2.16-1.62,2.81-3.55,2.93-5.54.34-7.92-1.84-8.03-7.35-.02-.86.28-1.78-.38-2.77Zm-9.25-3.12c.15.83-.48,2.05.51,2.45,1.1.44,1.71-.75,2.33-1.47,2.02-2.33,3.7-4.91,5.13-7.63.6-1.14,2.08-2.94,1.22-3.5-1.39-.9-3.51-.51-5.12.48-1.17.72-1.92,1.89-2.58,3.09-1.13,2.04-1.28,4.3-1.5,6.58Z"/>
  <path d="m436.28,704.43c.6-6.32,1.14-12.64,1.83-18.95.14-1.31.74-2.62,1.33-3.83.8-1.63,2.17-2.56,4.01-1.79,1.72.71,2.04,2.26,1.56,3.9-1.85,6.33-1.74,12.9-2.46,19.37-.18,1.59-.2,3.03,1.54,4.23,1.74,1.2,1.27,3.07-.22,4.43-2.44,2.23-6.22,1.04-7.13-2.2-.48-1.69-.24-3.43-.46-5.16Z"/>
  <path d="m709.47,84.44c5.04-.93,10.95.62,16.59,2.37,4.21,1.31,8.16,3.93,10.45,8.23,5.26,9.93,4.59,19.81.23,29.85-3.08,7.09-7.68,12.53-14.57,16.26-5.88,3.19-12.08,3.25-18.29,2.69-6.55-.59-12.84-2.63-18.22-6.6-6.55-4.82-9.49-11.42-10.11-19.58-.91-12.08,4.65-20.73,13.39-27.96,4.95-4.09,9.88-5.28,20.54-5.28Zm-1.31,6.11c-2.48.26-5.56-.37-8.62.53-6.23,1.82-10.27,6.2-13.98,11.16-4.88,6.53-4.85,13.79-2.8,21.03,2.4,8.46,9.96,13.07,22.34,14.52,4.43.52,8.95.45,13.34-1.6,7.14-3.34,11.11-9.16,13.72-16.13,2.72-7.26,2.97-14.54-.81-21.59-.36-.67-.5-2.06-1.85-1.27-2.75,1.6-4.4.04-5.49-2.11-1.15-2.28-2.92-3.21-5.26-3.8-3.32-.84-6.66-.72-10.59-.72Z"/>
  <path d="m940.07,125.05c.3,7.91-3.06,14.96-8.05,21.69-4.93,6.65-11,11.19-18.98,13.22-11.06,2.82-26.94-3.86-33.86-12.92-11.01-14.4-5.42-41.65,16.32-48.12,9.04-2.69,17.59-2.58,25.99.93,3.59,1.5,7.42,2.82,10.62,5.33,6.32,4.96,8.37,11.59,7.96,19.86Zm-60.14,4.8c-.01,6.29.37,7.48,4.28,13.42,5.96,9.05,20.73,13.6,30.84,9.66,6.27-2.44,10.16-7.27,13.94-12.5,4.74-6.57,5.75-13.79,4.72-21.49-.42-3.12-1.89-5.76-4.33-7.95-3.94-3.54-9.11-4.43-13.69-6.37-13.69-5.82-37.06,3.87-35.75,25.24Z"/>
  <path d="m490.44,110.04c-3.47-.04-5.93-1.61-7.04-4.93-.65-1.95-.91-4.05-1.15-6.11-.18-1.51.61-2.65,2.13-3.05,1.51-.4,2.68.23,3.41,1.56.62,1.13.8,2.39.95,3.66.12.97.07,2.34,1.27,2.38,1.13.04,1.28-1.34,1.59-2.26.29-.85.42-1.76.73-2.61.63-1.72,1.8-2.79,3.74-2.3,1.86.46,2.23,1.95,2.05,3.63-.31,2.95-1.35,5.61-3.17,7.97-1.15,1.48-2.7,2.05-4.52,2.06Z"/>
  <path d="m519.2,99.01c-.06-2,.43-3.82,2.72-4.01,2.47-.21,3.22,1.57,3.36,3.7.06.91.09,2.08,1.2,2.15,1.3.09.98-1.3,1.23-2.06.39-1.19.31-2.55,1.15-3.59,1.29-1.61,2.95-2.26,4.8-1.18,1.74,1.02,1.69,2.58.76,4.26-.43.78-.69,1.68-.89,2.55-1.08,4.67-3.58,6.91-7.3,6.48-4.23-.49-7.05-3.82-7.03-8.29Z"/>
  <path d="m510.56,127.76c-3.4-.02-6.48-2.32-7.33-5.47-.5-1.85-.28-3.58,1.63-4.39,1.93-.81,3.34.05,4.05,2.01.22.61.42,1.33,1.15,1.36.77.04.91-.78,1.17-1.32.51-1.06.9-2.17,1.41-3.24.56-1.19,1.53-1.77,2.86-1.66,1.33.11,2.17.89,2.58,2.1,1.23,3.61-3.76,10.62-7.52,10.6Z"/>
  <path d="m697.72,116.14c-3.75-.05-7.62-3.12-8.07-6.45-.24-1.77.09-3.38,1.99-3.98,1.89-.6,3.18.31,3.79,2.12.32.93.77,1.73,1.77,1.84,1.21.14,1.3-1.05,1.73-1.78,1.04-1.78,2.5-2.84,4.49-1.79,1.92,1.02,1.64,2.81.95,4.54-1.48,3.74-3.66,5.53-6.66,5.5Z"/>
  <path d="m710.27,126.16c-4.41.61-8.67-6.26-7.81-9.6.38-1.48,1.17-2.45,2.72-2.58,1.58-.13,2.56.68,3,2.18.23.78.36,1.61.73,2.31.66,1.25,1.41,2.18,2.76.49,1.04-1.3,2.46-1.52,3.86-.5,1.37,1,1.47,2.43,1.01,3.91-.75,2.39-3.17,3.83-6.27,3.8Z"/>
  <path d="m719.19,107.33c.86-.8,1.39-1.46,2.07-1.88,1.85-1.15,4.06-.21,4.46,1.83.38,1.93-2.05,6.36-4.01,7.31-2.2,1.07-5.33.28-7.17-1.78-.88-.99-1.39-2.14-1.51-3.43-.17-1.91.11-3.78,2.18-4.5,2.04-.71,3.2.6,3.98,2.45Z"/>
  <path d="m920.61,132.12c-4.21-.02-7.23-2.03-8.38-5.48-.51-1.54-.39-2.95,1.09-3.83,1.56-.93,3.14-.54,4.06.94,1.37,2.21,2.73,2.96,5,1.12,1.18-.96,2.61-.73,3.68.45,1.06,1.17,1.01,2.53.15,3.76-1.37,1.97-3.2,3.2-5.59,3.03Z"/>
  <path d="m896.36,131.03c-3.54.22-5.63-1.84-7.33-4.46-.83-1.28-.77-2.64.4-3.71,1.26-1.16,2.87-1.17,3.94-.02,1.81,1.93,3.38,2.7,5.76.81,1.16-.92,2.65-.39,3.59.87.87,1.17.78,2.42-.11,3.52-1.62,2-3.58,3.36-6.26,2.99Z"/>
  <path d="m908.96,142.01c-3.46-.03-6.05-1.13-7.61-3.93-.87-1.56-.88-3.23.71-4.38,1.51-1.1,3.02-.62,4.07.75,1.26,1.64,2.57,1.67,4.25.74,1.62-.89,3.28-.77,4.26.95.96,1.69.23,3.11-1.24,4.24-1.42,1.09-2.96,1.75-4.43,1.63Z"/>
</svg>