<?xml version="1.0" encoding="utf-8"?>
<!-- Generator: Adobe Illustrator 27.7.0, SVG Export Plug-In . SVG Version: 6.00 Build 0)  -->
<svg version="1.1" xmlns="http://www.w3.org/2000/svg" xmlns:xlink="http://www.w3.org/1999/xlink" x="0px" y="0px"
	 viewBox="0 0 1117.1 837.8" style="enable-background:new 0 0 1117.1 837.8;" xml:space="preserve">
<g id="Layer_2">
</g>
<g id="Layer_0_Image">
	<path d="M633,788.2c-60.1,0-120.2,0.1-180.2-0.1c-10,0-19.9-1.2-29.9-1.9c-1.5-0.1-2.9-0.1-4.4-0.1c-49.9,0-99.8,0-149.7,0
		c-8.4,0-16.6-0.1-25.1,1.8c-10.5,2.3-21.5,0.8-32.3,0.7c-7.4,0-14.6-1.5-21.8-2.9c-8.8-1.8-16.6-6.3-24.4-10.6
		c-4.1-2.2-7.9-4.9-11.7-7.5c-6.1-4.1-10-10.2-14.6-15.8c-6.4-7.6-10.7-16.4-13.6-25.9c-0.5-1.5-0.9-3.2-1-4.8
		c-0.8-18.3,0.1-36.3,7.1-53.6c2.8-6.9,7.4-12.7,11.8-18.6c7-9.4,15.9-16.5,25.8-22.7c6.6-4,13.2-7.5,20.7-9.3
		c4.8-1.2,9.6-0.6,14.4-0.7c1.6,0,3-0.1,4.1-1.5c1.4-1.6,3.5-1.4,5.4-1.4c25.4,0,50.7,0,76.1,0c197.3,0,394.7,0,592,0.1
		c7.7,0,15.4,0.3,23,1.7c3.7,0.7,7.5,0.7,11,2.7c2.9,1.7,5,4,6.5,6.8c3.1,5.3,6.7,10.3,10.4,15.3c5.2,7.1,8.1,15.2,10.7,23.4
		c2.6,8.4,3.3,17,3,25.8c-0.3,10.6-0.1,21.3,0,31.9c0,3.8-0.4,7.5-1.5,11.2c-2.2,7.4-4.9,14.6-8.9,21.2c-2.5,4.1-5.5,7.7-9,11.1
		c-4,3.8-8.9,6.2-13.4,9.2c-3,2-6.9,2.8-10.2,4.3c-6.5,3-13.3,4.6-20.4,5.4c-6.5,0.8-13,1.6-19.5,1.8c-11.7,0.2-23.4,1.3-35.1,1.9
		c-6.2,0.3-12.3,1-18.5,1C751,788.2,692,788.2,633,788.2L633,788.2z M264.4,779.9h3.9c50.1,0,100.2,0,150.3,0c1.8,0,3.6,0.1,5.5,0.2
		c9.6,0.6,19.2,1.8,28.8,1.8c119.2,0.1,238.3,0.1,357.5,0.1c5.7,0,11.4-0.7,17.1-0.9c11.7-0.6,23.3-1.8,35-1.9
		c6.5,0,13-1.2,19.5-1.8c6.8-0.6,13.3-2.5,19.5-5.3c3.1-1.4,6.6-2.3,9.5-4.1c4-2.5,8-4.8,11.6-8c4.8-4.2,8-9.4,10.8-14.8
		c2.8-5.3,4.5-11.1,6.1-16.8c0.5-1.6,0.7-3.2,0.7-4.8c0-13.5,0.1-26.9,0-40.4c-0.2-14.6-4.7-28-12.8-40.1c-2.5-3.7-4.9-7.4-7.6-11
		c-2.4-3.2-3.7-7.2-7.7-9.3c-2.8-1.5-5.9-1-8.7-1.7c-6.6-1.5-13.4-1.6-20-1.6c-211.8-0.2-423.6-0.1-635.4-0.1
		c-0.9,0-1.8,0.1-2.7,0.1c8.7,2.9,16.8,6.7,24.2,11.8c2.7,1.9,4.8,4.5,7.6,6.3c8.3,5.3,14.9,12.5,20.3,20.6
		c8.3,12.3,15.3,25.1,14.1,40.8c-0.6,8.3-1,16.6-3.7,24.4c-3.5,10.2-8.3,19.9-14.6,28.8c-4.4,6.1-8.1,12.7-14.1,17.6
		C274.7,773.5,269.6,775.9,264.4,779.9L264.4,779.9z M226.2,782.6c4.9-0.2,9.8,0.5,14.7-0.2c13.5-2.1,24.1-10,34.9-17.7
		c1.4-1,2.6-2.2,3.7-3.6c8.1-10.5,15.5-21.5,20.5-33.9c1.5-3.5,2.9-7.1,3.6-10.8c1.6-8.7,2.2-17.5,1.8-26.3c0-1.1-0.1-2.2-0.5-3.2
		c-3-7.7-5.9-15.4-10.6-22.3c-2.8-4.1-5.7-8-9.1-11.5c-4.3-4.5-8.6-9.2-14.5-11.7c-2.2-1-4.8-1.3-5-4.6c0-0.4-0.9-0.9-1.4-1.2
		c-4.7-3.1-9.7-5.7-15-7.6c-11.8-4.2-24-5.5-36.5-5.5c-1.1,0-2,0.2-2.9,1.1c-1.5,1.8-3.3,1.8-4.9,0c-0.5-0.6-0.9-1.1-1.7-1.1
		c-4.2,0.2-8.3-0.3-12.5,0.7c-6.9,1.7-12.9,5.1-18.9,8.8c-9.4,5.7-17.7,12.6-24.3,21.5c-3.8,5.1-7.7,10.1-10.2,16
		c-6.9,16.4-7.8,33.7-7,51.1c0.1,1.3,0.4,2.7,0.9,4c2.2,6.2,4.6,12.4,8.4,17.9c7.4,10.8,15.9,20.3,27.6,26.9
		c11.5,6.5,23.4,11.3,36.5,12.6C211.2,782.7,218.7,782.9,226.2,782.6L226.2,782.6z"/>
	<path d="M952.2,480.4c0,7.1-0.1,14.2,0,21.3c0.2,7.8-1.2,15.3-3,22.8c-3.8,16.3-14.2,27.3-27.7,36.1c-2.9,1.9-6.1,3.6-9.2,5
		c-3.6,1.6-7.7,2.7-11.7,3.5c-15.2,3-30.6,3.9-46,4.5c-14.7,0.5-29.4,0.2-44.1,0.7c-17,0.6-33.9,0.9-50.9,1.5c-19,0.7-38,1-56.9,1.6
		c-18.8,0.6-37.6,0.1-56.4,0.6c-66.7,1.8-133.4,0.3-200.1,0.8c-27.5,0.2-55.1-1-82.6-1.1c-13.2,0-26.4,0-39.5-0.6
		c-19.5-0.8-39.1-0.6-58.6-1.7c-14.3-0.8-28.7-1-43-1.6c-14.8-0.7-29-4.2-42.1-11.8c-8.1-4.7-14.9-10.9-19.7-18.7
		c-3.6-6-6.5-12.4-9.1-19.1c-3-8-4.5-16.2-6.7-24.4c-0.2-0.6-0.4-1.2-0.4-1.9c-0.4-11.8-0.8-23.6,0.2-35.4c0.9-10.2,5-19.7,6.4-29.8
		c0.8-5.5,2.7-10.5,5.1-15.4c1.6-3.2,4.1-5.7,7.2-7.1c9.9-4.5,19.9-9,30.5-11.4c8.4-1.9,16.8-3.8,25.2-5.5
		c11.6-2.3,23.4-3.2,35.1-4.8c7.8-1,15.7-1.5,23.6-1.5c114.7,0,229.5-0.8,344.2,0.3c59.5,0.6,119,1.1,178.6,1.1
		c12.9,0,25.8,0.3,38.7,0.5c12.9,0.2,25.8,0.6,38.7,1.3c5.4,0.3,10.7-0.6,16.1-0.3c7.1,0.4,14.1,2,20.5,5.4
		c5.2,2.8,10.6,5.1,15.4,8.7c7.5,5.6,12.5,12.8,15.4,21.6c1.2,3.7,3,7.3,3.7,11.1c1.2,6.3,3.4,12.3,3.1,18.9
		C952,464,952.3,472.2,952.2,480.4L952.2,480.4z M450.7,393.3c-51.1,0-102.2,0-153.3,0c-10.5,0-21.1-0.2-31.6,0.5
		c-11.7,0.8-23.4,2.2-34.9,3.8c-10.6,1.5-20.9,4.4-31.5,6.3c-5.5,1-10.7,3-15.8,4.8c-5.3,1.9-10.5,3.9-15.7,6.3
		c-3,1.4-5.2,3.4-6.7,6.4c-1.9,3.9-3.1,7.8-3.9,12.1c-1.5,8.1-4.3,16-5.6,24.1c-2.4,15.3-2.8,30.7,0.3,46c0.9,4.4,1.9,8.9,3.4,13.1
		c2.4,6.7,5.3,13.2,8.6,19.6c4.1,7.9,9.9,14.1,17.1,18.9c12.6,8.3,27,11.8,41.8,12.4c14.3,0.6,28.7,0.8,43,1.6
		c19.7,1.1,39.4,0.8,59.1,1.7c12.7,0.5,25.4,0.2,38.1,0.6c20.5,0.7,41.1,0.8,61.6,0.8c73.7,0,147.4,1.2,221.1-0.6
		c17.7-0.5,35.4,0,53.2-0.5c16.6-0.5,33.2-1.1,49.9-1c2,0,4-0.1,6-0.3c10-1.2,20.1-0.3,30.2-1.4c9.7-1.1,19.6-0.2,29.4-0.4
		c17.9-0.4,35.8-0.2,53.7-1.4c15.7-1,31.3-2.1,45.7-9.3c3-1.5,5.9-3.1,8.7-5c7.2-4.8,11.7-11.8,16.6-18.5c2.8-3.9,3.2-8.4,4.3-12.8
		c1.3-4.7,2.5-9.5,2.5-14.4c0-16.5-0.2-32.9,0.1-49.4c0.1-6.6-1.9-12.7-3.1-18.9c-0.7-3.9-2.5-7.5-3.8-11.3
		c-2.5-7.4-6.8-13.3-13.1-18c-3.6-2.6-7.8-4.2-11.6-6.6c-7.7-4.9-16.3-5.8-25-6.1c-4.2-0.1-8.4,0.2-12.5,0
		c-12.3-0.7-24.7-0.7-37-1.3c-12.1-0.6-24.2-0.2-36.2-0.3c-61.1-0.3-122.1,0.1-183.2-1.3C564,392.3,507.4,393.3,450.7,393.3
		L450.7,393.3z"/>
	<path d="M536,118.1c2.5,0.7,4.7,1.3,6.8,2c7.8,2.3,14.3,6.9,21,11.3c10.6,7,12.3,17.1,8.3,29.4c-1.5,4.5-4.2,8.5-7.5,11.9
		c-8.2,8.4-17.7,15-28.3,20c-7.7,3.6-15.8,3.1-23.8,2.6c-11.2-0.7-21.6-4-30.1-11.7c-12.7-11.4-14-25.6-5.4-39.5
		c6.8-11,16.5-18.7,28.4-23.8c1.9-0.8,2.3-1.4,1.4-3.5c-2.2-4.8-0.5-11.9,3.4-15.6c3-2.9,10.2-3.8,14.7-1.7c1,0.5,1.7,0.2,2.6,0
		c3.7-0.9,7.6-1.8,10.5,1.3c3.2,3.4,3.3,7.8,2.2,12.1C539.3,114.9,537.9,116.4,536,118.1L536,118.1z M518.8,189.5
		c5,0.4,10.2-0.2,15.3-2.4c9.7-4.2,18.2-10.2,25.7-17.7c3-3,5.3-6.5,6.8-10.5c2.4-6.2,2.5-15.1-2.9-20.1c-3.9-3.5-8.7-5.6-13.2-7.9
		c-1.2-0.6-2.4-0.4-3.7-0.1c-2.4,0.6-3.8-0.3-3.8-2.7c0-1.3-0.5-1.8-1.6-2.1c-10.1-3.4-20.5-4.2-30.6-1.2
		c-12.5,3.8-22.4,11.9-29,23.1c-6.6,11.1-5.5,20.4,3,29.3c4.1,4.3,9.1,7.4,14.9,9.3C505.6,188.6,511.9,189.4,518.8,189.5
		L518.8,189.5z M520.5,117.4c4.5,1.1,8.1-2.4,12.1-4.6c2-1.1,2.5-4.9,1.2-6.9c-1.3-1.9-3-1-4.7-0.5c-1.7,0.5-1.5,2-1.8,3.3
		c-0.7,2.8-3.1,4.7-5.2,4.1c-2.2-0.6-3.2-3.1-2.2-6.1c0.1-0.4,0.4-0.8,0.5-1.3c0.2-0.6-0.1-0.9-0.6-0.9c-2.1,0.1-4.3-0.3-5.8,1.6
		c-2,2.6-2.9,5.4-1.6,8.6c0.9,2.2,2.6,3.2,5,2.7C518.1,117.2,518.9,117.3,520.5,117.4L520.5,117.4z"/>
	<path d="M769.3,331.5c-1.4,3.6-3.9,6.3-7.1,8.4c-2.2,1.5-4.7,1.9-7.3,1.5c-3.3-0.5-4.7-2.2-5.2-6.5c-1.1,0.6-1.3,1.7-1.6,2.7
		c-0.6,1.8-1.2,3.5-3.6,3.4c-1.7-0.1-2.4-1.1-3-4.3c-2.4,2-4.8,3.7-7.4,5.1c-2.8,1.5-5.8,2.2-8.9,1.8c-3.4-0.4-4.8-2.1-4.7-5.5
		c0.1-1.4,0.4-2.7,0.9-4c1.8-4.4,3.6-8.8,5.5-13c1.8-4.1,3.9-5.3,7.3-4.6c4.4,0.9,7.4,3.9,7.6,7.7c0.1,1.5-0.4,2.7-1.9,3.2
		c-1.5,0.5-2.6-0.1-3.5-1.3c-0.9-1.1-0.8-3.5-2.8-3.2c-1.9,0.3-1.8,2.5-2.4,3.9c-1.3,2.8-2.4,5.7-3.6,8.5c-0.2,0.6-0.8,1.2-0.3,1.8
		c0.6,0.7,1.4,0.2,2,0c4.4-1.8,8.1-4.5,11-8.2c1.3-1.5,2.6-2.6,4.6-1.5c0.8,0.4,1.2,0,1.5-0.6c1.3-3,3.5-5.8,3.1-9.4
		c-0.2-2,0.5-3.8,2.8-3.9c2.3-0.1,3.1,1.5,3.3,3.5c0.1,0.8,0.1,1.6,0.2,2.9c1.9-1.8,3.5-3.3,5.1-4.8c1.3-1.3,2.8-1.8,4.4-0.5
		c1.6,1.3,1.3,3,0.3,4.4c-0.8,1.1-1.9,1.9-2.8,2.9c-2.7,2.7-5.2,5.7-6.4,9.4c-0.4,1.2-0.9,3,0.2,3.8c1.2,0.9,2.6-0.3,3.5-1.3
		c1.2-1.2,2.3-2.5,3.4-3.9c1.2-1.5,2.5-2.1,4.2-1.1c0.9,0.5,1.1,0.1,1.9-0.2c3.6-1.4,3.9-4.9,5.4-7.6c1.2-2.1,3-3.5,5.4-3.6
		c3.2-0.1,6.4,0,9.5,0c1.8,0,3.2,0.8,4,2.4c0.7,1.7,0.2,3.2-1,4.5c-0.8,0.9-1.6,1.7-2.4,2.6c-1.4,1.5-4.1,2.5-1.8,5.3
		c0.5,0.6,0.1,1.7-0.5,2.3c-3.3,3.3-6.6,6.6-11.8,6.5c-3.7-0.1-5.4-1.7-5-5.5C771.7,333.5,771.2,332.2,769.3,331.5L769.3,331.5z
		 M784.9,323.7c-1.5-0.5-2.6-0.5-3.7-0.2c-1.2,0.3-1.3,1.6-1.7,2.6c-0.1,0.3,0.1,0.9,0.2,0.9c1,0.3,1.7-0.4,2.4-1
		C783,325.4,783.8,324.7,784.9,323.7L784.9,323.7z"/>
	<path d="M246.4,87c-1.7,2.2-2.6,4.6-4.1,6.8c-2.5,3.7-5.9,5.5-10.4,5.1c-2.7-0.3-4.2-1.6-4.4-4.3c-0.6-9.3,2.3-17.8,7.4-25.4
		c1.9-2.9,5.2-4.2,8.4-5.3c1.6-0.6,3.1-0.2,3.9,1.5c0.8,1.7-0.1,3-1.5,3.9c-0.2,0.2-0.5,0.3-0.7,0.4c-9.4,4.2-10,13.2-11.4,21.6
		c-0.3,1.9,1,1.6,2,0.8c1.6-1.2,2.6-3,3.4-4.9c1.8-4.3,3.6-8.7,5.4-13.1c1.5-3.9,3.1-5.4,5.3-4.8c3.3,0.9,2.9,3.8,2.9,6.3
		c0,5.8,0,11.6,0,17.4c0,1.3,0,2.5,1.8,2.2c4.4-0.7,8.8,0.9,13.2-0.3c1.7-0.5,4.5-0.5,4.8-1.9c0.4-1.7-2.4-2.3-3.8-3.3
		c-1.2-0.8-2.5-1.5-3.7-2.3c-4.1-2.7-5-4.7-3.8-9.4c1.4-5.6,4.9-9.9,9.2-13.5c2.7-2.3,6.2-1.6,9.4-0.7c1.3,0.4,2,1.6,1.7,3
		c-0.2,1.4-1.1,2.2-2.6,2.4c-0.2,0-0.4,0-0.5,0c-1.8,0.2-3.8-0.9-5.2,0.7c-2.4,2.7-4.9,5.4-6,9c-0.5,1.5-0.2,2.6,1.3,3.4
		c2.1,1.2,4,2.4,6,3.7c1.9,1.3,3.6,2.8,4.4,5.1c1.1,2.9,0.3,5.5-2.4,7c-5.7,3.1-11.8,4.2-18.2,2.9c-2.2-0.4-4.1,0.5-6.2,0.3
		c-4.3-0.3-5.5-1.3-5.5-5.6C246.4,92.9,246.4,90,246.4,87L246.4,87z"/>
	<path d="M186.5,114.4c19.3-0.3,35-1,50.7,0.2c16.1,1.3,32.2,0.8,48.2,0.9c2.5,0,4.9,0.1,7.3,0.9c2.5,0.9,3.7,2.6,3,4.4
		c-1,2.4-2.8,2.2-4.8,1.4c-1.8-0.7-3.7-0.7-5.6-0.7c-12.7-0.1-25.5,0.5-38.2-0.6c-21.7-1.8-43.4-1.4-65.1-0.3
		c-13.4,0.7-26.7,0.9-40.1,0.9c-3.7,0-5.4-1-5.3-3.2c0.1-2.1,1.5-3,5.2-2.9C157.9,115.8,174,115.2,186.5,114.4L186.5,114.4z"/>
	<path d="M576.7,288.7c2.1-6.1,3.3-11.9,5.6-17.2c0.5-1.2,1.1-2.3,2-3.2c1.2-1.2,2.7-1.6,4.2-0.6c1.5,1.1,1.5,2.6,0.6,4.1
		c-0.6,1-1.3,1.9-1.4,3.5c2.2-1.7,4.4-2.9,7-1.3c1.5,0.9,2.6,2.1,2.1,4c-0.5,1.8-1.8,2.4-3.6,2c-0.9-0.2-1.4,0.1-1.9,0.7
		c-1.4,1.9-2.8,3.8-4.2,5.7c-0.9,1.3-0.5,2.2,1.1,2.5c2.3,0.4,4.7,0.5,7.1,0.4c1.4-0.1,1.8-0.8,1.9-2.1c0.4-3,2-5.4,3.8-7.7
		c2.7-3.3,6.1-3.6,9.8-3.1c2.5,0.3,3.6,2.7,2.6,5.5c-0.7,2.1-2.2,3.7-3.9,5.2c-1,0.9-2,1.8-3.1,2.7c-1,0.9-2.1,1.7-3.3,2.8
		c1.9,1.2,3.7,0.6,5.4,0.7c2,0.1,4.1,0.3,4.2,2.9c0.1,2.7-2,3.1-4.2,3.2c-4.1,0-8.3,0.6-11-3.5c-0.5-0.7-1.3-0.4-2-0.4
		c-3.1,0.2-6.2,0-9.2-0.6c-0.9-0.2-1.5-0.2-2.2,0.6c-1.5,1.6-3.3,3.2-5.7,2.1c-2.5-1.1-2.2-3.5-2.1-5.7c0-0.4,0-0.8,0-1.5
		c-1.2,1.4-2.1,2.7-3.1,3.8c-2.9,3.2-6.7,3.9-10.7,3.1c-4-0.8-6.1-3.3-6.2-7.4c-0.1-6.3,2-11.6,7.4-15.2c2.7-1.8,6.5-1.9,8.7-0.2
		c1.2,0.9,1.8,2.1,1.3,3.6c-0.5,1.5-1.7,2-3.2,1.9c-3.5-0.4-5.4,0.6-6.9,3.7c-0.6,1.2-0.9,2.6-1.1,3.9c-0.2,1.2-0.7,2.7,0.7,3.5
		c1.5,0.8,3.2,0.8,4.6-0.3c1.1-0.7,2-1.6,2.5-2.8c0.6-1.6,1.3-3.1,3.4-3C575.8,285,576.5,286.5,576.7,288.7L576.7,288.7z"/>
	<path d="M684.6,156.2c1.3-0.6,1.8-1.6,2.5-2.5c2.1-2.6,4.9-3.3,8-3.2c1.7,0.1,2.8,0.9,3,2.6c0.2,1.7-0.8,2.7-2.4,3.2
		c-7.6,2.4-10.2,8.8-12.3,15.5c-0.6,2,0.4,2.7,2.5,2.7c5.2,0,7.5-1.9,8.7-6.9c1.3-5.3,4.9-9,9.6-11.6c1.7-0.9,3.4-0.7,4.7,0.9
		c1.2,1.5,0.8,3-0.3,4.5c-2.4,3.4-4.8,6.8-7.3,10.2c-1.2,1.6-0.8,2.6,0.9,3.1c3.5,1,7,1.4,10-1.3c3-2.6,5.7-5.6,7.2-9.4
		c0.7-1.7,1.8-2.9,3.7-2.3c2,0.6,2.4,2.3,1.9,4c-3.6,10.6-15,21.5-28.3,12.9c-0.8-0.5-1.3-0.7-2.1-0.1c-3.6,2.6-7.7,2.4-11.8,2
		c-1-0.1-1.9-0.4-2.8,0.4c-1.1,1-2.4,1.3-3.8,0.5c-1.5-0.9-1.7-2.3-1.5-3.8c0.7-4.6,1.4-9.1,2.1-13.7c0.6-4.2,1.7-8.4,1.9-12.6
		c0.1-1.5,0.5-3.1,1.3-4.4c0.9-1.5,2.2-2.2,3.9-1.6c1.6,0.6,2.1,2.1,1.6,3.6C684.9,151,684.5,153.4,684.6,156.2L684.6,156.2z"/>
	<path d="M247.9,161.5c-3.7,5.8-7.4,11.6-11.1,17.4c-0.9,1.4-1.7,2.8-2.6,4.1c-1.1,1.7-2.6,2.6-4.6,1.9c-2.2-0.7-2.4-2.5-2.3-4.4
		c0.2-4.8,1.5-9.3,2.4-13.9c0.7-3.8,1.3-7.5,2.1-11.2c0.6-2.8,2-4.1,3.9-3.5c2.4,0.7,2.4,2.6,2.1,4.6c-0.7,3.9-1.3,7.8-1.5,11.8
		c1.5-2.2,3-4.5,4.4-6.7c1.6-2.4,3.3-4.8,5.5-6.7c1.9-1.6,4-2.3,6.3-1.3c2.3,1,2.4,3.1,2.4,5.3c0,3,0,6,0,9c1.1,0.2,1.3-0.7,1.7-1.2
		c3.1-3.5,6-7.1,9.9-9.7c1.7-1.2,3.5-2,5.6-1c2.1,1,2.5,3,2.5,5.1c0,5.1,0,10.2,0.1,15.3c0,1.8-0.4,3.4-2.5,3.6
		c-2.1,0.3-3.2-1.1-3.5-3c-0.2-1.1-0.2-2.4-0.2-3.5c0-3.2,0-6.3,0-9.6c-1.5,0.1-2,1.1-2.7,1.8c-3.6,3.7-6.7,7.9-9.6,12.2
		c-2.3,3.3-4.4,4.5-6.3,3.5c-3-1.6-2.1-4.3-1.7-6.8c0.7-4.2,0.9-8.4,0.6-12.7C248.4,161.8,248.1,161.7,247.9,161.5L247.9,161.5z"/>
	<path d="M389.1,179.5c-2.3,0.5-4.3,0.7-6.4,0.4c-2.9-0.4-4.2-1.7-4.4-4.6c-0.2-2.4,0-4.8,0.8-7c1.9-4.9,4.6-9.2,8-13.2
		c4.6-5.5,12.9-5.1,17.4-3.4c1.1,0.4,2.7,1.1,2.6,2.1c-0.2,3,1.6,3.4,3.8,4.1c1.6,0.4,1.6,2.3,1.5,3.8c-0.3,5.1-2,9.8-3.9,14.4
		c-2.2,5.2-4.2,10.4-7.6,15c-2,2.7-4.4,4.6-7.8,4.9c-2.6,0.2-4.5-1-4.7-3.5C388.2,188.3,387.9,184,389.1,179.5L389.1,179.5z
		 M405,158.5c-0.8-0.3-1.3-0.4-1.7-0.5c-6.4-2.5-9.9-1.5-13.8,4.1c-1.3,1.9-2.5,4-3.6,6.1c-0.9,1.7-2.6,4.1-1,5.4
		c1.7,1.3,3.8-0.7,5.4-2.1C395.1,167.2,399.6,162.7,405,158.5L405,158.5z M405.1,166.8c-4.9,3.6-8.8,8.1-13.8,11.8
		c5.4,1.9,2,6.8,3.8,10.4C399.9,182,402.9,174.6,405.1,166.8L405.1,166.8z"/>
	<path d="M712.8,241.4c-2.7,3.1-6,4.1-9.8,3.6c-3.9-0.5-6.6-3.1-6.8-7c-0.2-4.3-0.7-8.8,2.1-12.6c2.9-4,7.8-6,12.7-4.9
		c1.4,0.3,2.3,1.1,2.5,2.5c0.2,1.6-0.6,2.7-2,3.1c-1.1,0.3-2.3,0.3-3.5,0.4c-3.3,0.2-5.4,2.1-5.7,5.4c-0.1,1.3-0.1,2.5-0.1,3.8
		c0,1.1-0.2,2.4,1,2.9c1.3,0.6,2.7,0.7,3.9-0.3c2.7-2.2,5.5-4.2,7.9-6.7c1.7-1.8,1.5-4.6,1.7-7c0.3-3.4,1.4-6.6,3.1-9.5
		c1-1.7,2.4-2.6,4.3-1.6c1.8,0.9,1.9,2.7,1,4.2c-3.2,5.5-2.1,12.1-4.8,18.2c2.8-1.1,4-2.9,5-4.8c1.5-2.9,2.9-5.9,4.9-8.5
		c1.2-1.6,2.7-2.7,4.6-1.4c1.9,1.3,1.6,3.1,0.4,4.8c-2,2.6-3.2,5.6-4.5,8.7c-1.2,3-0.7,4,2.5,4.1c3.6,0.2,6.4-1.2,8.5-4
		c1.1-1.5,2.5-2.2,4.2-1.2c1.8,1.1,1.7,2.9,0.7,4.6c-1.7,3-4.4,4.9-7.5,6c-3.8,1.3-7.7,1-11.5,0c-0.8-0.2-1.7-0.7-2-1.3
		c-0.9-1.6-1.9-1.1-3.3-1c-2.3,0.2-3,1.1-3,3.3c0,1.6-1.1,2.7-2.8,2.7c-1.8,0-2.8-1.1-3-2.9c-0.1-1.1,0-2.1,0-3.2
		C713.2,241.6,713.1,241.5,712.8,241.4L712.8,241.4z"/>
	<path d="M628.8,161.8c-1.4,0.2-2.1,1-2.7,1.8c-3.4,4.7-6.5,9.6-7.9,15.4c-0.5,2-1.2,3.9-3.6,3.6c-2.6-0.3-2.7-2.4-2.7-4.6
		c0.1-5.1,0-10.3-0.4-15.6c-1,1.8-1.9,3.6-2.8,5.4c-2.4,4.7-4.2,9.6-5.4,14.8c-0.5,2.1-1.7,3.6-4,3.4s-2.8-2-2.8-4
		c0-7.1,0-14.2,0-21.2c0-2.5,0.8-4.8,1.6-7.1c0.8-2.1,1.9-3.8,4.4-2.9c2.4,0.9,2.1,2.9,1.4,4.8c-1.1,2.9-1.6,5.9-1.2,9.4
		c1.2-0.9,1.5-2.1,2-3.1c1.3-2.5,2.6-5,4.9-6.8c1.8-1.4,3.9-1.7,5.9-0.9c2.1,0.8,2.4,2.7,2.5,4.7c0.1,1.3-0.2,2.7,0.4,4.3
		c2-2,3.3-4.4,5.5-6c2.3-1.7,4.6-2.6,7.3-1.6c2.7,1,3.2,3.6,3.4,6c0.3,4.6,1.3,9.2,1.1,13.8c0,0.8,0.1,1.6,0.5,2.4
		c1.1,1.8,0.7,3.5-1.2,4.3c-1.9,0.9-3.6,0.2-4.6-1.7c-0.8-1.4-0.9-2.9-0.8-4.5C630,171.1,629.1,166.6,628.8,161.8L628.8,161.8z"/>
	<path d="M692,325.1c-6.4,1.3-11,4-13,10.1c-1,2.9-2.1,5.8-3.1,8.7c-0.6,1.8-1.6,3.2-3.7,2.9c-2.2-0.4-2.7-2.2-2.6-4.1
		c0.2-3.1,1.3-6,2.6-8.8c1.1-2.3,1.8-4.7,2-7.3c0.2-4.1,1.6-5,5.5-3.8c0.9,0.3,1.4-0.1,2-0.5c2-1.2,4.1-2.1,6.2-2.7
		c2-0.5,4.2-0.9,5.7,1.2c0.5,0.7,0.9,0.8,1.5,0.2c2.5-2.2,5.6-1.9,8.5-1.6c1.5,0.1,2.8,0.1,4-0.9c1.6-1.4,3.7-1.7,5.6-0.8
		c2,1,1.9,2.9,2,4.7c0.1,4.5,0,9-1.6,13.5c-1,2.6-1.4,5.5-1.5,8.3c-0.1,1.8-0.5,3.4-1.9,4.7c-1.1,1-2.5,1.3-3.8,0.5
		c-1.4-0.8-1.6-2-1.2-3.5c1.4-5.2,1.7-10.6,3.5-15.6c0.3-0.8,0.6-1.9-0.5-2.4c-1.3-0.6-1.6,0.6-2,1.3c-2.2,3.5-4.3,7.2-6.5,10.7
		c-0.8,1.3-1.8,2.5-3.1,3.4c-1.3,1-2.8,1.3-4.4,0.6c-1.6-0.7-2.2-2.1-2.2-3.8C690.2,335.3,690.5,330.4,692,325.1L692,325.1z
		 M701.1,325.9c-3,0-4.3,2.3-4,6.8C698.6,330.3,699.8,328.1,701.1,325.9z"/>
	<path d="M176.8,73.3c1.3-5.4,1.2-10.8,1.4-16.1c0.1-1.1,0-2.2,0.2-3.2c0.3-1.5,1.2-2.5,2.8-2.5c1.7-0.1,2.8,0.9,3.1,2.5
		c0.2,1.1,0.2,2.3,0.2,3.5c0,11.8-0.1,23.6-0.1,35.4c0,1-0.3,2.2,0.9,2.9c1.4,0.9,1.7,2.3,1,3.8c-0.8,1.7-2.3,2.5-4.2,2.3
		c-1.8-0.2-3.2-1.2-3.5-3c-0.3-1.9-0.2-4-0.3-6c0-1.6,0-3.3,0-5.8c-1.1,1.8-1.9,2.9-2.6,4.1c-1.4,2-2.6,4.2-4.1,6.1
		c-3.1,4-7.4,5.3-12.2,3.8c-2.5-0.7-4.3-2.3-4.5-4.9c-0.6-6.8-0.4-13.6,2.7-20c2.9-6,6.8-7.7,13.1-5.6
		C172.8,71.4,174.6,72.3,176.8,73.3L176.8,73.3z M160.8,90.3c0,0.8,0,1.6,0,2.4c0.1,2.8,2,3.8,4.5,2.3c0.4-0.3,0.9-0.7,1.2-1.1
		c3.3-4.3,6.1-9,8.2-14c0.3-0.7,0.7-1.4-0.5-1.6c-1.9-0.2-3.4-1.3-5.1-1.8c-3.3-1-4.6-0.4-6,2.7C161.4,82.7,160.8,86.4,160.8,90.3
		L160.8,90.3z"/>
	<path d="M546.9,287.5c-1,1.6-1.8,3-2.7,4.4c-1.2,1.8-2.7,3.4-5,4c-3.4,0.9-5.7-0.9-5.9-4.4c-0.1-3.5,0.9-6.8,2-10.3
		c-2.3,0.1-3.9,1.1-5.3,2.5c-3,3-5.2,6.5-6.3,10.7c-0.2,1-0.5,1.9-0.9,2.8c-0.6,1.5-1.7,2.4-3.4,2.2c-1.7-0.2-2.6-1.4-2.6-3
		c-0.1-6.2-0.3-12.4,0.1-18.5c0.1-1.1,0.6-2.1,1.2-3c1-1.3,2.3-1.9,3.8-1.1c1.6,0.7,1.9,2.1,1.5,3.7c-0.4,1.4-1.1,2.7-0.3,4.6
		c0.8-0.9,1.5-1.6,2.2-2.4c2-2.1,4.4-3.8,7.4-4.3c0.7-0.1,1.8-0.4,2.1,0c2.2,2.4,3.9,1.1,5.8-0.5c0.8-0.7,2.2-0.8,3.1-0.2
		c1.9,1.2,2.9,0.2,3.9-1.2c1.1-1.5,2.6-2.3,4.5-1.7c2,0.7,2.5,2.4,2.5,4.4c0.2,4.9-0.5,9.6-1.9,14.2c-0.5,1.5-1,3.1-0.9,4.8
		c0.1,1.8-0.8,3-2.7,3.1c-2,0.1-3.4-1-3.5-3c-0.1-1.2,0.2-2.5,0.4-3.8C546.4,290.3,547.2,289.2,546.9,287.5L546.9,287.5z"/>
	<path d="M338.2,164.5c0.6,5.3-1.4,10.3-4.9,14.7c-2.5,3.1-5.6,4.6-9.6,3.5c-1.2-0.3-1.4,0.3-1.8,1c-0.7,1.4-1.3,2.8-2.1,4.1
		c-1.3,1.8-3.2,2.4-5.3,1.8c-2-0.6-2.7-2.2-2.8-4.2c-0.4-9.6,1.8-18.6,6.5-26.9c2.2-3.9,5.7-6.7,9.4-9c4.2-2.6,8.7-0.3,9.6,4.5
		C337.9,157.3,338.3,160.7,338.2,164.5L338.2,164.5z M331.3,155.7c-0.6,0.5-1,0.7-1.1,1c-3.3,5.6-4.6,11.9-5.9,18.2
		c-0.1,0.6,0.2,0.9,0.7,1.2c1.6,0.9,2.6,0.2,3.7-1C333.5,169.2,332.4,162.7,331.3,155.7L331.3,155.7z"/>
	<path d="M194.8,87.7c0.1-4.7,0.2-8.6,1.9-12.3c3.9-8.3,8.6-10.7,17.6-8.8c0.4,0.1,0.7,0.2,1.1,0.3c11.2,2.2,10.4,10.7,7.1,17.2
		c-0.7,1.4-1.1,2.3,0,3.7c1.8,2.3,1.1,4.8-0.4,7.1c-1.3,1.9-3.1,3.3-5.3,4.2c-4.6,1.9-9.5,1.9-14.2,1c-4.4-0.8-7-4.1-7.5-8.6
		C194.8,90,194.8,88.4,194.8,87.7L194.8,87.7z M210.6,83.3L210.6,83.3c0.8,0.1,1.6,0.1,2.4,0.1c3.1-0.2,4.7-2.2,5.3-5.9
		c0.5-3.2-1.5-3.8-3.8-4.5c-1.9-0.5-3.7-0.9-5.6-0.8c-2.8,0.1-6.1,3-6.1,5.2c0.1,4,1.6,5.6,5.6,5.8
		C209.1,83.4,209.8,83.3,210.6,83.3L210.6,83.3z M207.9,94.5c2.9-0.1,5.8-0.2,8.3-2.2c0.7-0.5,1.2-1.1,0.8-2.1c-0.4-1-1.1-0.9-2-0.9
		c-4.3,0.3-8.5,0.3-12.7-0.9c-0.9-0.3-1.3,0-1.4,1c-0.2,2.4,1.1,4.3,3.5,4.8C205.5,94.5,206.7,94.4,207.9,94.5L207.9,94.5z"/>
	<path d="M184.9,154.1c-0.1-4.1-0.1-9.3,1.1-14.5c0.3-1.5,1-2.8,2.6-3.1c1.2-0.2,2.1,0.2,2.8,1.2c0.7,1,0.7,2.1,0.5,3.1
		c-1.4,6.2-0.8,12.5-0.9,18.7c0,1.3-0.1,2.3,1.7,2.8c2.3,0.7,2.8,3.3,0.8,5c-2.1,1.8-2.6,3.8-2.7,6.4c0,1.6-0.5,3.2-1.1,4.7
		c-1,2.4-3.3,3.5-5.5,2.8c-1.2-0.4-2.1-1.1-2.4-2.4c-0.3-1.3,0.2-2.3,1.3-3c0.5-0.4,1.2-0.5,1.4-1.2c0.1-0.5,0.5-1,0.1-1.5
		c-0.4-0.4-0.8-0.1-1.3,0.1c-3.6,1.1-7.2,2.4-11,3.1c-0.9,0.1-1.5,0.5-1.2,1.7c0.4,1.4-0.1,2.7-0.9,3.9c-0.9,1.4-2.2,2.2-3.9,1.9
		c-1.8-0.3-2.6-1.7-2.6-3.4c0.1-3.3,0.2-6.5,0.5-9.8c0.5-4.7,1.1-9.4,1-14.1c-0.1-2.9,0.9-5.6,2.3-8c1-1.7,2.4-2.9,4.5-1.8
		c1.9,1.1,1.8,2.8,0.9,4.5c-2.9,5.7-1.1,12-2.3,17.9c-0.2,1.1,0.6,1.2,1.4,1c4.1-1,8.1-2.1,11.9-3.8c1.1-0.5,0.9-1.4,0.9-2.3
		C184.9,161.1,184.9,158.2,184.9,154.1L184.9,154.1z"/>
	<path d="M792.5,336.2c0.1-7.9,8.8-17.1,16.5-17.2c1.3,0,1.8-0.5,1.9-1.6c0.1-1.1,0.2-2.2,0.4-3.2c0.4-3.2,2.1-5.1,5.4-5.6
		c1.3-0.2,2.6-0.7,4-0.9c2.9-0.4,4.5,1,4.6,3.9c0,3-1.1,5.7-2.5,8.2c-3.4,6.3-6.8,12.6-10.2,19c-1.1,2.1-2.2,4.2-2.8,6.5
		c-0.4,1.7-1.4,2.8-3.3,2.5c-1.8-0.3-2.8-1.6-2.5-3.3c0.3-2.2-0.3-2.8-2.4-2.1c-1.4,0.4-2.9,0.1-4.3-0.2
		C793.9,341.4,792.4,339.6,792.5,336.2L792.5,336.2z M808.8,325.3c-1.8-0.6-2.9,0.1-4,1c-2.3,2-3.9,4.5-5.2,7.2
		c-0.4,0.7-1.3,1.6-0.5,2.4c0.8,0.7,2,0.4,2.8-0.1c0.8-0.4,1.5-1,2-1.7C806,331.5,807.6,328.6,808.8,325.3z"/>
	<path d="M807.1,165.4c-3.4,4.5-6.4,8.6-9.9,12.3c-2.1,2.2-4.5,3.3-7.6,3c-2.7-0.3-4.3-1.7-4.2-4.4c0.3-8.4,3.6-15.5,9.9-21.1
		c2.9-2.6,6-1.3,8.8,0.4c1.2,0.8,2.1,1,3.6,0.2c2.9-1.6,5.3,0.2,5.7,3.8c1.1,9.6-2.2,17.8-7.8,25.3c-2,2.7-4.2,5.2-6.9,7.3
		c-1.3,1.1-2.8,1.3-4.3,0.5c-1.3-0.7-1.9-1.9-1.8-3.4c0.1-1.1,0.5-2.1,1.5-2.4c4.4-1.2,6.2-5.1,8.5-8.4c2-2.8,3.4-6,4.3-9.3
		C807.1,168.2,807.4,167.1,807.1,165.4L807.1,165.4z M792,173.8c3.4-3.1,6.2-6.7,8.9-10.4c0.4-0.6,1.6-1.4,0.4-2.2
		c-1-0.8-2.2-1.4-3.4-0.1C794.7,164.7,792.6,168.9,792,173.8z"/>
	<path d="M834.2,166.6c-1.8,1.7-3.5,3.4-5.3,5c-2.6,2.3-5.5,3.7-9.1,3.5c-4.9-0.3-6.7-2.6-6-7.8c0.7-5.2,10.4-15.1,16.1-15
		c3.6,0.1,6,1.3,6.9,4.8c0.3,1,0.8,1.2,1.6,1.5c1.4,0.5,2.1,1.6,2.4,3c1.8,9.6-4.7,25-12.8,30.3c-3.1,2-5.1,2.1-6.3,0.4
		c-1.2-1.8-0.2-3.2,2.9-5.5c6.7-4.9,8.8-12.2,10.4-19.7C834.7,166.9,834.5,166.8,834.2,166.6L834.2,166.6z M829.5,158.6
		c-0.6,0-1.5,0.4-2.3,1c-2.2,1.6-4.2,3.5-5.9,5.6c-0.8,1-2.1,2.4-1,3.5c0.9,0.9,2.5-0.1,3.4-0.9c2.6-2.2,5-4.5,7.5-6.8
		c0.4-0.4,1.3-0.6,0.8-1.4C831.6,159,830.9,158.5,829.5,158.6L829.5,158.6z"/>
	<path d="M366.5,164.4c-3,4.2-5.9,8.5-8.9,12.7c-2,2.8-4.4,5.1-8.2,5.2c-3.1,0.1-4.9-1.4-5-4.5c-0.3-7.2,1.3-13.9,5.3-19.9
		c2.4-3.6,9.6-6.5,13.5-4.7c2.2,1,3.7,0.8,5.7,0.2c2.2-0.6,4.1,1.1,4.2,3.5c0.4,6.8,0,13.6-0.7,20.4c-0.2,1.7-1.1,3-3,2.9
		c-2-0.1-2.9-1.4-2.9-3.2c0-1.8,0.2-3.6,0.3-5.4c0.1-2.3,0.3-4.6,0.4-7C367,164.4,366.8,164.4,366.5,164.4L366.5,164.4z
		 M362.1,159.2c-2.3,0.5-5-0.8-6.7,1.3c-3.4,4.2-4.7,9.1-4.6,14.6C355.2,170.2,358.7,164.8,362.1,159.2L362.1,159.2z"/>
	<path d="M283,176.5c-0.1-3.4,0-6.4,1-9.3c0.4-1,0.1-2,0-2.9c-0.2-1.3,0.2-2.6,1.4-3c2.1-0.6,3-2.3,4.1-3.8
		c3.7-4.9,8.3-7.7,14.7-7.1c2.8,0.3,4.3,1.6,4.4,4.5c0.2,5.1-1.4,9.6-4.9,13.4c-2.5,2.7-5.8,3.1-9.3,3c-5.4,0-5.5,0-5.4,5.6
		c0,1.1-0.8,2.6,0.7,3.1c1.6,0.6,3.2,0.2,4.7-0.6c0.7-0.4,0.9-0.8,0.3-1.5c-1.6-1.9-1-3.6,0.9-4.8c1.7-1.1,4.4-0.4,5.5,1.4
		c1.6,2.4,1.2,4.9-0.3,7.2c-2.7,4.2-10.9,6.1-15.3,3.6c-1.7-1-2.6-2.5-2.7-4.4C283,179.3,283,177.7,283,176.5L283,176.5z
		 M291.8,164.9c6.2,1.1,8.9-0.4,10.3-5.5c0.2-0.8,0.9-1.9,0.2-2.5c-0.9-0.8-2.1-0.2-3,0.2C295.9,158.8,294,161.7,291.8,164.9
		L291.8,164.9z"/>
	<path d="M658.9,175.1c-1.5,1.4-2.7,2.6-3.9,3.6c-1.6,1.4-3.4,2.4-5.6,2.5c-4.2,0.2-6-1.4-6.2-5.7c-0.2-6,1.3-11.5,4.4-16.6
		c2.4-3.9,5.8-5.9,10.5-5.3c1.7,0.2,3.2,0.6,5,0.3c2.2-0.4,3.1,1.6,3.2,3.6c0.2,3.1-0.2,6.2-0.6,9.2c-0.2,1.8-0.5,3.6-0.7,5.4
		c-0.2,1.9-0.5,3.7,2.1,4.7c1.9,0.7,2,2.9,1.2,4.7c-0.9,2.2-3.7,3.6-6.1,3.1c-2.6-0.5-3.5-2.3-3.5-4.8
		C658.9,178.5,658.9,177.1,658.9,175.1L658.9,175.1z M649.3,172.9c0,0.5-0.3,1.3,0.3,1.7c0.8,0.5,1.3-0.4,1.8-0.8
		c3.2-3.1,5.1-7,6.6-11.1c0.3-0.8,1.1-1.9,0.5-2.5c-0.9-0.7-2.3-0.5-3.4-0.1c-1,0.4-1.6,1.2-2.1,2.1
		C650.9,165.4,649.7,168.9,649.3,172.9L649.3,172.9z"/>
	<path d="M195.7,177.5c0.4-6.8,1.9-13.1,7.4-17.8c0.8-0.6,0.9-1.5,1.3-2.3c1.3-3.3,3.8-5.2,7.4-5.4c1-0.1,2-0.1,3,0
		c7.2,0.1,9.7,2.9,8.8,10c-0.9,7.6-3.6,14.4-9,20c-3.8,4-9.9,5.2-15.1,3.2C196,183.7,195.5,180.8,195.7,177.5L195.7,177.5z
		 M201.7,177.7c-0.4,1.5,0.7,2.2,2.9,2.2c2.4,0,4.4-0.8,6-2.6c4.3-4.8,6.4-10.5,7-16.8c0.1-0.9,0.4-1.9-0.8-2.3
		c-0.9-0.3-1.9-0.4-2.8,0.4c-1.7,1.5-3.4,3.1-5.2,4.3C203.9,166.4,202.3,171.3,201.7,177.7L201.7,177.7z"/>
	<path d="M510.9,337.1c-2.3,2.8-5,4.4-8.8,3.9c-3.8-0.5-6.1-2.7-6.3-6.6c-0.2-4.9,0.8-9.8,1.1-14.7c0.1-2,1.5-3.4,3.7-3.2
		c2.4,0.3,2.6,2,2.4,4.1c-0.4,3.9-0.8,7.8-1,11.7c-0.1,0.9-0.5,2.1,1,2.5c1.1,0.3,1.9-0.4,2.5-1.2c3.4-4.5,6.4-9.3,8.8-14.4
		c0.5-1.1,1-2.2,2.1-2.7c2.3-1.1,4.5,0.6,4.2,3.5c-0.4,3.1-1,6.3-1.7,9.4c-1.5,6.6-3.2,13.1-5.9,19.2c-1.9,4.3-4.7,7.3-9.6,7.8
		c-1.9,0.2-3.6,0-4.1-2.1c-0.5-2.3,1-3.4,3.1-3.6c3.5-0.3,5.2-2.7,6.5-5.5C509.8,342.6,510.7,340.1,510.9,337.1L510.9,337.1z"/>
	<path d="M681.3,235.9c-2.2,3-4.4,6-6.6,9c-1,1.3-2.2,2.4-3.8,3c-4.3,1.6-7.8-0.5-8-5.1c-0.3-7,2.1-13.1,6.5-18.6
		c2.8-3.5,6.9-4,10.6-3.5c2.2,0.3,4.4,2.3,6.8,3.3c1.2,0.5,1.1,2.1,1.1,3.4c0,4,0,8,0,12c0,0.9-0.4,1.9,0.7,2.4
		c1.9,0.9,2.4,2.4,1.7,4.3c-0.7,1.7-2.2,2.3-4,2.2c-2-0.1-3.5-1-4.1-3c-0.3-1.1-0.4-2.3-0.5-3.5c-0.1-2,0-3.9,0-5.9
		C681.7,236,681.5,235.9,681.3,235.9L681.3,235.9z M668.9,241.5c2.7-2.2,10.1-12.8,10.5-15c-1.6,0.6-3.5-0.1-4.7,1.2
		C671,231.3,669.2,235.9,668.9,241.5L668.9,241.5z"/>
	<path d="M768.9,183.8c-11,0-13.3-2.9-11.4-12.9c1-5.1,2.8-9.9,6.3-13.9c3.5-4,7.8-5.4,13-4.5c3,0.5,4.3,2.1,4.4,5.2
		c0.2,8.9-5.5,14.4-14.8,14.1c-1.5,0-3-0.5-3.3,1.9c-0.3,3.3-0.1,3.8,3.3,3.9c3.6,0.1,7.3,0,10.8-1.1c1.8-0.6,3.4-0.3,4.1,1.5
		c0.8,2-0.4,3.3-2.1,4.1C775.7,183.7,771.8,183.7,768.9,183.8z M767.7,165.8c4.1,0,6.4-2,7.2-5.6c0.3-1.5-0.1-2-1.6-1.9
		c-3.2,0.3-4.8,2.6-6.4,5c-0.4,0.6-1.3,1.4-0.7,2.1C766.5,165.9,767.5,165.8,767.7,165.8L767.7,165.8z"/>
	<path d="M856.1,161.2c3.3,1.1,6.2,1.8,8.8,2.9c3.5,1.6,6.4,3.8,6.3,8.3c0,2.3-0.9,4.1-2.7,5.4c-4.1,2.9-8.5,4.8-13.4,5.8
		c-5.3,1-7.5-0.8-7.6-6.2c0-2,0-4,0-6c0-1.9,0.7-3.6,2.8-3.6c2.4-0.1,3,1.6,3.2,3.6c0.1,1.4,0.2,2.7,0,4.1c-0.1,1.8,0.4,2.3,2.2,1.7
		c2.7-0.9,5.3-1.9,7.7-3.4c2.1-1.3,2.2-2.2,0-3.5c-3.3-1.9-7-2.4-10.6-3.3c-0.5-0.1-1.1-0.2-1.6-0.3c-1.8-0.4-3.6-0.9-4.1-3
		c-0.5-2.1,0.7-3.4,2.1-4.7c3.2-2.7,6.4-5.4,10-7.6c1.6-1,3.2-1.8,5.1-1.8c2.5,0,4.2,1.8,4.1,4.1c-0.1,2.2-1.4,3.1-4.2,2.7
		c-0.8-0.1-1.4,0.1-2,0.5C860.3,158.2,858.4,159.6,856.1,161.2L856.1,161.2z"/>
	<path d="M533.5,240.5c-0.9,1.9-1.7,3.8-2.7,5.5c-2.1,3.7-4.9,5.4-8.1,4.8c-3.2-0.6-5.4-3-6.2-7.1c-0.7-3.2-0.6-6.5-0.3-9.8
		c0.3-3.4,2.7-5.4,5.6-6.8c1.3-0.7,2.7-0.3,3.6,1c0.9,1.3,0.8,2.9-0.4,3.7c-4.2,2.9-2.7,7-2.4,10.9c0.1,0.7,0.3,1.6,1.1,1.8
		c1,0.3,1.4-0.7,1.8-1.4c2.3-4.1,3.6-8.5,5.3-12.8c0.7-1.9,1.5-3.7,2.3-5.5c1-1.9,2.5-3.2,4.8-2.7c2.3,0.6,2.7,2.5,2.7,4.5
		c0.1,5.2,0,10.4-0.5,15.5c-0.1,1-0.5,2.2,0.6,3.1c1.4,1.1,2,2.5,1,4c-1.1,1.8-2.9,1.6-4.7,1.4c-1.8-0.2-2.8-1.3-2.9-3.1
		c-0.1-2.3,0-4.5,0-6.8C533.8,240.6,533.6,240.5,533.5,240.5L533.5,240.5z"/>
	<path d="M427.1,155.1c2.8-3.8,6.4-3.8,10.1-3.3c2.4,0.3,3.3,2,3.2,4.3c-0.1,4.9-4.7,11.4-9.3,12.9c-1.3,0.4-1.1,1.1-1.2,2
		c-0.1,1.2,0.2,2,1.5,2.5c3.5,1.2,7,0.9,10.5,1c2.2,0,4.9-0.4,5.2,2.9c0.3,2.1-1.5,3.1-5.3,3.2c-4.5,0.1-8.9,0.1-13.2-1.5
		c-3.5-1.3-4.8-2.9-4.9-6.6c0-2.6,0.2-5.2-1.9-7.3c-1-0.9-0.9-2.5-0.8-3.9c0.1-2.5,0.1-4.8-1.7-6.9c-1-1.2-0.7-2.6,0.6-3.6
		c1.3-1.1,2.7-0.9,4,0.1C425.4,151.7,426,153.3,427.1,155.1L427.1,155.1z"/>
	<path d="M629.9,295.2c-2.1,1.5-4.2,2.5-6.7,2.2c-2.7-0.3-4.5-1.7-4.8-4.4c-0.8-6,0.5-11.4,4.5-16c2-2.4,4.8-3.5,7.8-3
		c2.3,0.3,3.1-0.5,3.4-2.5c0.1-0.9,0.5-1.8,1-2.5c1-1.6,2.4-2.5,4.3-1.9c1.9,0.6,2.6,2.2,2,3.9c-1.3,4.1-1.3,8.5-3.6,12.4
		c-1.7,3-1.4,6.5-1.6,9.9c-0.1,1,0,2-0.1,3c-0.1,1.7-0.9,3-2.7,3.2c-1.7,0.2-2.7-0.9-3.1-2.5C630.2,296.4,630.1,295.9,629.9,295.2
		L629.9,295.2z M629.7,280c-0.4,0.1-0.9,0.2-1.4,0.5c-2.2,1.1-4.7,7.3-4,9.7c0.3,1.1,0.9,0.8,1.3,0.3c2.5-2.5,4.8-5.2,5.8-8.7
		C631.8,280.3,630.9,280,629.7,280L629.7,280z"/>
	<path d="M601.5,334.8c0.2-1.9-0.1-3.7-0.7-5.6c-1.2-3.6-0.3-5,3.1-5.9c1.1-0.3,1.3-1.2,1.9-1.8c2-2,3.5-4.8,6.9-4.7
		c4,0.1,6,2.2,5.3,6.1c-0.5,2.8-1.4,5.5-3.1,7.8c-1.2,1.7-2.9,2.4-4.9,2.5c-0.9,0.1-2.3-0.5-2.3,1.1c-0.1,1.2-0.6,2.8,0.6,3.6
		c1.1,0.8,2.9,0.9,3.8-0.1c2.1-2.4,4.8-4.5,5.5-8c0.3-1.8,1.2-3.2,3.2-3c2.1,0.2,2.7,1.9,2.7,3.8c0,1.8-0.6,3.4-1.6,4.8
		c-1.5,2.1-3.2,4.2-4.9,6.2c-2.4,2.8-7.2,3.7-11,2.2C601.9,342.2,601.3,338.7,601.5,334.8L601.5,334.8z"/>
	<path d="M558.8,338.5c-2.3,2.9-4.7,5.1-8.6,4.5c-3.5-0.5-5.2-1.9-5.1-5.4c0.1-5.6,0.5-11.2,0.8-16.9c0.1-2,1.1-3.4,3.2-3.3
		c2.2,0.1,2.9,1.7,2.8,3.6c-0.1,4.5-0.4,9.1-0.5,13.6c0,0.6-0.4,1.4,0.3,1.7c0.8,0.3,1.1-0.5,1.5-0.9c2.6-2.7,3.4-6.1,4.1-9.6
		c0.4-2.2,1.2-4.2,2.7-5.9c1.1-1.3,2.4-1.9,4.1-1.4c1.6,0.5,2.2,1.8,2.3,3.4c0.4,5.8-0.3,11.6-1.3,17.4c-0.2,1.4-1.2,2.2-2.6,2.4
		c-1.3,0.2-2.3-0.5-2.9-1.6C559.4,339.7,559.1,339.2,558.8,338.5L558.8,338.5z"/>
	<path d="M510.1,234.2c0.1,5.8-0.3,11.6-1.7,17.3c-1.1,4.3-3.2,7.9-6,11.2c-1.1,1.3-2.5,2.3-4.2,3c-4.5,1.8-8.2-0.1-8.7-4.9
		c-0.4-3.8-0.2-7.6-0.1-11.4c0-1.7,0.9-3,2.8-3.1c2-0.1,3,1.3,3.1,3.1c0.1,2.8,0.1,5.6,0.1,8.4c0,0.7-0.3,1.6,0.6,1.9
		c0.8,0.2,1.3-0.5,1.8-1c2.1-2.4,3.7-5.1,4.6-8.2c2.1-7,1.4-14.2,1.7-21.4c0-1.4,0.1-2.9,0.4-4.3c0.4-1.6,1.5-2.5,3.2-2.2
		c1.6,0.2,2.4,1.2,2.5,2.8C510.1,228.2,510.1,231.2,510.1,234.2L510.1,234.2z"/>
	<path d="M148.9,46.8c-2,14.8-0.3,29.8-2.8,44.5c-0.6,3.6-0.3,7.2-0.3,10.9c0,2.1-0.4,3.9-2.9,4.2c-1.9,0.2-3.1-1.4-3.2-4.2
		c-0.1-6-0.1-12,0.9-18c1.6-10.1,1-20.3,1.1-30.5c0-2.9,0.6-5.6,1.8-8.2c0.6-1.5,1.9-2.2,3.6-1.8C148.6,44.1,149.1,45.3,148.9,46.8
		L148.9,46.8z"/>
	<path d="M611.9,241.2c-0.2-5.9,1.5-11.5,5.6-16.3c4.2-5,10.5-5.5,15.4-1.3c1.4,1.2,2.1,2.6,1.1,4.3c-1.2,1.8-2.9,1.6-4.6,0.7
		c-4.5-2.4-6-2.1-8.8,2.3c-2.6,4-2.8,8.5-2.7,13.1c0,1.1,0.7,1.3,1.6,1.3c1.7,0,3.2-0.6,4.5-1.6c2-1.5,4-3.1,6.1-4.6
		c1.3-0.9,2.8-1.1,4,0.2c1.1,1.1,1.2,2.7,0.2,3.7c-4.1,4-8.1,8.2-14.4,8.3c-5.8,0.1-8.1-2.1-8.1-8
		C611.9,242.9,611.9,242.2,611.9,241.2L611.9,241.2z"/>
	<path d="M647.6,232.7c3.2-4.2,7.7-5.4,11.4-7.8c1.5-1,3-1,4.1,0.4c1.3,1.6,0.8,3.1-0.5,4.4c-1,0.9-2.2,1.8-3.4,2.2
		c-5.7,2.2-9,6.5-11.5,11.7c-0.7,1.4-1.2,2.8-2,4.2c-0.8,1.4-2.2,2.2-3.9,1.8c-1.8-0.4-2.4-1.9-2.4-3.5c0-2.1,0.2-4.2,0.4-6.2
		c0.6-4.5,1.3-8.9,2.1-13.4c0.2-1.3,0.9-2.6,1.5-3.8c0.9-1.9,2.4-2.9,4.4-2c2,0.9,1.9,2.8,1.1,4.5
		C647.9,227.2,647.2,229.4,647.6,232.7L647.6,232.7z"/>
	<path d="M524.2,333.3c0.1-3.1,0.7-7,2.4-10.6c1.7-3.4,5-5.5,8.5-5.3c1,0,1.8,0.3,2.4,1.1c4.4,6,5.5,12.3,1.8,19.2
		c-2.2,4.2-5.4,5.8-9.8,4.8C525.8,341.5,524.2,338.9,524.2,333.3L524.2,333.3z M530.3,333.9c0.2,0.8-0.4,2,0.9,2.4
		c0.6,0.2,1.2,0.1,1.8-0.3c2.2-1.8,2.8-8.3,1-10.4c-1-1.3-1.5-0.9-2,0.3C530.8,328.4,530.5,331.1,530.3,333.9L530.3,333.9z"/>
	<path d="M657.8,324c-3.7,3.7-4.6,8-4.3,12.6c0.1,1.8,1.7,2.3,3.8,1.3c1.4-0.7,2.7-1.6,4.1-2.1c1.9-0.7,4-0.7,4.8,1.6
		c0.9,2.2-0.8,3.2-2.5,4.1c-3.2,1.5-6.1,3.7-9.9,3c-3.2-0.5-5.9-2.8-6.3-5.9c-0.7-6.4,0.2-12.3,4.5-17.4c0.7-0.8,1.5-1.6,2.4-2.2
		c2.5-1.8,5.7-2,7.6-0.4c1.6,1.3,2.8,6.5,2,8.4c-0.5,1.2-1.4,1.9-2.8,1.9c-1.3,0-2.3-0.7-2.8-1.9C658.2,326,658.1,325.2,657.8,324
		L657.8,324z"/>
	<path d="M581.7,224.9c0.2-2.3,1.3-3.8,3.6-3.4c2.3,0.4,3,2.3,2.7,4.3c-0.3,3.3-2.4,5.5-5.2,6.8c-1.6,0.8-2.2,1.8-2.6,3.4
		c-0.6,2.6-0.4,5.2-0.5,7.9c-0.1,2-0.5,3.9-3,4.2c-1.9,0.2-3.1-1.4-3.1-4.2c0-2.7-0.3-5.5,0.4-8.1c0.4-1.3-0.1-1.8-1.4-1.9
		c-1.9-0.2-3.4-1.2-4.4-2.9c-0.8-1.3-0.9-2.6,0.3-3.8c1.1-1.1,2.4-1.1,3.7-0.4c3,1.6,3.1,1.6,3.1-2c0-2.1,0.2-4.2,1.5-6
		c1-1.4,2.3-2.2,4-1.4c1.7,0.8,2,2.2,1.5,3.9C581.9,222.4,581.4,223.5,581.7,224.9L581.7,224.9z"/>
	<path d="M552.8,241.9c-1-1.3-2.6-1.8-3.8-2.6c-3.1-2.2-4.2-5.5-2.8-9.1c2.3-5.9,11.6-10.2,17.6-8.2c1,0.4,2.1,0.8,2.7,1.8
		c0.7,1.1,0.7,2.3-0.1,3.3c-1,1.3-2.4,1.4-3.7,0.9c-4-1.4-6.8,0.6-9.6,3c-1.6,1.3-1.8,2.6,0.3,3.8c2.1,1.2,4.3,2.4,6.2,3.9
		c3.3,2.5,2.8,5.7-0.9,7.4c-1.8,0.8-3.4,1.6-5,2.8c-1.6,1.2-3.4,1.7-4.8-0.1c-1.5-1.9-0.5-3.4,1.1-4.7
		C550.9,243.4,551.8,242.6,552.8,241.9L552.8,241.9z"/>
	<path d="M496.3,289.1c-0.1-5.6,1.4-10.8,4.8-15.3c3.5-4.5,7.9-5,12.3-1.4c1.3,1.1,2.1,2.4,1.2,4c-1,1.7-2.5,1.9-4.2,1.1
		c-3.6-1.5-3.9-1.3-5.8,2.1c-1.8,3.2-2.3,6.7-2.2,10.3c0,0.9-0.3,2,1,2.2c1.2,0.1,2.6,0.6,3.3-1c0.9-2.1,2.4-2.9,4.3-1.7
		s2.2,3,1.3,5c-0.7,1.7-2.1,2.7-3.8,3.3c-1.9,0.6-3.9,0.7-5.9,0.5c-4.4-0.5-6.3-2.6-6.3-7C496.3,290.5,496.3,289.8,496.3,289.1
		L496.3,289.1z"/>
	<path d="M773,237.8c-0.3-7.9,1.3-14.4,4.8-20.5c1.1-1.9,2.5-3.5,4.8-2.2c2.3,1.3,1.5,3.4,0.5,5.2c-1.7,3.3-0.7,4.9,2.9,5
		c0.8,0,1.6,0.1,2.4,0.3c1.5,0.4,2.4,1.3,2.3,2.9c-0.1,1.6-1,2.6-2.6,2.7c-2.3,0.2-4.5,0.2-6.8,0.1c-1.8-0.1-2.4,0.6-2.4,2.3
		c0.1,2.8,0,5.6,0,8.4c0,1.9-0.8,3.5-2.9,3.6c-2.2,0.1-3-1.5-3.1-3.4C772.9,240.5,773,238.7,773,237.8L773,237.8z"/>
	<path d="M589.6,322c1.4-0.5,2.6-1,3.9-0.9c1.4,0.1,2.4,0.8,2.8,2.2c0.4,1.4-0.1,2.6-1.3,3.3c-4.5,2.2-5.4,6.7-6.9,10.8
		c-0.3,0.8-0.3,1.8-0.7,2.6c-0.5,1.3-1.6,2-3,1.9c-1.4-0.1-2.3-1-2.7-2.4c-0.2-0.9-0.3-2-0.1-2.9c1.2-4,1.1-8,1.1-12.1
		c0-1.2,0.2-2.5,0.5-3.8c0.5-1.9,1.4-3.7,3.9-3.4C589.7,317.7,589.8,319.6,589.6,322L589.6,322z"/>
	<path d="M474,279.4c0.6-2.2,1.1-4.1,1.8-5.9c0.6-1.8,1.9-3,4-2.3c2,0.6,2.3,2.3,1.8,4c-0.8,2.5-1.2,5.1-1.3,7.7
		c-0.1,1.4-0.7,2.5-2.1,2.8c-1.3,0.3-2.4,0-3.1-1.1c-0.5-0.8-0.9-0.9-1.9-0.6c-2.6,0.9-4.9-0.4-5.8-3c-0.8-2.5-0.5-5,0.7-7.4
		c0.7-1.4,1.9-2.3,3.6-1.8c1.7,0.5,2.1,1.8,2.1,3.4C473.6,276.6,472.2,278,474,279.4L474,279.4z"/>
	<path d="M476,325.1c-2.1,2.8-4.2,3.5-5.4,1.6c-1.3-2.2-2.1-4.7-2.5-7.2c-0.3-2,2.2-3.2,4.1-2.2c0.9,0.4,1.6,1.2,2.4,1.8
		c0.6-0.4,0-0.9,0-1.3c-0.1-1.4,0.4-2.5,1.8-3.1c1.4-0.6,2.6-0.1,3.7,1c1.9,2.2,2.8,8.6,1.5,11.2c-0.6,1.2-1.6,1.7-2.9,1.6
		C476.8,328.2,476.2,326.8,476,325.1L476,325.1z"/>
	<path d="M894,135.8c2.6-0.1,4.1,2.1,3,4.1c-2.3,4.2-2.6,9-3.5,13.6c-0.4,2.1-0.8,3.9-3.3,3.8c-2.5-0.1-3-2.1-2.8-4.2
		c0.4-4.7,1.8-9.2,2.7-13.9C890.5,137.2,892.1,135.9,894,135.8L894,135.8z"/>
	<path d="M136,163.7c-2.2,0.1-3.2-0.5-3.7-1.9c-0.5-1.4,0-2.5,1.1-3.4c2.1-1.6,4.4-2.6,6.9-2.9c1.8-0.2,3.1-0.6,3.6-2.8
		c0.4-2.1,3.2-2.6,4.8-0.9c1.1,1.1,1.4,2.5,1,4c-0.4,1.7-1.4,2.9-2.8,3.9C143.4,162.1,138.7,161.1,136,163.7L136,163.7z"/>
	<path d="M758.7,235.9c-0.6-3.4,1.2-6.6,3.4-9.5c1.2-1.5,2.7-2.4,4.5-1.1c1.8,1.2,1.6,3,0.5,4.6c-1.8,2.4-2.5,5.1-2.3,8.1
		c0.2,3.3-1,5-3,4.8c-2.8-0.3-3-2.5-3-4.7C758.7,237.5,758.7,236.9,758.7,235.9L758.7,235.9z"/>
	<path d="M661.6,269c0,4.5-1.4,5.4-5.5,4.1c-1.6-0.5-3.5-0.4-4-2.6c-0.5-2.7-0.2-5.3,1.2-7.6c0.9-1.4,2.7-2,3.8-0.9
		C659.1,264,662,265.7,661.6,269L661.6,269z"/>
	<path d="M463.5,219.7c-0.1-1.7,0.5-3.1,2.3-3.4c1.8-0.3,3,0.7,3.4,2.4c0.6,3,1.4,5.7,3.1,8.3c0.9,1.4,0.3,2.9-1.2,3.7
		c-1.9,0.9-3.7,0.3-4.7-1.4C464.7,226.3,463.6,223.2,463.5,219.7L463.5,219.7z"/>
	<path d="M473.4,222.3c-0.1-1.6,0-3.1,0.8-4.5c0.8-1.4,2-2.2,3.6-1.8c1.7,0.4,2.4,1.7,2.1,3.3c-0.4,2.3-0.6,4.3,1.1,6.4
		c1,1.2,0.4,2.9-1.1,3.7c-1.8,1-3.5,0.7-4.9-0.9C473.4,226.7,473.4,224.5,473.4,222.3L473.4,222.3z"/>
	<path d="M805.8,215.3c0,0.6,0,1.3-0.2,1.9c-0.3,1.5-1.2,2.5-2.7,2.6c-1.6,0.1-2.6-0.8-2.9-2.3c-0.4-1.9-0.6-3.9-1.5-5.7
		c-0.5-1.2-0.1-2.5,1.1-3.3c1.3-0.9,2.6-0.6,3.7,0.5C805.2,210.6,806,212.8,805.8,215.3L805.8,215.3z"/>
	<path d="M578.3,317.4c0,1.2,0.1,2.4,0,3.5c-0.2,1.6-1.2,2.6-2.9,2.7c-1.6,0-2.6-0.9-2.9-2.3c-0.5-2.4-0.5-4.9,0-7.3
		c0.4-1.7,1.5-2.8,3.3-2.6c1.9,0.2,2.5,1.5,2.6,3.2c0,0.9,0,1.8,0,2.7H578.3L578.3,317.4z"/>
	<path d="M842.6,313.6c0-1.5,0.2-2.9,0.9-4.2c0.8-1.5,2-2.4,3.8-1.8c1.8,0.5,2.2,2,2,3.7c-0.2,1-0.4,2-0.5,2.9
		c-0.3,2.1-0.9,4.1-3.6,3.8C842.5,317.7,842.5,315.6,842.6,313.6L842.6,313.6z"/>
	<path d="M832.7,313c0-1.6,0.4-3.5,1.9-5c1.2-1.1,2.6-1.4,4-0.5c1.3,0.9,1.5,2.1,1,3.6c-0.4,1.1-0.7,2.2-1,3.4
		c-0.5,1.8-1.4,3.3-3.5,3C833,317,832.6,315.3,832.7,313L832.7,313z"/>
	<path d="M814.1,212.8c0,0.3,0,0.5,0,0.8c-0.1,3.1-1.2,4.7-3.1,4.5c-2.8-0.3-2.9-2.6-2.9-4.7c0-1,0.1-2,0.2-3c0.2-1.9,1.2-3.1,3.2-3
		c1.9,0.1,2.6,1.5,2.7,3.2C814.2,211.3,814.2,212,814.1,212.8C814.1,212.8,814.1,212.8,814.1,212.8L814.1,212.8z"/>
	<path d="M513,210.5c-0.2,1.6-1,2.7-2.7,2.8c-1.8,0-2.9-1-2.9-2.8c0-1.7,1.1-2.6,2.8-2.6C512,207.8,512.9,208.8,513,210.5L513,210.5
		z"/>
	<path d="M770.1,210.4c-0.2,1.7-1.1,2.7-2.8,2.7c-1.7,0-2.7-1.1-2.7-2.8c0-1.7,1-2.7,2.8-2.7C769.1,207.7,770,208.8,770.1,210.4z"/>
	<path d="M885.5,187.1c-1.7-0.3-2.7-1.2-2.6-2.9s1.1-2.7,2.9-2.6c1.7,0.1,2.7,1.1,2.6,2.9C888.3,186.2,887.2,187,885.5,187.1z"/>
	<path d="M219.9,707.3c0,5.4,0,10.9,0,16.3c0,3-1.1,4.7-3.1,4.5c-2.6-0.3-3-2.2-3-4.4c-0.1-8.9-0.2-17.8-0.2-26.7
		c0-5.5-0.4-10.9-0.9-16.3c-0.2-2,0.1-3.8,2.4-4.1c2.3-0.3,3.4,1.3,3.6,3.2c0.4,3.7,0.8,7.4,0.9,11.1c0.1,5.4,0,10.9,0,16.3
		C219.8,707.3,219.9,707.3,219.9,707.3L219.9,707.3z"/>
	<path d="M502.3,183.2c-4.2,0.1-7.3-1-9.1-4.3c-1.4-2.4-1.4-5.3,0.2-7.6c2.5-3.5,5.9-5.9,10.4-6.2c1.4-0.1,2.7,0,4.1,0
		c4.4,0,6.7,2.5,6.3,6.9C513.5,178.6,508.3,183.2,502.3,183.2L502.3,183.2z M506,171.5c-3.2-0.6-5,0.9-6.7,2.4
		c-1.4,1.2-1,2.4,0.7,3.1c2.3,0.9,5.4-0.2,7-2.4c0.6-0.8,1.3-1.8,0.8-2.7C507.3,170.8,506.2,171.5,506,171.5L506,171.5z"/>
	<path d="M550,172.1c-4.5,0-7.1-1.2-7.9-3.9c-1-3.2,0.3-6.8,3.6-9.2c0.6-0.4,1.2-0.8,1.7-1.4c3.2-3.3,7.9-3.5,11.5-0.4
		c3,2.5,3.2,6.7,0.6,10.5C557.4,170.6,554.2,172.1,550,172.1L550,172.1z M550.1,166.1c2.4,0,4.8-1.6,4.8-3.2c0-1.3-0.9-0.8-1.5-0.8
		c-1.8,0-5.3,2.2-5.2,3.2C548.5,166.4,549.5,165.9,550.1,166.1z"/>
	<path d="M525.3,156.2c1.5-0.2,3.2-0.5,4.3,1.2c1,1.6-0.6,3-0.5,4.2c0.1,1,2.6,1.4,2.6,3.3c0,1.3-0.7,2.4-1.9,2.7
		c-2.3,0.7-4.7,1.4-7.2,1.1c-1.7-0.2-3.8-1.4-3.2-2.6c1.4-3.1-3.5-6.3,0.5-9C521.6,156,523.4,156,525.3,156.2L525.3,156.2z"/>
	<path d="M532.3,143.1c0-0.9,0.2-1.8,0.8-2.5c1.5-1.7,2.9-3.5,4.5-5.1c1-1,2.3-1.5,3.7-1.5c1.4,0,2.5,0.6,3,1.9
		c0.4,1.2,0.1,2.5-1,3.1c-2.4,1.5-3.9,3.7-5.7,5.8c-0.9,1.1-2.1,1.8-3.6,1.1C532.8,145.4,532.3,144.4,532.3,143.1L532.3,143.1z"/>
	<path d="M497.8,141.1c2.9-0.2,5.4,1.6,8.1,3c1.2,0.6,1.7,1.9,1.3,3.3c-0.5,1.5-1.7,2.4-3.1,2c-3.1-0.8-6.2-1.9-9.2-3.1
		c-1.3-0.5-1.7-1.9-1.3-3.2C494.2,141.3,495.7,141,497.8,141.1L497.8,141.1z"/>
	<path d="M539.5,149.3c2-0.1,3.8,0.3,4,2.6c0.2,2.5-1.6,3.1-3.7,3.4c-3.5,0.5-5.4-0.4-5.5-2.7C534.3,150.5,536.1,149.3,539.5,149.3z
		"/>
	<path d="M504,162.6c-1.7,0.1-3.1-0.5-3.5-2.3c-0.4-1.8,0.6-2.9,2.2-3.5c0.2-0.1,0.5-0.1,0.8-0.3c1.4-0.9,2.9-1.6,4.4-0.2
		c1.1,1,1.2,2.2,0.8,3.5c-0.6,1.9-2.1,2.6-3.9,2.8C504.6,162.6,504.3,162.6,504,162.6L504,162.6z"/>
</g>
</svg>
