<?xml version="1.0" encoding="UTF-8"?>
<svg id="Layer_0_Image" data-name="Layer 0 Image" xmlns="http://www.w3.org/2000/svg" viewBox="0 0 1117.09 837.82">
  <path d="m385.43,401.47c-10.03.59-20.06.18-29.77-2.34-13.32-3.46-26.34-7.97-36.99-17.17-6.44-5.57-13.83-10.1-19.09-16.99-.72-.94-1.56-.75-2.44-.47-18.16,5.83-36.45,4.3-54.17-.93-15.54-4.58-29.58-12.48-41.55-24.06-10.48-10.13-18.68-21.69-25.8-34.22-2.24-3.95-4.69-7.75-6.46-11.97-3.65-8.66-5.27-17.59-5.36-27.02-.13-13.69.7-27.32,3.15-40.71,2.96-16.17,9.14-30.98,22.24-41.97,2.08-1.75,3.84-3.89,6.19-5.31,2.16-1.31,2.33-3.21,1.45-5.19-.96-2.16-1.14-4.36-1.09-6.65.19-8.72-.75-17.5.6-26.14,1.85-11.93,1.28-24.18,4.69-35.87,2.86-9.8,7.31-18.65,14.96-25.82,7.39-6.91,14.93-13.53,23.53-18.93,5.51-3.46,11.24-5.68,17.92-5.49,8.54.24,17.09.18,25.63.02,5.06-.09,8.21,2.94,11.31,6.18.96,1,.99,2.35.12,3.52-.95,1.28-2.28,1.36-3.68.89-.34-.11-.72-.29-.93-.55-3.39-4.29-8.08-4.15-12.9-4.03-6.54.16-13.09.16-19.63,0-4.44-.1-8.51,1.01-12.21,3.24-11.84,7.13-22.53,15.7-31,26.69-3.73,4.84-6.15,10.58-7.3,16.59-3.75,19.58-5.46,39.37-5.04,59.32.04,1.74.4,3.35.87,5.03,1.6,5.81.52,9.1-3.43,12.05-8.15,6.09-14.93,13.53-19.82,22.54-1.87,3.45-2.37,7.42-3.78,11.06-3.35,8.69-3.7,17.91-4.85,26.99-1.19,9.42-1.16,18.9-.71,28.32.45,9.56,3.75,18.44,8.73,26.65,2.69,4.43,5.35,8.86,7.99,13.32,4.43,7.47,9.86,14.12,16.08,20.18,5.35,5.21,10.86,10.17,17.19,14.2,2.53,1.61,4.97,3.3,7.76,4.48,9.45,3.97,18.72,8.46,29.07,9.77,9.69,1.23,19.42.98,29.13.7,3.09-.09,5.93-1.65,8.86-2.59,4.86-1.55,6.73-1.14,9.9,2.89,4.06,5.14,9.73,8.42,14.46,12.79,9.01,8.33,19.81,13.28,31.41,16.82,9.55,2.91,19.22,4.51,29.23,4.12,4.72-.18,9.45-.09,14.18-.02,13.26.21,24.81-4.55,35.38-12.15,2.21-1.59,4.26-3.46,6.61-4.8,9.58-5.47,15.16-14.22,20.48-23.5,5.83-10.17,9.85-21.04,14-31.88,2.08-5.43,3.03-11.22,3.08-17.08.03-3-.23-6.02.06-8.99.44-4.47-1.33-8.07-3.58-11.69-3.27-5.26-6.28-10.66-6-17.19.1-2.38,1.17-4.19,3.49-4.6,8.38-1.47,14.76-6.26,20.6-12.02,6.21-6.12,12.57-12.09,16.54-20.1,7.09-14.33,10.82-29.42,10.83-45.41,0-6.09-.06-12.18.02-18.27.04-3.1-.86-5.8-2.36-8.52-3.44-6.24-6.95-12.38-12.55-16.99-4.94-4.07-10.72-6.8-16.19-10.02-1.8-1.06-3.7-1.94-5.36-3.22-4.53-3.49-9.81-5.52-15.13-7.32-6.44-2.18-8.04-4.08-8.04-10.76,0-7.45.02-14.91,0-22.36-.03-9.36-4.24-16.89-11.74-21.87-13.91-9.23-28.8-16.35-45.51-19.49-12-2.25-24.01-1.95-36.06-2.57-15.41-.8-29.34,3.99-43.14,9.71-3.73,1.55-7.64,2.78-10.85,5.48-1.13.95-2.69.51-3.64-.71-1.14-1.46-1.09-3.07.08-4.51,1-1.24,2.49-1.78,3.89-2.45,9.86-4.68,20.11-8.32,30.58-11.35,4.37-1.26,8.83-2.13,13.4-2.14,8.45-.02,16.92-.33,25.36.06,19.35.89,37.95,4.84,55.05,14.48,4.83,2.72,9.91,5.06,14.34,8.37,8.88,6.64,14.28,15.33,14.33,26.76.04,7.73.09,15.46-.04,23.18-.04,2.11.77,3.36,2.62,3.86,10.19,2.73,18.52,9.08,27.49,14.16,4.8,2.72,9.72,5.27,13.85,9.12,6.52,6.09,10.67,13.72,14.57,21.54.86,1.72,1.05,3.66,1.07,5.58.11,11,.45,22.02-.68,32.97-1.06,10.24-4.11,20-8,29.58-6.3,15.48-18.08,26.11-30.68,36.1-2.67,2.11-6.04,2.9-9.23,3.94-3.16,1.03-3.26,1.34-2.21,4.56,1.66,5.08,4.79,9.36,7.26,13.99.92,1.72,1.56,3.47,1.58,5.43.1,9.17.49,18.34-1.72,27.39-.98,4.01-2.61,7.74-3.96,11.58-4.76,13.52-11.16,26.22-19.13,38.13-2.96,4.43-6.69,8.11-11.07,11.17-3.95,2.76-7.77,5.69-11.75,8.4-11.17,7.6-23.23,12.66-37.04,12.48-3.18-.04-6.36,0-9.55,0Z"/>
  <path d="m706.8,196.38c.46-4.41,3.5-6.49,6.78-8.15,8.67-4.38,18.01-5.87,27.61-6.69,9.14-.78,18.29-1.16,27.91-1.62-4.52-6.43-3.34-13.38-2.76-20.21.39-4.57,2.24-8.76,7.7-9.44.82-.1,1.01-.59,1.26-1.19.84-2.08,2.51-3,4.64-3.28,8.92-1.16,16.01,2.03,21.53,9,1.59,2,1.86,4.31,1.71,6.7-.1,1.61.36,2.12,1.99,1.59,8.38-2.71,17.17-3.92,25.51-6.8,1.11-.38,2.26-.71,3.41-.95,5.38-1.11,7.05-.4,9.91,4.18,2.41,3.86,3.19,4.52,6.66,1.71,10.29-8.34,23.31-10.85,34.61-16.95,8.73-4.71,17.9-8.42,27.24-11.76,4.37-1.56,6.22-.51,7.03,4.06.14.8.39,1.59.54,2.39.59,3.21-.68,5.06-3.87,5.66-14.71,2.76-28.29,8.6-41.34,15.65-7.12,3.85-13.98,8.11-21.96,10-1.36.32-2.29.93-1.7,2.7.76,2.27.63,4.25-2.17,5.28-.87.32-1.4,1.56-2.19,2.5,1.37.82,2.72,1.52,3.95,2.39,1.67,1.18,2.3,2.62,1.23,4.69-1.19,2.31-.52,5.68,1.22,7.47.93.95.92,2.05.74,3.29-1.16,7.89-5.79,13.99-10.29,20.15-1.14,1.56-2.64,2-4.76,1.76-3.88-.44-7.65,1.19-11.57,1.23-12.43.11-24.62,2.98-37.16,2.62-18.71-.54-37.45-.18-56.18-.11-3.89.01-7.33-1.04-10.51-3.18-2.03-1.37-4.07-2.74-6.07-4.16-3.8-2.69-5.01-6.76-5.72-11.05-.21-1.28-.46-2.32-2.19-1.94-9.62,2.12-19.5,2.04-29.21,3.32-11.07,1.46-22.11,3.34-33.19,4.54-8.9.96-17.53,4.33-26.67,3.12-1.44-.19-2.91-.2-4.32-.5-2.62-.56-4.13-2.3-4.3-4.95-.17-2.62-.19-5.27-.04-7.9.22-3.82,2.07-5.77,5.85-6.35,5.4-.83,10.82-1.24,16.29-1.31,21.18-.26,42.35.44,63.53.61,3.11.03,6.14.55,9.3,1.85Zm97.32,7.64c-2.33,0-4.99-.82-6.2.15-3.55,2.88-6.84.41-10.21.37-22.88-.25-45.8,1.02-68.63-1.52-.69-.08-1.66-.36-1.44.88.57,3.11.82,6.38,3.86,8.37,1.75,1.14,3.45,2.36,5.16,3.55,2.31,1.6,4.81,2.37,7.67,2.35,10.09-.07,20.18.19,30.27-.08,16.67-.44,33.4,1.37,50.03-1.56,7.47-1.32,15.24-.48,22.7-2.41,1.02-.26,2.22-.12,2.93-1.2,1.83-2.81,4.2-5.28,5.6-8.37.77-1.7,1.49-3.46,1.04-5.67-5.16,1.97-10.28,3.54-15.68,3.82-4.44.23-8.89.42-13.34.55-1.54.05-2.76.58-3.88,1.65-4.45,4.2-9.92,6.6-15.61,8.56-1.56.54-2.93.15-3.72-1.36-.81-1.53-.26-2.87,1.02-3.84,1.46-1.1,3.09-1.88,4.89-2.32,1.19-.29,2.51-.42,3.53-1.93Zm-90.55-8.37c4.75,1.1,8.82,2.04,12.99,2.23,19.26.86,38.53.59,57.8.62.36,0,.73-.02,1.09,0,1.01.03,1.33-.46.97-1.36-1.01-2.53-1.96-5.08-2.54-7.76-.1-.46-.29-1-.79-.99-3.71.08-6.78-2.46-10.56-2.35-8.63.24-17.27.27-25.86,1.18-7.21.76-14.56.75-21.53,3.09-3.82,1.28-7.82,2.24-11.57,5.35Zm84.31-15.61c11.94-.25,23.37.44,34.8.62,2.14.03,3.82-.6,5.48-1.9,1.78-1.39,3.03-3.55,5.28-4.19,1.59-.46,1.63-1.1.93-2.28-1.94-3.28-3.89-6.56-5.78-9.86-.72-1.25-1.7-1.53-2.99-1.14-2.6.79-5.18,1.7-7.82,2.35-7.84,1.93-15.71,3.74-23.44,6.07-.99.3-2.26.34-2.59,1.67-.72,2.92-2.23,5.51-3.87,8.66Zm-26.02-13.02c-.59,4.72,1.21,8.48,4.39,11.82,1.44,1.52,3.25,1.53,4.75.96,1.33-.5.24-2.06.17-3.15-.05-.81-.3-1.61-.33-2.42-.1-2.47,1.24-3.69,3.69-3.39.5.06,1.1.63,1.46-.02,1.59-2.82,4.62-2.57,7.12-3.38,4.22-1.36,5.64-6.47,2.66-9.84-5.22-5.9-9.32-6.93-16.98-4.09-3.73,1.38-6.49,3.64-6.55,8.09-.02,1.81-.25,3.61-.39,5.42Zm55.8,20.15c-.84-.97-1.81-.58-2.65-.62-3.27-.15-6.54-.27-9.81-.31-7-.08-13.99-.15-20.99-.13-2.36,0-4.36,1.73-3.97,3.29.7,2.82,1.33,5.93,3.29,7.96,1.53,1.58,4.33.34,6.55.55.63.06,1.27.02,1.91-.02,3.8-.25,8.04.47,11.3-1,5.2-2.34,10.11-5.63,14.37-9.72Zm-147.75,13.96c-2.92-1.18-5.88-.93-8.8-.94-16.14-.05-32.29-.89-48.42.55-5.17.46-5.17.49-4.97,5.64,0,.18.02.36,0,.54-.05,1.22.47,1.91,1.75,1.87,3.71-.11,7.5.6,11.12-.39,9.5-2.6,19.35-2.78,28.97-4.48,6.74-1.19,13.56-1.88,20.35-2.8Zm146.38-4.52c5.73.21,11.2-.71,16.48-2.76,2.07-.8,3.73-3.88,3.14-5.97-.08-.3-.39-.58-.67-.76-1.44-.93-7.76-.47-9.14.75-3.25,2.88-6.39,5.89-9.82,8.75Zm-32.23-22.83c-1.77.06-2.91.41-3.3,2.08-.19.81-.83,1.38-1.56,1.8-.57.33-1.56.22-1.39,1.32.08.48.33.86.83.96.86.16,1.63-.02,2.15-.8,1.1-1.65,2.44-3.14,3.28-5.36Z"/>
  <path d="m282.76,583.05c12.55,0,23.36-.07,34.18.02,23.9.2,47.76,1.9,71.66,2.36,16.74.32,33.38,1.88,50.04,3.19,13.26,1.04,26.53.49,39.79.54,4.63.02,8.79,1.01,12.75,3.24.62.35,1.13.89,1.94.89,3.95.03,4.8.52,5.98,4.19,2.58,8.05,4.62,16.2,5.53,24.66,2.08,19.35,2.55,38.79,3.92,58.17.72,10.18.82,20.32.84,30.48.04,13.91-.97,27.76-2.38,41.6-.55,5.42-1.13,10.83-1.73,16.24-.51,4.63-3.03,7.88-6.96,10.15-3.3,1.9-6.64,3.75-9.95,5.64-1.89,1.08-3.96,1.19-6.07,1.22-10.18.15-20.37-.46-30.53.41-25.5,2.19-51.06.65-76.58,1.04-5.38.08-10.71.49-16.03,1.12-11.4,1.35-22.87.47-34.3,1.48-16.46,1.46-32.99,1.99-49.45,3.71-8.73.91-17.62.04-26.43.33-10.45.34-20.68-1.3-30.78-3.45-7.92-1.69-15.48-4.77-19.06-13-2.18-5-3.49-10.33-4.38-15.71-3.33-20.09-4.97-40.39-6.85-60.63-2.88-31.04-4.4-62.17-3.55-93.37.14-5.17,2.1-8.79,6.33-11.86,6.21-4.5,12.61-8.27,20.33-9.26,14.71-1.89,29.48-2.85,44.3-2.96,9.73-.07,19.44-.83,27.44-.46Zm2.12,6.1c-10.13-.26-22.03.39-33.93.55-13.09.17-26.13,1.16-39.12,2.83-6.61.85-12.05,4.17-17.33,8.04-2.81,2.05-4.08,4.32-4.01,7.71.41,20.16-.99,40.37,1.1,60.49,1.17,11.3,1.66,22.65,2.58,33.97.75,9.32,1.86,18.62,2.91,27.91,1.52,13.52,2.34,27.13,6.25,40.32,1.91,6.45,5.89,10.16,12.04,12.12,6.17,1.96,12.53,2.89,18.92,3.68,13.59,1.69,27.3,1.49,40.82.48,16.3-1.22,32.63-2.16,48.91-3.59,11.61-1.02,23.27-.16,34.85-1.53,5.51-.65,11.02-1.03,16.58-1.12,25.53-.4,51.08,1.12,76.58-1.05,9.79-.83,19.63-.22,29.44-.37,1.54-.02,3.12.13,4.47-.85,2.59-1.87,5.47-3.25,8.31-4.65,3.24-1.59,4.88-4.07,5.3-7.65,1.76-14.98,3.08-30.01,3.68-45.06.62-15.69.15-31.41-1.01-47.1-1.17-15.67-1.56-31.38-3.15-47.03-.95-9.36-2.7-18.49-5.6-27.41-.25-.78-.4-1.96-1.75-1.59-1.76.48-3.24-.28-4.65-1.07-2.71-1.51-5.56-1.91-8.64-1.95-13.26-.17-26.53.49-39.79-.52-16.66-1.26-33.3-2.88-50.04-3.21-23.8-.47-47.57-2.13-71.38-2.34-10.18-.09-20.36-.01-32.32-.01Z"/>
  <path d="m611.87,711.87c-6.27.05-11.6-.33-16.85-1.59-5.07-1.22-9.37-3.84-13.36-7.08-3.82-3.1-3.38-7.23-2.62-11.28.78-4.18,2.09-8.24,1.87-12.6-.14-2.75-1.01-4.74-3.56-5.87-7.07-3.15-12.76-7.84-16.87-14.5-2.01-3.25-3.08-6.55-3.42-10.42-.84-9.31,2.51-17.06,7.84-24.28,3.03-4.1,6.37-7.92,9.82-11.67,4.36-4.72,9.77-7.14,16.07-7.7,4.22-.38,7.24-2.25,9.35-6.05,3.29-5.94,6.32-12.02,10.32-17.59,5.7-7.93,13.47-12.03,22.77-13.44,4.36-.66,8.89-.67,13.26.56.7.2,1.33.48,1.89-.37,1.26-1.91,3.11-1.76,4.86-1.02,5.48,2.31,11.3,2.47,17.08,3.03,11.42,1.1,22.73,2.88,33.43,7.22,9.61,3.9,16.88,10.7,23.21,18.8,8.57,10.96,8.46,24.1-.73,34.71-1.25,1.44-2.48,2.91-3.88,4.21-3.78,3.51-3.53,7.7-2.06,12.02,1.15,3.38,3.08,6.38,5.32,9.14,2.09,2.57,2.75,5.46,2.4,8.67-.3,2.71-.78,5.38-1.4,8.04-3.64,15.62-15.71,20.71-27.95,21.46-8.99.55-17.85-.35-26.65-2.94-9-2.65-17.2.24-24.32,6.2-6.69,5.61-14.05,9.91-22.48,12.44-4.68,1.4-9.36,2.18-13.33,1.89Zm81.76-23.59c1.55,0,3.1.14,4.63-.02,12.66-1.3,19.87-5.84,22.57-17.55.39-1.68.54-3.41.94-5.08.61-2.61-.1-4.77-1.77-6.82-2.53-3.13-4.68-6.58-5.69-10.47-1.54-5.91-2.3-11.81,2.84-16.73,2.15-2.07,4.3-4.28,5.87-6.78,3.79-6.03,6.53-12.83,2.71-19.49-5.83-10.17-13.85-18.44-25.17-22.77-10.1-3.86-20.66-5.52-31.36-6.52-6.23-.58-12.54-.79-18.36-3.5-.62-.29-1.33-.82-1.9.1-1.27,2.04-3.07,1.66-5.06,1.38-11.9-1.67-21.75,1.55-29.05,11.72-3.69,5.14-6.35,10.79-9.42,16.23-3.09,5.47-7.59,8.32-13.74,8.96-4.31.45-8.3,1.67-11.52,4.92-6.18,6.24-12.11,12.78-15.42,20.94-2.72,6.71-2.8,13.55,1.77,20.17,3.71,5.39,8.82,8.48,14.28,11.37,4.18,2.22,6.02,5.73,6.19,10.42.18,4.8-.66,9.38-1.86,13.97-.53,2.04-1.23,4.35.9,6.05,2.49,1.99,5.03,3.96,8.17,4.81,9.89,2.68,19.8,3.36,29.79.32,7.36-2.24,13.74-6.08,19.6-10.96,9.03-7.51,19.26-10.6,30.73-7.36,6.38,1.8,12.76,2.71,19.33,2.67Z"/>
  <path d="m267.85,204.54c0-.82.06-1.64,0-2.45-1.38-16.15,6.13-28.44,17.36-38.83,7.94-7.34,16.5-13.92,26.49-18.47,5.4-2.46,10.88-3.99,16.8-3.97,8.81.03,17.68-.57,26.33,1.54,4.45,1.09,9.27.91,13.29,3.58.81.54,1.17.17,1.77-.43,2.39-2.41,4.21-2.14,5.93.89.52.91,1.31,1.18,2.09,1.6,15.22,8.28,26.09,20.46,31.94,36.76,2.3,6.42,1.26,13.35.66,20.01-1.06,11.77-4.62,22.95-9.24,33.76-4.93,11.53-12.77,20.55-23.76,26.84-7.8,4.47-15.79,8.38-24.91,8.87-8.54.46-17.05-.28-25.57-1.11-17.54-1.71-31.02-10.26-41.9-23.73-5.83-7.22-10.07-15.29-14.07-23.56-3.28-6.79-3.54-14.01-3.2-21.33Zm6.08-.14c.02,5.71-.47,11.46,1.92,16.92,3.79,8.69,8.2,16.97,14.2,24.41,9.67,11.99,21.64,19.68,37.22,21.32,8.78.92,17.71,2.38,26.36.91,16.99-2.89,30.93-11.4,39.44-26.77,6.6-11.92,10.34-25.02,11.52-38.65.46-5.29,1.31-10.88-.58-15.96-5.61-15.08-15.71-26.37-30.11-33.68-1.44-.73-2.87-2.02-4.66-.42-.58.52-1.66.27-2.33-.23-3.93-2.88-8.75-2.8-13.19-3.9-8.11-2.02-16.44-1.42-24.7-1.48-5.29-.04-10.17,1.3-14.94,3.59-7.78,3.73-14.6,8.74-21.19,14.24-12.36,10.31-20.66,22.41-18.94,39.42,0,.09,0,.18,0,.27Z"/>
  <path d="m598.83,478.49c.35-11.28.97-22.51,5.25-33.17,4.71-11.73,13.18-19.85,23.87-26.32,7.61-4.6,15.62-4.75,23.92-4.5.85.02,1.56.42,2.26.86,12.76,8.16,20.68,19.34,24.17,34.38,3.48,15.04,1.03,28.5-7.28,41.04-3.71,5.59-8.69,10.23-13.93,14.48-1.79,1.45-3.89,2.28-6.2,2.61-5.09.73-9.81,3.14-15.17,2.78-6.78-.46-13.47-1.46-19.47-4.6-6.9-3.61-11.97-9.41-15.9-16.05-2.07-3.5-1.47-7.59-1.51-11.5Zm41.06-55.22c-2.34.89-3.34-1.56-5.28-.66-10.73,5.01-19.31,12.32-24.14,23.32-5.39,12.29-5.71,25.39-5.41,38.52.04,1.84.86,3.51,2.02,4.98,5.52,6.98,11.72,12.9,21.12,14.16,6.95.94,13.84,1.9,20.65-.9,7.61-3.13,12.7-9.26,17.1-15.56,7.29-10.45,9.79-22.1,6.59-34.96-2.43-9.77-6.01-18.61-13.55-25.52-2.45-2.24-5.19-3.94-8.32-5.04-.73-.26-1.3-.54-1.89.26-3.25,4.36-6.9,8.46-8.55,13.83-.38,1.23-.19,1.79,1.03,2.22,3.89,1.38,6.8,4.14,9.52,7.1,3.39,3.7,3.45,6.94.6,11.02-3.03,4.34-6.62,8.18-10.11,12.13-2,2.26-1.9,2.47.88,3.38,1.91.62,3.75,1.39,5.47,2.41,3.86,2.29,5.32,6.03,3.51,9.72-2.46,5-6.18,9.18-9.56,13.55-.94,1.21-2.39,1.35-3.71.57-1.38-.81-1.64-2.17-1.14-3.57.33-.92.92-1.77,1.5-2.57,2.07-2.88,4.25-5.67,6.25-8.59,1.74-2.54,1.54-3.16-1.31-4.48-1.72-.79-3.55-1.39-5.37-1.94-3.77-1.14-5.09-3.43-4.1-7.24.76-2.94,2.68-5.12,4.69-7.23,2.89-3.03,5.58-6.21,7.97-9.66.68-.98,1.23-1.89.29-2.91-2.35-2.53-4.66-5.13-8.16-6.13-4.89-1.41-5.86-3.1-4.55-7.95,1.14-4.23,3.08-8.1,5.99-12.26Z"/>
  <path d="m603.61,334.77c-1.52-13.85,5.07-24.53,13.54-34.44,2.65-3.11,5.51-6.04,8.11-9.19,4.86-5.88,11.2-7.68,18.61-5.69,11.15,2.99,16.98,11.47,22.13,20.73,1.19,2.13,2.05,4.45,3.06,6.68,3.81,8.45,2.76,17.22,1.58,25.96-.36,2.68-1,5.34-1.86,7.94-3.45,10.43-11.41,16.3-20.88,20.53-3.67,1.64-7.72.79-11.6.83-7.47.07-14.44-1.82-20.41-6.39-7.93-6.06-12.46-13.99-12.28-24.23.02-.91,0-1.82,0-2.72Zm6.02-.16c0,.82,0,1.64,0,2.45-.08,8.8,3.79,15.57,10.9,20.45,4.51,3.1,9.69,4.56,15.19,4.5,3.43-.04,7.06.9,10.26-.58,7.47-3.46,14.07-7.97,16.88-16.38.81-2.43,1.43-4.91,1.78-7.4,1.01-7.2,2.01-14.47-.86-21.49-2.51-6.14-5.51-11.96-9.88-17.14-3.48-4.14-7.58-6.8-12.68-7.83-4.18-.84-8.16-.71-11.09,3.53-2.31,3.34-5.36,6.16-8.03,9.26-7.58,8.81-13.8,18.18-12.48,30.62Z"/>
  <path d="m875.65,495.16c1.96-4.76,2.13-9.75,3.68-14.4.22-.66-.06-1.02-.45-1.41-1.98-1.96-2.92-4.58-4.4-6.86-.99-1.53-1.11-3.18.55-4.34,1.65-1.16,3.16-.49,4.29.93.9,1.13,1.64,2.39,2.38,3.64,1.68,2.84,3.43,2.89,5.21.05,1.46-2.33,2.2-4.92,2.67-7.99-3.05,1.54-5.96,2.12-9.03,1.1-1.94-.65-3.34-1.83-3.9-3.84-2.03-7.37,1.39-15.96,7.91-19.98,2.33-1.44,4.96-1.64,7.57-1.95.51-.06,1.35.04,1.53.35,1.32,2.34,4.06,3.88,4.15,6.91.25,8.44-1.08,16.68-3.79,24.65-1.36,4.01-3.34,7.76-8.15,8.69-.67.13-1.13.41-1.1,1.25.31,8.71-2.19,17.08-3.06,25.65-.18,1.81-.27,3.63.03,5.43.32,1.91-.03,3.51-2.17,4.04-1.83.46-3.5-.92-3.95-3.22-.17-.87-.19-1.77-.34-3.22-3.07,3.86-6.92,4.35-11.05,3.86-3.03-.36-4.54-1.93-4.76-4.97-.41-5.55.79-10.5,5.44-14.08,3.88-2.98,6.67-3.07,10.74-.31Zm6.83-37.83c.31.85-.74,2.4.93,2.85,1.54.42,2.56-.63,3.33-1.82,1.84-2.82,3.38-5.78,4.17-9.09.2-.85.89-1.94.11-2.53-.77-.57-1.94-.14-2.81.34-3.96,2.18-5.73,5.62-5.72,10.24Zm-17,49.35c.02,1.74.33,2.02,1.96,1.86,2.57-.24,3.33-2.48,4.67-4.14,1.63-2,.55-3.09-.99-4.29-1.68-1.3-2.48.22-3.35,1.05-1.59,1.5-2.13,3.52-2.29,5.52Z"/>
  <path d="m880.38,87.36c-3.68,3.01-7.09,4.11-11.02,3.3-2.97-.61-5.07-2.2-5.51-5.26-.73-5.04-.28-9.97,2.16-14.57,1.17-2.2,2.92-3.44,5.47-3.35,3.77.13,7.69-.74,11.1,1.71.84.6,1.06-.17,1.39-.68.89-1.39,2.13-2,3.73-1.43,1.61.57,2.02,1.94,2.06,3.5.09,3.2-.42,6.32-1.1,9.45-2.16,9.99-5.31,19.62-10.08,28.7-1.15,2.2-2.44,4.28-4.61,5.62-2.99,1.85-6.51.69-7.11-2.62-.85-4.73-1.65-9.51-.72-14.35.32-1.69.92-3.21,2.86-3.53,1.97-.33,3.5,1.35,3.1,3.71-.49,2.93-.29,5.78.31,9.3,3.47-6.24,6.23-12.18,7.98-19.48Zm-5.22-13.79c-4.14,0-4.55.32-5.14,4.14-.23,1.51-.28,3.06-.41,4.59-.19,2.14.99,2.75,2.84,2.44,2.69-.45,4.46-2.29,5.94-4.38,1.14-1.6,3.14-3.83,2.38-5.14-.93-1.61-3.67-1.98-5.62-1.65Z"/>
  <path d="m326.12,465.72c-2.47,2.97-4.78,5.03-8.43,4.62-3.4-.38-5.23-1.98-5.25-5.35-.04-4.91.07-9.81.17-14.72.05-2.43,1.05-4.4,3.16-5.7,1.09-.67,2.25-.7,3.33.08,1.09.79,1.62,2.08.99,3.12-2.44,4.05-1.18,8.5-1.61,12.75-.11,1.07-.02,2.17-.02,3.79,2.33-1.28,3.49-3.06,4.37-4.95,1.57-3.37,2.95-6.84,4.39-10.27.75-1.78,1.75-3.34,4-2.93,2.33.42,3.04,2.29,2.95,4.3-.55,11.31-2.18,22.46-6.8,32.88-2.87,6.48-8.64,9.36-15.41,10.21-2.59.33-5.27.22-7.89.06-2.34-.14-4.16-1.31-4.88-3.7-.53-1.76-.05-3.34,1.55-4.26,1.53-.88,3.02-.56,4.02,1.01.38.59.77.95,1.49.98,6.79.29,14.19-1,16.96-9.99,1.14-3.71,2.26-7.43,2.91-11.96Z"/>
  <path d="m752.97,472.79c.99-1.1.63-2.15.63-3.1.03-11.62.03-23.25.02-34.87,0-2.38.19-4.71.93-6.99.62-1.9,1.64-3.42,3.89-2.9,2.32.53,2.32,2.36,2.05,4.33-1.8,12.9-.2,25.85-.89,38.77.23.07.47.14.7.21,1.31-2.2,2.59-4.41,3.94-6.59.81-1.31,1.71-2.57,2.58-3.84,1.15-1.69,2.71-2.7,4.61-1.49,1.99,1.27,1.43,3.07.35,4.76-3.27,5.13-6.36,10.36-8.86,15.92-.71,1.57-1.34,3.17-2.04,4.74-2.01,4.49-6.71,5-9.68,1.11-3.72-4.88-6.43-10.31-8.81-15.91-.31-.74-.51-1.56-.59-2.36-.16-1.74.52-3.08,2.28-3.53,1.66-.43,2.79.47,3.55,1.87,1.77,3.24,3.52,6.49,5.34,9.86Z"/>
  <path d="m442.16,461.47c-1.79,3.25-3.53,6.48-5.77,9.45-2.54,3.37-5.77,4.78-9.94,4.29-3.05-.36-5.09-2.16-5.34-5.19-.56-6.75,1.05-12.94,4.98-18.52,2.83-4.02,6.91-3.54,10.84-2.86,1.78.31,2.37.12,2.71-1.65.59-3.13,1.71-6.11,3.01-9.01.86-1.92,2.17-3.22,4.43-2.73,2.06.45,2.52,2.14,2.59,3.97.44,10.55-.13,21.03-2.43,31.37-.42,1.91-1.41,3.26-3.54,2.92-2.15-.35-2.64-2-2.45-3.9.27-2.69,1.18-5.3.91-8.14Zm-15.03,4.88c.27.83-.64,2.23.77,2.71,1.22.41,2.25-.29,3.07-1.26,2.36-2.79,4.15-5.9,5.39-9.33.55-1.51.47-3.2-.98-3.79-1.58-.64-3.52-.89-4.79,1.12-2.03,3.2-3.23,6.64-3.46,10.55Z"/>
  <path d="m852.99,86.96c-3.09,2.98-6.61,4.3-10.74,4.01-3.66-.26-4.92-1.62-5.09-5.31-.17-3.61.51-7.02,1.85-10.36,2.76-6.89,7.92-8.86,14.64-5.44.78.4,1.34.55,2.23.31,2.41-.63,4.21.52,3.99,2.94-.76,8.56.3,17.27-2.41,25.67-2.02,6.27-5.67,11.12-11.52,14.19-5.75,3.02-9.19,1.02-9.35-5.39-.05-1.9-.02-3.81.04-5.72.06-1.75.86-3.02,2.72-3.15,2.05-.15,2.96,1.18,3.18,2.99.17,1.44.13,2.9.12,4.35,0,1.46.58,1.5,1.63.82,2.41-1.56,4.43-3.51,5.72-6.08,2.14-4.28,3.06-8.86,2.99-13.82Zm-5.4-12.3c-.63-.16-1.54.03-2.06,1.12-1.04,2.21-2.01,4.46-2.22,6.93-.18,2.14.57,2.67,2.52,1.71,2.08-1.03,3.59-2.76,4.69-4.76,2.64-4.78,3.58-4.05-2.94-4.99Z"/>
  <path d="m815.26,552.72c-2.29,3.99-4.41,7.83-6.67,11.59-.79,1.32-1.96,2.38-3.41,3.05-4.47,2.09-8.14-.14-8.23-5.02-.09-4.99.76-9.7,3.55-14.02,2.17-3.36,5.09-4.66,8.81-3.77,1.73.41,2.2-.05,2.61-1.54,1.3-4.72,2.7-9.41,4.06-14.12.57-1.98,1.2-4.06,3.81-3.82,2.69.25,3.12,2.39,3.24,4.59.46,8.4-.98,16.65-1.83,24.95-.19,1.81-.38,3.61-.5,5.42-.06.79-.19,1.68.66,2.22,1.47.93,2.29,2.2,1.49,3.89-.96,2.03-2.9,1.94-4.74,1.75-1.84-.19-3.07-1.26-3.28-3.1-.42-3.71-.2-7.43.35-11.12.04-.26.05-.53.09-.96Zm-12.09,8.5c2.24-3,3.2-5.85,4.53-8.48.32-.63.27-1.56-.47-1.95-.91-.47-1.22.48-1.59,1.02-1.81,2.61-2.62,5.52-2.47,9.41Z"/>
  <path d="m822.73,69.73c.2,3.6-1,7.13-2.52,10.55-1.79,4.03-4.8,6.39-9.43,5.88-2.23-.25-3.21.56-3.07,2.79.03.45-.19.91-.15,1.35.19,2.05-1.37,4.9,1.05,5.95,2.88,1.24,6.33,1.51,9.07-.76,2.58-2.14,4.9-4.6,7.35-6.91.73-.68,1.43-1.42,2.27-1.94,1.27-.8,2.62-.81,3.73.33,1.14,1.16,1.12,2.58.12,3.71-3.49,3.95-6.82,8.19-11.45,10.78-4.63,2.58-9.68,2.09-14.48.14-2.73-1.11-3.74-3.57-3.87-6.39-.16-3.74.24-7.44.9-11.12.26-1.42.75-2.79.25-4.28-.15-.46-.09-1.23.2-1.57,3.39-3.93,4.48-9.32,8.24-13.02.92-.9,1.81-1.79,3.01-2.29,5.29-2.2,8.8.43,8.76,6.8Zm-6.17-1.27c-3.32,3.16-5.01,6.51-6.31,10.1-.39,1.07-.06,1.5,1.08,1.52,1.2.02,2.17-.34,2.74-1.4,1.61-2.98,2.71-6.09,2.49-10.22Z"/>
  <path d="m687.47,84.91c-2.86,2.42-4.41,4.88-6.13,7.19-1.58,2.13-3.32,4.12-5.62,5.48-5.24,3.09-9.69.56-9.73-5.46-.04-6.82,1.65-13.12,5.65-18.7,1.69-2.35,3.87-4.12,6.88-4.47,2.37-.28,4.24,1.26,4.36,3.46.11,2.18-1.26,3.56-3.82,3.41-1.5-.09-2.15.72-2.82,1.69-2.58,3.77-3.73,8.03-4.12,12.53-.06.64-.46,1.61.39,1.93.75.29,1.34-.49,1.76-1.03,4.51-5.79,9.57-11.17,13.25-17.59.77-1.34,1.56-2.67,2.41-3.95.83-1.26,2.04-1.8,3.53-1.41,1.57.42,2.46,1.49,2.62,3.11.24,2.48-.38,4.88-.86,7.28-.57,2.85-1.27,5.67-1.81,8.52-.43,2.23-1.29,4.37,1.05,6.43,1.32,1.16.77,3.28-.43,4.74-1.25,1.52-2.9,2.22-4.85,1.71-1.83-.48-2.56-1.89-2.66-3.68-.21-3.54.28-7.04.97-11.18Z"/>
  <path d="m869.17,558.94c-1.06,1.58-1.89,2.98-2.88,4.24-1.92,2.46-4.48,3.4-7.5,2.56-2.98-.82-4.32-3.06-4.75-6.01-.48-3.35-.41-6.71-.26-10.06.13-2.9,1.67-5.15,3.86-6.93,1.25-1.02,2.72-1.17,3.98-.04,1.28,1.14,1.4,2.81.33,3.93-3.18,3.33-1.95,7.32-2,11.12,0,.64-.09,1.64.83,1.79.83.14,1.22-.71,1.56-1.31,2-3.58,3.35-7.44,4.82-11.25.52-1.35.98-2.73,1.5-4.09.61-1.59,1.66-2.66,3.5-2.39,1.92.29,2.78,1.69,2.85,3.47.12,3.08.05,6.17.1,9.26.02,1.45.07,2.91.24,4.34.11.94-.02,2.2,1.21,2.49,1.27.3,1.59-.95,2.13-1.74,3.7-5.48,5.83-11.67,8-17.83.73-2.08,1.46-3.85,4.08-3.28,1.96.43,2.65,2.41,1.71,5.22-2.31,6.89-4.99,13.61-8.93,19.79-2.07,3.24-4.8,4.56-8.5,4-3.31-.49-4.52-3.01-5.44-5.78-.13-.4-.22-.81-.42-1.51Z"/>
  <path d="m815.03,502.97c-1.64.58-1.74,1.7-2.17,2.53-1.24,2.43-2.45,4.87-4.25,6.94-1.51,1.73-3.22,3.17-5.53,3.77-5.86,1.53-8.9-.92-8.28-6.87.59-5.65,2.95-10.6,6.39-15.08,2.42-3.15,5.55-4.61,9.49-4.11,1.48.19,2.52-.01,3.42-1.39,1.03-1.59,2.71-2.14,4.56-1.59,1.99.6,2.45,2.24,2.45,4.09.01,6.99.01,13.97.03,20.96,0,1.16-.15,2.33.78,3.33,1.22,1.32,1.35,2.89-.01,4.11-1.57,1.41-3.38,1.13-4.98-.09-1.7-1.3-1.85-3.27-1.87-5.18-.05-3.7-.02-7.4-.02-11.41Zm-13.24,7.18c1.03-.4,1.79-1.17,2.45-2.05,2.15-2.85,3.52-6.12,4.93-9.36.33-.76.66-1.76-.09-2.26-.89-.59-1.72.15-2.35.83-3.06,3.27-4.8,7.21-5.72,11.54-.13.6-.32,1.33.78,1.29Z"/>
  <path d="m371,528.61c-.31-7.15.41-14.1,3.16-20.83.9-2.2,2.67-2.7,4.43-3.12,3.11-.74,6.33-.59,9.48-.09.77.12,1.54.58,2.18,1.05,6.99,5.2,5.47,18.8-2.47,22.24-2.21.96-4.59,1.16-6.95.97-1.18-.1-1.64.19-1.77,1.36-.36,3.25-1.47,6.36-1.7,9.65-.14,2.02-.84,3.96-3.33,3.83-2.47-.13-2.95-2.16-3-4.16-.08-3.63-.02-7.27-.02-10.9Zm17.58-12.28c-.15-1.19-.09-2.57-.65-3.84-.84-1.89-4.47-3.06-6.31-2.01-.77.44-1.17,4.46-.24,5.29,1.69,1.51,1.85,3.15,1.26,5.14-.47,1.59.38,1.9,1.76,1.63,2.82-.56,4.27-2.63,4.18-6.2Z"/>
  <path d="m747.43,69.51c1.36-.51,1.89-1.52,2.64-2.27,1.49-1.48,3.1-2.4,5.04-.94,1.86,1.4,1.78,3.3.72,5.12-2.19,3.78-3.66,7.91-5.71,11.74-1.18,2.19-.51,2.74,1.69,2.98,2.62.28,5.24.43,7.87.44,1.94,0,3.48.71,3.53,2.9.06,2.22-1.52,2.94-3.41,3.09-4.48.35-8.88-.3-13.25-1.16-2.32-.46-3.56-2.05-3.6-4.48-.01-.9,0-1.8,0-2.68-1.09-.24-1.1.59-1.27,1.11-1.12,3.35-2.2,6.72-3.29,10.08-.92,2.84-2.41,4.01-4.36,3.42-1.92-.59-2.69-2.52-1.74-5.28,2.45-7.12,5-14.2,7.61-21.26,1.11-3,2.19-5.94,1.9-9.23-.17-1.88.75-3.25,2.73-3.38,1.99-.13,2.96,1.21,3.23,3,.33,2.16.15,4.34-.34,6.79Z"/>
  <path d="m944.73,473.22c.11-7.21.7-13.57,2.54-19.85,1.3-4.42,3.66-8.06,6.5-11.51,1.37-1.66,2.98-2.42,4.96-.97.81.59,1.72.53,2.62.55,3.25.08,5.55,1.69,6.88,4.55,3.02,6.51,2.71,13.53-5.94,16.12-2.17.65-4.3,1.47-6.51,1.97-1.68.38-2.48,1.25-2.74,2.88-.56,3.58-1.77,7.05-1.89,10.72-.01.45-.17.89-.25,1.34-.34,1.84-1.35,3.06-3.32,2.88-1.95-.18-2.76-1.61-2.83-3.43-.07-2-.02-4-.02-5.26Zm19.02-20.62c-.05-3.97-2.01-5.84-5.04-4.99-2.36.67-1.78,2.91-2.26,4.49-.53,1.74-1.95,4.33-.79,5.23,1.37,1.07,3.63-.74,5.49-1.35,1.68-.56,2.9-1.52,2.6-3.38Z"/>
  <path d="m811.81,463.72c-.99.31-1.2,1.3-1.74,1.96-2.8,3.42-6.52,4.65-10.69,3.36-2.42-.75-3.8-2.47-4-4.97-.28-3.48.1-6.9,1.62-10.1,2.73-5.77,5.77-7.58,12.12-6.9,1.92.21,2.57-.28,2.68-2.17.13-2.26.57-4.5.84-6.75.24-2.02,1.05-3.6,3.34-3.48,2.34.12,2.9,1.85,2.9,3.85-.01,8.35-.97,16.68-.7,25.04.04,1.36.02,2.73.21,4.07.28,1.99-.16,3.47-2.32,3.9-1.91.37-3.62-1.08-3.89-3.26-.1-.81-.01-1.63-.08-2.45-.06-.68.25-1.42-.28-2.09Zm-10.38-2.65c.11.74-.44,1.86.82,2.2,1.04.27,1.95-.16,2.64-.98,1.93-2.31,3.18-5.01,4.38-7.74.39-.89.12-1.34-.83-1.48-1.88-.27-3.56-.18-4.78,1.62-1.3,1.92-2.03,4-2.22,6.38Z"/>
  <path d="m227.4,469.12c-.83,1.15-1.2,1.65-1.56,2.16-2.94,4.18-6.49,5.75-11.05,4.34-4.12-1.27-5.87-4.8-6.4-8.72-.6-4.41-.37-8.89-.13-13.33.12-2.2,1.36-3.94,2.8-5.47,1.19-1.27,2.72-1.56,4.16-.45,1.36,1.05,1.44,2.61.6,3.93-3.02,4.74-1.43,9.86-1.28,14.84.04,1.42.77,3.08,2.66,3.38,1.81.29,2.78-.86,3.73-2.19,3.52-4.98,4.32-10.91,5.9-16.57.61-2.17.82-4.74,4.02-4.51,2.11.15,3.07,1.96,3.06,5.58-.02,6.17.19,12.35-.41,18.52-.12,1.25,0,2.54.15,3.79.21,1.89-.33,3.33-2.36,3.6-2.14.28-3.56-.84-3.84-2.94-.22-1.69-.05-3.43-.05-5.95Z"/>
  <path d="m285.95,449.85c3.07-2.43,5.7-4.53,9.39-4.35,2.95.15,4.51,1.29,4.59,4.24.16,6.26.62,12.55-.66,18.75-.33,1.62-.53,3.17-.03,4.83.51,1.68-.12,3.25-1.12,4.61-.93,1.27-2.23,1.91-3.81,1.43-1.66-.5-2.52-1.65-2.56-3.43-.06-2.78.9-5.37,1.46-8.02,1-4.78.7-9.59.77-14.4.02-1.44-.57-1.56-1.63-.84-1.75,1.19-3.16,2.73-4.35,4.47-2.52,3.69-4.55,7.64-6.18,11.8-.74,1.9-1.67,3.61-4.09,3.08-2.29-.51-2.47-2.41-2.34-4.32.38-5.43,1.79-10.74,1.93-16.22.04-1.69,1.18-3.02,2.42-4.15,1.16-1.05,2.38-2.08,4.12-1.54,1.78.55,2.1,2.06,2.09,4.05Z"/>
  <path d="m859.98,445.27c1.29-1.41,2.5-2.58,4.36-1.79,1.94.83,2.01,2.6,2.06,4.37.13,4.35.28,8.71.39,13.06.04,1.52.12,2.83,2.04,3.3,1.25.3,1.83,1.44,1.72,2.77-.11,1.3-.88,2.16-2.02,2.68-2.5,1.15-5.53-.3-6.89-3.2-.41-.88-.27-1.98-1.14-2.79-1.15,1.63-2.19,3.21-3.34,4.71-1.65,2.16-3.8,3.25-6.6,3.1-3.46-.18-5.22-1.67-5.5-5.12-.52-6.4.83-12.46,3.79-18.14,1.44-2.75,3.97-4.17,6.77-5.15,2.02-.71,3.48.18,4.35,2.19Zm-8.57,19.84c3.69-2.95,8.25-13.17,7.82-17.28-6.11,3.6-8.99,9.83-7.82,17.28Z"/>
  <path d="m355,523.36c-1.27,1.94-2.53,3.88-3.82,5.81-2.08,3.11-5.07,3.98-8.57,3.24-3.36-.72-5.84-2.64-6.64-6.08-1.09-4.74-.77-9.58-.29-14.35.23-2.32,2.05-4.01,3.92-5.36,1.3-.94,2.78-1.01,3.97.22,1.18,1.23,1.17,2.82.08,3.96-3.89,4.06-1.78,8.91-1.9,13.45-.03,1.12.94,1.9,2.14,2.17,1.28.29,2.01-.38,2.71-1.33,2.67-3.64,4.24-7.78,5.7-11.99.71-2.05,1.58-4.06,2.5-6.02.72-1.52,1.97-2.37,3.75-2.06,1.78.31,2.82,1.55,2.84,3.2.11,7.26.12,14.52.03,21.78-.02,1.8-1.11,3.15-3.15,3-2.02-.14-2.74-1.55-2.77-3.39-.03-2.04,0-4.08,0-6.12-.16-.04-.33-.07-.49-.11Z"/>
  <path d="m471.75,465.58c2.08-.43,3.06-2.05,4.34-3.28,1.83-1.77,3.62-3.59,5.99-4.64,1.56-.69,3.1-.61,4.07.99.97,1.6.39,3.05-1.06,4.01-2.45,1.63-4.51,3.67-6.42,5.85-4.98,5.68-12.94,3.59-16.6-.56-.84-.95-1.61-1.91-2.71-2.63-4.47-2.92-4.66-9.87-.29-12.92,1.1-.77,1.83-1.65,2.51-2.73,2.45-3.87,7.8-5.5,12-3.71,1.91.81,2.62,2.35,2.67,4.34.13,5.56-.69,10.83-4.49,15.28Zm-6.42-7.06c.42.58-.66,1.95.88,2.26,1.31.26,1.9-.75,2.43-1.73.87-1.62,1.26-3.37,1.43-5.17.07-.73.51-1.75-.51-2.14-1.03-.4-1.94.06-2.59.94-1.23,1.67-1.52,3.62-1.63,5.84Z"/>
  <path d="m248.83,455.68c1.86-1.99,3.42-3.74,5.08-5.4,2.06-2.06,4.61-3.2,7.51-3.48,3.33-.32,5.21,1.02,5.83,4.31.89,4.77.79,9.58-.01,14.36-.59,3.49-1.31,6.95-1.88,10.44-.32,1.93-1.09,3.4-3.26,3.21-2.2-.18-2.66-1.88-2.68-3.76-.04-3.03.68-5.96,1.37-8.86.83-3.49,1.03-6.99.91-10.54-.03-.88.3-2.04-.56-2.53-1.01-.57-1.94.3-2.62.95-4.25,4.05-7.78,8.64-9.7,14.26-.66,1.94-1.27,3.79-3.75,3.4-2.29-.36-2.59-2.26-2.59-4.18.02-4.9.06-9.8.09-14.71.01-1.46.09-2.91.76-4.25.82-1.62,2.06-2.66,3.94-1.97,1.73.63,2.18,2.1,1.77,3.79-.36,1.52-.58,3.02-.21,4.93Z"/>
  <path d="m616.36,89.23c.15-7.14.68-14.18,5.13-20.22.64-.87,1.36-1.72,2.17-2.43,4.2-3.65,10-2.55,12.54,2.37.71,1.37,1.41,2.76,1.88,4.22.54,1.67.41,3.38-1.48,4.15-1.82.73-3.17-.12-4.03-1.78-.5-.97-.91-1.98-1.4-2.95-1.24-2.44-2.48-2.64-4.27-.55-3.33,3.87-3.92,8.7-4.39,13.5-.23,2.34-.06,4.72-.05,7.08,0,1.41.18,2.76,1.7,3.41,1.55.66,3.04.55,4.33-.59.95-.84,1.82-1.78,2.75-2.64,1.2-1.11,2.36-2.27,3.66-3.25,2.53-1.92,4.73-2.07,5.74-.35,1.46,2.49-.38,3.73-2.04,5.13-1.8,1.52-3.47,3.21-5.11,4.9-3.37,3.48-7.38,4.17-11.74,2.46-4.23-1.66-5.53-5.2-5.41-9.46.03-1,0-2,0-3Z"/>
  <path d="m710.41,86.93c0,5.05.82,5.98,4.68,6.26,1.78.13,2.89-.61,3.81-2.04,1.91-2.98,3.85-5.94,5.86-8.86,1.55-2.26,3.31-4.34,5.91-5.5,1.74-.77,3.49-.89,4.57.94,1.12,1.9.03,3.18-1.6,4.26-4.1,2.71-6.1,7.14-8.67,11.05-3.89,5.93-6.88,7.32-13.69,5.68-3.9-.94-6.27-3.57-6.73-7.58-.77-6.75.34-13.03,4.7-18.49,1.56-1.94,3.32-3.62,5.67-4.55,2.62-1.04,5.46-.36,7.21,1.67.98,1.14,1.32,2.41.52,3.76-.82,1.39-2.31,1.81-3.55,1.11-2.33-1.33-3.55.01-4.79,1.52-2.69,3.29-4.06,7.05-3.92,10.77Z"/>
  <path d="m932.05,457.71c-1.55,2.61-2.8,4.57-3.93,6.61-1.52,2.77-3.83,3.72-6.85,3.2-2.93-.5-4.87-2.37-5.43-5.09-.98-4.73-.84-9.57-.09-14.35.26-1.63,1.22-3.04,2.43-4.18,1.19-1.11,2.57-1.43,3.95-.37,1.24.96,1.64,2.41.81,3.65-2.58,3.86-1.17,8.13-1.48,12.21-.05.68.01,1.61.88,1.77.75.14.93-.74,1.24-1.25,2.21-3.65,4.37-7.33,6.59-10.98.66-1.09,1.4-2.13,2.54-2.8,2.31-1.35,5.35-.21,5.39,2.41.11,6.87,1.03,13.8-.81,20.61-.31,1.16-.68,2.28-1.68,3.05-1.04.8-2.17.91-3.29.18-1.35-.88-1.6-2.26-1.19-3.62,1-3.36,1.3-6.76.92-11.05Z"/>
  <path d="m835.22,498.97c1.82-2.23,3.17-4.16,5.01-5.65,1.72-1.4,3.55-2.54,5.78-2.86,3.25-.48,5.68,1.15,5.97,4.42.6,6.88.41,13.78-.06,20.67-.13,1.84-1.26,3.1-3.25,2.91-1.97-.19-2.73-1.61-2.71-3.46.06-5.17.17-10.34.2-15.51,0-.75.42-1.86-.5-2.17-.79-.27-1.42.65-1.97,1.2-3.79,3.77-6.12,8.52-8.6,13.15-.94,1.76-1.75,3.64-4.15,3.03-2.52-.64-2.52-2.78-2.28-4.86.49-4.35.12-8.71.25-13.06.03-1-.01-2.02.21-2.98.31-1.36,1.25-2.22,2.7-2.27,1.45-.04,2.51.72,2.8,2.1.33,1.57.38,3.2.62,5.34Z"/>
  <path d="m131.16,115.21c3.04.73,5.08.28,7.08-.69,2.05-.99,4.17-1.82,6.52-1.63,1.84.15,3.18,1,3.23,2.99.05,1.86-1.15,2.72-2.89,3-.98.15-2.07.18-2.89.65-4.25,2.44-8.87,2.33-13.51,2.14-2.28-.09-4.77-.19-5.8-2.7-1.1-2.65.73-4.48,2.4-6.17,3.18-3.23,6.68-6.16,9.04-10.12.92-1.54,2.17-2.96,2.17-4.9,0-.89.28-1.97-.59-2.52-.89-.56-1.95-.41-2.82.22-1.74,1.27-3.56,1.87-4.94-.25-1.44-2.21.07-3.82,1.75-5.03,2.77-2.01,5.91-1.79,8.83-.59,2.77,1.14,3.73,3.64,3.9,6.62.38,6.61-3.82,10.91-7.53,15.45-1,1.22-2.35,2.14-3.93,3.54Z"/>
  <path d="m903.4,548.2c1.13-1.27,2.21-2.59,3.4-3.81,1.44-1.48,3.19-2.08,5.21-1.39,2.12.72,2.79,2.41,2.87,4.48.13,3.17.34,6.34.41,9.52.03,1.48.19,2.6,1.96,3.01,1.71.4,2.68,1.65,2.24,3.46-.43,1.78-1.84,2.3-3.57,2.26-3.92-.08-6.25-2.25-6.58-6.49-.19-2.4-.03-4.82-.03-7.97-1.93,1.68-2.66,3.22-3.51,4.65-1.49,2.49-2.77,5.12-4.78,7.27-1.21,1.3-2.68,1.96-4.41,1.3-1.79-.68-2.28-2.23-2.21-3.98.04-1.08.06-2.2.34-3.24,1.26-4.65,2.31-9.32,2.5-14.16.03-.79.31-1.62.66-2.34.66-1.34,1.78-2.12,3.32-1.76,1.54.36,2.27,1.52,2.19,3.04-.1,1.98-.36,3.96-.55,5.93.18.07.35.14.53.21Z"/>
  <path d="m192.19,478.43c-2.75.24-5.17-.46-7.4-2.17-1.49-1.15-2.37-2.42-1.41-4.16,1.03-1.85,2.93-2,4.51-1.04,1.85,1.12,3.71,1.23,5.73,1.24,1.98.02,2.5-.91,2.34-2.72-.15-1.72-.71-3.22-1.94-4.38-1.52-1.43-3.07-2.84-4.75-4.07-2.91-2.13-4.86-4.67-4.26-8.49.64-4.03,3.34-6.5,6.87-7.8,3.68-1.36,7.51-1.12,11.12.69,1.77.89,3.17,2.13,2.25,4.28-.91,2.14-2.74,2.15-4.6,1.32-2.07-.92-4.17-1.29-6.36-.64-1.45.43-2.65,1.31-3.09,2.82-.46,1.6.98,2.17,1.9,2.98,1.71,1.49,3.49,2.91,5.14,4.46,3.68,3.45,4.29,7.86,3.62,12.56-.37,2.6-2.55,4.32-5.87,4.86-1.25.2-2.53.18-3.8.26Z"/>
  <path d="m651.24,78.64c1.86-2.19,3.3-4.03,4.88-5.72,2.12-2.26,4.63-3.82,7.91-3.59,1.87.13,3.52.75,3.6,2.93.08,2.16-1.34,3.07-3.33,3.1-1.81.03-3.01,1.02-4.18,2.23-3.56,3.68-5.53,8.27-7.5,12.87-1.04,2.42-2.05,4.86-3.24,7.2-.9,1.77-2.43,2.81-4.49,2.16-2.04-.63-2.25-2.4-2.16-4.22.4-7.81,2.31-15.44,2.56-23.27.07-2.16,1.5-3.86,3.01-5.36,1.23-1.23,2.72-1.6,4.17-.51,1.49,1.13,1.56,2.85.48,4.12-1.92,2.26-1.85,4.79-1.71,8.06Z"/>
  <path d="m384.1,476.74c-6.02,0-11.03-8.43-8.19-13.78.76-1.42,1.92-2.24,3.57-1.81,1.68.44,2.34,1.77,2.1,3.35-.23,1.5-.09,2.86.39,4.26.72,2.07,2.29,2.15,3.98,1.72,2.05-.52,1.25-2.14,1-3.36-.5-2.43-2.29-4.05-3.89-5.79-4.28-4.65-3.69-10.08,1.42-13.76,2.51-1.81,7.71-1.92,10.39-.23,1.19.75,1.82,1.82,1.45,3.22-.36,1.37-1.33,2.15-2.77,2.19-.72.02-1.48.02-2.16-.18-1.94-.6-3.67-.49-4.68,1.49-1.02,1.98.73,2.99,1.81,4.09,2.01,2.06,3.53,4.36,4.29,7.15,2.05,7.5-.95,11.44-8.71,11.43Z"/>
  <path d="m828.52,553.65c-.68-6.04,1.53-10.37,7.3-12.8,5.35-2.25,11.36,1.51,11.39,7.23.02,4.16-.68,8.11-2.98,11.66-2.65,4.1-5.94,5.25-10.81,3.82-3.62-1.06-4.89-3.21-4.9-8.28,0-.54,0-1.09,0-1.63Zm12.56-3.64c.01-1.75.32-3.34-1.81-2.77-4.17,1.1-4.66,1.82-4.67,6.36,0,.54-.02,1.09,0,1.63.05,1.03-.33,2.27,1.22,2.62,1.42.32,2.45-.17,3.22-1.39,1.34-2.13,1.93-4.46,2.03-6.44Z"/>
  <path d="m832.56,448.93c1.9-1.43,3.53-2.71,5.22-3.91,1.11-.79,2.3-1.47,3.71-1.61,1.52-.15,2.72.39,3.28,1.85.52,1.35,0,2.49-1.1,3.37-.28.22-.6.41-.92.57-6.12,3.06-9.24,8.2-10.32,14.79-.22,1.33-.51,2.69-1.01,3.94-.6,1.47-1.84,2.29-3.48,2.05-1.67-.24-2.58-1.41-2.62-3.02-.15-7.46.41-14.87,1.6-22.24.09-.53.31-1.04.5-1.55.69-1.87,1.81-3.36,4.02-2.68,2.22.68,2.33,2.5,1.81,4.46-.32,1.21-.99,2.36-.68,3.99Z"/>
  <path d="m584.89,73.54c1.81,0,3.63-.03,5.44,0,1.86.04,3.23.82,3.3,2.85.07,2.07-1.37,2.78-3.15,3.04-.09.01-.18.04-.27.03-7.94-.58-15.67,1.49-23.54,1.83-1.26.05-2.51.31-3.77.47-1.81.23-3.37-.17-3.83-2.14-.49-2.08.75-3.22,2.61-3.79.52-.16,1.06-.37,1.59-.36,7.27.04,14.33-2.23,21.62-1.93Z"/>
  <path d="m404.22,469.22c.69-4.79.5-9.43.56-14.06.03-2.21.29-4.38,1.84-6.12.93-1.04,2.11-1.44,3.45-.86,1.32.58,2.09,1.73,1.69,3.07-1.79,6.04-.32,12.31-1.42,18.39-.1.53-.04,1.09-.13,1.63-.3,1.62-1.25,2.65-2.94,2.66-1.59,0-2.49-1.02-2.84-2.47-.19-.78-.16-1.62-.21-2.25Z"/>
  <path d="m902.11,69.44c-.1-2.22.44-3.96.99-5.69.99-3.14,1.21-6.42,1.78-9.63.35-1.98,1.34-3.57,3.61-3.22,2.3.36,2.54,2.16,2.42,4.18-.32,5.47-2.45,10.6-2.94,16.04-.14,1.58-1.23,2.67-2.98,2.6-1.85-.08-2.74-1.23-2.88-3.01-.04-.54,0-1.09,0-1.27Z"/>
  <path d="m406.58,500.39c.11-2.08.05-4.19.36-6.24.35-2.31,2.43-3.78,4.27-3.18,2.23.72,2.12,2.33,1.86,4.38-.52,4.11-1.05,8.3.65,12.33.64,1.53.44,2.93-1.02,3.82-1.43.87-2.82.48-3.95-.69-1.18-1.22-1.8-2.75-1.88-4.42-.09-1.99-.02-3.99-.02-5.99-.09,0-.18,0-.27,0Z"/>
  <path d="m351.23,460.63c-2.03-.04-3.41-.66-3.65-2.52-.24-1.83.86-2.85,2.54-3.33,1.95-.56,3.95-.55,5.95-.59,2.05-.04,4.09.27,5.94-1.27,1.03-.86,2.49-.45,3.4.68,1.03,1.28.96,2.71.19,4.08-1,1.76-2.72,2.36-4.59,2.5-3.35.24-6.73-.11-9.77.46Z"/>
  <path d="m411.25,538.5c-5.5.01-8.74-5.33-6.46-9.73.55-1.06,1.47-1.6,2.66-1.54,1.44.07,2.55.86,2.7,2.24.23,2.12,1.09,3.11,3.31,3.27,1.48.11,2.34,1.34,2.24,2.93-.1,1.57-1.05,2.47-2.57,2.71-.8.13-1.63.11-1.89.12Z"/>
  <path d="m159.35,116.78c-.21,2.13-1.1,3.72-3.43,3.83-2.13.1-3.2-1.13-3.1-3.22.06-1.29-.86-1.93-1.5-2.77-1.17-1.54-1.61-3.2-.05-4.63,1.59-1.45,3.23-.8,4.57.57,1.71,1.75,3.48,3.5,3.52,6.21Z"/>
  <path d="m416.79,440.04c-.11,1.69-.94,2.79-2.66,2.86-1.71.07-2.77-.92-2.84-2.62-.08-1.7.89-2.76,2.61-2.84,1.72-.08,2.65.93,2.89,2.6Z"/>
  <path d="m904.57,88.37c1.64.26,2.63,1.17,2.6,2.87-.03,1.71-1.02,2.69-2.72,2.66-1.82-.03-2.87-1.1-2.76-2.91.1-1.65,1.22-2.5,2.87-2.62Z"/>
  <path d="m388.93,624.36c-1-1.39-1.93-2.62-1.74-4.32.18-1.62.93-2.78,2.54-3.15,1.66-.39,3.25-.04,3.82,1.71.46,1.41,1.52,1.69,2.6,2.08,10.65,3.8,19.99,9.42,26.9,18.68,2.62,3.51,4.31,7.34,5.43,11.49,3.76,13.93,6.24,28.02,4.83,42.54-1.25,12.84-5.93,24.46-12.78,35.25-2.48,3.91-4.96,7.84-8.12,11.26-.71.76-1.06,1.37.06,2.17,2.05,1.47,2.74,3.73,3.33,6.06,1.14,4.48,1.54,4.78,6.14,5.19,1.56.14,2.59.97,2.77,2.52.21,1.79-.84,2.88-2.43,3.51-3.49,1.39-9.11-1.26-10.87-5.24-.7-1.57-1.14-3.25-1.66-4.9-.27-.86-.35-1.91-1.47-2.06-1.03-.13-1.62.7-2.18,1.41-1.25,1.59-2.03,3.43-2.87,5.25-1.06,2.31-2.08,4.65-3.3,6.87-2.43,4.45-6.13,5.33-10.52,2.71-3.6-2.14-7.33-3.48-11.59-1.83-1.13.44-2.08.92-2.95,1.8-7.37,7.47-20.59,7.51-27.95.08-.97-.98-2.04-1.2-3.28-1.56-8.13-2.36-15.29-.82-22.1,4.23-3.54,2.63-8.08,1.81-12.19,1.15-2.61-.42-3.84-2.5-3.95-5.19-.16-3.94.29-7.81,1.17-11.63.33-1.42.21-2.22-1.08-3.16-5.7-4.13-10.46-9.28-14.91-14.68-1.14-1.39-1.66-1.49-2.76-.11-1.43,1.8-3.31,3.14-5.28,4.26-9.25,5.26-17.82,11.59-26.89,17.14-3.44,2.1-6.34,4.88-9.27,7.59-4.07,3.77-8.83,3.19-13.63,2.6-1.1-.14-2.06-.91-2.63-1.83-2.21-3.59-5.66-5.85-8.82-8.43-3.98-3.25-3.67-6.93.95-9.09,14.39-6.74,28.14-14.73,42.35-21.83,4.87-2.43,9.94-4.46,15.32-5.5,1.84-.36,2.57-.99,1.73-2.9-.43-.98-.69-2.1-.72-3.17-.39-11.18-.66-22.36.19-33.52,1.22-16,8.34-28.86,20.94-38.88,8.42-6.7,16.79-13.32,27.27-16.65,3.85-1.22,7.69-2.27,11.73-2.1,2.03.09,3.23-.57,3.97-2.43,1.35-3.36,4.51-5.66,5.47-9.3.33-1.24,1.7-1.5,2.95-1.56,14.06-.74,25.51,3.85,33.14,16.23.49.8.86,1.63,2.35,1.22Zm38.63,61.23c.13-12.79-2.52-23.99-5.57-35.14-.39-1.41-.78-2.29-2.52-1.27-1.22.72-2.56.12-3.45-.89-2.12-2.41-4.78-4.17-7.16-6.27-5.67-5.03-12.29-8.33-19.45-10.68-1.57-.52-2.19-.17-2.07,1.53.23,3.2-.56,6.33-.66,9.5-.34,10.26-13.53,25.16-26.79,23.25-3.36-.48-6.6-1.19-9.79-2.21-8.14-2.6-13.28-9.84-13.53-18.44-.17-5.76.72-11.22,3.27-16.38,1.05-2.12.27-2.53-1.72-2.23-2.26.34-4.41,1.02-6.59,1.68-8.72,2.64-15.8,8-22.91,13.4-12.32,9.36-20.26,21.14-21.47,36.94-.67,8.72-.18,17.44-.48,26.16-.19,5.35,1.21,10.22,3.35,15,.51,1.15,1.01,1.91,2.51,1.99,2.16.11,3.31,1.79,2.39,3.59-1.07,2.09-.07,3.21,1.01,4.51,3.2,3.86,6.81,7.32,10.49,10.7,2.08,1.91,4.22,4.05,7.53,3.81.92-.07,1.74.7,2.03,1.6.41,1.29,1.43,1.8,2.49,2.32,2.61,1.27,5.29,2.43,7.82,3.84,2.44,1.36,4.49,1.38,6.54-.72.87-.89,2.06-1.48,3.17-2.1,6.73-3.75,10.64-2.21,12.75,5.12.52,1.8,1.38,2.45,3.26,2.41,5.09-.11,10.19-.25,15.26.04,3.66.21,6.1-.65,7.78-4.22,1.48-3.13,4.47-3.17,6.46-.38.88,1.23,1.57,1.39,2.9.83,4.2-1.77,8.32-3.67,12.06-6.29,7.42-5.2,12.93-12.13,17.84-19.64,8.43-12.91,13.76-26.76,13.24-41.34Zm-71.76-59.36q-8.47-.01-11.17,6.75c-.44,1.09-.88,2.2-1.18,3.33-1.08,4.2-1.38,8.47.01,12.61,2.53,7.53,15.56,13.41,22.93,10.05,7.21-3.28,12.81-8.33,14.11-16.74.54-3.49.76-7.02.83-10.57.04-2.17-.86-2.79-2.71-3.13-7.96-1.47-15.99-2.21-22.83-2.3Zm-129.53,123.71c1.27,1.01,2.42,1.86,3.5,2.8,1.09.96,2.18,1.93,3.11,3.03,2.88,3.41,6,3.8,9.51.99,3.18-2.55,5.99-5.56,9.5-7.72,9.12-5.61,17.75-11.99,27.08-17.27,2.48-1.4,4.51-3.32,6.21-5.63.77-1.04.34-1.84-.12-2.74-.43-.85-1.09-.75-1.85-.58-5.94,1.37-11.66,3.36-17.07,6.19-13.17,6.89-26.33,13.81-39.87,20.91Zm152.03-127.57c-3.91-4.93-8.64-7.23-13.88-8.59-2.37-.61-4.93-1.68-6.93.99-.22.3-.83.46-1.25.44-3.37-.2-3.92,2.48-5.29,4.87,9.21.13,18.04.39,27.35,2.29Zm-54.2,135.28c-2.25-1.07-3.98-2.07-5.84-2.72-1.98-.7-3.89-3.66-5.75-1.97-1.35,1.24-.92,4.27-1.06,6.54-.11,1.74.68,2.06,2.23,2.19,3.96.31,6.89-1.82,10.41-4.04Zm14.3-3.07c1.62.96,2.81,1.3,4.07.65.14-.07.12-.98-.12-1.21-1.24-1.23-2.2.07-3.95.56Z"/>
  <path d="m645.99,656.43c-7.7.88-15.33-2.17-22.42-7.96-9.06-7.4-8.08-19.93-3.76-26.97,3.91-6.36,9.32-10.97,16.25-14,5-2.19,10.1-1.94,15.26-1.81,1.72.04,3.42.39,5.09-.39.45-.21,1.26-.32,1.56-.07,2.67,2.19,6.16,1.89,9.14,3.14,8.66,3.62,12.49,9.44,11.95,18.81-.24,4.07-.73,8.13-1.9,12.09-1.21,4.1-3.54,7.33-6.97,9.8-8.3,5.98-12.63,7.37-24.21,7.37Zm1.27-6.04c.64,0,1.27-.05,1.91,0,7.71.65,13.47-3.51,19.14-7.81,1.8-1.37,2.54-3.48,3.14-5.6,1.15-4.05,1.48-8.2,1.66-12.37.27-6.28-6.8-12.04-12.93-10.56-.95.23-1.78,0-2.6-.46-5.62-3.1-11.61-2.54-17.35-.98-6.63,1.8-11.54,6.25-15.21,12.08-3.72,5.93-2.71,14.05,2.33,18.79,5.63,5.3,12.21,7.66,19.91,6.9Z"/>
  <path d="m296.14,199.3c-.01-3.78.91-5.35,3.1-5.3,2.08.04,2.91,1.48,3,5.16.03,1.43-.22,3.06,1.71,3.53,1.96.48,2.75-.62,3.18-2.38.48-1.97.18-4.22,2.03-5.74,1.41-1.17,2.88-2.15,4.6-.79,1.55,1.23,1.4,2.86.4,4.38-.89,1.35-.87,2.93-1.31,4.4-1.52,5.09-4.37,6.93-9.82,6.26-4.09-.5-6.74-3.74-6.88-8.42-.01-.36,0-.72,0-1.09Z"/>
  <path d="m364.62,210.19c-3.75.14-6.25-1.79-7.79-4.94-.83-1.68-1.3-3.57-1.76-5.4-.38-1.53,0-2.96,1.66-3.57,1.72-.63,3.1.08,3.87,1.61.68,1.36,1,2.9,1.57,4.32.34.83.84,1.8,1.89,1.71,1.01-.09.95-1.23,1.17-1.95.59-1.9.91-3.9,2.16-5.53,1.15-1.5,2.63-2.47,4.45-1.41,1.86,1.08,1.76,2.85.79,4.51-1.21,2.08-1.45,4.47-2.3,6.66-1.02,2.64-2.75,4.23-5.72,4Z"/>
  <path d="m335.09,229.2c-4.87-.02-8.73-3.79-8.97-8.42-.12-2.38,2.14-3.8,4.3-2.67,1.36.71,2.17,1.9,2.6,3.35.27.93.65,1.65,1.82,1.67,1.08.01,1.71-.56,2.08-1.44.67-1.58,1.23-3.22,1.93-4.79.85-1.92,2.23-3.34,4.46-2.44,2.36.95,2,2.91,1.19,4.83-.78,1.83-1.46,3.71-2.31,5.51-1.46,3.11-3.9,4.69-7.1,4.41Z"/>
</svg>