<?xml version="1.0" encoding="UTF-8"?>
<svg id="Layer_0_Image" data-name="Layer 0 Image" xmlns="http://www.w3.org/2000/svg" viewBox="0 0 1117.09 837.82">
  <defs>
    <style>
      .cls-1 {
        fill: #5b8a47;
      }

      .cls-2 {
        fill: #889087;
      }

      .cls-3 {
        fill: #979c92;
      }

      .cls-4 {
        fill: #fff;
      }

      .cls-5 {
        fill: #f3848e;
      }

      .cls-6 {
        fill: #faf6f1;
      }

      .cls-7 {
        fill: #c3a430;
      }

      .cls-8 {
        fill: #ea331c;
      }

      .cls-9 {
        fill: #bac4cf;
      }

      .cls-10 {
        fill: #d9dcd9;
      }

      .cls-11 {
        fill: #e9331b;
      }

      .cls-12 {
        fill: #025d93;
      }

      .cls-13 {
        fill: #4f9cd6;
      }

      .cls-14 {
        fill: #fcb915;
      }

      .cls-15 {
        fill: #b3b1ae;
      }

      .cls-16 {
        fill: #646e62;
      }

      .cls-17 {
        fill: #d3d3cc;
      }

      .cls-18 {
        fill: #a2a8a1;
      }

      .cls-19 {
        fill: #f96658;
      }

      .cls-20 {
        fill: #556052;
      }

      .cls-21 {
        fill: #fd9b6e;
      }

      .cls-22 {
        fill: #39442f;
      }

      .cls-23 {
        fill: #5d8c48;
      }

      .cls-24 {
        fill: #fed45c;
      }

      .cls-25 {
        fill: #fbb915;
      }

      .cls-26 {
        fill: #fbf7f2;
      }

      .cls-27 {
        fill: #324030;
      }

      .cls-28 {
        fill: #fcb916;
      }

      .cls-29 {
        fill: #fefefe;
      }
    </style>
  </defs>
  <path class="cls-4" d="m0,0h1117.09v837.82H0c0-279.27,0-558.55,0-837.82Zm870.16,359.89c.69-.83,1.31-1.75,2.1-2.48,3.07-2.82,6.41-5.39,9.27-8.41,6.22-6.6,12.15-13.47,18.29-20.14,3.32-3.6,6.91-6.94,10.25-10.52,6.07-6.5,12.04-13.09,18.06-19.63,4.72-5.12,8.75-10.58,9.97-17.71.79-4.62-.39-7.99-3.79-9.89-4.96-2.77-9.88-5.59-14.79-8.44-3.91-2.27-9.47-2.24-12.76.87-5.99,5.67-11.82,11.53-17.43,17.59-10.11,10.92-20.14,21.92-29.93,33.13-9.36,10.71-18.4,21.7-27.48,32.64-1.1,1.33-2.01,1.76-3.67,1.3-5.91-1.63-11.5-1.11-16.5,2.79-.71.55-1.5,1.01-2.25,1.51-4.07-.21-8.14-.64-12.21-.58-18.39.27-36.81-1.12-55.15,1.5-10.41,1.48-21,1.98-31.28,4.07-12.57,2.56-25.05,5.83-37.27,9.72-8.03,2.56-13.9,8.33-15.46,17.16-.57,3.27-.22,6.69-.29,10.05-4.72,5.57-5.23,11.75-1.96,18.03,2.52,4.85,5.67,9.38,8.53,14.06-1.06.38-2.11,1.07-3.17,1.08-29.7.24-59.4.44-89.1.59-11.54.06-23.08-.02-34.62-.03.48-5.25.96-10.5,1.44-15.75.18-.73.36-1.46.54-2.18,0-3.83.01-7.66.02-11.49-.01-.54-.02-1.07-.03-1.61-.06-4.18-.13-8.36-.19-12.54,0-1.46.02-2.93.03-4.39,0-.36,0-.71.01-1.07,0-.37,0-.74,0-1.11-.14-4.17-.27-8.34-.41-12.51.1-.37.2-.74.3-1.12.19-4.7.54-9.4.54-14.1.02-11.15-.07-22.31-.22-33.46-.17-12.8-.45-25.59-.72-38.39-.07-3.35-.26-6.71-.39-10.06l-.05-1.63c-.05-5.44-.2-10.88-.13-16.31.14-10.61.41-21.21.63-31.81,0-.18,0-.36.01-.55.19-9.48.68-18.97.5-28.45-.19-10.07-1.39-20.14-1.42-30.21-.02-7.26-1.15-14.28-2.7-21.26-1.11-4.98-2.71-9.9-4.6-14.64-2.5-6.29-5.12-12.6-9.95-17.6-8.73-9.03-18.55-16.16-31.4-18.03-3.65-.53-7.27-1.58-10.93-1.69-19.47-.61-38.98,1.07-58.42-1.08-.55-.03-1.1-.07-1.64-.1-5.63-.14-11.27-.29-16.9-.43-.55-.03-1.09-.07-1.64-.1-2.81-.1-5.63-.32-8.44-.28-46.62.59-93.24-1.12-139.86,1.28-21.46,1.11-43,.83-64.5,1.12-23.78.32-47.56.56-71.35.87-9.29.12-18.58-.49-27.8,1.89-8.1,2.09-14.82,6.06-20.45,12.09-2.72,2.92-5.29,5.98-8.05,8.86-5.61,5.87-11.16,11.73-12.84,20.11-.7,3.47-1.17,7.04-2.37,10.34-2.27,6.22-2.8,12.6-2.72,19.12.05,4.35.02,8.7.03,13.05-.16.37-.33.74-.49,1.11-.19,2.36-.39,4.71-.58,7.07l-.04,1.09c-.17,5.45-.34,10.91-.51,16.36-.02.36-.04.73-.06,1.09-.06,18.87-.18,37.74-.17,56.61,0,22.77.11,45.54.18,68.31.05.55.09,1.09.14,1.64-.03,5.53-.07,11.06-.08,16.59,0,18.53-.13,37.06.08,55.59.07,6.18.92,12.37,1.55,18.53.41,4.02,1.01,8.02,1.63,12.01.59,3.79.68,7.83,2.12,11.29,2.94,7.1,6.59,13.9,10.03,20.78,1.05,2.1,2.19,4.2,3.6,6.06,6.51,8.58,15.22,14.25,24.93,18.57,15.9,7.07,32.6,9.77,49.92,9.67,27.25-.15,54.5-.02,81.75-.01,2.01.16,4.01.32,6.02.48,11.69.22,23.37.54,35.06.63,14.76.11,29.52-.05,44.29.03,17.35.1,34.69.38,52.04.5,8.15.06,16.3-.05,24.45-.09.95-.14,1.91-.28,2.86-.43,13.3-.18,26.59-.41,39.89-.52,3.23-.03,6.47.54,9.69.44,6.55-.2,13.1-.63,19.65-1.04,4.92-.3,9.83-.67,14.73-1.1,2.75-.24,5.48-.68,8.22-1.03,0,2.54.12,5.09-.03,7.63-.47,8.22-1.2,16.43-1.52,24.65-.27,6.87-.03,13.75-.12,20.62-.14,10.4-.35,20.81-.55,31.21-.13,7.04-.48,14.08-.38,21.12.14,9.88.59,19.75.93,29.62.11,3.17.1,6.35.46,9.49.66,5.84,1.61,11.64,2.34,17.47.57,4.57.8,9.19,1.54,13.73,1.42,8.62,6.03,16.02,9.4,23.92,3.98,9.32,9.97,16.55,19,21.09,10.9,5.48,22.58,8.58,34.7,8.92,10.76.3,21.55-.63,32.34-.92,2.52-.07,5.06.42,7.59.4,15.16-.1,30.32-.37,45.48-.39,8.53-.01,17.05.33,25.58.51,1.15.48,2.3.94,3.45,1.43,11.49,4.93,23.51,7.69,35.96,8.28,7.34.35,14.72.28,22.06-.03,3.45-.15,7-.9,10.25-2.08,4.57-1.66,8.9-3.97,13.33-6,.38-.03.76-.06,1.15-.1,15.78.03,31.56.06,47.34.09,6.52.01,13.03-.06,19.55.09,11.06.25,22.11.87,33.17.94,25.23.16,50.47.16,75.7.09,13.25-.04,26.5-.38,39.76-.53,4.69-.06,9.39-.01,14.08.06,8.59.14,17.18.33,25.77.5,2.24.04,4.48.05,6.72.16,5.24.25,10.48.67,15.72.79,3.34.08,6.73.01,10.03-.46,3.91-.56,7.82-1.38,11.6-2.51,6.27-1.88,11.3-6.07,16.62-9.66,7.55-5.11,13.88-11.21,17.47-19.92,3.47-8.42,5.58-16.94,5.26-26.12-.2-5.88.19-11.79.54-17.67.6-10.12,1.75-20.22,2.01-30.35.36-13.78.06-27.57.13-41.35.03-5.35.4-10.69.43-16.04.08-12.86.12-25.72.04-38.57-.06-8.62-.27-17.24-.56-25.86-.23-6.7-.25-13.45-1.16-20.06-1.36-9.89-4.9-19.27-10.77-27.27-3.62-4.93-9.08-8.49-13.54-12.85-4.36-4.26-9.71-6.45-15.5-7.27-5.62-.8-11.36-1.16-17.04-1.15-30.34.07-60.68.33-91.02.51-6.72.04-13.45.03-20.17.04.68-1.16,1.31-2.34,2.04-3.46,3.22-4.91,6.49-9.79,6.33-16.04-.01-.56.39-1.14.6-1.71,2.79-4.92,6.92-8.06,12.44-9.35,2.47-.58,4.91-1.36,7.42-1.71,14.87-2.07,29.72-4.22,44.63-5.97,10.35-1.22,20.78-1.7,31.14-2.79,4.24-.44,8.86-.43,12.14-3.79,1.66-1.7,2.94-3.88,4.04-6.02,2.03-3.93,4.3-7.84,5.55-12.04,2.13-7.1-.8-12.93-7.04-14.19-4.23-.86-8.77-1.38-13.01-.83-7.52.98-14.95,2.78-22.38,4.43-5.57,1.24-11.02,3.06-16.62,4.11-9.06,1.69-18.23,2.84-27.31,4.45-6.96,1.23-13.79,3.32-20.79,4.07-6.95.75-12.28,3.9-17.31,8.71-.85-.77-1.63-1.64-2.57-2.29-2.8-1.96-5.43-4.47-8.55-5.63-9.26-3.43-18.72-6.31-28.1-9.4Z"/>
  <path class="cls-27" d="m377.32,496.82c-8.15.04-16.3.15-24.45.09-17.35-.13-34.69-.4-52.04-.5-14.76-.09-29.52.07-44.29-.03-11.69-.09-23.37-.41-35.06-.63-1.87-1.82-3.94-1.21-6.02-.48-27.25-.01-54.5-.14-81.75.01-17.33.1-34.02-2.6-49.92-9.67-9.71-4.32-18.42-9.99-24.93-18.57-1.41-1.86-2.55-3.96-3.6-6.06-3.44-6.88-7.09-13.69-10.03-20.78-1.43-3.46-1.53-7.5-2.12-11.29-.62-3.99-1.22-8-1.63-12.01-.63-6.17-1.48-12.35-1.55-18.53-.21-18.53-.09-37.06-.08-55.59,0-5.53.05-11.06.08-16.59-.05-.55-.09-1.09-.14-1.64-.06-22.77-.17-45.54-.18-68.31,0-18.87.11-37.74.17-56.61.02-.36.04-.73.06-1.09.17-5.45.34-10.91.51-16.36.01-.36.03-.73.04-1.09.19-2.36.39-4.71.58-7.07.16-.37.33-.74.49-1.11,0-4.35.02-8.7-.03-13.05-.07-6.51.45-12.89,2.72-19.12,1.2-3.3,1.67-6.87,2.37-10.34,1.69-8.37,7.23-14.24,12.84-20.11,2.76-2.88,5.32-5.95,8.05-8.86,5.63-6.02,12.35-10,20.45-12.09,9.21-2.38,18.5-1.77,27.8-1.89,23.78-.31,47.56-.55,71.35-.87,21.5-.29,43.04,0,64.5-1.12,46.62-2.41,93.24-.7,139.86-1.28,2.81-.04,5.63.18,8.44.28.55.03,1.09.07,1.64.1,5.63.14,11.27.29,16.9.43.55.03,1.1.07,1.64.1,19.44,2.15,38.96.47,58.42,1.08,3.66.12,7.28,1.16,10.93,1.69,12.85,1.87,22.67,9,31.4,18.03,4.83,5,7.45,11.31,9.95,17.6,1.89,4.74,3.49,9.66,4.6,14.64,1.55,6.97,2.69,13.99,2.7,21.26.02,10.07,1.23,20.13,1.42,30.21.18,9.48-.31,18.97-.5,28.45,0,.18,0,.36-.01.55-.22,10.6-.48,21.21-.63,31.81-.07,5.44.08,10.88.13,16.31.02.54.03,1.08.05,1.63.13,3.35.32,6.71.39,10.06.26,12.8.54,25.59.72,38.39.15,11.15.24,22.31.22,33.46,0,4.7-.35,9.4-.54,14.1-.1.37-.2.74-.3,1.12.14,4.17.27,8.34.41,12.51,0,.37,0,.74,0,1.11,0,.36,0,.71-.01,1.07,0,1.46-.02,2.93-.03,4.39.06,4.18.13,8.36.19,12.54.01.54.02,1.07.03,1.61,0,3.83-.01,7.66-.02,11.49-.18.73-.36,1.46-.54,2.18-.48,5.25-.96,10.5-1.44,15.75-1.98.21-3.96.42-5.94.62-9.27.93-18.56,1.61-26.97,6.35-5.9,3.32-12.57,5.58-16.53,11.53-2.55,3.83-4.68,7.95-6.91,11.99-1.88,3.41-4.35,6.7-5.29,10.37-2.02,7.89-4.05,15.87-3.52,24.17-2.74.35-5.47.79-8.22,1.03-4.91.43-9.82.79-14.73,1.1-6.55.4-13.09.84-19.65,1.04-3.22.1-6.46-.47-9.69-.44-13.3.11-26.59.34-39.89.52-.95.14-1.91.28-2.86.43Zm-193.49-52.81c-.16.19-.32.39-.48.58-3.35,7.86,1.44,15.17,9.98,15.31,6.35.1,12.7.36,19.05.46,17.37.28,34.74.58,52.11.76,18.34.18,36.69.27,55.03.33,16.53.05,33.06.03,49.59,0,5.1,0,8.94-2.53,10.49-6.74,2.66-7.26-2.56-13.98-10.91-13.98-35.5-.02-71.01.07-106.51-.06-15.49-.06-30.97-.55-46.46-.86-.63-.01-1.27-.09-1.9-.14-.36-.01-.73-.03-1.09-.04-4.25-.15-8.5-.39-12.75-.42-3.16-.03-6.31.2-9.47.32-.48.11-.96.23-1.44.34-1.4,1-2.8,2.01-4.2,3.01-.35.38-.69.76-1.04,1.14h0Zm45.27-57.81c6.11.36,12.22.94,18.34,1.04,18.23.3,36.46.42,54.7.6,4.27.04,8.54.05,12.81.06,17.62.07,35.25.26,52.87.15,6.62-.04,9.77-4.29,9.67-11.96-.07-4.69-4.52-8.55-10.1-8.61-29.32-.32-58.64-.64-87.96-.91-18.73-.17-37.45.21-56.16-1.46-9.65-.86-19.44-.32-29.15-.13-6.08.12-9.45,4.67-10.21,9.82-.66,4.47,4.34,10.75,10.01,10.79,2,.02,4,0,6,.04,9.17.13,18.34.27,27.5.41.56.04,1.13.09,1.69.13Zm44.27-92.11c11.77.03,23.53.06,35.3.09.74-.07,1.48-.15,2.22-.22.45.01.93.12,1.36.03,9.4-2.01,18.87-3.94,27.23-8.95,5.1-3.06,9.86-6.69,14.77-10.06,6.53-1.85,11.12-6.08,13.91-12.09,1.61-3.45,2.52-7.23,3.74-10.86,1.87-4.77,3.9-9.48,5.58-14.31,2.52-7.28,4.06-14.82,3.78-22.54-.22-5.92-1.31-11.82-1.51-17.74-.22-6.51-2.17-12.54-4.8-18.28-5.42-11.87-13.72-21.41-24.35-29.05-11.89-8.54-24.73-14.64-39.33-16.68.08-.44.12-.91.26-1.33,2.54-7.7.68-11-6.83-13.38-2.23-.71-4.56-1.98-4.79-5.37-.26-3.75-2.54-6.77-6.38-7.64-5.29-1.2-10.29-.18-14.53,3.44-7.06,6.02-10.25,13.66-9.5,22.92-10.39,1.72-20.47,4.44-30.27,8.43-17.52,7.15-31.25,18.38-40.67,34.97-5.01,8.83-7.79,18.4-9.01,28.17-1.18,9.44-.82,19.13,1.3,28.62,1.83,8.19,4.74,15.94,8.73,23.3,1.25,2.7,2.18,5.61,3.81,8.06,3.87,5.85,9.4,9.58,16.21,11.37.32.32.61.67.96.95,5.28,4.27,11.37,7.02,17.59,9.63,10.94,4.58,22.16,7.93,34.08,8.49.38.02.77.03,1.15.05Zm-13.99,107.91c0-.08,0-.16,0-.24-20.16,0-40.31-.04-60.47.05-2.5.01-5.02.58-7.48,1.12-5.13,1.11-8.84,7.2-7.42,12.62,1.27,4.84,7.39,9.45,13.13,7.27.98-.37,2.14-.43,3.21-.43,28.33.09,56.67.16,85,.32,27.61.16,55.21.41,82.82.6,6.22.04,10.91-4.37,11-10.25.1-5.97-4.49-10.45-10.8-10.52-16.07-.19-32.15-.46-48.22-.53-20.26-.09-40.52-.02-60.78-.02Zm120.69-64.07c2.12.1,4.22.48,6.23.19,1.36-.19,3.19-1.04,3.7-2.12.56-1.17.12-3.08-.47-4.4-.23-.5-2.4-.75-3.15-.27-1.54.99-3.16,1.39-4.07,0-.52-.8.08-2.8.8-3.83.95-1.37,2.75-2.14,3.73-3.49.71-.99,1.3-2.85.82-3.7-.49-.88-2.31-1.09-3.59-1.44-.41-.11-.96.28-1.67.51.2-1.66.4-3.07.52-4.49.14-1.68-.2-3.13-2.22-3.43-2.16-.32-3.21.96-3.7,2.8-1.36,5.07-2.65,10.15-3.99,15.28-2.78-2.46-3.67-2.33-6.41.1-1.33,1.18-2.95,2.16-4.6,2.79-.92.36-2.46.19-3.23-.39-1.17-.88-.13-5.3,1.3-7.09,1.49-1.87,2.6-.27,3.98.16,1.16.36,2.94.46,3.7-.19.68-.59.67-2.43.41-3.59-1.08-4.87-10.04-4.09-12.66-.74-3.24,4.16-3.74,8.79-2.81,13.65.25,1.3,1.5,2.83,2.7,3.44,3.7,1.9,7.55,1.6,11.16-.45,1.81-1.03,3.48-2.32,5.31-3.55-.93,5.27-.35,7.18,2.38,8.08,2.2.73,4.17-.6,5.8-3.84Zm-251.36-5.85c-2.11.3-4,.34-5.73.89-1.79.57-3.41,1.69-5.14,2.48-3.16,1.44-4.51.66-4.37-2.74.25-6.13.65-12.25,1.07-18.36.12-1.78-.37-3.36-2.12-3.52-1.11-.1-2.83.71-3.41,1.65-.9,1.46-1.43,3.37-1.49,5.11-.18,5.9-.22,11.8,0,17.7.06,1.55.89,3.31,1.9,4.54,1.98,2.4,6.66,3.14,9.83,1.7,3.6-1.63,7.1-3.47,10.83-5.3,2.64,3.42,6.46,4.01,10.62,3.63,3.19-.29,5.58-2.93,4.87-5.9-.26-1.08-1.47-2.38-2.51-2.69-.87-.26-2.67.46-3.12,1.27-1.14,2.06-2.35,1.29-3.94.74,5.62-2.96,7.47-6.49,6.29-12.57-.24-1.24-1.55-2.67-2.74-3.25-2.62-1.29-5.45-.21-7.31,2.45-.95,1.35-1.63,2.53-3.75,2.07-.78-.17-2.48,1.08-2.76,1.99-.63,2.07-.63,4.32,1.12,6.1.66.67,1.27,1.38,1.87,2.02Zm301.3,11.31c-.08-.49-.15-.84-.2-1.2-.25-1.93-1.15-3.46-3.24-3.26-1.96.19-2.94,1.61-2.78,3.68.07.99-.02,2,.02,3,.12,2.44,1.67,3.97,4.16,4.06,1.72.06,3.45.03,5.18.02,7.13-.01,10.32-2.4,12.7-9.09,2.21-6.2,1.21-12.58,1.39-18.89.03-1.06-.24-2.16-.53-3.2-.73-2.64-2.95-3.44-5.25-2.03-.67.41-1.44.9-2.16.9-5.41.01-8.22,3.66-10.19,7.8-2.26,4.76.2,8.28,5.35,8.07,2.21-.09,4.39-.95,6.57-1.46,1.31,7.99-2.97,12.78-11.02,11.59Zm-226-8.86c0,.73,0,1.45,0,2.18.04,4.31,1.87,6.9,5.61,7.97,5.26,1.5,9.77.33,11.97-3.1,3.32-5.16,1.2-11.44-4.59-13.48-1.67-.59-3.24-.48-4.23,1.31-1.02,1.86-.19,3.09,1.38,4.06.54.33,1.08.67,1.59,1.05,1.61,1.2,1.8,2.97.1,3.98-1,.59-2.64.66-3.77.29-.85-.28-1.93-1.62-1.92-2.48.01-3.05,0-6.23.82-9.13,1.54-5.47,3.1-11.23,10.8-11,.92.03,2.38-1.65,2.69-2.78.2-.74-1.11-2.66-1.93-2.78-3.56-.51-7.15-.87-10.22,2.01-6.37,5.99-8.33,13.54-8.31,21.9Zm138.03-.26c.17.03.35.06.52.08-.18,2.13-.48,4.26-.51,6.39-.02,1.86,1.11,3.46,2.91,3.19,1.13-.17,2.79-1.79,2.9-2.88.48-5.04.66-10.12.61-15.18-.02-2.37-.83-4.87-3.61-5.48-2.28-.5-4.68-.84-6.98-.65-1.65.14-3.59.88-4.74,2.03-3.64,3.64-4.06,8.5-4.22,13.36-.08,2.56.53,4.66,3.32,5.52,2.25.69,5.34-.22,6.85-2.19,1.04-1.35,1.97-2.79,2.95-4.18Zm68.5-14.69c-1.54-.55-3.15-1.71-4.12-1.32-1.21.49-2.37,2.16-2.7,3.53-.7,2.97-.79,6.08-1.27,9.11-.41,2.58-1.33,5.13-1.36,7.7-.01,1.08,1.52,2.78,2.65,3.08.81.22,2.22-1.32,3.16-2.27.44-.44.43-1.35.56-2.06.99-5.41,3.82-9.74,7.91-13.29.68-.59,1.65-.84,3.05-1.52-.14,2.59-.31,4.55-.35,6.5-.04,2.16-.29,4.39.19,6.45.24,1.05,1.92,2.51,2.85,2.45.97-.06,2.51-1.68,2.62-2.74.45-4.41.7-8.87.54-13.29-.17-4.58-3.21-6.62-7.71-5.31-2.2.64-4.18,2.03-6.03,2.97Zm-166.93,10.08c-.06.2-.02-.06.09-.29,2.92-5.86,1.26-9.4-5.09-10.6-1.4-.27-3.06-.54-4.29-.05-1.63.65-3.07,1.93-4.37,3.18-.99.95-1.5,2.39-2.47,3.37-1.5,1.51-1.48,3.13-.01,4.22,1.51,1.13,1.86,2.44,1.58,3.98-.86,4.65,5.1,9.29,9.68,7.65,2.7-.97,5.28-2.72,7.4-4.69,1.06-.98,1.41-3.29,1.17-4.86-.12-.78-2.3-1.24-3.69-1.92Zm56.59-12.32c1.24,2.38,1.99,4.11,3,5.68.92,1.43,2.33,2.12,3.96,1.09,1.49-.93,1.97-2.3,1.24-4-.5-1.16-1.12-2.29-1.46-3.5-.89-3.13-3.15-4.6-6.11-5.03-2.91-.43-5,.97-6.5,3.48-4.04,6.8-4.81,14.27-4.73,21.97.03,2.98,1.58,4.91,4.16,5.21,3.26.38,6.66.09,9.94-.33,2.12-.27,3.43-1.87,2.74-4.16-.67-2.22-2.59-1.81-4.32-1.64-2.02.2-4.05.36-6.37.55-.31-6.96.76-13.07,4.45-19.33Zm-120.91,16.05c-.44.2-.88.41-1.31.61-.49-.55-.96-1.13-1.49-1.64-1.03-1-1.95-2.32-3.2-2.83-.89-.37-2.56.01-3.27.7-.61.59-.83,2.35-.39,3.12,1.1,1.95,2.55,3.74,4.09,5.39,2.24,2.41,6.09,2.42,8.53.21,3.43-3.11,3.72-9.89.75-14.56-.79-1.24-1.22-2.73-1.81-4.1,1.36-.39,2.85-.54,4.04-1.23,1.12-.64,2.33-1.71,2.69-2.84.2-.61-1.17-2.37-2.05-2.56-2.07-.42-4.32-.52-6.4-.18-2.74.45-4.18,2.65-4.4,5.45-.24,3.1.45,5.77,2.3,8.4,1.16,1.66,1.32,4.03,1.93,6.07Zm-22.67-10.45c.1-1.09.16-1.62.19-2.15.09-1.9.35-3.81.18-5.69-.17-1.86-1.15-3.26-3.37-3.11-1.99.13-2.51,1.39-2.58,3.15-.06,1.8-.42,3.6-.42,5.4,0,1.64-.34,2.63-2.12,3.22-2.24.74-3.17,2.98-1.95,4.46.71.87,2.06,1.22,3.34,1.92.02.18.09.62.09,1.06.02,2.18-.12,4.37.07,6.53.17,1.96,1.45,3.21,3.47,3.08,2.01-.12,2.72-1.49,2.54-3.44-.1-1.08-.07-2.18-.06-3.27.02-4.87.02-4.9,4.79-5.17,1.9-.11,3.25-.95,3.29-2.87.04-1.9-1.3-2.95-3.14-3.12-1.33-.12-2.67-.02-4.32-.02Zm101.92-1.62c0-1.78.04-3.04,0-4.31-.11-2.65-1.38-4.08-3.46-3.95-2.61.16-2.57,2.04-2.56,3.94.01,2.41.4,4.84-1.86,6.78-.56.48-.48,2.73.12,3.31,1.46,1.4,1.26,2.81,1.02,4.45-.36,2.5-.7,5.02-.85,7.54-.1,1.72.31,3.37,2.53,3.47,2.08.1,3.18-1.03,3.45-3.04.36-2.69.74-5.37,1.06-8.06.48-4.04.46-4.08,4.72-4.12,1.94-.02,3.47-.37,3.53-2.74.05-2.25-1.46-3-3.29-3.24-1.32-.17-2.68-.03-4.4-.03Zm60.28.49c-.36-1.11-.42-2.15-.97-2.76-.64-.73-1.7-1.49-2.57-1.49-.87,0-2.04.74-2.54,1.5-.55.83-.55,2.06-.67,3.13-.56,4.82-1.06,9.65-1.6,14.47-.23,2.07.08,4.02,2.37,4.55,2.16.5,3.29-1.08,3.94-2.91.67-1.87,1.2-3.79,1.89-5.65,1.14-3.08,2.78-5.65,6.36-6.42,2-.43,3.36-1.79,2.63-3.95-.69-2.03-2.48-2.48-4.48-1.9-1.38.4-2.74.88-4.37,1.41Zm72.62,10.89c.28,2.38.23,4.35.83,6.1.31.9,1.77,1.96,2.69,1.94.93-.01,1.95-1.16,2.7-2.02.41-.47.43-1.37.47-2.08.23-3.88.39-7.77.61-11.66.11-1.9-.66-3.29-2.52-3.62-1.94-.35-3.12.86-3.46,2.67-.55,3.01-.93,6.06-1.32,8.66Zm63.47-12.79c-.71,2.07-.05,3.8,2.14,4.01,2.37.23,3.23-1.39,3.39-3.61.12-1.61.81-3.2.77-4.79-.05-2.12-.26-4.34-1.01-6.29-.32-.83-2.22-1.57-3.28-1.42-.78.11-1.85,1.67-1.93,2.66-.25,3.13-.09,6.28-.09,9.43Zm3.15,22.8c1.54-.81,3.17-1.14,3.49-1.97.4-1.02-.21-2.5-.56-3.72-.27-.92-.86-1.74-1.24-2.63-.99-2.33-3.39-2.96-4.99-1.24-2.03,2.18-.53,4.55.06,6.65.31,1.12,2,1.85,3.24,2.91Zm-287.89-30.43c0-.81.29-1.79-.06-2.4-.58-1-1.47-2.3-2.41-2.47-.94-.17-2.66.62-3.07,1.46-1.07,2.21-1.4,4.75.19,6.9.58.78,2.05,1.57,2.85,1.36.98-.26,1.86-1.46,2.44-2.46.35-.6.07-1.58.07-2.39Zm232.44,4.61c-.04-1.65-.79-2.68-2.61-2.72-1.71-.03-2.87.7-2.84,2.5.02,1.7.7,3,2.74,2.97,1.78-.03,2.64-.95,2.72-2.75Z"/>
  <path class="cls-9" d="m472.37,493.15c-.52-8.3,1.5-16.28,3.52-24.17.94-3.67,3.41-6.96,5.29-10.37,2.23-4.04,4.35-8.16,6.91-11.99,3.97-5.95,10.63-8.21,16.53-11.53,8.41-4.73,17.7-5.42,26.97-6.35,1.98-.2,3.96-.41,5.94-.62,11.54.02,23.08.09,34.62.03,29.7-.15,59.4-.35,89.1-.59,1.06,0,2.12-.71,3.17-1.08,2.7,3.49,5.41,6.99,8.11,10.48-1.23.31-2.44.7-3.68.93-12.75,2.28-25.15,5.65-36.49,12.11-8.7,4.95-15.01,12.21-16.33,22.24-1.15,8.78-.61,17.79,1.27,26.54,1.81,8.41,8.02,13.35,14.94,17.44,4.14,2.44,8.61,4.31,12.75,6.74,10.45,6.13,21.76,9.65,33.61,11.72,14.79,2.59,29.53,5.45,44.36,7.75,10.25,1.59,20.59,3,30.93,3.44,16.12.69,32.29.56,48.43.65,5.61.03,11.21-.34,16.82-.5,12.59-.37,25.17-.73,37.76-1.09.56-.09,1.11-.18,1.67-.26,1.26-.09,2.53-.19,3.79-.28.55-.1,1.11-.19,1.66-.29,1.08-.09,2.16-.17,3.25-.26.56-.08,1.11-.16,1.67-.24,1.26-.11,2.52-.21,3.78-.32,0,.37.01.73.02,1.1-8.36,2.69-16.79,5.19-25.05,8.16-3.53,1.27-7.34,2.88-9.91,5.45-7.07,7.08-8.32,15.96-6.12,25.49.34,1.48.51,3,.75,4.51-2.12,4.56-1.26,8.93,1.46,12.79,2.38,3.37,5.14,6.54,8.12,9.39,3.07,2.93,6.63,5.34,9.96,8.01,7.89,6.32,16.01,12.3,25.76,15.44,5.3,1.71,10.7,4.1,16.11,4.28,19.13.63,38.31.99,57.37-1.39,8.4-1.05,16.28-3.45,22.48-9.83,4.8-4.93,9.88-9.59,14.89-14.31,6.56-6.19,11.11-13.32,11.02-22.72,1.19-2.13,2.71-4.15,3.5-6.42,2.63-7.54,3.77-15.3-2.21-21.72-3.51-3.76-7.78-7.27-12.39-9.46-6.41-3.04-13.33-5.36-20.27-6.88-14.06-3.08-28.25-5.72-42.78-5.23-9.94.34-19.88.75-29.82,1.13-.54.02-1.08.05-1.62.07-.7.13-1.4.26-2.09.39-.03-.33-.06-.66-.1-.99,1.48-.28,2.99-.46,4.44-.87,7.05-2.03,14.05-4.23,21.12-6.18,10.08-2.79,19.3-7.42,27.91-13.2,7.9-5.3,12.83-12.84,14.19-22.29.57-3.97.13-8.11-.05-12.17-.35-7.76-2.27-14.9-7.24-21.23-6.96-8.86-15.33-15.78-25.95-19.5-7.94-2.78-16.16-4.77-24.25-7.12,1.83-2.88,3.67-5.77,5.5-8.65,6.72-.01,13.45,0,20.17-.04,30.34-.18,60.68-.44,91.02-.51,5.68-.01,11.42.35,17.04,1.15,5.8.82,11.14,3.02,15.5,7.27,4.46,4.36,9.91,7.91,13.54,12.85,5.87,8,9.41,17.38,10.77,27.27.91,6.62.93,13.37,1.16,20.06.29,8.62.51,17.24.56,25.86.08,12.86.04,25.72-.04,38.57-.03,5.35-.4,10.69-.43,16.04-.07,13.78.23,27.58-.13,41.35-.26,10.13-1.4,20.23-2.01,30.35-.35,5.88-.74,11.79-.54,17.67.32,9.18-1.79,17.71-5.26,26.12-3.6,8.71-9.92,14.81-17.47,19.92-5.32,3.6-10.34,7.79-16.62,9.66-3.78,1.13-7.69,1.95-11.6,2.51-3.3.47-6.69.54-10.03.46-5.24-.12-10.48-.54-15.72-.79-2.24-.11-4.48-.11-6.72-.16-8.59-.17-17.18-.36-25.77-.5-4.69-.07-9.39-.12-14.08-.06-13.25.16-26.5.5-39.76.53-25.23.07-50.47.08-75.7-.09-11.06-.07-22.11-.69-33.17-.94-6.51-.15-13.03-.07-19.55-.09-15.78-.03-31.56-.06-47.34-.09-.02-.33-.03-.66-.04-.99,1.6-1.18,3.13-2.47,4.82-3.52,4.13-2.56,8.13-5.47,10.39-9.72,3.31-6.21,6.03-12.75,8.74-19.26,1.48-3.55,2.94-6.95,5.87-9.63,2.74-2.5,5.66-5.01,7.68-8.06,5.35-8.06,10.83-16.08,13.4-25.68,1.85-6.93,2.87-13.79,1.14-20.86-.6-2.46-1.43-4.89-1.77-7.38-.89-6.61-3.61-12.54-6.99-18.1-2.85-4.69-6.47-8.81-10.94-12.24-6.59-5.06-11.88-11.38-16.3-18.43-6.34-10.12-15.6-17.2-25.76-22.81-10.06-5.56-21.31-7.58-32.8-6.4-5.98.61-12.04,1.79-17.7,3.75-7.28,2.52-14.01,6.43-19.61,11.88-4.21,4.09-9.07,6.79-14.77,8.09-.97.22-1.99.43-2.83.92-5.07,2.97-10.2,5.87-15.12,9.08-12.08,7.88-17.69,20.19-21.53,33.29-2.37,8.07-2.42,16.59-2.38,25.05.05,9.49,3.21,17.67,8.63,25.25,4.04,5.65,8.13,11.31,8.73,18.65.3,3.68.13,7.87,1.86,10.85,3.13,5.41,4.99,11.36,8.05,16.65,2.22,3.84,6.12,6.9,9.75,9.68,4.14,3.18,8.82,5.66,13.26,8.44-8.53-.18-17.05-.52-25.58-.51-15.16.02-30.32.29-45.48.39-2.53.02-5.06-.47-7.59-.4-10.78.29-21.58,1.22-32.34.92-12.12-.34-23.8-3.44-34.7-8.92-9.03-4.54-15.02-11.77-19-21.09-3.37-7.89-7.98-15.29-9.4-23.92-.75-4.54-.97-9.16-1.54-13.73-.73-5.83-1.67-11.64-2.34-17.47-.36-3.14-.35-6.32-.46-9.49-.34-9.87-.79-19.74-.93-29.62-.1-7.04.25-14.08.38-21.12.2-10.4.41-20.81.55-31.21.09-6.87-.14-13.76.12-20.62.32-8.22,1.05-16.43,1.52-24.65.15-2.53.03-5.08.03-7.63Z"/>
  <path class="cls-26" d="m649.12,722.22c-4.44-2.78-9.12-5.27-13.26-8.44-3.63-2.78-7.53-5.84-9.75-9.68-3.06-5.29-4.92-11.25-8.05-16.65-1.73-2.98-1.55-7.17-1.86-10.85-.61-7.34-4.69-13-8.73-18.65-5.43-7.58-8.58-15.76-8.63-25.25-.05-8.47,0-16.98,2.38-25.05,3.85-13.1,9.45-25.41,21.53-33.29,4.92-3.21,10.05-6.11,15.12-9.08.84-.49,1.86-.7,2.83-.92,5.7-1.29,10.56-3.99,14.77-8.09,5.6-5.45,12.33-9.37,19.61-11.88,5.66-1.96,11.73-3.13,17.7-3.75,11.49-1.18,22.74.84,32.8,6.4,10.16,5.61,19.42,12.69,25.76,22.81,4.42,7.05,9.71,13.38,16.3,18.43,4.47,3.43,8.09,7.55,10.94,12.24,3.38,5.56,6.1,11.49,6.99,18.1.34,2.49,1.16,4.92,1.77,7.38,1.73,7.07.71,13.93-1.14,20.86-2.56,9.6-8.04,17.62-13.4,25.68-2.02,3.05-4.94,5.56-7.68,8.06-2.93,2.68-4.39,6.08-5.87,9.63-2.71,6.51-5.43,13.05-8.74,19.26-2.27,4.26-6.27,7.17-10.39,9.72-1.69,1.05-3.22,2.34-4.82,3.52-.37.36-.73.73-1.1,1.09-4.43,2.03-8.77,4.34-13.33,6-3.25,1.18-6.8,1.94-10.25,2.08-7.34.31-14.72.38-22.06.03-12.45-.59-24.48-3.35-35.96-8.28-1.14-.49-2.3-.95-3.45-1.43Zm-8.21-78.04c2.38,5.46,4.25,11.23,7.25,16.33,6.34,10.81,15.59,18.57,27.81,21.7,6.14,1.58,12.77,1.93,19.15,1.77,20.29-.5,38-12.06,43.84-33.19,3.51-12.7,4.02-25.59-1.65-38.1-4.36-9.62-10.87-17.08-20.59-21.54-12.72-5.84-25.97-7.98-39.77-5.26-8.72,1.72-16.41,5.43-22.55,12.26-7.6,8.45-12.21,18.18-13.42,29.38-.55,5.1-.19,10.3-.24,15.45.05.4.11.79.16,1.19Z"/>
  <path class="cls-13" d="m657.85,394.4c.07-3.35-.28-6.78.29-10.05,1.55-8.83,7.43-14.6,15.46-17.16,12.22-3.89,24.7-7.17,37.27-9.72,10.28-2.09,20.87-2.58,31.28-4.07,18.34-2.61,36.76-1.23,55.15-1.5,4.07-.06,8.14.37,12.21.58-2.38,3.93-5.27,7.64-5.49,12.52-11.09-5.38-22.2-5.91-33.34-.16-1.41.29-2.87.43-4.23.88-4.29,1.44-8.44,3.49-12.83,4.4-6.34,1.31-11.34,4.3-14.89,9.6-4.19,6.26-5.3,15.87,4.04,20.76.63.33,1.35.68,1.76,1.23,5.35,7.24,13.03,9.44,21.48,10.26,9.11.88,17.92.47,26.13-4.22.88-.5,2.3-.31,3.42-.12,3.03.52,6.01,1.61,9.05,1.76,8.81.43,17.83,2.03,25.95-3.23,2.41-.27,5.02-.05,7.2-.91,4.28-1.69,8.61-3.56,12.38-6.13,5.97-4.08,11.58-8.71,17.17-13.31,2.21-1.82,4.05-4.11,5.89-6.32,3.16-3.8,2.67-12.59-3.04-16.16-.73-.45-1.41-.97-2.32-1.6.93-.75,1.62-1.3,2.31-1.86,9.38,3.09,18.84,5.97,28.1,9.4,3.12,1.15,5.75,3.66,8.55,5.63.94.65,1.72,1.53,2.57,2.29,5.02-4.81,10.35-7.96,17.31-8.71,6.99-.75,13.83-2.84,20.79-4.07,9.08-1.6,18.25-2.75,27.31-4.45,5.6-1.05,11.05-2.87,16.62-4.11,7.43-1.65,14.85-3.46,22.38-4.43,4.24-.55,8.77-.02,13.01.83,6.23,1.26,9.16,7.09,7.04,14.19-1.26,4.19-3.53,8.11-5.55,12.04-1.1,2.14-2.38,4.31-4.04,6.02-3.28,3.36-7.9,3.34-12.14,3.79-10.36,1.08-20.8,1.57-31.14,2.79-14.9,1.75-29.76,3.9-44.63,5.97-2.5.35-4.94,1.13-7.42,1.71-5.52,1.29-9.65,4.43-12.44,9.35.1-.89.33-1.79.27-2.67-.18-2.48-.02-5.13-.85-7.39-1.02-2.77-4-2.78-5.8-.38-.82,1.08-1.64,2.16-2.44,3.26-4.66,6.37-10.99,10.86-18.34,12.91-9.99,2.78-20.32,4.35-30.52,6.35-12.38,2.42-24.9,3.64-37.52,3.62-8.53-.02-17.05-.26-25.58-.43-9.43-.19-18.87-.34-28.3-.63-10.22-.31-20.45-.56-30.65-1.23-5.94-.38-11.87-1.28-17.73-2.37-12.53-2.33-25.01-4.96-37.51-7.42-10.6-2.09-20.35-5.3-23.62-17.35Z"/>
  <path class="cls-12" d="m657.85,394.4c3.27,12.05,13.02,15.26,23.62,17.35,12.51,2.46,24.98,5.09,37.51,7.42,5.86,1.09,11.79,1.98,17.73,2.37,10.2.66,20.43.91,30.65,1.23,9.43.29,18.87.44,28.3.63,8.53.17,17.05.41,25.58.43,12.62.03,25.14-1.2,37.52-3.62,10.2-1.99,20.53-3.57,30.52-6.35,7.36-2.05,13.68-6.54,18.34-12.91.8-1.09,1.62-2.17,2.44-3.26,1.81-2.4,4.78-2.39,5.8.38.83,2.26.67,4.91.85,7.39.06.88-.17,1.78-.27,2.67-.21.57-.62,1.14-.6,1.71.16,6.26-3.12,11.13-6.33,16.04-.73,1.12-1.36,2.31-2.04,3.46-1.83,2.88-3.67,5.77-5.5,8.65-3.2,3.56-6.4,7.11-9.58,10.69-.46.52-.77,1.16-1.15,1.75-.77.59-1.59,1.13-2.31,1.77-4.14,3.67-8.02,7.66-12.42,10.98-10.6,7.99-23.19,11.41-35.78,14.56-12.02,3.01-24.28,4.42-36.67,5.2-11.57.73-23.04.51-34.49-1.11-5.7-.81-11.36-1.86-17.04-2.76-4.18-.66-8.51-.81-12.54-1.97-7.96-2.3-15.8-5.01-23.61-7.79-10.62-3.79-20.14-9.56-28.76-16.83-2.05-1.73-4.23-3.3-6.35-4.94-2.92-3.52-5.84-7.04-8.76-10.56-2.7-3.49-5.41-6.99-8.11-10.48-2.87-4.67-6.01-9.2-8.53-14.06-3.27-6.29-2.75-12.47,1.96-18.03Z"/>
  <path class="cls-5" d="m870.16,359.89c-.69.56-1.39,1.11-2.31,1.86.9.63,1.59,1.14,2.32,1.6,5.71,3.57,6.2,12.36,3.04,16.16-1.84,2.21-3.69,4.51-5.89,6.32-5.59,4.6-11.2,9.23-17.17,13.31-3.77,2.58-8.11,4.44-12.38,6.13-2.18.86-4.78.64-7.19.91.25-.26.5-.52.75-.78,3.67-3.8,7.3-7.59,7.19-13.47-.02-.85.71-1.84,1.33-2.56,3.33-3.86,3.42-7.66.29-11.74-2.56-3.33-6.02-5.35-9.98-6.1-7.53-1.44-15.14-2.48-22.71-3.68-1.14-.94-2.27-1.89-3.41-2.83.21-4.88,3.11-8.59,5.49-12.52.75-.5,1.54-.95,2.25-1.51,5-3.9,10.59-4.43,16.5-2.79,1.66.46,2.56.03,3.67-1.3,9.08-10.95,18.13-21.93,27.48-32.64,9.79-11.21,19.82-22.2,29.93-33.13,5.6-6.06,11.43-11.92,17.43-17.59,3.28-3.11,8.85-3.14,12.76-.87,4.91,2.85,9.83,5.67,14.79,8.44,3.4,1.9,4.58,5.27,3.79,9.89-1.22,7.13-5.26,12.59-9.97,17.71-6.02,6.54-11.99,13.13-18.06,19.63-3.34,3.58-6.93,6.92-10.25,10.52-6.15,6.67-12.08,13.54-18.29,20.14-2.85,3.03-6.19,5.59-9.27,8.41-.79.73-1.4,1.65-2.1,2.48Z"/>
  <path class="cls-16" d="m215.46,495.26c2.08-.73,4.15-1.34,6.02.48-2.01-.16-4.01-.32-6.02-.48Z"/>
  <path class="cls-9" d="m539.31,384.56c0-1.46.02-2.93.03-4.39,0,1.46-.02,2.93-.03,4.39Z"/>
  <path class="cls-17" d="m377.32,496.82c.95-.14,1.91-.28,2.86-.43-.95.14-1.91.28-2.86.43Z"/>
  <path class="cls-9" d="m538.97,412.38c.18-.73.36-1.46.54-2.18-.18.73-.36,1.46-.54,2.18Z"/>
  <path class="cls-2" d="m420,85.1c-.55-.03-1.1-.07-1.64-.1.55.03,1.1.07,1.64.1Z"/>
  <path class="cls-2" d="m401.45,84.57c-.55-.03-1.09-.07-1.64-.1.55.03,1.09.07,1.64.1Z"/>
  <path class="cls-15" d="m39.79,324.55c.05.55.09,1.09.14,1.64l-.14-1.64Z"/>
  <path class="cls-9" d="m539.53,398.71c-.01-.54-.02-1.07-.03-1.61.01.54.02,1.07.03,1.61Z"/>
  <path class="cls-15" d="m538.46,268.36c-.02-.54-.03-1.08-.05-1.63.02.54.03,1.08.05,1.63Z"/>
  <path class="cls-10" d="m734.17,723.82c.37-.36.73-.73,1.1-1.09.01.33.03.66.04.99-.38.03-.76.06-1.15.1Z"/>
  <path class="cls-9" d="m539.35,379.1c0-.37,0-.74,0-1.11,0,.37,0,.74,0,1.11Z"/>
  <path class="cls-18" d="m538.94,365.48c.1-.37.2-.74.3-1.12-.1.37-.2.74-.3,1.12Z"/>
  <path class="cls-3" d="m39.84,198.55c-.02.36-.04.73-.06,1.09.02-.36.04-.73.06-1.09Z"/>
  <path class="cls-3" d="m40.39,181.09c-.01.36-.03.73-.04,1.09l.04-1.09Z"/>
  <path class="cls-16" d="m41.46,172.91c-.16.37-.33.74-.49,1.11.16-.37.33-.74.49-1.11Z"/>
  <path class="cls-24" d="m354.23,274.96c-4.91,3.37-9.67,7.01-14.77,10.06-8.36,5.01-17.83,6.94-27.23,8.95-.43.09-.9-.01-1.36-.03-.74.07-1.48.15-2.22.22-11.77-.03-23.53-.06-35.3-.09-.38-.02-.77-.03-1.15-.05-11.93-.56-23.14-3.91-34.08-8.49-6.22-2.6-12.3-5.36-17.59-9.63-.35-.28-.64-.63-.96-.95,1,.02,2.02-.11,2.99.08,9.41,1.79,17.46-.62,24.4-7.3,7.16-6.89,8.37-15.37,6.86-24.52-.88-5.31-3.58-9.68-8-13.07-4.62-3.54-9.8-5.18-15.41-6.21-9.17-1.68-21.43,3.07-26.49,10.88-4.07,6.28-5.69,13.22-4.35,20.71-3.99-7.36-6.9-15.11-8.73-23.3-2.12-9.48-2.48-19.18-1.3-28.62,1.22-9.77,4-19.34,9.01-28.17,9.42-16.59,23.15-27.82,40.67-34.97,9.8-4,19.88-6.71,30.27-8.43.58,1.32,1.32,2.59,1.72,3.97.86,2.95,2.76,4.64,5.55,5.86,5.98,2.62,12.09,1.67,18.02.53,6.31-1.22,11.8-4.52,16.49-9,14.6,2.04,27.44,8.14,39.33,16.68,10.63,7.64,18.93,17.19,24.35,29.05,2.62,5.74,4.57,11.77,4.8,18.28.2,5.92,1.3,11.82,1.51,17.74.28,7.72-1.26,15.26-3.78,22.54-1.68,4.83-3.71,9.54-5.58,14.31-.32-1.55-.59-3.11-.97-4.65-.77-3.12-.92-6.64-2.52-9.28-5.33-8.81-17.74-15.6-29.44-12.34-8.17,2.28-15.29,5.56-19.4,13.37-4.89,9.3-4.93,20.14,3.54,28.5,5.26,5.19,11.48,8.86,19.31,8.36,3.95-.25,7.89-.68,11.83-1.02Zm-56.67-48.27c3.56-2.31,4.48-3.88,3.76-6.4-.82-2.86-2.47-3.77-6.94-3.77-5.54,0-11.09,0-16.63.07-1.07.01-2.41,0-3.13.6-1.22,1.01-2.49,2.36-2.91,3.81-.59,2.04.22,4.11,2.43,4.89,1.65.58,2,1.52,1.83,3.04-.27,2.45.91,4.26,3.21,4.68,3.79.7,7.71,1.52,11.5,1.24,4.97-.37,7.43-3.82,6.89-8.16Zm23.71-26.83c1.05-.37,1.69-.49,2.22-.8,5.76-3.4,11.5-6.82,17.23-10.26,2.18-1.31,2.35-3.59.61-5.46-1.92-2.06-3.93-1.08-5.69-.09-4.81,2.7-9.52,5.58-14.22,8.47-.9.56-1.93,1.35-2.28,2.27-.44,1.16-.59,2.68-.21,3.83.3.89,1.61,1.44,2.34,2.04Zm11.51,5.77c-4.6.07-7.72,2.99-7.69,7.18.03,3.67,3.92,7.59,7.46,7.53,4.3-.07,7.31-3.41,7.25-8.02-.06-4.34-2.59-6.75-7.02-6.68Zm-101.56,7.24c-.04,3.58,3.6,7.42,7.11,7.49,4.02.08,7.68-3.47,7.74-7.51.07-4.27-2.77-7.2-7.02-7.24-4.74-.05-7.77,2.77-7.83,7.26Zm19.63-15.34c1.1-1.09,2.76-2.01,2.98-3.19.22-1.15-.69-3.23-1.7-3.77-5.41-2.9-10.98-5.51-16.57-8.08-1.89-.87-3.76-.16-4.6,1.69-.85,1.89-.39,3.81,1.65,4.88,3.36,1.76,6.75,3.49,10.18,5.11,2.43,1.14,4.95,2.08,8.06,3.37Z"/>
  <path class="cls-6" d="m184.86,442.86c1.4-1,2.8-2.01,4.2-3.01.48-.11.96-.23,1.44-.34,3.16-.12,6.31-.35,9.47-.32,4.25.04,8.5.27,12.75.42.36.01.73.03,1.09.04.63.05,1.27.13,1.9.14,15.49.3,30.97.8,46.46.86,35.5.13,71.01.05,106.51.06,8.35,0,13.57,6.72,10.91,13.98-1.54,4.21-5.39,6.73-10.49,6.74-16.53.02-33.06.05-49.59,0-18.34-.06-36.69-.14-55.03-.33-17.37-.17-34.74-.47-52.11-.76-6.35-.1-12.7-.36-19.05-.46-8.54-.14-13.33-7.45-9.98-15.31.16-.19.32-.39.48-.58h0c.35-.38.69-.76,1.04-1.14Z"/>
  <path class="cls-6" d="m227.4,386.06c-9.17-.14-18.34-.28-27.5-.41-2-.03-4-.02-6-.04-5.68-.05-10.67-6.32-10.01-10.79.76-5.16,4.13-9.7,10.21-9.82,9.72-.2,19.51-.73,29.15.13,18.71,1.66,37.43,1.28,56.16,1.46,29.32.27,58.64.59,87.96.91,5.58.06,10.03,3.91,10.1,8.61.11,7.68-3.05,11.92-9.67,11.96-17.62.11-35.25-.08-52.87-.15-4.27-.02-8.54-.02-12.81-.06-18.23-.18-36.47-.3-54.7-.6-6.12-.1-12.23-.68-18.34-1.04-.56-.04-1.13-.09-1.69-.13Z"/>
  <path class="cls-6" d="m259.37,401.99c20.26,0,40.52-.07,60.78.02,16.07.07,32.15.34,48.22.53,6.31.07,10.9,4.55,10.8,10.52-.1,5.87-4.78,10.29-11,10.25-27.61-.19-55.21-.44-82.82-.6-28.33-.16-56.67-.24-85-.32-1.07,0-2.23.05-3.21.43-5.74,2.17-11.87-2.44-13.13-7.27-1.42-5.42,2.29-11.51,7.42-12.62,2.46-.53,4.98-1.11,7.48-1.12,20.16-.09,40.31-.05,60.47-.05,0,.08,0,.16,0,.24Z"/>
  <path class="cls-21" d="m199.56,255.53c-1.33-7.49.28-14.43,4.35-20.71,5.06-7.81,17.32-12.56,26.49-10.88,5.61,1.03,10.79,2.67,15.41,6.21,4.42,3.39,7.12,7.76,8,13.07,1.51,9.15.3,17.63-6.86,24.52-6.94,6.68-14.99,9.09-24.4,7.3-.97-.18-1.99-.06-2.99-.08-6.81-1.79-12.34-5.52-16.21-11.37-1.62-2.45-2.56-5.36-3.81-8.06Z"/>
  <path class="cls-21" d="m354.23,274.96c-3.94.35-7.88.77-11.83,1.02-7.83.49-14.05-3.17-19.31-8.36-8.46-8.36-8.42-19.2-3.54-28.5,4.1-7.81,11.23-11.09,19.4-13.37,11.71-3.27,24.11,3.53,29.44,12.34,1.59,2.64,1.75,6.15,2.52,9.28.38,1.54.65,3.1.97,4.65-1.22,3.63-2.13,7.41-3.74,10.87-2.79,6.01-7.38,10.24-13.91,12.09Z"/>
  <path class="cls-11" d="m311.25,133.41c-4.69,4.47-10.18,7.78-16.49,9-5.93,1.14-12.04,2.09-18.02-.53-2.79-1.22-4.69-2.91-5.55-5.86-.4-1.37-1.13-2.65-1.72-3.97-.75-9.27,2.44-16.91,9.5-22.92,4.24-3.62,9.24-4.64,14.53-3.44,3.84.87,6.12,3.89,6.38,7.64.23,3.39,2.56,4.67,4.79,5.37,7.52,2.38,9.38,5.68,6.83,13.38-.14.43-.18.89-.26,1.33Z"/>
  <path class="cls-1" d="m380.06,337.92c-1.64,3.24-3.61,4.57-5.8,3.84-2.72-.91-3.3-2.81-2.38-8.08-1.83,1.24-3.5,2.52-5.31,3.55-3.61,2.06-7.46,2.35-11.16.45-1.2-.62-2.45-2.14-2.7-3.44-.94-4.86-.44-9.48,2.81-13.65,2.61-3.35,11.58-4.14,12.66.74.26,1.16.27,3-.41,3.59-.76.65-2.54.55-3.7.19-1.38-.43-2.49-2.03-3.98-.16-1.43,1.79-2.47,6.21-1.3,7.09.77.58,2.31.74,3.23.39,1.65-.64,3.27-1.62,4.6-2.79,2.74-2.43,3.63-2.56,6.41-.1,1.33-5.13,2.63-10.21,3.99-15.28.49-1.84,1.54-3.11,3.7-2.8,2.02.3,2.36,1.74,2.22,3.43-.11,1.42-.32,2.83-.52,4.49.71-.23,1.26-.62,1.67-.51,1.28.35,3.1.55,3.59,1.44.47.85-.11,2.71-.82,3.7-.98,1.36-2.78,2.13-3.73,3.49-.72,1.03-1.32,3.02-.8,3.83.91,1.4,2.53,1,4.07,0,.75-.48,2.92-.23,3.15.27.59,1.32,1.03,3.23.47,4.4-.52,1.08-2.34,1.92-3.7,2.12-2.01.29-4.12-.09-6.23-.19Z"/>
  <path class="cls-1" d="m128.7,332.07c-.6-.65-1.21-1.36-1.87-2.02-1.76-1.78-1.76-4.03-1.12-6.1.28-.91,1.98-2.16,2.76-1.99,2.12.46,2.81-.72,3.75-2.07,1.86-2.66,4.69-3.73,7.31-2.45,1.19.58,2.5,2.01,2.74,3.25,1.18,6.08-.68,9.6-6.29,12.57,1.59.55,2.8,1.32,3.94-.74.45-.81,2.25-1.53,3.12-1.27,1.04.31,2.26,1.61,2.51,2.69.71,2.98-1.68,5.61-4.87,5.9-4.16.38-7.98-.21-10.62-3.63-3.73,1.84-7.23,3.68-10.83,5.3-3.18,1.44-7.86.7-9.83-1.7-1.01-1.23-1.84-2.99-1.9-4.54-.21-5.89-.18-11.8,0-17.7.05-1.74.58-3.65,1.49-5.11.58-.94,2.29-1.75,3.41-1.65,1.75.16,2.24,1.74,2.12,3.52-.42,6.12-.82,12.24-1.07,18.36-.14,3.41,1.2,4.19,4.37,2.74,1.73-.79,3.35-1.91,5.14-2.48,1.73-.55,3.62-.59,5.73-.89Z"/>
  <path class="cls-1" d="m430,343.38c8.05,1.19,12.34-3.6,11.02-11.59-2.18.51-4.36,1.36-6.57,1.46-5.15.21-7.61-3.31-5.35-8.07,1.97-4.14,4.78-7.79,10.19-7.8.73,0,1.5-.5,2.16-.9,2.31-1.41,4.52-.6,5.25,2.03.29,1.04.55,2.14.53,3.2-.17,6.31.83,12.69-1.39,18.89-2.38,6.68-5.57,9.08-12.7,9.09-1.73,0-3.45.04-5.18-.02-2.49-.09-4.04-1.62-4.16-4.06-.05-1,.05-2-.02-3-.16-2.08.82-3.49,2.78-3.68,2.09-.2,3,1.34,3.24,3.26.05.36.12.71.2,1.2Z"/>
  <path class="cls-1" d="m204,334.53c-.03-8.36,1.94-15.91,8.31-21.9,3.07-2.89,6.66-2.52,10.22-2.01.82.12,2.13,2.04,1.93,2.78-.31,1.13-1.77,2.81-2.69,2.78-7.7-.24-9.26,5.53-10.8,11-.82,2.9-.81,6.08-.82,9.13,0,.86,1.07,2.21,1.92,2.48,1.13.37,2.77.3,3.77-.29,1.7-1.01,1.51-2.77-.1-3.98-.51-.38-1.05-.72-1.59-1.05-1.58-.98-2.4-2.21-1.38-4.06.98-1.79,2.55-1.9,4.23-1.31,5.79,2.04,7.91,8.32,4.59,13.48-2.2,3.42-6.71,4.59-11.97,3.1-3.74-1.06-5.56-3.66-5.61-7.97,0-.73,0-1.45,0-2.18Z"/>
  <path class="cls-1" d="m342.03,334.26c-.98,1.4-1.91,2.83-2.95,4.18-1.51,1.97-4.6,2.88-6.85,2.19-2.79-.85-3.41-2.95-3.32-5.52.16-4.86.58-9.71,4.22-13.36,1.14-1.14,3.09-1.89,4.74-2.03,2.3-.19,4.7.15,6.98.65,2.79.61,3.59,3.11,3.61,5.48.05,5.06-.13,10.14-.61,15.18-.1,1.1-1.77,2.72-2.9,2.88-1.8.26-2.93-1.34-2.91-3.19.02-2.13.33-4.26.51-6.39-.17-.03-.35-.06-.52-.08Zm-7.1-1.65c.24.15.48.3.71.45,1.29-2.28,2.59-4.57,3.88-6.85-.34-.19-.69-.38-1.03-.58-3.13,1.26-2.6,4.53-3.57,6.98Z"/>
  <path class="cls-1" d="m410.53,319.57c1.85-.94,3.83-2.33,6.03-2.97,4.5-1.31,7.53.73,7.71,5.31.17,4.42-.09,8.88-.54,13.29-.11,1.06-1.65,2.68-2.62,2.74-.94.06-2.61-1.4-2.85-2.45-.48-2.06-.23-4.29-.19-6.45.04-1.96.2-3.91.35-6.5-1.4.68-2.37.93-3.05,1.52-4.09,3.55-6.93,7.87-7.91,13.29-.13.71-.12,1.62-.56,2.06-.94.95-2.34,2.48-3.16,2.27-1.13-.3-2.67-2-2.65-3.08.03-2.57.96-5.12,1.36-7.7.48-3.03.56-6.14,1.27-9.11.32-1.37,1.49-3.04,2.7-3.53.97-.4,2.58.77,4.12,1.32Z"/>
  <path class="cls-1" d="m243.6,329.66c1.39.67,3.57,1.14,3.69,1.92.24,1.57-.11,3.88-1.17,4.86-2.12,1.96-4.7,3.71-7.4,4.69-4.58,1.65-10.54-3-9.68-7.65.29-1.54-.07-2.85-1.58-3.98-1.46-1.1-1.48-2.72.01-4.22.97-.98,1.48-2.42,2.47-3.37,1.3-1.24,2.74-2.53,4.37-3.18,1.23-.49,2.89-.22,4.29.05,6.35,1.2,8.01,4.74,5.09,10.6-.11.23-.15.49-.09.29Zm-1.41,1.99c-1.6.18-3.2.31-4.79.54-.74.11-1.53.29-2.12.69-.18.12.03,1.41.38,1.6.7.38,1.86.79,2.39.46,1.49-.91,2.76-2.19,4.12-3.32.04-.07.08-.15.13-.22-.03.08-.07.16-.1.24Z"/>
  <path class="cls-1" d="m300.19,317.33c-3.69,6.26-4.76,12.36-4.45,19.33,2.31-.2,4.34-.35,6.37-.55,1.73-.17,3.66-.59,4.32,1.64.69,2.3-.62,3.9-2.74,4.16-3.29.41-6.68.7-9.94.33-2.58-.3-4.13-2.23-4.16-5.21-.08-7.7.69-15.16,4.73-21.97,1.49-2.51,3.59-3.9,6.5-3.48,2.95.43,5.22,1.9,6.11,5.03.34,1.21.96,2.34,1.46,3.5.73,1.69.25,3.06-1.24,4-1.63,1.03-3.04.34-3.96-1.09-1.01-1.57-1.76-3.3-3-5.68Z"/>
  <path class="cls-1" d="m179.28,333.38c-.61-2.05-.76-4.42-1.93-6.07-1.85-2.64-2.54-5.3-2.3-8.4.21-2.8,1.66-5,4.4-5.45,2.08-.34,4.33-.25,6.4.18.88.18,2.25,1.94,2.05,2.56-.36,1.14-1.57,2.2-2.69,2.84-1.19.68-2.68.84-4.04,1.23.59,1.37,1.02,2.85,1.81,4.1,2.98,4.67,2.69,11.45-.75,14.56-2.44,2.21-6.29,2.21-8.53-.21-1.53-1.65-2.98-3.44-4.09-5.39-.44-.77-.22-2.53.39-3.12.71-.68,2.38-1.07,3.27-.7,1.24.52,2.17,1.83,3.2,2.83.53.51.99,1.09,1.49,1.64.44-.2.88-.41,1.31-.61Z"/>
  <path class="cls-1" d="m156.61,322.93c1.65,0,3-.1,4.32.02,1.84.17,3.18,1.22,3.14,3.12-.04,1.91-1.39,2.76-3.29,2.87-4.77.27-4.78.29-4.79,5.17,0,1.09-.04,2.18.06,3.27.18,1.94-.53,3.31-2.54,3.44-2.02.13-3.3-1.12-3.47-3.08-.19-2.16-.05-4.35-.07-6.53,0-.44-.08-.88-.09-1.06-1.28-.7-2.63-1.05-3.34-1.92-1.21-1.48-.29-3.72,1.95-4.46,1.78-.59,2.12-1.58,2.12-3.22,0-1.8.35-3.59.42-5.4.06-1.77.59-3.02,2.58-3.15,2.22-.15,3.2,1.25,3.37,3.11.17,1.87-.1,3.79-.18,5.69-.02.53-.09,1.06-.19,2.15Z"/>
  <path class="cls-1" d="m258.52,321.31c1.73,0,3.09-.14,4.4.03,1.83.24,3.34,1,3.29,3.24-.06,2.36-1.59,2.72-3.53,2.74-4.26.04-4.24.08-4.72,4.12-.32,2.69-.7,5.37-1.06,8.06-.27,2.01-1.37,3.14-3.45,3.04-2.21-.1-2.63-1.75-2.53-3.47.15-2.52.49-5.04.85-7.54.24-1.64.44-3.05-1.02-4.45-.6-.58-.68-2.83-.12-3.31,2.26-1.94,1.87-4.37,1.86-6.78,0-1.9-.05-3.78,2.56-3.94,2.08-.13,3.35,1.3,3.46,3.95.05,1.26,0,2.53,0,4.31Z"/>
  <path class="cls-1" d="m318.81,321.81c1.63-.53,2.99-1.01,4.37-1.41,1.99-.58,3.79-.13,4.48,1.9.73,2.15-.64,3.52-2.63,3.95-3.58.76-5.22,3.33-6.36,6.42-.69,1.86-1.21,3.78-1.89,5.65-.66,1.83-1.78,3.41-3.94,2.91-2.29-.53-2.6-2.48-2.37-4.55.54-4.82,1.05-9.65,1.6-14.47.12-1.07.12-2.3.67-3.13.5-.76,1.67-1.5,2.54-1.5.87,0,1.93.76,2.57,1.49.54.62.61,1.66.97,2.76Z"/>
  <path class="cls-1" d="m391.43,332.7c.39-2.6.77-5.65,1.32-8.66.33-1.81,1.52-3.02,3.46-2.67,1.86.34,2.63,1.72,2.52,3.62-.22,3.89-.38,7.77-.61,11.66-.04.71-.06,1.6-.47,2.08-.75.86-1.78,2.01-2.7,2.02-.92.01-2.38-1.04-2.69-1.94-.6-1.75-.55-3.72-.83-6.1Z"/>
  <path class="cls-1" d="m454.89,319.91c0-3.15-.16-6.3.09-9.43.08-.98,1.15-2.55,1.93-2.66,1.06-.15,2.96.6,3.28,1.42.74,1.95.96,4.17,1.01,6.29.04,1.59-.65,3.18-.77,4.79-.16,2.21-1.02,3.84-3.39,3.61-2.19-.21-2.86-1.95-2.14-4.01Z"/>
  <path class="cls-1" d="m458.04,342.71c-1.24-1.06-2.93-1.8-3.24-2.91-.59-2.1-2.09-4.47-.06-6.65,1.61-1.73,4-1.09,4.99,1.24.38.89.97,1.71,1.24,2.63.35,1.23.96,2.7.56,3.72-.32.84-1.96,1.16-3.49,1.97Z"/>
  <path class="cls-1" d="m170.15,312.28c0,.81.29,1.79-.07,2.39-.58.99-1.46,2.2-2.44,2.46-.8.21-2.27-.58-2.85-1.36-1.59-2.15-1.26-4.69-.19-6.9.41-.84,2.13-1.63,3.07-1.46.94.17,1.83,1.47,2.41,2.47.35.61.06,1.58.06,2.4Z"/>
  <path class="cls-1" d="m402.59,316.89c-.08,1.81-.94,2.73-2.72,2.75-2.03.03-2.71-1.27-2.74-2.97-.02-1.81,1.13-2.54,2.84-2.5,1.82.04,2.57,1.07,2.61,2.72Z"/>
  <path class="cls-7" d="m308.65,294.17c.74-.07,1.48-.15,2.22-.22-.74.07-1.48.15-2.22.22Z"/>
  <path class="cls-20" d="m227.4,386.06c.56.04,1.13.09,1.69.13-.56-.04-1.13-.09-1.69-.13Z"/>
  <path class="cls-18" d="m184.86,442.86c-.35.38-.69.76-1.04,1.14.35-.38.69-.76,1.04-1.14Z"/>
  <path class="cls-18" d="m213.82,439.65c-.36-.01-.73-.03-1.09-.04.36.01.73.03,1.09.04Z"/>
  <path class="cls-18" d="m190.51,439.51c-.48.11-.96.23-1.44.34.48-.11.96-.23,1.44-.34Z"/>
  <path class="cls-7" d="m272.2,294.03c.38.02.77.03,1.15.05-.38-.02-.77-.03-1.15-.05Z"/>
  <path class="cls-18" d="m183.82,444.01c-.16.19-.32.39-.48.58.16-.19.32-.39.48-.58Z"/>
  <path class="cls-23" d="m891.25,450.43c.38-.59.69-1.23,1.15-1.75,3.18-3.58,6.38-7.13,9.58-10.69,8.09,2.34,16.31,4.33,24.25,7.12,10.62,3.72,18.99,10.63,25.95,19.5,4.97,6.33,6.89,13.47,7.24,21.23.18,4.05.62,8.19.05,12.17-1.36,9.45-6.29,16.99-14.19,22.29-8.61,5.78-17.83,10.41-27.91,13.2-7.07,1.96-14.07,4.15-21.12,6.18-1.44.42-2.96.59-4.44.87-2.38.39-4.76.82-7.15,1.16-3.97.56-7.95,1.07-11.92,1.6-1.26.11-2.52.21-3.78.32-.56.08-1.11.16-1.67.24-1.08.09-2.16.17-3.25.25-.55.09-1.11.19-1.66.29-1.26.09-2.53.19-3.79.28-.56.09-1.11.18-1.67.27-12.59.36-25.17.72-37.76,1.09-5.61.17-11.21.53-16.82.5-16.15-.09-32.31.05-48.43-.65-10.34-.44-20.68-1.86-30.93-3.44-14.83-2.3-29.58-5.16-44.36-7.75-11.85-2.07-23.16-5.59-33.61-11.72-4.14-2.43-8.62-4.3-12.75-6.74-6.93-4.09-13.14-9.03-14.94-17.44-1.88-8.75-2.43-17.76-1.27-26.54,1.32-10.04,7.63-17.29,16.33-22.24,11.33-6.45,23.74-9.83,36.49-12.11,1.24-.22,2.46-.61,3.68-.93,2.92,3.52,5.84,7.04,8.76,10.56-2.48,2.5-5.06,4.91-7.41,7.52-4.49,4.98-6.49,10.68-4.22,17.31,2.32,6.78,7.06,11.5,13.2,14.94,12.14,6.8,25.2,11.24,38.62,14.51,22.32,5.43,45.13,6.82,68.01,7.01,8.88.07,17.77-.8,26.66-.79,16.05,0,31.89-1.62,47.44-5.52,9.69-2.43,18.25-7.08,26.16-13.32,7.82-6.17,12.66-13.15,11.43-23.63-.52-4.46-2.43-7.92-5.26-11.05-1.38-1.52-3.11-2.72-4.68-4.07Z"/>
  <path class="cls-19" d="m895.62,541.07c9.94-.38,19.88-.79,29.82-1.13,14.53-.49,28.72,2.15,42.78,5.23,6.94,1.52,13.86,3.84,20.27,6.88,4.61,2.19,8.88,5.69,12.39,9.46,5.98,6.42,4.84,14.18,2.21,21.72-.79,2.27-2.31,4.29-3.5,6.42-.46.27-.98.47-1.38.81-4.64,4.07-9.77,7.19-15.87,8.55-8.55,1.91-17.04,4.08-25.64,5.71-6.02,1.14-12.17,2.17-18.28,2.22-16.97.16-33.96-.04-50.93-.43-11.79-.27-23.41-2.01-34.73-5.48-7.19-2.2-13.45-5.83-18.22-11.8-.48-.6-1.42-.85-2.14-1.26-.25-1.5-.41-3.03-.75-4.51-2.19-9.53-.95-18.41,6.12-25.49,2.57-2.57,6.38-4.18,9.91-5.45,8.26-2.97,16.69-5.47,25.05-8.16,5.56-.64,11.12-1.25,16.68-1.95.85-.11,1.65-.6,2.48-.91.7-.13,1.4-.26,2.09-.39.54-.02,1.08-.05,1.62-.07Z"/>
  <path class="cls-8" d="m832.42,587.99c.72.41,1.66.65,2.14,1.26,4.77,5.97,11.03,9.59,18.22,11.8,11.32,3.47,22.94,5.21,34.73,5.48,16.97.38,33.95.59,50.93.43,6.1-.06,12.26-1.08,18.28-2.22,8.6-1.63,17.09-3.8,25.64-5.71,6.1-1.36,11.23-4.49,15.87-8.55.39-.35.91-.55,1.38-.81.09,9.4-4.45,16.53-11.02,22.72-5.01,4.72-10.09,9.38-14.89,14.31-6.21,6.38-14.09,8.78-22.48,9.83-19.07,2.38-38.25,2.02-57.37,1.39-5.42-.18-10.81-2.57-16.11-4.28-9.76-3.15-17.88-9.12-25.76-15.44-3.33-2.66-6.89-5.08-9.96-8.01-2.98-2.85-5.74-6.02-8.12-9.39-2.72-3.86-3.58-8.23-1.46-12.79Z"/>
  <path class="cls-15" d="m891.91,541.53c-.83.31-1.63.8-2.48.91-5.55.7-11.12,1.31-16.68,1.95,0-.37-.01-.73-.02-1.1,3.98-.53,7.95-1.03,11.92-1.6,2.39-.34,4.77-.77,7.15-1.16.03.33.06.66.1.99Z"/>
  <path class="cls-15" d="m856.92,544.93c.56-.09,1.11-.18,1.67-.27-.56.09-1.11.18-1.67.27Z"/>
  <path class="cls-15" d="m862.38,544.39c.55-.1,1.11-.19,1.66-.29-.55.1-1.11.19-1.66.29Z"/>
  <path class="cls-15" d="m867.29,543.85c.56-.08,1.11-.16,1.67-.24-.56.08-1.11.16-1.67.24Z"/>
  <path class="cls-15" d="m895.62,541.07c-.54.02-1.08.05-1.62.07.54-.02,1.08-.05,1.62-.07Z"/>
  <path class="cls-14" d="m640.75,642.99c.05-5.15-.31-10.35.24-15.45,1.21-11.21,5.82-20.94,13.42-29.38,6.14-6.83,13.83-10.54,22.55-12.26,13.79-2.72,27.05-.57,39.77,5.26,9.72,4.46,16.23,11.92,20.59,21.54,5.66,12.51,5.16,25.39,1.65,38.1-5.84,21.12-23.55,32.68-43.84,33.19-6.38.16-13.01-.19-19.15-1.77-12.22-3.13-21.47-10.9-27.81-21.7-2.99-5.1-4.87-10.87-7.25-16.33-.05-.4-.11-.79-.16-1.19Zm73.98,1.19c3.74.08,8.64-4.6,8.49-8.32-.04-.92-.73-2.25-1.48-2.59-.88-.39-2.26-.14-3.22.28-.73.32-1.21,1.3-1.7,2.05-1.93,2.93-3.99,2.89-5.8-.18-.41-.7-.55-1.76-1.14-2.12-1.12-.68-2.57-1.52-3.7-1.31-1.7.32-2.16,1.96-1.77,3.7,1.1,4.86,5.38,8.39,10.34,8.49Zm-44.69-.54c3.9.07,8.83-4.51,8.76-8.45-.02-1.01-.97-2.52-1.85-2.86-.9-.34-2.41.24-3.33.88-.82.57-1.18,1.79-1.8,2.68-1.4,1.99-2.84,1.96-4.22-.09-.61-.9-.93-2.2-1.76-2.69-1.1-.65-2.78-1.22-3.79-.81-.81.33-1.65,2.41-1.34,3.33,1.57,4.7,3.91,7.96,9.34,8Zm16.76,2.67c-3.29-.09-4.66,2.09-3.58,4.27,2.14,4.32,6.15,6.56,11.09,6.16,3.84-.31,6.32-2.65,7.76-5.92.43-.97-.11-3.09-.93-3.67-.79-.57-2.53.08-3.81.38-.42.1-.69.8-1.05,1.2-2.51,2.83-4.16,2.77-6.65,0-.97-1.08-2.23-1.9-2.83-2.4Z"/>
  <path class="cls-24" d="m640.75,642.99c.05.4.11.79.16,1.19-.05-.4-.11-.79-.16-1.19Z"/>
  <path class="cls-29" d="m807.43,367.85c7.58,1.2,15.18,2.24,22.71,3.68,3.96.76,7.42,2.78,9.98,6.1,3.14,4.08,3.05,7.87-.29,11.74-.62.72-1.35,1.71-1.33,2.56.11,5.87-3.52,9.66-7.19,13.47-.25.26-.5.52-.75.78-8.12,5.26-17.15,3.66-25.96,3.23-3.04-.15-6.02-1.24-9.05-1.76-1.12-.19-2.53-.38-3.42.12-8.21,4.68-17.02,5.1-26.13,4.22-8.45-.82-16.13-3.02-21.48-10.26-.4-.55-1.12-.9-1.76-1.23-9.34-4.89-8.22-14.51-4.04-20.76,3.55-5.3,8.55-8.28,14.89-9.6,4.39-.91,8.54-2.96,12.83-4.4,1.35-.46,2.81-.6,4.23-.88-2.93,3.17-6.49,5.96-8.63,9.59-2.93,4.99-1.59,11.15,3.6,14.18,2.24,1.31,4.83,2,7.26,2.98.39.11.78.22,1.16.33.52.09,1.04.18,1.55.27l1.17.28c.7.08,1.4.15,2.11.23.39.06.79.12,1.18.18,6.3-.11,12.61-.08,18.9-.41,1.7-.09,3.6-.93,4.96-2,2.4-1.89,5.9-2.74,6.63-6.37,1.17-5.85,1.14-11.48-3.17-16.27Z"/>
  <path class="cls-28" d="m775.63,392.21c-.52-.09-1.04-.18-1.56-.27-.39-.11-.78-.22-1.16-.33-2.43-.97-5.02-1.67-7.26-2.98-5.19-3.03-6.54-9.19-3.6-14.18,2.14-3.63,5.7-6.43,8.63-9.59,11.14-5.75,22.25-5.22,33.34.16,1.14.94,2.28,1.89,3.41,2.83,4.3,4.79,4.34,10.41,3.16,16.27-.73,3.63-4.23,4.48-6.63,6.37-1.36,1.07-3.26,1.91-4.96,2-6.29.33-12.6.3-18.9.41-.39-.06-.79-.12-1.18-.18-.7-.08-1.4-.15-2.11-.23-.39-.09-.78-.19-1.17-.28Z"/>
  <path class="cls-25" d="m891.25,450.43c1.57,1.35,3.3,2.55,4.68,4.07,2.83,3.13,4.74,6.58,5.26,11.05,1.23,10.48-3.61,17.46-11.43,23.63-7.91,6.24-16.48,10.89-26.16,13.32-15.55,3.9-31.39,5.53-47.44,5.52-8.89,0-17.78.87-26.66.79-22.88-.19-45.69-1.58-68.01-7.01-13.42-3.26-26.49-7.71-38.62-14.51-6.15-3.44-10.88-8.16-13.2-14.94-2.27-6.63-.27-12.33,4.22-17.31,2.36-2.61,4.93-5.02,7.41-7.52,2.12,1.64,4.3,3.22,6.35,4.94,8.62,7.26,18.14,13.03,28.76,16.83,7.8,2.79,15.65,5.5,23.61,7.79,4.03,1.16,8.36,1.31,12.54,1.97,5.68.9,11.35,1.95,17.04,2.76,11.45,1.62,22.92,1.83,34.49,1.11,12.38-.78,24.65-2.19,36.67-5.2,12.59-3.15,25.18-6.57,35.78-14.56,4.4-3.32,8.28-7.31,12.42-10.98.72-.64,1.54-1.18,2.31-1.77Z"/>
  <path class="cls-28" d="m297.57,226.69c.54,4.33-1.92,7.78-6.89,8.16-3.79.28-7.7-.54-11.5-1.24-2.3-.42-3.47-2.23-3.21-4.68.17-1.52-.18-2.46-1.83-3.04-2.21-.78-3.02-2.85-2.43-4.89.42-1.45,1.7-2.8,2.91-3.81.72-.6,2.06-.59,3.13-.6,5.54-.07,11.09-.07,16.63-.07,4.47,0,6.12.91,6.94,3.77.72,2.52-.2,4.1-3.76,6.4Z"/>
  <path class="cls-28" d="m321.27,199.87c-.73-.6-2.04-1.15-2.34-2.04-.38-1.15-.23-2.67.21-3.83.35-.92,1.37-1.71,2.28-2.27,4.7-2.89,9.41-5.77,14.22-8.47,1.77-.99,3.77-1.98,5.69.09,1.74,1.87,1.58,4.14-.61,5.46-5.73,3.44-11.48,6.86-17.23,10.26-.53.31-1.17.43-2.22.8Z"/>
  <path class="cls-22" d="m332.78,205.64c4.43-.07,6.96,2.34,7.02,6.68.06,4.62-2.95,7.95-7.25,8.02-3.54.06-7.42-3.87-7.46-7.53-.04-4.19,3.09-7.11,7.69-7.18Z"/>
  <path class="cls-22" d="m231.23,212.88c.06-4.49,3.09-7.31,7.83-7.26,4.25.04,7.09,2.97,7.02,7.24-.06,4.04-3.72,7.59-7.74,7.51-3.51-.07-7.15-3.91-7.11-7.49Z"/>
  <path class="cls-28" d="m250.86,197.55c-3.11-1.29-5.63-2.23-8.06-3.37-3.43-1.62-6.82-3.35-10.18-5.11-2.03-1.06-2.5-2.99-1.65-4.88.83-1.85,2.71-2.56,4.6-1.69,5.58,2.57,11.16,5.18,16.57,8.08,1.01.54,1.92,2.63,1.7,3.77-.23,1.19-1.89,2.1-2.98,3.19Z"/>
  <path class="cls-22" d="m334.94,332.62c.97-2.45.44-5.72,3.57-6.98.34.19.69.38,1.03.58-1.29,2.28-2.59,4.57-3.88,6.85-.24-.15-.48-.3-.71-.45Z"/>
  <path class="cls-22" d="m242.17,331.63c-1.36,1.13-2.63,2.41-4.12,3.32-.53.32-1.69-.08-2.39-.46-.34-.19-.56-1.48-.38-1.6.6-.4,1.38-.58,2.12-.69,1.59-.23,3.2-.37,4.79-.54,0,0-.02-.02-.02-.02Z"/>
  <path class="cls-22" d="m242.19,331.65c.03-.08.07-.16.1-.24-.04.07-.08.15-.13.22,0,0,.02.02.02.02Z"/>
  <path class="cls-22" d="m714.73,644.18c-4.96-.1-9.24-3.63-10.34-8.49-.39-1.74.07-3.38,1.77-3.7,1.13-.21,2.58.63,3.7,1.31.59.36.73,1.42,1.14,2.12,1.82,3.07,3.88,3.11,5.8.18.49-.75.97-1.74,1.7-2.05.97-.42,2.34-.67,3.22-.28.75.34,1.45,1.67,1.48,2.59.16,3.72-4.74,8.4-8.49,8.32Z"/>
  <path class="cls-22" d="m670.04,643.64c-5.43-.04-7.77-3.3-9.34-8-.31-.92.53-3,1.34-3.33,1.02-.41,2.7.16,3.79.81.83.49,1.15,1.79,1.76,2.69,1.39,2.05,2.82,2.08,4.22.09.63-.89.98-2.11,1.8-2.68.92-.64,2.43-1.22,3.33-.88.88.33,1.83,1.85,1.85,2.86.07,3.94-4.85,8.52-8.76,8.45Z"/>
  <path class="cls-22" d="m686.8,646.32c.6.5,1.86,1.32,2.83,2.4,2.49,2.78,4.13,2.84,6.65,0,.36-.41.63-1.1,1.05-1.2,1.28-.3,3.02-.94,3.81-.38.82.58,1.36,2.7.93,3.67-1.44,3.27-3.92,5.61-7.76,5.92-4.94.4-8.95-1.84-11.09-6.16-1.08-2.18.29-4.36,3.58-4.27Z"/>
  <path class="cls-24" d="m772.91,391.61c.39.11.78.22,1.16.33-.39-.11-.78-.22-1.16-.33Z"/>
  <path class="cls-24" d="m775.63,392.21c.39.09.78.19,1.17.28-.39-.09-.78-.19-1.17-.28Z"/>
  <path class="cls-24" d="m778.91,392.71c.39.06.79.12,1.18.18-.39-.06-.79-.12-1.18-.18Z"/>
</svg>