<svg width="1080" height="1350" viewBox="0 0 1080 1350" fill="none" xmlns="http://www.w3.org/2000/svg">
<rect width="1080" height="1350" fill="#F5F3EA"/>
<path d="M739.509 896.923C726.433 900.775 712.429 901.998 698.213 902.804C680.541 903.803 663.41 908.153 645.936 910.556C637.025 911.768 628.187 913.724 618.676 910.982C614.876 909.884 611.796 911.579 608.533 913.25C597.345 919.073 585.673 922.987 572.313 918.395C569.012 917.274 565.955 917.543 563.013 918.619C537.997 927.838 510.087 924.032 484.914 932.093C464.67 938.583 442.771 936.597 422.358 942.077C407.811 945.993 394.666 935.301 387.193 916.361C380.757 899.985 384.933 877.138 396.025 871.996C408.466 866.239 421.452 862.521 435.3 861.376C450.681 860.114 465.694 856.62 480.709 853.417C489.307 851.597 497.536 848.966 507.016 851.497C516.792 854.096 524.989 847.651 534.294 846.88C546.586 845.859 558.688 843.651 571.002 842.807C577.222 842.386 583.447 842.363 589.418 840.626C593.183 839.512 597.464 837.497 601.141 839.174C623.762 849.45 643.052 835.787 664.764 839.535C689.831 843.844 713.949 839.014 739.111 843.115C753.043 845.407 766.651 842.506 780.913 847.075C785.517 848.541 790.136 849.494 794.396 852.981C800.637 858.124 802.233 869.311 797.529 874.57C793.971 878.54 789.783 881.187 785.124 882.829C770.226 888.077 755.827 895.011 739.5 896.889L739.509 896.923Z" fill="#FF9966"/>
<path d="M115.88 453L140.648 385.8H149.192L173.864 453H165.32L159.176 435.72H130.568L124.328 453H115.88ZM132.968 429.192H156.776L144.872 395.976L132.968 429.192ZM183.374 453V383.88H191.438V453H183.374ZM209.551 394.824C207.951 394.824 206.607 394.312 205.519 393.288C204.495 392.2 203.983 390.856 203.983 389.256C203.983 387.72 204.495 386.44 205.519 385.416C206.607 384.392 207.951 383.88 209.551 383.88C211.087 383.88 212.399 384.392 213.487 385.416C214.575 386.44 215.119 387.72 215.119 389.256C215.119 390.856 214.575 392.2 213.487 393.288C212.399 394.312 211.087 394.824 209.551 394.824ZM205.519 453V405.384H213.583V453H205.519ZM268.87 454.152C264.902 454.152 261.606 453.48 258.982 452.136C256.358 450.792 254.406 449 253.126 446.76C251.846 444.52 251.206 442.088 251.206 439.464C251.206 434.6 253.062 430.856 256.774 428.232C260.486 425.608 265.542 424.296 271.942 424.296H284.806V423.72C284.806 419.56 283.718 416.424 281.542 414.312C279.366 412.136 276.454 411.048 272.806 411.048C269.67 411.048 266.95 411.848 264.646 413.448C262.406 414.984 260.998 417.256 260.422 420.264H252.166C252.486 416.808 253.638 413.896 255.622 411.528C257.67 409.16 260.198 407.368 263.206 406.152C266.214 404.872 269.414 404.232 272.806 404.232C279.462 404.232 284.454 406.024 287.782 409.608C291.174 413.128 292.87 417.832 292.87 423.72V453H285.67L285.19 444.456C283.846 447.144 281.862 449.448 279.238 451.368C276.678 453.224 273.222 454.152 268.87 454.152ZM270.118 447.336C273.19 447.336 275.814 446.536 277.99 444.936C280.23 443.336 281.926 441.256 283.078 438.696C284.23 436.136 284.806 433.448 284.806 430.632V430.536H272.614C267.878 430.536 264.518 431.368 262.534 433.032C260.614 434.632 259.654 436.648 259.654 439.08C259.654 441.576 260.55 443.592 262.342 445.128C264.198 446.6 266.79 447.336 270.118 447.336ZM304.968 453V405.384H312.264L312.744 413.928C314.28 410.92 316.488 408.552 319.368 406.824C322.248 405.096 325.512 404.232 329.16 404.232C334.792 404.232 339.272 405.96 342.6 409.416C345.992 412.808 347.688 418.056 347.688 425.16V453H339.624V426.024C339.624 416.104 335.528 411.144 327.336 411.144C323.24 411.144 319.816 412.648 317.064 415.656C314.376 418.6 313.032 422.824 313.032 428.328V453H304.968ZM381.505 454.152C376.769 454.152 372.609 453.064 369.025 450.888C365.505 448.712 362.753 445.736 360.769 441.96C358.849 438.184 357.889 433.896 357.889 429.096C357.889 424.296 358.881 420.04 360.865 416.328C362.849 412.552 365.601 409.608 369.121 407.496C372.641 405.32 376.801 404.232 381.601 404.232C385.505 404.232 388.961 405.032 391.969 406.632C394.977 408.232 397.313 410.472 398.977 413.352V383.88H407.041V453H399.745L398.977 445.128C397.441 447.432 395.233 449.512 392.353 451.368C389.473 453.224 385.857 454.152 381.505 454.152ZM382.369 447.144C385.569 447.144 388.385 446.408 390.817 444.936C393.313 443.4 395.233 441.288 396.577 438.6C397.985 435.912 398.689 432.776 398.689 429.192C398.689 425.608 397.985 422.472 396.577 419.784C395.233 417.096 393.313 415.016 390.817 413.544C388.385 412.008 385.569 411.24 382.369 411.24C379.233 411.24 376.417 412.008 373.921 413.544C371.489 415.016 369.569 417.096 368.161 419.784C366.817 422.472 366.145 425.608 366.145 429.192C366.145 432.776 366.817 435.912 368.161 438.6C369.569 441.288 371.489 443.4 373.921 444.936C376.417 446.408 379.233 447.144 382.369 447.144ZM445.593 453V383.88H453.657V413.544C455.257 410.6 457.529 408.328 460.473 406.728C463.417 405.064 466.617 404.232 470.073 404.232C475.577 404.232 479.993 405.96 483.321 409.416C486.649 412.808 488.313 418.056 488.313 425.16V453H480.345V426.024C480.345 416.104 476.345 411.144 468.345 411.144C464.185 411.144 460.697 412.648 457.881 415.656C455.065 418.6 453.657 422.824 453.657 428.328V453H445.593ZM505.426 394.824C503.826 394.824 502.482 394.312 501.394 393.288C500.37 392.2 499.858 390.856 499.858 389.256C499.858 387.72 500.37 386.44 501.394 385.416C502.482 384.392 503.826 383.88 505.426 383.88C506.962 383.88 508.274 384.392 509.362 385.416C510.45 386.44 510.994 387.72 510.994 389.256C510.994 390.856 510.45 392.2 509.362 393.288C508.274 394.312 506.962 394.824 505.426 394.824ZM501.394 453V405.384H509.458V453H501.394ZM541.739 454.152C536.043 454.152 531.307 452.712 527.531 449.832C523.755 446.952 521.547 443.048 520.907 438.12H529.163C529.675 440.616 530.987 442.792 533.099 444.648C535.275 446.44 538.187 447.336 541.835 447.336C545.227 447.336 547.723 446.632 549.323 445.224C550.923 443.752 551.723 442.024 551.723 440.04C551.723 437.16 550.667 435.24 548.555 434.28C546.507 433.32 543.595 432.456 539.819 431.688C537.259 431.176 534.699 430.44 532.139 429.48C529.579 428.52 527.435 427.176 525.707 425.448C523.979 423.656 523.115 421.32 523.115 418.44C523.115 414.28 524.651 410.888 527.723 408.264C530.859 405.576 535.083 404.232 540.395 404.232C545.451 404.232 549.579 405.512 552.779 408.072C556.043 410.568 557.931 414.152 558.443 418.824H550.475C550.155 416.392 549.099 414.504 547.307 413.16C545.579 411.752 543.243 411.048 540.299 411.048C537.419 411.048 535.179 411.656 533.579 412.872C532.043 414.088 531.275 415.688 531.275 417.672C531.275 419.592 532.267 421.096 534.251 422.184C536.299 423.272 539.051 424.2 542.507 424.968C545.451 425.608 548.235 426.408 550.859 427.368C553.547 428.264 555.723 429.64 557.387 431.496C559.115 433.288 559.979 435.912 559.979 439.368C560.043 443.656 558.411 447.208 555.083 450.024C551.819 452.776 547.371 454.152 541.739 454.152ZM615.721 453C611.369 453 607.945 451.944 605.449 449.832C602.953 447.72 601.705 443.912 601.705 438.408V412.2H593.449V405.384H601.705L602.761 393.96H609.769V405.384H623.785V412.2H609.769V438.408C609.769 441.416 610.377 443.464 611.593 444.552C612.809 445.576 614.953 446.088 618.025 446.088H623.017V453H615.721ZM654.126 454.152C649.582 454.152 645.55 453.128 642.03 451.08C638.51 448.968 635.726 446.056 633.678 442.344C631.694 438.632 630.702 434.248 630.702 429.192C630.702 424.2 631.694 419.848 633.678 416.136C635.662 412.36 638.414 409.448 641.934 407.4C645.518 405.288 649.646 404.232 654.318 404.232C658.926 404.232 662.894 405.288 666.222 407.4C669.614 409.448 672.206 412.168 673.998 415.56C675.79 418.952 676.686 422.6 676.686 426.504C676.686 427.208 676.654 427.912 676.59 428.616C676.59 429.32 676.59 430.12 676.59 431.016H638.67C638.862 434.664 639.694 437.704 641.166 440.136C642.702 442.504 644.59 444.296 646.83 445.512C649.134 446.728 651.566 447.336 654.126 447.336C657.454 447.336 660.238 446.568 662.478 445.032C664.718 443.496 666.35 441.416 667.374 438.792H675.342C674.062 443.208 671.598 446.888 667.95 449.832C664.366 452.712 659.758 454.152 654.126 454.152ZM654.126 411.048C650.286 411.048 646.862 412.232 643.854 414.6C640.91 416.904 639.214 420.296 638.766 424.776H668.718C668.526 420.488 667.054 417.128 664.302 414.696C661.55 412.264 658.158 411.048 654.126 411.048ZM703.214 454.152C699.246 454.152 695.95 453.48 693.326 452.136C690.702 450.792 688.75 449 687.47 446.76C686.19 444.52 685.55 442.088 685.55 439.464C685.55 434.6 687.406 430.856 691.118 428.232C694.83 425.608 699.886 424.296 706.286 424.296H719.15V423.72C719.15 419.56 718.062 416.424 715.886 414.312C713.71 412.136 710.798 411.048 707.15 411.048C704.014 411.048 701.294 411.848 698.99 413.448C696.75 414.984 695.342 417.256 694.766 420.264H686.51C686.83 416.808 687.982 413.896 689.966 411.528C692.014 409.16 694.542 407.368 697.55 406.152C700.558 404.872 703.758 404.232 707.15 404.232C713.806 404.232 718.798 406.024 722.126 409.608C725.518 413.128 727.214 417.832 727.214 423.72V453H720.014L719.534 444.456C718.19 447.144 716.206 449.448 713.582 451.368C711.022 453.224 707.566 454.152 703.214 454.152ZM704.462 447.336C707.534 447.336 710.158 446.536 712.334 444.936C714.574 443.336 716.27 441.256 717.422 438.696C718.574 436.136 719.15 433.448 719.15 430.632V430.536H706.958C702.222 430.536 698.862 431.368 696.878 433.032C694.958 434.632 693.998 436.648 693.998 439.08C693.998 441.576 694.894 443.592 696.686 445.128C698.542 446.6 701.134 447.336 704.462 447.336ZM739.312 453V405.384H746.608L747.184 412.296C748.72 409.736 750.768 407.752 753.328 406.344C755.888 404.936 758.768 404.232 761.968 404.232C765.744 404.232 768.976 405 771.664 406.536C774.416 408.072 776.528 410.408 778 413.544C779.664 410.664 781.936 408.392 784.816 406.728C787.76 405.064 790.928 404.232 794.32 404.232C800.016 404.232 804.56 405.96 807.952 409.416C811.344 412.808 813.04 418.056 813.04 425.16V453H805.072V426.024C805.072 421.096 804.08 417.384 802.096 414.888C800.112 412.392 797.264 411.144 793.552 411.144C789.712 411.144 786.512 412.648 783.952 415.656C781.456 418.6 780.208 422.824 780.208 428.328V453H772.144V426.024C772.144 421.096 771.152 417.384 769.168 414.888C767.184 412.392 764.336 411.144 760.624 411.144C756.848 411.144 753.68 412.648 751.12 415.656C748.624 418.6 747.376 422.824 747.376 428.328V453H739.312ZM137.864 569.152C132.168 569.152 127.432 567.712 123.656 564.832C119.88 561.952 117.672 558.048 117.032 553.12H125.288C125.8 555.616 127.112 557.792 129.224 559.648C131.4 561.44 134.312 562.336 137.96 562.336C141.352 562.336 143.848 561.632 145.448 560.224C147.048 558.752 147.848 557.024 147.848 555.04C147.848 552.16 146.792 550.24 144.68 549.28C142.632 548.32 139.72 547.456 135.944 546.688C133.384 546.176 130.824 545.44 128.264 544.48C125.704 543.52 123.56 542.176 121.832 540.448C120.104 538.656 119.24 536.32 119.24 533.44C119.24 529.28 120.776 525.888 123.848 523.264C126.984 520.576 131.208 519.232 136.52 519.232C141.576 519.232 145.704 520.512 148.904 523.072C152.168 525.568 154.056 529.152 154.568 533.824H146.6C146.28 531.392 145.224 529.504 143.432 528.16C141.704 526.752 139.368 526.048 136.424 526.048C133.544 526.048 131.304 526.656 129.704 527.872C128.168 529.088 127.4 530.688 127.4 532.672C127.4 534.592 128.392 536.096 130.376 537.184C132.424 538.272 135.176 539.2 138.632 539.968C141.576 540.608 144.36 541.408 146.984 542.368C149.672 543.264 151.848 544.64 153.512 546.496C155.24 548.288 156.104 550.912 156.104 554.368C156.168 558.656 154.536 562.208 151.208 565.024C147.944 567.776 143.496 569.152 137.864 569.152ZM189.032 569.152C184.488 569.152 180.456 568.128 176.936 566.08C173.416 563.968 170.632 561.056 168.584 557.344C166.6 553.632 165.608 549.248 165.608 544.192C165.608 539.2 166.6 534.848 168.584 531.136C170.568 527.36 173.32 524.448 176.84 522.4C180.424 520.288 184.552 519.232 189.224 519.232C193.832 519.232 197.8 520.288 201.128 522.4C204.52 524.448 207.112 527.168 208.904 530.56C210.696 533.952 211.592 537.6 211.592 541.504C211.592 542.208 211.56 542.912 211.496 543.616C211.496 544.32 211.496 545.12 211.496 546.016H173.576C173.768 549.664 174.6 552.704 176.072 555.136C177.608 557.504 179.496 559.296 181.736 560.512C184.04 561.728 186.472 562.336 189.032 562.336C192.36 562.336 195.144 561.568 197.384 560.032C199.624 558.496 201.256 556.416 202.28 553.792H210.248C208.968 558.208 206.504 561.888 202.856 564.832C199.272 567.712 194.664 569.152 189.032 569.152ZM189.032 526.048C185.192 526.048 181.768 527.232 178.76 529.6C175.816 531.904 174.12 535.296 173.672 539.776H203.624C203.432 535.488 201.96 532.128 199.208 529.696C196.456 527.264 193.064 526.048 189.032 526.048ZM239.503 568C235.151 568 231.727 566.944 229.231 564.832C226.735 562.72 225.487 558.912 225.487 553.408V527.2H217.23V520.384H225.487L226.543 508.96H233.551V520.384H247.567V527.2H233.551V553.408C233.551 556.416 234.159 558.464 235.375 559.552C236.591 560.576 238.735 561.088 241.807 561.088H246.799V568H239.503ZM292.818 568L278.898 520.384H286.962L297.042 557.728L308.178 520.384H317.298L328.53 557.728L338.514 520.384H346.674L332.754 568H324.498L312.786 528.736L301.074 568H292.818ZM375.22 569.152C370.676 569.152 366.644 568.128 363.124 566.08C359.604 563.968 356.82 561.056 354.772 557.344C352.788 553.632 351.796 549.248 351.796 544.192C351.796 539.2 352.788 534.848 354.772 531.136C356.756 527.36 359.508 524.448 363.028 522.4C366.612 520.288 370.74 519.232 375.411 519.232C380.02 519.232 383.988 520.288 387.316 522.4C390.708 524.448 393.3 527.168 395.092 530.56C396.884 533.952 397.78 537.6 397.78 541.504C397.78 542.208 397.748 542.912 397.684 543.616C397.684 544.32 397.684 545.12 397.684 546.016H359.764C359.956 549.664 360.788 552.704 362.26 555.136C363.796 557.504 365.684 559.296 367.924 560.512C370.228 561.728 372.66 562.336 375.22 562.336C378.548 562.336 381.332 561.568 383.572 560.032C385.812 558.496 387.444 556.416 388.468 553.792H396.436C395.156 558.208 392.692 561.888 389.044 564.832C385.46 567.712 380.852 569.152 375.22 569.152ZM375.22 526.048C371.38 526.048 367.956 527.232 364.948 529.6C362.004 531.904 360.308 535.296 359.859 539.776H389.812C389.62 535.488 388.148 532.128 385.396 529.696C382.644 527.264 379.252 526.048 375.22 526.048ZM429.876 569.152C425.332 569.152 421.3 568.128 417.78 566.08C414.26 563.968 411.476 561.056 409.428 557.344C407.444 553.632 406.452 549.248 406.452 544.192C406.452 539.2 407.444 534.848 409.428 531.136C411.412 527.36 414.164 524.448 417.684 522.4C421.268 520.288 425.396 519.232 430.068 519.232C434.676 519.232 438.644 520.288 441.972 522.4C445.364 524.448 447.956 527.168 449.748 530.56C451.54 533.952 452.436 537.6 452.436 541.504C452.436 542.208 452.404 542.912 452.34 543.616C452.34 544.32 452.34 545.12 452.34 546.016H414.42C414.612 549.664 415.444 552.704 416.916 555.136C418.452 557.504 420.34 559.296 422.58 560.512C424.884 561.728 427.316 562.336 429.876 562.336C433.204 562.336 435.988 561.568 438.228 560.032C440.468 558.496 442.1 556.416 443.124 553.792H451.092C449.812 558.208 447.348 561.888 443.7 564.832C440.116 567.712 435.508 569.152 429.876 569.152ZM429.876 526.048C426.036 526.048 422.612 527.232 419.604 529.6C416.66 531.904 414.964 535.296 414.516 539.776H444.468C444.276 535.488 442.804 532.128 440.052 529.696C437.3 527.264 433.908 526.048 429.876 526.048ZM463.124 568V498.88H471.188V540.448L490.676 520.384H500.564L479.444 541.888L503.252 568H492.98L471.188 543.328V568H463.124ZM511.499 568V498.88H519.563V568H511.499ZM537.964 589.12L549.772 563.392H546.988L528.076 520.384H536.812L552.556 557.44L569.26 520.384H577.612L546.412 589.12H537.964ZM119.624 683V635.384H126.92L127.496 642.296C129.032 639.736 131.08 637.752 133.64 636.344C136.2 634.936 139.08 634.232 142.28 634.232C146.056 634.232 149.288 635 151.976 636.536C154.728 638.072 156.84 640.408 158.312 643.544C159.976 640.664 162.248 638.392 165.128 636.728C168.072 635.064 171.24 634.232 174.632 634.232C180.328 634.232 184.872 635.96 188.264 639.416C191.656 642.808 193.352 648.056 193.352 655.16V683H185.384V656.024C185.384 651.096 184.392 647.384 182.408 644.888C180.424 642.392 177.576 641.144 173.864 641.144C170.024 641.144 166.824 642.648 164.264 645.656C161.768 648.6 160.52 652.824 160.52 658.328V683H152.456V656.024C152.456 651.096 151.464 647.384 149.48 644.888C147.496 642.392 144.648 641.144 140.936 641.144C137.16 641.144 133.992 642.648 131.432 645.656C128.936 648.6 127.688 652.824 127.688 658.328V683H119.624ZM226.907 684.152C222.363 684.152 218.331 683.128 214.811 681.08C211.291 678.968 208.507 676.056 206.459 672.344C204.475 668.632 203.483 664.248 203.483 659.192C203.483 654.2 204.475 649.848 206.459 646.136C208.443 642.36 211.195 639.448 214.715 637.4C218.299 635.288 222.427 634.232 227.099 634.232C231.707 634.232 235.675 635.288 239.003 637.4C242.395 639.448 244.987 642.168 246.779 645.56C248.571 648.952 249.467 652.6 249.467 656.504C249.467 657.208 249.435 657.912 249.371 658.616C249.371 659.32 249.371 660.12 249.371 661.016H211.451C211.643 664.664 212.475 667.704 213.947 670.136C215.483 672.504 217.371 674.296 219.611 675.512C221.915 676.728 224.347 677.336 226.907 677.336C230.235 677.336 233.019 676.568 235.259 675.032C237.499 673.496 239.131 671.416 240.155 668.792H248.123C246.843 673.208 244.379 676.888 240.731 679.832C237.147 682.712 232.539 684.152 226.907 684.152ZM226.907 641.048C223.067 641.048 219.643 642.232 216.635 644.6C213.691 646.904 211.995 650.296 211.547 654.776H241.499C241.307 650.488 239.835 647.128 237.083 644.696C234.331 642.264 230.939 641.048 226.907 641.048ZM281.563 684.152C277.019 684.152 272.987 683.128 269.467 681.08C265.947 678.968 263.163 676.056 261.115 672.344C259.131 668.632 258.139 664.248 258.139 659.192C258.139 654.2 259.131 649.848 261.115 646.136C263.099 642.36 265.851 639.448 269.371 637.4C272.955 635.288 277.083 634.232 281.755 634.232C286.363 634.232 290.331 635.288 293.659 637.4C297.051 639.448 299.643 642.168 301.435 645.56C303.227 648.952 304.123 652.6 304.123 656.504C304.123 657.208 304.091 657.912 304.027 658.616C304.027 659.32 304.027 660.12 304.027 661.016H266.107C266.299 664.664 267.131 667.704 268.603 670.136C270.139 672.504 272.027 674.296 274.267 675.512C276.571 676.728 279.003 677.336 281.563 677.336C284.891 677.336 287.675 676.568 289.915 675.032C292.155 673.496 293.787 671.416 294.811 668.792H302.779C301.499 673.208 299.035 676.888 295.387 679.832C291.803 682.712 287.195 684.152 281.563 684.152ZM281.563 641.048C277.723 641.048 274.299 642.232 271.291 644.6C268.347 646.904 266.651 650.296 266.203 654.776H296.155C295.963 650.488 294.491 647.128 291.739 644.696C288.987 642.264 285.595 641.048 281.563 641.048ZM332.034 683C327.682 683 324.258 681.944 321.762 679.832C319.266 677.72 318.018 673.912 318.018 668.408V642.2H309.762V635.384H318.018L319.074 623.96H326.082V635.384H340.098V642.2H326.082V668.408C326.082 671.416 326.69 673.464 327.906 674.552C329.122 675.576 331.266 676.088 334.338 676.088H339.33V683H332.034ZM355.239 624.824C353.639 624.824 352.295 624.312 351.207 623.288C350.183 622.2 349.671 620.856 349.671 619.256C349.671 617.72 350.183 616.44 351.207 615.416C352.295 614.392 353.639 613.88 355.239 613.88C356.775 613.88 358.087 614.392 359.175 615.416C360.263 616.44 360.807 617.72 360.807 619.256C360.807 620.856 360.263 622.2 359.175 623.288C358.087 624.312 356.775 624.824 355.239 624.824ZM351.207 683V635.384H359.271V683H351.207ZM373.312 683V635.384H380.608L381.088 643.928C382.624 640.92 384.832 638.552 387.712 636.824C390.592 635.096 393.856 634.232 397.504 634.232C403.136 634.232 407.616 635.96 410.944 639.416C414.336 642.808 416.031 648.056 416.031 655.16V683H407.968V656.024C407.968 646.104 403.872 641.144 395.68 641.144C391.584 641.144 388.16 642.648 385.408 645.656C382.72 648.6 381.376 652.824 381.376 658.328V683H373.312ZM447.065 668.024C444.377 668.024 441.913 667.672 439.673 666.968L434.873 671.48C435.577 671.992 436.441 672.44 437.465 672.824C438.553 673.144 440.089 673.464 442.073 673.784C444.057 674.04 446.841 674.328 450.425 674.648C456.825 675.096 461.401 676.568 464.153 679.064C466.905 681.56 468.281 684.824 468.281 688.856C468.281 691.608 467.513 694.232 465.977 696.728C464.505 699.224 462.201 701.272 459.065 702.872C455.993 704.472 452.025 705.272 447.161 705.272C442.873 705.272 439.065 704.696 435.737 703.544C432.409 702.456 429.817 700.76 427.961 698.456C426.105 696.216 425.177 693.368 425.177 689.912C425.177 688.12 425.657 686.168 426.617 684.056C427.577 682.008 429.369 680.056 431.993 678.2C430.585 677.624 429.369 677.016 428.345 676.376C427.385 675.672 426.489 674.904 425.657 674.072V671.864L433.817 663.8C430.041 660.6 428.153 656.376 428.153 651.128C428.153 647.992 428.889 645.144 430.361 642.584C431.833 640.024 433.977 638.008 436.793 636.536C439.609 635 443.033 634.232 447.065 634.232C449.817 634.232 452.313 634.616 454.553 635.384H472.121V641.432L463.193 641.816C465.049 644.504 465.977 647.608 465.977 651.128C465.977 654.264 465.209 657.112 463.673 659.672C462.201 662.232 460.057 664.28 457.241 665.816C454.489 667.288 451.097 668.024 447.065 668.024ZM447.065 661.4C450.457 661.4 453.145 660.536 455.129 658.808C457.177 657.016 458.201 654.456 458.201 651.128C458.201 647.864 457.177 645.368 455.129 643.64C453.145 641.848 450.457 640.952 447.065 640.952C443.609 640.952 440.857 641.848 438.809 643.64C436.825 645.368 435.833 647.864 435.833 651.128C435.833 654.456 436.825 657.016 438.809 658.808C440.857 660.536 443.609 661.4 447.065 661.4ZM433.049 689.144C433.049 692.344 434.393 694.712 437.081 696.248C439.769 697.848 443.129 698.648 447.161 698.648C451.129 698.648 454.297 697.784 456.665 696.056C459.097 694.328 460.313 692.024 460.313 689.144C460.313 687.096 459.481 685.304 457.817 683.768C456.153 682.296 453.081 681.432 448.601 681.176C445.081 680.92 442.041 680.6 439.481 680.216C436.857 681.624 435.129 683.128 434.297 684.728C433.465 686.392 433.049 687.864 433.049 689.144ZM499.458 684.152C493.762 684.152 489.026 682.712 485.25 679.832C481.474 676.952 479.266 673.048 478.626 668.12H486.882C487.394 670.616 488.706 672.792 490.818 674.648C492.994 676.44 495.906 677.336 499.554 677.336C502.946 677.336 505.442 676.632 507.042 675.224C508.642 673.752 509.442 672.024 509.442 670.04C509.442 667.16 508.386 665.24 506.274 664.28C504.226 663.32 501.314 662.456 497.538 661.688C494.978 661.176 492.418 660.44 489.858 659.48C487.298 658.52 485.154 657.176 483.426 655.448C481.698 653.656 480.834 651.32 480.834 648.44C480.834 644.28 482.37 640.888 485.442 638.264C488.578 635.576 492.802 634.232 498.114 634.232C503.17 634.232 507.298 635.512 510.498 638.072C513.762 640.568 515.65 644.152 516.162 648.824H508.194C507.874 646.392 506.818 644.504 505.026 643.16C503.298 641.752 500.962 641.048 498.018 641.048C495.138 641.048 492.898 641.656 491.298 642.872C489.762 644.088 488.994 645.688 488.994 647.672C488.994 649.592 489.986 651.096 491.97 652.184C494.018 653.272 496.77 654.2 500.226 654.968C503.17 655.608 505.954 656.408 508.578 657.368C511.266 658.264 513.442 659.64 515.106 661.496C516.834 663.288 517.698 665.912 517.698 669.368C517.762 673.656 516.13 677.208 512.802 680.024C509.538 682.776 505.09 684.152 499.458 684.152ZM573.44 683C569.088 683 565.664 681.944 563.168 679.832C560.672 677.72 559.424 673.912 559.424 668.408V642.2H551.168V635.384H559.424L560.48 623.96H567.488V635.384H581.504V642.2H567.488V668.408C567.488 671.416 568.096 673.464 569.312 674.552C570.528 675.576 572.672 676.088 575.744 676.088H580.736V683H573.44ZM612.133 684.152C607.653 684.152 603.621 683.128 600.037 681.08C596.453 679.032 593.605 676.152 591.493 672.44C589.445 668.664 588.421 664.248 588.421 659.192C588.421 654.136 589.477 649.752 591.589 646.04C593.701 642.264 596.549 639.352 600.133 637.304C603.781 635.256 607.845 634.232 612.325 634.232C616.805 634.232 620.837 635.256 624.421 637.304C628.005 639.352 630.821 642.264 632.869 646.04C634.981 649.752 636.037 654.136 636.037 659.192C636.037 664.248 634.981 668.664 632.869 672.44C630.757 676.152 627.877 679.032 624.229 681.08C620.645 683.128 616.613 684.152 612.133 684.152ZM612.133 677.24C614.885 677.24 617.445 676.568 619.813 675.224C622.181 673.88 624.101 671.864 625.573 669.176C627.045 666.488 627.781 663.16 627.781 659.192C627.781 655.224 627.045 651.896 625.573 649.208C624.165 646.52 622.277 644.504 619.909 643.16C617.541 641.816 615.013 641.144 612.325 641.144C609.573 641.144 607.013 641.816 604.645 643.16C602.277 644.504 600.357 646.52 598.885 649.208C597.413 651.896 596.677 655.224 596.677 659.192C596.677 663.16 597.413 666.488 598.885 669.176C600.357 671.864 602.245 673.88 604.549 675.224C606.917 676.568 609.445 677.24 612.133 677.24ZM675.247 683V642.2H668.047V635.384H675.247V627.128C675.247 622.52 676.399 619.16 678.703 617.048C681.007 614.936 684.367 613.88 688.783 613.88H693.583V620.792H690.031C687.599 620.792 685.871 621.304 684.847 622.328C683.823 623.288 683.311 624.952 683.311 627.32V635.384H695.023V642.2H683.311V683H675.247ZM724.445 684.152C719.965 684.152 715.933 683.128 712.349 681.08C708.765 679.032 705.917 676.152 703.805 672.44C701.757 668.664 700.733 664.248 700.733 659.192C700.733 654.136 701.789 649.752 703.901 646.04C706.013 642.264 708.861 639.352 712.445 637.304C716.093 635.256 720.157 634.232 724.637 634.232C729.117 634.232 733.149 635.256 736.733 637.304C740.317 639.352 743.133 642.264 745.181 646.04C747.293 649.752 748.349 654.136 748.349 659.192C748.349 664.248 747.293 668.664 745.181 672.44C743.069 676.152 740.189 679.032 736.541 681.08C732.957 683.128 728.925 684.152 724.445 684.152ZM724.445 677.24C727.197 677.24 729.757 676.568 732.125 675.224C734.493 673.88 736.413 671.864 737.885 669.176C739.357 666.488 740.093 663.16 740.093 659.192C740.093 655.224 739.357 651.896 737.885 649.208C736.477 646.52 734.589 644.504 732.221 643.16C729.853 641.816 727.325 641.144 724.637 641.144C721.885 641.144 719.325 641.816 716.957 643.16C714.589 644.504 712.669 646.52 711.197 649.208C709.725 651.896 708.989 655.224 708.989 659.192C708.989 663.16 709.725 666.488 711.197 669.176C712.669 671.864 714.557 673.88 716.861 675.224C719.229 676.568 721.757 677.24 724.445 677.24ZM759.562 683V613.88H767.626V683H759.562ZM780.843 683V613.88H788.907V683H780.843ZM823.82 684.152C819.34 684.152 815.308 683.128 811.724 681.08C808.14 679.032 805.292 676.152 803.18 672.44C801.132 668.664 800.108 664.248 800.108 659.192C800.108 654.136 801.164 649.752 803.276 646.04C805.388 642.264 808.236 639.352 811.82 637.304C815.468 635.256 819.532 634.232 824.012 634.232C828.492 634.232 832.524 635.256 836.108 637.304C839.692 639.352 842.508 642.264 844.556 646.04C846.668 649.752 847.724 654.136 847.724 659.192C847.724 664.248 846.668 668.664 844.556 672.44C842.444 676.152 839.564 679.032 835.916 681.08C832.332 683.128 828.3 684.152 823.82 684.152ZM823.82 677.24C826.572 677.24 829.132 676.568 831.5 675.224C833.868 673.88 835.788 671.864 837.26 669.176C838.732 666.488 839.468 663.16 839.468 659.192C839.468 655.224 838.732 651.896 837.26 649.208C835.852 646.52 833.964 644.504 831.596 643.16C829.228 641.816 826.7 641.144 824.012 641.144C821.26 641.144 818.7 641.816 816.332 643.16C813.964 644.504 812.044 646.52 810.572 649.208C809.1 651.896 808.364 655.224 808.364 659.192C808.364 663.16 809.1 666.488 810.572 669.176C812.044 671.864 813.932 673.88 816.236 675.224C818.604 676.568 821.132 677.24 823.82 677.24ZM866.755 683L852.835 635.384H860.899L870.979 672.728L882.115 635.384H891.235L902.467 672.728L912.451 635.384H920.611L906.691 683H898.435L886.723 643.736L875.011 683H866.755ZM138.44 798C134.088 798 130.664 796.944 128.168 794.832C125.672 792.72 124.424 788.912 124.424 783.408V757.2H116.168V750.384H124.424L125.48 738.96H132.488V750.384H146.504V757.2H132.488V783.408C132.488 786.416 133.096 788.464 134.312 789.552C135.528 790.576 137.672 791.088 140.744 791.088H145.736V798H138.44ZM156.749 798V728.88H164.813V758.544C166.413 755.6 168.685 753.328 171.629 751.728C174.573 750.064 177.773 749.232 181.229 749.232C186.733 749.232 191.149 750.96 194.477 754.416C197.805 757.808 199.469 763.056 199.469 770.16V798H191.501V771.024C191.501 761.104 187.501 756.144 179.501 756.144C175.341 756.144 171.853 757.648 169.037 760.656C166.221 763.6 164.813 767.824 164.813 773.328V798H156.749ZM233.095 799.152C228.551 799.152 224.519 798.128 220.999 796.08C217.479 793.968 214.695 791.056 212.647 787.344C210.663 783.632 209.671 779.248 209.671 774.192C209.671 769.2 210.663 764.848 212.647 761.136C214.631 757.36 217.383 754.448 220.903 752.4C224.487 750.288 228.615 749.232 233.286 749.232C237.895 749.232 241.863 750.288 245.191 752.4C248.583 754.448 251.175 757.168 252.967 760.56C254.759 763.952 255.655 767.6 255.655 771.504C255.655 772.208 255.623 772.912 255.559 773.616C255.559 774.32 255.559 775.12 255.559 776.016H217.639C217.831 779.664 218.663 782.704 220.135 785.136C221.671 787.504 223.559 789.296 225.799 790.512C228.103 791.728 230.535 792.336 233.095 792.336C236.423 792.336 239.207 791.568 241.447 790.032C243.687 788.496 245.319 786.416 246.343 783.792H254.311C253.031 788.208 250.567 791.888 246.919 794.832C243.335 797.712 238.727 799.152 233.095 799.152ZM233.095 756.048C229.255 756.048 225.831 757.232 222.823 759.6C219.879 761.904 218.183 765.296 217.734 769.776H247.687C247.495 765.488 246.023 762.128 243.271 759.696C240.519 757.264 237.127 756.048 233.095 756.048ZM291.749 798V750.384H299.045L299.621 757.296C301.157 754.736 303.205 752.752 305.765 751.344C308.325 749.936 311.205 749.232 314.405 749.232C318.181 749.232 321.413 750 324.101 751.536C326.853 753.072 328.965 755.408 330.437 758.544C332.101 755.664 334.373 753.392 337.253 751.728C340.197 750.064 343.365 749.232 346.757 749.232C352.453 749.232 356.997 750.96 360.389 754.416C363.781 757.808 365.477 763.056 365.477 770.16V798H357.509V771.024C357.509 766.096 356.517 762.384 354.533 759.888C352.549 757.392 349.701 756.144 345.989 756.144C342.149 756.144 338.949 757.648 336.389 760.656C333.893 763.6 332.645 767.824 332.645 773.328V798H324.581V771.024C324.581 766.096 323.589 762.384 321.605 759.888C319.621 757.392 316.773 756.144 313.061 756.144C309.285 756.144 306.117 757.648 303.557 760.656C301.061 763.6 299.813 767.824 299.813 773.328V798H291.749ZM399.032 799.152C394.488 799.152 390.456 798.128 386.936 796.08C383.416 793.968 380.632 791.056 378.584 787.344C376.6 783.632 375.608 779.248 375.608 774.192C375.608 769.2 376.6 764.848 378.584 761.136C380.568 757.36 383.32 754.448 386.84 752.4C390.424 750.288 394.552 749.232 399.224 749.232C403.832 749.232 407.8 750.288 411.128 752.4C414.52 754.448 417.112 757.168 418.904 760.56C420.696 763.952 421.592 767.6 421.592 771.504C421.592 772.208 421.56 772.912 421.496 773.616C421.496 774.32 421.496 775.12 421.496 776.016H383.576C383.768 779.664 384.6 782.704 386.072 785.136C387.608 787.504 389.496 789.296 391.736 790.512C394.04 791.728 396.472 792.336 399.032 792.336C402.36 792.336 405.144 791.568 407.384 790.032C409.624 788.496 411.256 786.416 412.28 783.792H420.248C418.968 788.208 416.504 791.888 412.856 794.832C409.272 797.712 404.664 799.152 399.032 799.152ZM399.032 756.048C395.192 756.048 391.768 757.232 388.76 759.6C385.816 761.904 384.12 765.296 383.672 769.776H413.624C413.432 765.488 411.96 762.128 409.208 759.696C406.456 757.264 403.064 756.048 399.032 756.048ZM449.503 798C445.151 798 441.727 796.944 439.231 794.832C436.735 792.72 435.487 788.912 435.487 783.408V757.2H427.23V750.384H435.487L436.543 738.96H443.551V750.384H457.567V757.2H443.551V783.408C443.551 786.416 444.159 788.464 445.375 789.552C446.591 790.576 448.735 791.088 451.807 791.088H456.799V798H449.503ZM467.812 798V728.88H475.876V758.544C477.476 755.6 479.748 753.328 482.692 751.728C485.636 750.064 488.836 749.232 492.292 749.232C497.796 749.232 502.212 750.96 505.54 754.416C508.868 757.808 510.531 763.056 510.531 770.16V798H502.564V771.024C502.564 761.104 498.564 756.144 490.564 756.144C486.404 756.144 482.916 757.648 480.1 760.656C477.284 763.6 475.876 767.824 475.876 773.328V798H467.812ZM544.445 799.152C539.965 799.152 535.933 798.128 532.349 796.08C528.765 794.032 525.917 791.152 523.805 787.44C521.757 783.664 520.733 779.248 520.733 774.192C520.733 769.136 521.789 764.752 523.901 761.04C526.013 757.264 528.861 754.352 532.445 752.304C536.093 750.256 540.157 749.232 544.637 749.232C549.117 749.232 553.149 750.256 556.733 752.304C560.317 754.352 563.133 757.264 565.181 761.04C567.293 764.752 568.349 769.136 568.349 774.192C568.349 779.248 567.293 783.664 565.181 787.44C563.069 791.152 560.189 794.032 556.541 796.08C552.957 798.128 548.925 799.152 544.445 799.152ZM544.445 792.24C547.197 792.24 549.757 791.568 552.125 790.224C554.493 788.88 556.413 786.864 557.885 784.176C559.357 781.488 560.093 778.16 560.093 774.192C560.093 770.224 559.357 766.896 557.885 764.208C556.477 761.52 554.589 759.504 552.221 758.16C549.853 756.816 547.325 756.144 544.637 756.144C541.885 756.144 539.325 756.816 536.957 758.16C534.589 759.504 532.669 761.52 531.197 764.208C529.725 766.896 528.989 770.224 528.989 774.192C528.989 778.16 529.725 781.488 531.197 784.176C532.669 786.864 534.557 788.88 536.861 790.224C539.229 791.568 541.757 792.24 544.445 792.24ZM601.161 799.152C596.426 799.152 592.266 798.064 588.682 795.888C585.162 793.712 582.41 790.736 580.426 786.96C578.506 783.184 577.546 778.896 577.546 774.096C577.546 769.296 578.538 765.04 580.522 761.328C582.506 757.552 585.258 754.608 588.778 752.496C592.298 750.32 596.458 749.232 601.258 749.232C605.162 749.232 608.618 750.032 611.626 751.632C614.634 753.232 616.97 755.472 618.634 758.352V728.88H626.698V798H619.402L618.634 790.128C617.098 792.432 614.89 794.512 612.01 796.368C609.13 798.224 605.514 799.152 601.161 799.152ZM602.026 792.144C605.226 792.144 608.042 791.408 610.474 789.936C612.97 788.4 614.89 786.288 616.234 783.6C617.642 780.912 618.346 777.776 618.346 774.192C618.346 770.608 617.642 767.472 616.234 764.784C614.89 762.096 612.97 760.016 610.474 758.544C608.042 757.008 605.226 756.24 602.026 756.24C598.89 756.24 596.074 757.008 593.578 758.544C591.146 760.016 589.226 762.096 587.818 764.784C586.474 767.472 585.802 770.608 585.802 774.192C585.802 777.776 586.474 780.912 587.818 783.6C589.226 786.288 591.146 788.4 593.578 789.936C596.074 791.408 598.89 792.144 602.026 792.144ZM661.539 799.152C657.059 799.152 653.027 798.128 649.443 796.08C645.859 794.032 643.011 791.152 640.899 787.44C638.851 783.664 637.827 779.248 637.827 774.192C637.827 769.136 638.883 764.752 640.995 761.04C643.107 757.264 645.955 754.352 649.539 752.304C653.187 750.256 657.251 749.232 661.731 749.232C666.211 749.232 670.243 750.256 673.827 752.304C677.411 754.352 680.227 757.264 682.275 761.04C684.387 764.752 685.443 769.136 685.443 774.192C685.443 779.248 684.387 783.664 682.275 787.44C680.163 791.152 677.283 794.032 673.635 796.08C670.051 798.128 666.019 799.152 661.539 799.152ZM661.539 792.24C664.291 792.24 666.851 791.568 669.219 790.224C671.587 788.88 673.507 786.864 674.979 784.176C676.451 781.488 677.187 778.16 677.187 774.192C677.187 770.224 676.451 766.896 674.979 764.208C673.571 761.52 671.683 759.504 669.315 758.16C666.947 756.816 664.419 756.144 661.731 756.144C658.979 756.144 656.419 756.816 654.051 758.16C651.683 759.504 649.763 761.52 648.291 764.208C646.819 766.896 646.083 770.224 646.083 774.192C646.083 778.16 646.819 781.488 648.291 784.176C649.763 786.864 651.651 788.88 653.955 790.224C656.323 791.568 658.851 792.24 661.539 792.24ZM696.655 798V728.88H704.719V798H696.655ZM739.633 799.152C735.153 799.152 731.121 798.128 727.537 796.08C723.953 794.032 721.105 791.152 718.993 787.44C716.945 783.664 715.921 779.248 715.921 774.192C715.921 769.136 716.977 764.752 719.089 761.04C721.201 757.264 724.049 754.352 727.633 752.304C731.281 750.256 735.345 749.232 739.825 749.232C744.305 749.232 748.337 750.256 751.921 752.304C755.505 754.352 758.321 757.264 760.369 761.04C762.481 764.752 763.537 769.136 763.537 774.192C763.537 779.248 762.481 783.664 760.369 787.44C758.257 791.152 755.377 794.032 751.729 796.08C748.145 798.128 744.113 799.152 739.633 799.152ZM739.633 792.24C742.385 792.24 744.945 791.568 747.313 790.224C749.681 788.88 751.601 786.864 753.073 784.176C754.545 781.488 755.281 778.16 755.281 774.192C755.281 770.224 754.545 766.896 753.073 764.208C751.665 761.52 749.777 759.504 747.409 758.16C745.041 756.816 742.513 756.144 739.825 756.144C737.073 756.144 734.513 756.816 732.145 758.16C729.777 759.504 727.857 761.52 726.385 764.208C724.913 766.896 724.177 770.224 724.177 774.192C724.177 778.16 724.913 781.488 726.385 784.176C727.857 786.864 729.745 788.88 732.049 790.224C734.417 791.568 736.945 792.24 739.633 792.24ZM791.503 783.024C788.815 783.024 786.351 782.672 784.111 781.968L779.311 786.48C780.015 786.992 780.879 787.44 781.903 787.824C782.991 788.144 784.527 788.464 786.511 788.784C788.495 789.04 791.279 789.328 794.863 789.648C801.263 790.096 805.839 791.568 808.591 794.064C811.343 796.56 812.719 799.824 812.719 803.856C812.719 806.608 811.951 809.232 810.415 811.728C808.943 814.224 806.639 816.272 803.503 817.872C800.431 819.472 796.463 820.272 791.599 820.272C787.311 820.272 783.503 819.696 780.174 818.544C776.847 817.456 774.255 815.76 772.398 813.456C770.543 811.216 769.615 808.368 769.615 804.912C769.615 803.12 770.095 801.168 771.055 799.056C772.015 797.008 773.807 795.056 776.431 793.2C775.023 792.624 773.807 792.016 772.783 791.376C771.823 790.672 770.927 789.904 770.095 789.072V786.864L778.255 778.8C774.479 775.6 772.591 771.376 772.591 766.128C772.591 762.992 773.327 760.144 774.799 757.584C776.271 755.024 778.415 753.008 781.231 751.536C784.047 750 787.471 749.232 791.503 749.232C794.255 749.232 796.751 749.616 798.991 750.384H816.559V756.432L807.631 756.816C809.487 759.504 810.415 762.608 810.415 766.128C810.415 769.264 809.647 772.112 808.111 774.672C806.639 777.232 804.495 779.28 801.679 780.816C798.927 782.288 795.535 783.024 791.503 783.024ZM791.503 776.4C794.895 776.4 797.583 775.536 799.567 773.808C801.615 772.016 802.639 769.456 802.639 766.128C802.639 762.864 801.615 760.368 799.567 758.64C797.583 756.848 794.895 755.952 791.503 755.952C788.047 755.952 785.295 756.848 783.247 758.64C781.263 760.368 780.271 762.864 780.271 766.128C780.271 769.456 781.263 772.016 783.247 773.808C785.295 775.536 788.047 776.4 791.503 776.4ZM777.487 804.144C777.487 807.344 778.831 809.712 781.519 811.248C784.207 812.848 787.567 813.648 791.599 813.648C795.567 813.648 798.735 812.784 801.103 811.056C803.535 809.328 804.751 807.024 804.751 804.144C804.751 802.096 803.919 800.304 802.255 798.768C800.591 797.296 797.519 796.432 793.039 796.176C789.519 795.92 786.479 795.6 783.919 795.216C781.295 796.624 779.567 798.128 778.734 799.728C777.903 801.392 777.487 802.864 777.487 804.144ZM830.551 739.824C828.951 739.824 827.607 739.312 826.519 738.288C825.495 737.2 824.983 735.856 824.983 734.256C824.983 732.72 825.495 731.44 826.519 730.416C827.607 729.392 828.951 728.88 830.551 728.88C832.087 728.88 833.399 729.392 834.487 730.416C835.575 731.44 836.119 732.72 836.119 734.256C836.119 735.856 835.575 737.2 834.487 738.288C833.399 739.312 832.087 739.824 830.551 739.824ZM826.519 798V750.384H834.583V798H826.519ZM870.032 799.152C865.488 799.152 861.456 798.128 857.936 796.08C854.416 793.968 851.632 791.056 849.584 787.344C847.6 783.632 846.608 779.248 846.608 774.192C846.608 769.2 847.6 764.848 849.584 761.136C851.568 757.36 854.32 754.448 857.84 752.4C861.424 750.288 865.552 749.232 870.224 749.232C874.832 749.232 878.8 750.288 882.128 752.4C885.52 754.448 888.112 757.168 889.904 760.56C891.696 763.952 892.592 767.6 892.592 771.504C892.592 772.208 892.56 772.912 892.496 773.616C892.496 774.32 892.496 775.12 892.496 776.016H854.576C854.768 779.664 855.6 782.704 857.072 785.136C858.608 787.504 860.496 789.296 862.736 790.512C865.04 791.728 867.472 792.336 870.032 792.336C873.36 792.336 876.144 791.568 878.384 790.032C880.624 788.496 882.256 786.416 883.28 783.792H891.248C889.968 788.208 887.504 791.888 883.856 794.832C880.272 797.712 875.664 799.152 870.032 799.152ZM870.032 756.048C866.192 756.048 862.768 757.232 859.76 759.6C856.816 761.904 855.12 765.296 854.672 769.776H884.624C884.432 765.488 882.96 762.128 880.208 759.696C877.456 757.264 874.064 756.048 870.032 756.048ZM921.52 799.152C915.824 799.152 911.088 797.712 907.312 794.832C903.536 791.952 901.328 788.048 900.688 783.12H908.944C909.456 785.616 910.768 787.792 912.88 789.648C915.056 791.44 917.968 792.336 921.616 792.336C925.008 792.336 927.504 791.632 929.104 790.224C930.704 788.752 931.504 787.024 931.504 785.04C931.504 782.16 930.448 780.24 928.336 779.28C926.288 778.32 923.376 777.456 919.6 776.688C917.04 776.176 914.48 775.44 911.92 774.48C909.36 773.52 907.216 772.176 905.488 770.448C903.76 768.656 902.896 766.32 902.896 763.44C902.896 759.28 904.432 755.888 907.504 753.264C910.64 750.576 914.864 749.232 920.176 749.232C925.232 749.232 929.36 750.512 932.56 753.072C935.824 755.568 937.712 759.152 938.224 763.824H930.256C929.936 761.392 928.88 759.504 927.088 758.16C925.36 756.752 923.024 756.048 920.08 756.048C917.2 756.048 914.96 756.656 913.36 757.872C911.824 759.088 911.056 760.688 911.056 762.672C911.056 764.592 912.048 766.096 914.032 767.184C916.08 768.272 918.832 769.2 922.288 769.968C925.232 770.608 928.016 771.408 930.64 772.368C933.328 773.264 935.504 774.64 937.168 776.496C938.896 778.288 939.76 780.912 939.76 784.368C939.824 788.656 938.192 792.208 934.864 795.024C931.6 797.776 927.152 799.152 921.52 799.152ZM137.864 914.152C132.168 914.152 127.432 912.712 123.656 909.832C119.88 906.952 117.672 903.048 117.032 898.12H125.288C125.8 900.616 127.112 902.792 129.224 904.648C131.4 906.44 134.312 907.336 137.96 907.336C141.352 907.336 143.848 906.632 145.448 905.224C147.048 903.752 147.848 902.024 147.848 900.04C147.848 897.16 146.792 895.24 144.68 894.28C142.632 893.32 139.72 892.456 135.944 891.688C133.384 891.176 130.824 890.44 128.264 889.48C125.704 888.52 123.56 887.176 121.832 885.448C120.104 883.656 119.24 881.32 119.24 878.44C119.24 874.28 120.776 870.888 123.848 868.264C126.984 865.576 131.208 864.232 136.52 864.232C141.576 864.232 145.704 865.512 148.904 868.072C152.168 870.568 154.056 874.152 154.568 878.824H146.6C146.28 876.392 145.224 874.504 143.432 873.16C141.704 871.752 139.368 871.048 136.424 871.048C133.544 871.048 131.304 871.656 129.704 872.872C128.168 874.088 127.4 875.688 127.4 877.672C127.4 879.592 128.392 881.096 130.376 882.184C132.424 883.272 135.176 884.2 138.632 884.968C141.576 885.608 144.36 886.408 146.984 887.368C149.672 888.264 151.848 889.64 153.512 891.496C155.24 893.288 156.104 895.912 156.104 899.368C156.168 903.656 154.536 907.208 151.208 910.024C147.944 912.776 143.496 914.152 137.864 914.152ZM189.032 914.152C184.488 914.152 180.456 913.128 176.936 911.08C173.416 908.968 170.632 906.056 168.584 902.344C166.6 898.632 165.608 894.248 165.608 889.192C165.608 884.2 166.6 879.848 168.584 876.136C170.568 872.36 173.32 869.448 176.84 867.4C180.424 865.288 184.552 864.232 189.224 864.232C193.832 864.232 197.8 865.288 201.128 867.4C204.52 869.448 207.112 872.168 208.904 875.56C210.696 878.952 211.592 882.6 211.592 886.504C211.592 887.208 211.56 887.912 211.496 888.616C211.496 889.32 211.496 890.12 211.496 891.016H173.576C173.768 894.664 174.6 897.704 176.072 900.136C177.608 902.504 179.496 904.296 181.736 905.512C184.04 906.728 186.472 907.336 189.032 907.336C192.36 907.336 195.144 906.568 197.384 905.032C199.624 903.496 201.256 901.416 202.28 898.792H210.248C208.968 903.208 206.504 906.888 202.856 909.832C199.272 912.712 194.664 914.152 189.032 914.152ZM189.032 871.048C185.192 871.048 181.768 872.232 178.76 874.6C175.816 876.904 174.12 880.296 173.672 884.776H203.624C203.432 880.488 201.96 877.128 199.208 874.696C196.456 872.264 193.064 871.048 189.032 871.048ZM239.503 913C235.151 913 231.727 911.944 229.231 909.832C226.735 907.72 225.487 903.912 225.487 898.408V872.2H217.23V865.384H225.487L226.543 853.96H233.551V865.384H247.567V872.2H233.551V898.408C233.551 901.416 234.159 903.464 235.375 904.552C236.591 905.576 238.735 906.088 241.807 906.088H246.799V913H239.503ZM288.114 854.824C286.514 854.824 285.17 854.312 284.082 853.288C283.058 852.2 282.546 850.856 282.546 849.256C282.546 847.72 283.058 846.44 284.082 845.416C285.17 844.392 286.514 843.88 288.114 843.88C289.65 843.88 290.962 844.392 292.05 845.416C293.138 846.44 293.682 847.72 293.682 849.256C293.682 850.856 293.138 852.2 292.05 853.288C290.962 854.312 289.65 854.824 288.114 854.824ZM284.082 913V865.384H292.146V913H284.082ZM306.187 913V865.384H313.483L313.963 873.928C315.499 870.92 317.707 868.552 320.587 866.824C323.467 865.096 326.731 864.232 330.379 864.232C336.011 864.232 340.491 865.96 343.819 869.416C347.211 872.808 348.906 878.056 348.906 885.16V913H340.843V886.024C340.843 876.104 336.747 871.144 328.555 871.144C324.459 871.144 321.035 872.648 318.283 875.656C315.595 878.6 314.251 882.824 314.251 888.328V913H306.187ZM382.69 867.208L391.33 845.8H397.09L391.714 867.208H382.69ZM423.098 913V852.424H403.034V845.8H451.226V852.424H431.162V913H423.098ZM455.155 913V865.384H462.451L463.123 874.504C464.595 871.368 466.835 868.872 469.843 867.016C472.851 865.16 476.563 864.232 480.979 864.232V872.68H478.771C475.955 872.68 473.363 873.192 470.995 874.216C468.627 875.176 466.739 876.84 465.331 879.208C463.923 881.576 463.219 884.84 463.219 889V913H455.155ZM505.87 914.152C501.902 914.152 498.606 913.48 495.982 912.136C493.358 910.792 491.406 909 490.126 906.76C488.846 904.52 488.206 902.088 488.206 899.464C488.206 894.6 490.062 890.856 493.774 888.232C497.486 885.608 502.542 884.296 508.942 884.296H521.806V883.72C521.806 879.56 520.718 876.424 518.542 874.312C516.366 872.136 513.454 871.048 509.806 871.048C506.67 871.048 503.95 871.848 501.646 873.448C499.406 874.984 497.998 877.256 497.422 880.264H489.166C489.486 876.808 490.638 873.896 492.622 871.528C494.67 869.16 497.198 867.368 500.206 866.152C503.214 864.872 506.414 864.232 509.806 864.232C516.462 864.232 521.454 866.024 524.782 869.608C528.174 873.128 529.87 877.832 529.87 883.72V913H522.67L522.19 904.456C520.846 907.144 518.862 909.448 516.238 911.368C513.678 913.224 510.222 914.152 505.87 914.152ZM507.118 907.336C510.19 907.336 512.814 906.536 514.99 904.936C517.23 903.336 518.926 901.256 520.078 898.696C521.23 896.136 521.806 893.448 521.806 890.632V890.536H509.614C504.878 890.536 501.518 891.368 499.534 893.032C497.614 894.632 496.654 896.648 496.654 899.08C496.654 901.576 497.55 903.592 499.342 905.128C501.198 906.6 503.79 907.336 507.118 907.336ZM563.856 914.152C559.312 914.152 555.216 913.128 551.568 911.08C547.984 908.968 545.136 906.056 543.024 902.344C540.976 898.568 539.952 894.184 539.952 889.192C539.952 884.2 540.976 879.848 543.024 876.136C545.136 872.36 547.984 869.448 551.568 867.4C555.216 865.288 559.312 864.232 563.856 864.232C569.488 864.232 574.224 865.704 578.064 868.648C581.968 871.592 584.432 875.528 585.456 880.456H577.2C576.56 877.512 574.992 875.24 572.496 873.64C570 871.976 567.088 871.144 563.76 871.144C561.072 871.144 558.544 871.816 556.176 873.16C553.808 874.504 551.888 876.52 550.416 879.208C548.944 881.896 548.208 885.224 548.208 889.192C548.208 893.16 548.944 896.488 550.416 899.176C551.888 901.864 553.808 903.912 556.176 905.32C558.544 906.664 561.072 907.336 563.76 907.336C567.088 907.336 570 906.536 572.496 904.936C574.992 903.272 576.56 900.936 577.2 897.928H585.456C584.496 902.728 582.064 906.632 578.16 909.64C574.256 912.648 569.488 914.152 563.856 914.152ZM614.221 913C609.869 913 606.445 911.944 603.949 909.832C601.453 907.72 600.205 903.912 600.205 898.408V872.2H591.949V865.384H600.205L601.261 853.96H608.269V865.384H622.285V872.2H608.269V898.408C608.269 901.416 608.877 903.464 610.093 904.552C611.309 905.576 613.453 906.088 616.525 906.088H621.517V913H614.221ZM637.426 854.824C635.826 854.824 634.482 854.312 633.394 853.288C632.37 852.2 631.858 850.856 631.858 849.256C631.858 847.72 632.37 846.44 633.394 845.416C634.482 844.392 635.826 843.88 637.426 843.88C638.962 843.88 640.274 844.392 641.362 845.416C642.45 846.44 642.994 847.72 642.994 849.256C642.994 850.856 642.45 852.2 641.362 853.288C640.274 854.312 638.962 854.824 637.426 854.824ZM633.394 913V865.384H641.458V913H633.394ZM677.195 914.152C672.715 914.152 668.683 913.128 665.099 911.08C661.515 909.032 658.667 906.152 656.555 902.44C654.507 898.664 653.483 894.248 653.483 889.192C653.483 884.136 654.539 879.752 656.651 876.04C658.763 872.264 661.611 869.352 665.195 867.304C668.843 865.256 672.907 864.232 677.387 864.232C681.867 864.232 685.899 865.256 689.483 867.304C693.067 869.352 695.883 872.264 697.931 876.04C700.043 879.752 701.099 884.136 701.099 889.192C701.099 894.248 700.043 898.664 697.931 902.44C695.819 906.152 692.939 909.032 689.291 911.08C685.707 913.128 681.675 914.152 677.195 914.152ZM677.195 907.24C679.947 907.24 682.507 906.568 684.875 905.224C687.243 903.88 689.163 901.864 690.635 899.176C692.107 896.488 692.843 893.16 692.843 889.192C692.843 885.224 692.107 881.896 690.635 879.208C689.227 876.52 687.339 874.504 684.971 873.16C682.603 871.816 680.075 871.144 677.387 871.144C674.635 871.144 672.075 871.816 669.707 873.16C667.339 874.504 665.419 876.52 663.947 879.208C662.475 881.896 661.739 885.224 661.739 889.192C661.739 893.16 662.475 896.488 663.947 899.176C665.419 901.864 667.307 903.88 669.611 905.224C671.979 906.568 674.507 907.24 677.195 907.24ZM712.312 913V865.384H719.608L720.088 873.928C721.624 870.92 723.832 868.552 726.712 866.824C729.592 865.096 732.856 864.232 736.504 864.232C742.136 864.232 746.616 865.96 749.944 869.416C753.336 872.808 755.031 878.056 755.031 885.16V913H746.968V886.024C746.968 876.104 742.872 871.144 734.68 871.144C730.584 871.144 727.16 872.648 724.408 875.656C721.72 878.6 720.376 882.824 720.376 888.328V913H712.312ZM763.793 867.208L769.361 845.8H778.385L769.553 867.208H763.793ZM790.471 913.48C788.871 913.48 787.527 912.968 786.439 911.944C785.415 910.856 784.903 909.544 784.903 908.008C784.903 906.472 785.415 905.192 786.439 904.168C787.527 903.08 788.871 902.536 790.471 902.536C792.007 902.536 793.287 903.08 794.311 904.168C795.399 905.192 795.943 906.472 795.943 908.008C795.943 909.544 795.399 910.856 794.311 911.944C793.287 912.968 792.007 913.48 790.471 913.48Z" fill="#1C1D1E"/>
</svg>
