<svg width="1080" height="1350" viewBox="0 0 1080 1350" fill="none" xmlns="http://www.w3.org/2000/svg">
<rect width="1080" height="1350" fill="#F5F3EA"/>
<path d="M114.92 547L131.432 502.2H137.128L153.576 547H147.88L143.784 535.48H124.712L120.552 547H114.92ZM126.312 531.128H142.184L134.248 508.984L126.312 531.128ZM159.916 547V500.92H165.292V547H159.916ZM177.368 508.216C176.301 508.216 175.405 507.875 174.68 507.192C173.997 506.467 173.656 505.571 173.656 504.504C173.656 503.48 173.997 502.627 174.68 501.944C175.405 501.261 176.301 500.92 177.368 500.92C178.392 500.92 179.266 501.261 179.992 501.944C180.717 502.627 181.08 503.48 181.08 504.504C181.08 505.571 180.717 506.467 179.992 507.192C179.266 507.875 178.392 508.216 177.368 508.216ZM174.68 547V515.256H180.056V547H174.68ZM218.514 547.768C214.716 547.768 211.559 546.808 209.042 544.888C206.524 542.968 205.052 540.365 204.626 537.08H210.13C210.471 538.744 211.346 540.195 212.754 541.432C214.204 542.627 216.146 543.224 218.578 543.224C220.839 543.224 222.503 542.755 223.57 541.816C224.636 540.835 225.17 539.683 225.17 538.36C225.17 536.44 224.466 535.16 223.058 534.52C221.692 533.88 219.751 533.304 217.234 532.792C215.527 532.451 213.82 531.96 212.114 531.32C210.407 530.68 208.978 529.784 207.826 528.632C206.674 527.437 206.098 525.88 206.098 523.96C206.098 521.187 207.122 518.925 209.17 517.176C211.26 515.384 214.076 514.488 217.618 514.488C220.988 514.488 223.74 515.341 225.874 517.048C228.05 518.712 229.308 521.101 229.65 524.216H224.338C224.124 522.595 223.42 521.336 222.226 520.44C221.074 519.501 219.516 519.032 217.554 519.032C215.634 519.032 214.14 519.437 213.074 520.248C212.05 521.059 211.538 522.125 211.538 523.448C211.538 524.728 212.199 525.731 213.522 526.456C214.887 527.181 216.722 527.8 219.026 528.312C220.988 528.739 222.844 529.272 224.594 529.912C226.386 530.509 227.836 531.427 228.946 532.664C230.098 533.859 230.674 535.608 230.674 537.912C230.716 540.771 229.628 543.139 227.41 545.016C225.234 546.851 222.268 547.768 218.514 547.768ZM249.46 547C246.559 547 244.276 546.296 242.612 544.888C240.948 543.48 240.116 540.941 240.116 537.272V519.8H234.612V515.256H240.116L240.82 507.64H245.492V515.256H254.836V519.8H245.492V537.272C245.492 539.277 245.897 540.643 246.708 541.368C247.519 542.051 248.948 542.392 250.996 542.392H254.324V547H249.46ZM272.226 547.768C269.581 547.768 267.383 547.32 265.634 546.424C263.885 545.528 262.583 544.333 261.73 542.84C260.877 541.347 260.45 539.725 260.45 537.976C260.45 534.733 261.687 532.237 264.162 530.488C266.637 528.739 270.007 527.864 274.274 527.864H282.85V527.48C282.85 524.707 282.125 522.616 280.674 521.208C279.223 519.757 277.282 519.032 274.85 519.032C272.759 519.032 270.946 519.565 269.41 520.632C267.917 521.656 266.978 523.171 266.594 525.176H261.09C261.303 522.872 262.071 520.931 263.394 519.352C264.759 517.773 266.445 516.579 268.45 515.768C270.455 514.915 272.589 514.488 274.85 514.488C279.287 514.488 282.615 515.683 284.834 518.072C287.095 520.419 288.226 523.555 288.226 527.48V547H283.426L283.106 541.304C282.21 543.096 280.887 544.632 279.138 545.912C277.431 547.149 275.127 547.768 272.226 547.768ZM273.058 543.224C275.106 543.224 276.855 542.691 278.306 541.624C279.799 540.557 280.93 539.171 281.698 537.464C282.466 535.757 282.85 533.965 282.85 532.088V532.024H274.722C271.565 532.024 269.325 532.579 268.002 533.688C266.722 534.755 266.082 536.099 266.082 537.72C266.082 539.384 266.679 540.728 267.874 541.752C269.111 542.733 270.839 543.224 273.058 543.224ZM296.291 547V515.256H301.155L301.603 521.336C302.584 519.245 304.078 517.581 306.083 516.344C308.088 515.107 310.563 514.488 313.507 514.488V520.12H312.035C310.158 520.12 308.43 520.461 306.851 521.144C305.272 521.784 304.014 522.893 303.075 524.472C302.136 526.051 301.667 528.227 301.667 531V547H296.291ZM332.085 547C329.184 547 326.901 546.296 325.237 544.888C323.573 543.48 322.741 540.941 322.741 537.272V519.8H317.237V515.256H322.741L323.445 507.64H328.117V515.256H337.461V519.8H328.117V537.272C328.117 539.277 328.522 540.643 329.333 541.368C330.144 542.051 331.573 542.392 333.621 542.392H336.949V547H332.085ZM357.688 547.768C354.659 547.768 351.971 547.085 349.624 545.72C347.277 544.312 345.421 542.371 344.056 539.896C342.733 537.421 342.072 534.499 342.072 531.128C342.072 527.8 342.733 524.899 344.056 522.424C345.379 519.907 347.213 517.965 349.56 516.6C351.949 515.192 354.701 514.488 357.816 514.488C360.888 514.488 363.533 515.192 365.752 516.6C368.013 517.965 369.741 519.779 370.936 522.04C372.131 524.301 372.728 526.733 372.728 529.336C372.728 529.805 372.707 530.275 372.664 530.744C372.664 531.213 372.664 531.747 372.664 532.344H347.384C347.512 534.776 348.067 536.803 349.048 538.424C350.072 540.003 351.331 541.197 352.824 542.008C354.36 542.819 355.981 543.224 357.688 543.224C359.907 543.224 361.763 542.712 363.256 541.688C364.749 540.664 365.837 539.277 366.52 537.528H371.832C370.979 540.472 369.336 542.925 366.904 544.888C364.515 546.808 361.443 547.768 357.688 547.768ZM357.688 519.032C355.128 519.032 352.845 519.821 350.84 521.4C348.877 522.936 347.747 525.197 347.448 528.184H367.416C367.288 525.325 366.307 523.085 364.472 521.464C362.637 519.843 360.376 519.032 357.688 519.032ZM394.253 547.768C391.096 547.768 388.323 547.043 385.934 545.592C383.587 544.141 381.752 542.157 380.43 539.64C379.15 537.123 378.51 534.264 378.51 531.064C378.51 527.864 379.171 525.027 380.494 522.552C381.816 520.035 383.651 518.072 385.998 516.664C388.344 515.213 391.118 514.488 394.318 514.488C396.92 514.488 399.224 515.021 401.23 516.088C403.235 517.155 404.792 518.648 405.902 520.568V500.92H411.278V547H406.414L405.902 541.752C404.878 543.288 403.406 544.675 401.486 545.912C399.566 547.149 397.155 547.768 394.253 547.768ZM394.83 543.096C396.963 543.096 398.84 542.605 400.462 541.624C402.126 540.6 403.406 539.192 404.302 537.4C405.24 535.608 405.71 533.517 405.71 531.128C405.71 528.739 405.24 526.648 404.302 524.856C403.406 523.064 402.126 521.677 400.462 520.696C398.84 519.672 396.963 519.16 394.83 519.16C392.739 519.16 390.862 519.672 389.198 520.696C387.576 521.677 386.296 523.064 385.358 524.856C384.462 526.648 384.014 528.739 384.014 531.128C384.014 533.517 384.462 535.608 385.358 537.4C386.296 539.192 387.576 540.6 389.198 541.624C390.862 542.605 392.739 543.096 394.83 543.096ZM436.979 547V515.256H441.843L442.227 519.864C443.251 518.157 444.616 516.835 446.323 515.896C448.029 514.957 449.949 514.488 452.083 514.488C454.6 514.488 456.755 515 458.547 516.024C460.381 517.048 461.789 518.605 462.771 520.696C463.88 518.776 465.395 517.261 467.315 516.152C469.277 515.043 471.389 514.488 473.651 514.488C477.448 514.488 480.477 515.64 482.739 517.944C485 520.205 486.131 523.704 486.131 528.44V547H480.819V529.016C480.819 525.731 480.157 523.256 478.835 521.592C477.512 519.928 475.613 519.096 473.139 519.096C470.579 519.096 468.445 520.099 466.739 522.104C465.075 524.067 464.243 526.883 464.243 530.552V547H458.867V529.016C458.867 525.731 458.205 523.256 456.883 521.592C455.56 519.928 453.661 519.096 451.187 519.096C448.669 519.096 446.557 520.099 444.851 522.104C443.187 524.067 442.355 526.883 442.355 530.552V547H436.979ZM504.789 547.768C502.143 547.768 499.946 547.32 498.197 546.424C496.447 545.528 495.146 544.333 494.293 542.84C493.439 541.347 493.013 539.725 493.013 537.976C493.013 534.733 494.25 532.237 496.725 530.488C499.199 528.739 502.57 527.864 506.837 527.864H515.413V527.48C515.413 524.707 514.687 522.616 513.237 521.208C511.786 519.757 509.845 519.032 507.413 519.032C505.322 519.032 503.509 519.565 501.973 520.632C500.479 521.656 499.541 523.171 499.157 525.176H493.653C493.866 522.872 494.634 520.931 495.957 519.352C497.322 517.773 499.007 516.579 501.013 515.768C503.018 514.915 505.151 514.488 507.413 514.488C511.85 514.488 515.178 515.683 517.397 518.072C519.658 520.419 520.789 523.555 520.789 527.48V547H515.989L515.669 541.304C514.773 543.096 513.45 544.632 511.701 545.912C509.994 547.149 507.69 547.768 504.789 547.768ZM505.621 543.224C507.669 543.224 509.418 542.691 510.869 541.624C512.362 540.557 513.493 539.171 514.261 537.464C515.029 535.757 515.413 533.965 515.413 532.088V532.024H507.285C504.127 532.024 501.887 532.579 500.565 533.688C499.285 534.755 498.645 536.099 498.645 537.72C498.645 539.384 499.242 540.728 500.437 541.752C501.674 542.733 503.402 543.224 505.621 543.224ZM528.854 547V500.92H534.23V528.632L547.222 515.256H553.814L539.734 529.592L555.606 547H548.758L534.23 530.552V547H528.854ZM564.368 508.216C563.301 508.216 562.405 507.875 561.68 507.192C560.997 506.467 560.656 505.571 560.656 504.504C560.656 503.48 560.997 502.627 561.68 501.944C562.405 501.261 563.301 500.92 564.368 500.92C565.392 500.92 566.266 501.261 566.992 501.944C567.717 502.627 568.08 503.48 568.08 504.504C568.08 505.571 567.717 506.467 566.992 507.192C566.266 507.875 565.392 508.216 564.368 508.216ZM561.68 547V515.256H567.056V547H561.68ZM576.416 547V515.256H581.28L581.6 520.952C582.624 518.947 584.096 517.368 586.016 516.216C587.936 515.064 590.112 514.488 592.544 514.488C596.299 514.488 599.285 515.64 601.504 517.944C603.765 520.205 604.896 523.704 604.896 528.44V547H599.52V529.016C599.52 522.403 596.789 519.096 591.328 519.096C588.597 519.096 586.315 520.099 584.48 522.104C582.688 524.067 581.792 526.883 581.792 530.552V547H576.416ZM625.585 537.016C623.793 537.016 622.15 536.781 620.657 536.312L617.457 539.32C617.926 539.661 618.502 539.96 619.185 540.216C619.91 540.429 620.934 540.643 622.257 540.856C623.58 541.027 625.436 541.219 627.825 541.432C632.092 541.731 635.142 542.712 636.977 544.376C638.812 546.04 639.729 548.216 639.729 550.904C639.729 552.739 639.217 554.488 638.193 556.152C637.212 557.816 635.676 559.181 633.585 560.248C631.537 561.315 628.892 561.848 625.649 561.848C622.79 561.848 620.252 561.464 618.033 560.696C615.814 559.971 614.086 558.84 612.849 557.304C611.612 555.811 610.993 553.912 610.993 551.608C610.993 550.413 611.313 549.112 611.953 547.704C612.593 546.339 613.788 545.037 615.537 543.8C614.598 543.416 613.788 543.011 613.105 542.584C612.465 542.115 611.868 541.603 611.313 541.048V539.576L616.753 534.2C614.236 532.067 612.977 529.251 612.977 525.752C612.977 523.661 613.468 521.763 614.449 520.056C615.43 518.349 616.86 517.005 618.737 516.024C620.614 515 622.897 514.488 625.585 514.488C627.42 514.488 629.084 514.744 630.577 515.256H642.289V519.288L636.337 519.544C637.574 521.336 638.193 523.405 638.193 525.752C638.193 527.843 637.681 529.741 636.657 531.448C635.676 533.155 634.246 534.52 632.369 535.544C630.534 536.525 628.273 537.016 625.585 537.016ZM625.585 532.6C627.846 532.6 629.638 532.024 630.961 530.872C632.326 529.677 633.009 527.971 633.009 525.752C633.009 523.576 632.326 521.912 630.961 520.76C629.638 519.565 627.846 518.968 625.585 518.968C623.281 518.968 621.446 519.565 620.081 520.76C618.758 521.912 618.097 523.576 618.097 525.752C618.097 527.971 618.758 529.677 620.081 530.872C621.446 532.024 623.281 532.6 625.585 532.6ZM616.241 551.096C616.241 553.229 617.137 554.808 618.929 555.832C620.721 556.899 622.961 557.432 625.649 557.432C628.294 557.432 630.406 556.856 631.985 555.704C633.606 554.552 634.417 553.016 634.417 551.096C634.417 549.731 633.862 548.536 632.753 547.512C631.644 546.531 629.596 545.955 626.609 545.784C624.262 545.613 622.236 545.4 620.529 545.144C618.78 546.083 617.628 547.085 617.073 548.152C616.518 549.261 616.241 550.243 616.241 551.096ZM679.883 547.768C676.854 547.768 674.123 547.085 671.691 545.72C669.302 544.312 667.403 542.371 665.995 539.896C664.63 537.379 663.947 534.456 663.947 531.128C663.947 527.8 664.63 524.899 665.995 522.424C667.403 519.907 669.302 517.965 671.691 516.6C674.123 515.192 676.854 514.488 679.883 514.488C683.638 514.488 686.795 515.469 689.355 517.432C691.958 519.395 693.6 522.019 694.283 525.304H688.779C688.352 523.341 687.307 521.827 685.643 520.76C683.979 519.651 682.038 519.096 679.819 519.096C678.027 519.096 676.342 519.544 674.763 520.44C673.184 521.336 671.904 522.68 670.923 524.472C669.942 526.264 669.451 528.483 669.451 531.128C669.451 533.773 669.942 535.992 670.923 537.784C671.904 539.576 673.184 540.941 674.763 541.88C676.342 542.776 678.027 543.224 679.819 543.224C682.038 543.224 683.979 542.691 685.643 541.624C687.307 540.515 688.352 538.957 688.779 536.952H694.283C693.643 540.152 692.022 542.755 689.419 544.76C686.816 546.765 683.638 547.768 679.883 547.768ZM701.791 547V500.92H707.167V547H701.791ZM726.539 547.768C723.893 547.768 721.696 547.32 719.947 546.424C718.197 545.528 716.896 544.333 716.043 542.84C715.189 541.347 714.763 539.725 714.763 537.976C714.763 534.733 716 532.237 718.475 530.488C720.949 528.739 724.32 527.864 728.587 527.864H737.163V527.48C737.163 524.707 736.437 522.616 734.987 521.208C733.536 519.757 731.595 519.032 729.163 519.032C727.072 519.032 725.259 519.565 723.723 520.632C722.229 521.656 721.291 523.171 720.907 525.176H715.403C715.616 522.872 716.384 520.931 717.707 519.352C719.072 517.773 720.757 516.579 722.763 515.768C724.768 514.915 726.901 514.488 729.163 514.488C733.6 514.488 736.928 515.683 739.147 518.072C741.408 520.419 742.539 523.555 742.539 527.48V547H737.739L737.419 541.304C736.523 543.096 735.2 544.632 733.451 545.912C731.744 547.149 729.44 547.768 726.539 547.768ZM727.371 543.224C729.419 543.224 731.168 542.691 732.619 541.624C734.112 540.557 735.243 539.171 736.011 537.464C736.779 535.757 737.163 533.965 737.163 532.088V532.024H729.035C725.877 532.024 723.637 532.579 722.315 533.688C721.035 534.755 720.395 536.099 720.395 537.72C720.395 539.384 720.992 540.728 722.187 541.752C723.424 542.733 725.152 543.224 727.371 543.224ZM762.764 547.768C758.966 547.768 755.809 546.808 753.292 544.888C750.774 542.968 749.302 540.365 748.876 537.08H754.38C754.721 538.744 755.596 540.195 757.004 541.432C758.454 542.627 760.396 543.224 762.828 543.224C765.089 543.224 766.753 542.755 767.82 541.816C768.886 540.835 769.42 539.683 769.42 538.36C769.42 536.44 768.716 535.16 767.308 534.52C765.942 533.88 764.001 533.304 761.484 532.792C759.777 532.451 758.07 531.96 756.364 531.32C754.657 530.68 753.228 529.784 752.076 528.632C750.924 527.437 750.348 525.88 750.348 523.96C750.348 521.187 751.372 518.925 753.42 517.176C755.51 515.384 758.326 514.488 761.868 514.488C765.238 514.488 767.99 515.341 770.124 517.048C772.3 518.712 773.558 521.101 773.9 524.216H768.588C768.374 522.595 767.67 521.336 766.476 520.44C765.324 519.501 763.766 519.032 761.804 519.032C759.884 519.032 758.39 519.437 757.324 520.248C756.3 521.059 755.788 522.125 755.788 523.448C755.788 524.728 756.449 525.731 757.772 526.456C759.137 527.181 760.972 527.8 763.276 528.312C765.238 528.739 767.094 529.272 768.844 529.912C770.636 530.509 772.086 531.427 773.196 532.664C774.348 533.859 774.924 535.608 774.924 537.912C774.966 540.771 773.878 543.139 771.66 545.016C769.484 546.851 766.518 547.768 762.764 547.768ZM794.764 547.768C790.966 547.768 787.809 546.808 785.292 544.888C782.774 542.968 781.302 540.365 780.876 537.08H786.38C786.721 538.744 787.596 540.195 789.004 541.432C790.454 542.627 792.396 543.224 794.828 543.224C797.089 543.224 798.753 542.755 799.82 541.816C800.886 540.835 801.42 539.683 801.42 538.36C801.42 536.44 800.716 535.16 799.308 534.52C797.942 533.88 796.001 533.304 793.484 532.792C791.777 532.451 790.07 531.96 788.364 531.32C786.657 530.68 785.228 529.784 784.076 528.632C782.924 527.437 782.348 525.88 782.348 523.96C782.348 521.187 783.372 518.925 785.42 517.176C787.51 515.384 790.326 514.488 793.868 514.488C797.238 514.488 799.99 515.341 802.124 517.048C804.3 518.712 805.558 521.101 805.9 524.216H800.588C800.374 522.595 799.67 521.336 798.476 520.44C797.324 519.501 795.766 519.032 793.804 519.032C791.884 519.032 790.39 519.437 789.324 520.248C788.3 521.059 787.788 522.125 787.788 523.448C787.788 524.728 788.449 525.731 789.772 526.456C791.137 527.181 792.972 527.8 795.276 528.312C797.238 528.739 799.094 529.272 800.844 529.912C802.636 530.509 804.086 531.427 805.196 532.664C806.348 533.859 806.924 535.608 806.924 537.912C806.966 540.771 805.878 543.139 803.66 545.016C801.484 546.851 798.518 547.768 794.764 547.768ZM828.876 547.768C825.846 547.768 823.158 547.085 820.812 545.72C818.465 544.312 816.609 542.371 815.244 539.896C813.921 537.421 813.26 534.499 813.26 531.128C813.26 527.8 813.921 524.899 815.244 522.424C816.566 519.907 818.401 517.965 820.748 516.6C823.137 515.192 825.889 514.488 829.003 514.488C832.076 514.488 834.721 515.192 836.94 516.6C839.201 517.965 840.929 519.779 842.124 522.04C843.318 524.301 843.916 526.733 843.916 529.336C843.916 529.805 843.894 530.275 843.852 530.744C843.852 531.213 843.852 531.747 843.852 532.344H818.572C818.7 534.776 819.254 536.803 820.236 538.424C821.26 540.003 822.518 541.197 824.012 542.008C825.548 542.819 827.169 543.224 828.876 543.224C831.094 543.224 832.95 542.712 834.444 541.688C835.937 540.664 837.025 539.277 837.708 537.528H843.02C842.166 540.472 840.524 542.925 838.092 544.888C835.702 546.808 832.63 547.768 828.876 547.768ZM828.876 519.032C826.316 519.032 824.033 519.821 822.028 521.4C820.065 522.936 818.934 525.197 818.635 528.184H838.604C838.476 525.325 837.494 523.085 835.66 521.464C833.825 519.843 831.564 519.032 828.876 519.032ZM863.201 547.768C859.404 547.768 856.246 546.808 853.729 544.888C851.212 542.968 849.74 540.365 849.313 537.08H854.817C855.158 538.744 856.033 540.195 857.441 541.432C858.892 542.627 860.833 543.224 863.265 543.224C865.526 543.224 867.19 542.755 868.257 541.816C869.324 540.835 869.857 539.683 869.857 538.36C869.857 536.44 869.153 535.16 867.745 534.52C866.38 533.88 864.438 533.304 861.921 532.792C860.214 532.451 858.508 531.96 856.801 531.32C855.094 530.68 853.665 529.784 852.513 528.632C851.361 527.437 850.785 525.88 850.785 523.96C850.785 521.187 851.809 518.925 853.857 517.176C855.948 515.384 858.764 514.488 862.305 514.488C865.676 514.488 868.428 515.341 870.561 517.048C872.737 518.712 873.996 521.101 874.337 524.216H869.025C868.812 522.595 868.108 521.336 866.913 520.44C865.761 519.501 864.204 519.032 862.241 519.032C860.321 519.032 858.828 519.437 857.761 520.248C856.737 521.059 856.225 522.125 856.225 523.448C856.225 524.728 856.886 525.731 858.209 526.456C859.574 527.181 861.409 527.8 863.713 528.312C865.676 528.739 867.532 529.272 869.281 529.912C871.073 530.509 872.524 531.427 873.633 532.664C874.785 533.859 875.361 535.608 875.361 537.912C875.404 540.771 874.316 543.139 872.097 545.016C869.921 546.851 866.956 547.768 863.201 547.768ZM131.88 624.768C128.893 624.768 126.205 624.085 123.816 622.72C121.427 621.355 119.528 619.435 118.12 616.96C116.755 614.443 116.072 611.499 116.072 608.128C116.072 604.757 116.776 601.835 118.184 599.36C119.592 596.843 121.491 594.901 123.88 593.536C126.312 592.171 129.021 591.488 132.008 591.488C134.995 591.488 137.683 592.171 140.072 593.536C142.461 594.901 144.339 596.843 145.704 599.36C147.112 601.835 147.816 604.757 147.816 608.128C147.816 611.499 147.112 614.443 145.704 616.96C144.296 619.435 142.376 621.355 139.944 622.72C137.555 624.085 134.867 624.768 131.88 624.768ZM131.88 620.16C133.715 620.16 135.421 619.712 137 618.816C138.579 617.92 139.859 616.576 140.84 614.784C141.821 612.992 142.312 610.773 142.312 608.128C142.312 605.483 141.821 603.264 140.84 601.472C139.901 599.68 138.643 598.336 137.064 597.44C135.485 596.544 133.8 596.096 132.008 596.096C130.173 596.096 128.467 596.544 126.888 597.44C125.309 598.336 124.029 599.68 123.048 601.472C122.067 603.264 121.576 605.483 121.576 608.128C121.576 610.773 122.067 612.992 123.048 614.784C124.029 616.576 125.288 617.92 126.824 618.816C128.403 619.712 130.088 620.16 131.88 620.16ZM155.291 624V592.256H160.155L160.475 597.952C161.499 595.947 162.971 594.368 164.891 593.216C166.811 592.064 168.987 591.488 171.419 591.488C175.174 591.488 178.16 592.64 180.379 594.944C182.64 597.205 183.771 600.704 183.771 605.44V624H178.395V606.016C178.395 599.403 175.664 596.096 170.203 596.096C167.472 596.096 165.19 597.099 163.355 599.104C161.563 601.067 160.667 603.883 160.667 607.552V624H155.291ZM223.446 624.768C220.16 624.768 217.302 624.171 214.87 622.976C212.438 621.781 210.56 620.117 209.238 617.984C207.915 615.851 207.254 613.376 207.254 610.56H212.885C212.885 612.309 213.291 613.931 214.102 615.424C214.912 616.875 216.086 618.048 217.622 618.944C219.2 619.797 221.142 620.224 223.446 620.224C226.475 620.224 228.822 619.499 230.486 618.048C232.15 616.597 232.982 614.784 232.982 612.608C232.982 610.816 232.598 609.387 231.83 608.32C231.062 607.211 230.016 606.315 228.694 605.632C227.414 604.949 225.92 604.352 224.214 603.84C222.55 603.328 220.8 602.752 218.966 602.112C215.51 600.917 212.95 599.445 211.286 597.696C209.622 595.904 208.79 593.579 208.79 590.72C208.747 588.331 209.302 586.219 210.454 584.384C211.606 582.507 213.227 581.056 215.318 580.032C217.451 578.965 219.968 578.432 222.87 578.432C225.728 578.432 228.203 578.965 230.294 580.032C232.427 581.099 234.07 582.571 235.222 584.448C236.416 586.325 237.035 588.459 237.078 590.848H231.446C231.446 589.611 231.126 588.395 230.486 587.2C229.846 585.963 228.864 584.96 227.542 584.192C226.262 583.424 224.64 583.04 222.678 583.04C220.246 582.997 218.24 583.616 216.662 584.896C215.126 586.176 214.358 587.947 214.358 590.208C214.358 592.128 214.891 593.6 215.958 594.624C217.067 595.648 218.603 596.501 220.566 597.184C222.528 597.824 224.79 598.571 227.35 599.424C229.483 600.192 231.403 601.088 233.11 602.112C234.816 603.136 236.139 604.459 237.078 606.08C238.059 607.701 238.55 609.771 238.55 612.288C238.55 614.421 237.995 616.448 236.886 618.368C235.776 620.245 234.091 621.781 231.83 622.976C229.611 624.171 226.816 624.768 223.446 624.768ZM245.854 624V577.92H251.23V605.632L264.222 592.256H270.814L256.734 606.592L272.606 624H265.758L251.23 607.552V624H245.854ZM281.368 585.216C280.301 585.216 279.405 584.875 278.68 584.192C277.997 583.467 277.656 582.571 277.656 581.504C277.656 580.48 277.997 579.627 278.68 578.944C279.405 578.261 280.301 577.92 281.368 577.92C282.392 577.92 283.266 578.261 283.992 578.944C284.717 579.627 285.08 580.48 285.08 581.504C285.08 582.571 284.717 583.467 283.992 584.192C283.266 584.875 282.392 585.216 281.368 585.216ZM278.68 624V592.256H284.056V624H278.68ZM293.416 624V577.92H298.792V624H293.416ZM307.604 624V577.92H312.98V624H307.604ZM333.951 624.768C330.154 624.768 326.996 623.808 324.479 621.888C321.962 619.968 320.49 617.365 320.063 614.08H325.567C325.908 615.744 326.783 617.195 328.191 618.432C329.642 619.627 331.583 620.224 334.015 620.224C336.276 620.224 337.94 619.755 339.007 618.816C340.074 617.835 340.607 616.683 340.607 615.36C340.607 613.44 339.903 612.16 338.495 611.52C337.13 610.88 335.188 610.304 332.671 609.792C330.964 609.451 329.258 608.96 327.551 608.32C325.844 607.68 324.415 606.784 323.263 605.632C322.111 604.437 321.535 602.88 321.535 600.96C321.535 598.187 322.559 595.925 324.607 594.176C326.698 592.384 329.514 591.488 333.055 591.488C336.426 591.488 339.178 592.341 341.311 594.048C343.487 595.712 344.746 598.101 345.087 601.216H339.775C339.562 599.595 338.858 598.336 337.663 597.44C336.511 596.501 334.954 596.032 332.991 596.032C331.071 596.032 329.578 596.437 328.511 597.248C327.487 598.059 326.975 599.125 326.975 600.448C326.975 601.728 327.636 602.731 328.959 603.456C330.324 604.181 332.159 604.8 334.463 605.312C336.426 605.739 338.282 606.272 340.031 606.912C341.823 607.509 343.274 608.427 344.383 609.664C345.535 610.859 346.111 612.608 346.111 614.912C346.154 617.771 345.066 620.139 342.847 622.016C340.671 623.851 337.706 624.768 333.951 624.768ZM353.791 624V577.92H359.167V597.696C360.234 595.733 361.748 594.219 363.711 593.152C365.674 592.043 367.807 591.488 370.111 591.488C373.78 591.488 376.724 592.64 378.943 594.944C381.162 597.205 382.271 600.704 382.271 605.44V624H376.959V606.016C376.959 599.403 374.292 596.096 368.959 596.096C366.186 596.096 363.86 597.099 361.983 599.104C360.106 601.067 359.167 603.883 359.167 607.552V624H353.791ZM400.976 624.768C398.331 624.768 396.133 624.32 394.384 623.424C392.635 622.528 391.333 621.333 390.48 619.84C389.627 618.347 389.2 616.725 389.2 614.976C389.2 611.733 390.437 609.237 392.912 607.488C395.387 605.739 398.757 604.864 403.024 604.864H411.6V604.48C411.6 601.707 410.875 599.616 409.424 598.208C407.973 596.757 406.032 596.032 403.6 596.032C401.509 596.032 399.696 596.565 398.16 597.632C396.667 598.656 395.728 600.171 395.344 602.176H389.84C390.053 599.872 390.821 597.931 392.144 596.352C393.509 594.773 395.195 593.579 397.2 592.768C399.205 591.915 401.339 591.488 403.6 591.488C408.037 591.488 411.365 592.683 413.584 595.072C415.845 597.419 416.976 600.555 416.976 604.48V624H412.176L411.856 618.304C410.96 620.096 409.637 621.632 407.888 622.912C406.181 624.149 403.877 624.768 400.976 624.768ZM401.808 620.224C403.856 620.224 405.605 619.691 407.056 618.624C408.549 617.557 409.68 616.171 410.448 614.464C411.216 612.757 411.6 610.965 411.6 609.088V609.024H403.472C400.315 609.024 398.075 609.579 396.752 610.688C395.472 611.755 394.832 613.099 394.832 614.72C394.832 616.384 395.429 617.728 396.624 618.752C397.861 619.733 399.589 620.224 401.808 620.224ZM425.041 624V592.256H429.905L430.353 598.336C431.334 596.245 432.828 594.581 434.833 593.344C436.838 592.107 439.313 591.488 442.257 591.488V597.12H440.785C438.908 597.12 437.18 597.461 435.601 598.144C434.022 598.784 432.764 599.893 431.825 601.472C430.886 603.051 430.417 605.227 430.417 608V624H425.041ZM461.376 624.768C458.346 624.768 455.658 624.085 453.312 622.72C450.965 621.312 449.109 619.371 447.744 616.896C446.421 614.421 445.76 611.499 445.76 608.128C445.76 604.8 446.421 601.899 447.744 599.424C449.066 596.907 450.901 594.965 453.248 593.6C455.637 592.192 458.389 591.488 461.503 591.488C464.576 591.488 467.221 592.192 469.44 593.6C471.701 594.965 473.429 596.779 474.624 599.04C475.818 601.301 476.416 603.733 476.416 606.336C476.416 606.805 476.394 607.275 476.352 607.744C476.352 608.213 476.352 608.747 476.352 609.344H451.072C451.2 611.776 451.754 613.803 452.736 615.424C453.76 617.003 455.018 618.197 456.512 619.008C458.048 619.819 459.669 620.224 461.376 620.224C463.594 620.224 465.45 619.712 466.944 618.688C468.437 617.664 469.525 616.277 470.208 614.528H475.52C474.666 617.472 473.024 619.925 470.592 621.888C468.202 623.808 465.13 624.768 461.376 624.768ZM461.376 596.032C458.816 596.032 456.533 596.821 454.528 598.4C452.565 599.936 451.434 602.197 451.135 605.184H471.104C470.976 602.325 469.994 600.085 468.16 598.464C466.325 596.843 464.064 596.032 461.376 596.032ZM511.039 624.768C508.393 624.768 506.196 624.32 504.447 623.424C502.697 622.528 501.396 621.333 500.543 619.84C499.689 618.347 499.263 616.725 499.263 614.976C499.263 611.733 500.5 609.237 502.975 607.488C505.449 605.739 508.82 604.864 513.087 604.864H521.663V604.48C521.663 601.707 520.937 599.616 519.487 598.208C518.036 596.757 516.095 596.032 513.663 596.032C511.572 596.032 509.759 596.565 508.223 597.632C506.729 598.656 505.791 600.171 505.407 602.176H499.903C500.116 599.872 500.884 597.931 502.207 596.352C503.572 594.773 505.257 593.579 507.263 592.768C509.268 591.915 511.401 591.488 513.663 591.488C518.1 591.488 521.428 592.683 523.647 595.072C525.908 597.419 527.039 600.555 527.039 604.48V624H522.239L521.919 618.304C521.023 620.096 519.7 621.632 517.951 622.912C516.244 624.149 513.94 624.768 511.039 624.768ZM511.871 620.224C513.919 620.224 515.668 619.691 517.119 618.624C518.612 617.557 519.743 616.171 520.511 614.464C521.279 612.757 521.663 610.965 521.663 609.088V609.024H513.535C510.377 609.024 508.137 609.579 506.815 610.688C505.535 611.755 504.895 613.099 504.895 614.72C504.895 616.384 505.492 617.728 506.687 618.752C507.924 619.733 509.652 620.224 511.871 620.224ZM546.773 624C543.871 624 541.589 623.296 539.925 621.888C538.261 620.48 537.429 617.941 537.429 614.272V596.8H531.924V592.256H537.429L538.133 584.64H542.805V592.256H552.149V596.8H542.805V614.272C542.805 616.277 543.21 617.643 544.021 618.368C544.831 619.051 546.261 619.392 548.309 619.392H551.637V624H546.773ZM588.46 624C585.559 624 583.276 623.296 581.612 621.888C579.948 620.48 579.116 617.941 579.116 614.272V596.8H573.612V592.256H579.116L579.82 584.64H584.492V592.256H593.836V596.8H584.492V614.272C584.492 616.277 584.897 617.643 585.708 618.368C586.519 619.051 587.948 619.392 589.996 619.392H593.324V624H588.46ZM600.666 624V577.92H606.042V597.696C607.109 595.733 608.623 594.219 610.586 593.152C612.549 592.043 614.682 591.488 616.986 591.488C620.655 591.488 623.599 592.64 625.818 594.944C628.037 597.205 629.146 600.704 629.146 605.44V624H623.834V606.016C623.834 599.403 621.167 596.096 615.834 596.096C613.061 596.096 610.735 597.099 608.858 599.104C606.981 601.067 606.042 603.883 606.042 607.552V624H600.666ZM651.563 624.768C648.534 624.768 645.846 624.085 643.499 622.72C641.152 621.312 639.296 619.371 637.931 616.896C636.608 614.421 635.947 611.499 635.947 608.128C635.947 604.8 636.608 601.899 637.931 599.424C639.254 596.907 641.088 594.965 643.435 593.6C645.824 592.192 648.576 591.488 651.691 591.488C654.763 591.488 657.408 592.192 659.627 593.6C661.888 594.965 663.616 596.779 664.811 599.04C666.006 601.301 666.603 603.733 666.603 606.336C666.603 606.805 666.582 607.275 666.539 607.744C666.539 608.213 666.539 608.747 666.539 609.344H641.259C641.387 611.776 641.942 613.803 642.923 615.424C643.947 617.003 645.206 618.197 646.699 619.008C648.235 619.819 649.856 620.224 651.563 620.224C653.782 620.224 655.638 619.712 657.131 618.688C658.624 617.664 659.712 616.277 660.395 614.528H665.707C664.854 617.472 663.211 619.925 660.779 621.888C658.39 623.808 655.318 624.768 651.563 624.768ZM651.563 596.032C649.003 596.032 646.72 596.821 644.715 598.4C642.752 599.936 641.622 602.197 641.323 605.184H661.291C661.163 602.325 660.182 600.085 658.347 598.464C656.512 596.843 654.251 596.032 651.563 596.032ZM704.938 624.768C701.909 624.768 699.221 624.085 696.874 622.72C694.527 621.312 692.671 619.371 691.306 616.896C689.983 614.421 689.322 611.499 689.322 608.128C689.322 604.8 689.983 601.899 691.306 599.424C692.629 596.907 694.463 594.965 696.81 593.6C699.199 592.192 701.951 591.488 705.066 591.488C708.138 591.488 710.783 592.192 713.002 593.6C715.263 594.965 716.991 596.779 718.186 599.04C719.381 601.301 719.978 603.733 719.978 606.336C719.978 606.805 719.957 607.275 719.914 607.744C719.914 608.213 719.914 608.747 719.914 609.344H694.634C694.762 611.776 695.317 613.803 696.298 615.424C697.322 617.003 698.581 618.197 700.074 619.008C701.61 619.819 703.231 620.224 704.938 620.224C707.157 620.224 709.013 619.712 710.506 618.688C711.999 617.664 713.087 616.277 713.77 614.528H719.082C718.229 617.472 716.586 619.925 714.154 621.888C711.765 623.808 708.693 624.768 704.938 624.768ZM704.938 596.032C702.378 596.032 700.095 596.821 698.09 598.4C696.127 599.936 694.997 602.197 694.698 605.184H714.666C714.538 602.325 713.557 600.085 711.722 598.464C709.887 596.843 707.626 596.032 704.938 596.032ZM727.104 624V592.256H731.968L732.288 597.952C733.312 595.947 734.784 594.368 736.704 593.216C738.624 592.064 740.8 591.488 743.232 591.488C746.986 591.488 749.973 592.64 752.192 594.944C754.453 597.205 755.583 600.704 755.583 605.44V624H750.208V606.016C750.208 599.403 747.477 596.096 742.016 596.096C739.285 596.096 737.002 597.099 735.168 599.104C733.376 601.067 732.48 603.883 732.48 607.552V624H727.104ZM778.128 624.768C774.971 624.768 772.198 624.043 769.809 622.592C767.462 621.141 765.627 619.157 764.305 616.64C763.025 614.123 762.385 611.264 762.385 608.064C762.385 604.864 763.046 602.027 764.369 599.552C765.691 597.035 767.526 595.072 769.873 593.664C772.219 592.213 774.993 591.488 778.193 591.488C780.795 591.488 783.099 592.021 785.105 593.088C787.11 594.155 788.667 595.648 789.777 597.568V577.92H795.153V624H790.289L789.777 618.752C788.753 620.288 787.281 621.675 785.361 622.912C783.441 624.149 781.03 624.768 778.128 624.768ZM778.705 620.096C780.838 620.096 782.715 619.605 784.337 618.624C786.001 617.6 787.281 616.192 788.177 614.4C789.115 612.608 789.585 610.517 789.585 608.128C789.585 605.739 789.115 603.648 788.177 601.856C787.281 600.064 786.001 598.677 784.337 597.696C782.715 596.672 780.838 596.16 778.705 596.16C776.614 596.16 774.737 596.672 773.073 597.696C771.451 598.677 770.171 600.064 769.233 601.856C768.337 603.648 767.889 605.739 767.889 608.128C767.889 610.517 768.337 612.608 769.233 614.4C770.171 616.192 771.451 617.6 773.073 618.624C774.737 619.605 776.614 620.096 778.705 620.096ZM835.318 624.768C832.331 624.768 829.643 624.085 827.254 622.72C824.864 621.355 822.966 619.435 821.558 616.96C820.192 614.443 819.51 611.499 819.51 608.128C819.51 604.757 820.214 601.835 821.622 599.36C823.03 596.843 824.928 594.901 827.318 593.536C829.75 592.171 832.459 591.488 835.446 591.488C838.432 591.488 841.12 592.171 843.51 593.536C845.899 594.901 847.776 596.843 849.142 599.36C850.55 601.835 851.254 604.757 851.254 608.128C851.254 611.499 850.55 614.443 849.142 616.96C847.734 619.435 845.814 621.355 843.382 622.72C840.992 624.085 838.304 624.768 835.318 624.768ZM835.318 620.16C837.152 620.16 838.859 619.712 840.438 618.816C842.016 617.92 843.296 616.576 844.278 614.784C845.259 612.992 845.75 610.773 845.75 608.128C845.75 605.483 845.259 603.264 844.278 601.472C843.339 599.68 842.08 598.336 840.502 597.44C838.923 596.544 837.238 596.096 835.446 596.096C833.611 596.096 831.904 596.544 830.326 597.44C828.747 598.336 827.467 599.68 826.486 601.472C825.504 603.264 825.014 605.483 825.014 608.128C825.014 610.773 825.504 612.992 826.486 614.784C827.467 616.576 828.726 617.92 830.262 618.816C831.84 619.712 833.526 620.16 835.318 620.16ZM860.457 624V596.8H855.657V592.256H860.457V586.752C860.457 583.68 861.225 581.44 862.76 580.032C864.297 578.624 866.537 577.92 869.481 577.92H872.681V582.528H870.312C868.691 582.528 867.539 582.869 866.857 583.552C866.174 584.192 865.833 585.301 865.833 586.88V592.256H873.641V596.8H865.833V624H860.457ZM117.032 701V697.224C120.061 694.835 122.92 692.424 125.608 689.992C128.339 687.517 130.749 685.085 132.84 682.696C134.973 680.307 136.637 677.96 137.832 675.656C139.069 673.352 139.688 671.133 139.688 669C139.688 667.421 139.411 665.949 138.856 664.584C138.344 663.219 137.491 662.131 136.296 661.32C135.101 660.467 133.48 660.04 131.432 660.04C129.469 660.04 127.827 660.488 126.504 661.384C125.181 662.237 124.179 663.389 123.496 664.84C122.856 666.291 122.536 667.848 122.536 669.512H117.352C117.352 666.568 117.971 664.051 119.208 661.96C120.445 659.827 122.131 658.205 124.264 657.096C126.397 655.987 128.808 655.432 131.496 655.432C135.464 655.432 138.707 656.563 141.224 658.824C143.784 661.043 145.064 664.371 145.064 668.808C145.064 671.453 144.403 674.077 143.08 676.68C141.757 679.24 140.072 681.736 138.024 684.168C135.976 686.557 133.779 688.797 131.432 690.888C129.128 692.979 126.973 694.856 124.968 696.52H146.6V701H117.032ZM171.208 701.768C167.24 701.768 163.805 700.808 160.904 698.888C158.045 696.925 155.848 694.216 154.312 690.76C152.776 687.261 152.008 683.208 152.008 678.6C152.008 673.992 152.776 669.96 154.312 666.504C155.848 663.005 158.045 660.296 160.904 658.376C163.805 656.413 167.24 655.432 171.208 655.432C175.176 655.432 178.589 656.413 181.448 658.376C184.307 660.296 186.504 663.005 188.04 666.504C189.576 669.96 190.344 673.992 190.344 678.6C190.344 683.208 189.576 687.261 188.04 690.76C186.504 694.216 184.307 696.925 181.448 698.888C178.589 700.808 175.176 701.768 171.208 701.768ZM171.208 697.032C173.811 697.032 176.136 696.307 178.184 694.856C180.275 693.363 181.896 691.251 183.048 688.52C184.243 685.747 184.84 682.44 184.84 678.6C184.84 674.76 184.243 671.475 183.048 668.744C181.896 666.013 180.275 663.923 178.184 662.472C176.136 660.979 173.811 660.232 171.208 660.232C168.563 660.232 166.216 660.979 164.168 662.472C162.12 663.923 160.499 666.013 159.304 668.744C158.109 671.475 157.512 674.76 157.512 678.6C157.512 682.44 158.109 685.747 159.304 688.52C160.499 691.251 162.12 693.363 164.168 694.856C166.216 696.307 168.563 697.032 171.208 697.032ZM202.527 701V662.216L195.295 663.816V660.104L204.319 656.2H207.967V701H202.527ZM232.208 701.768C229.392 701.768 226.981 701.213 224.976 700.104C222.97 698.995 221.37 697.523 220.176 695.688C219.024 693.811 218.32 691.741 218.064 689.48H223.056C223.482 691.912 224.506 693.789 226.128 695.112C227.749 696.435 229.797 697.096 232.272 697.096C235.685 697.096 238.522 695.517 240.784 692.36C243.045 689.16 244.261 684.189 244.432 677.448C243.408 679.453 241.765 681.203 239.504 682.696C237.285 684.147 234.597 684.872 231.44 684.872C228.922 684.872 226.533 684.275 224.272 683.08C222.01 681.885 220.176 680.221 218.768 678.088C217.36 675.912 216.656 673.373 216.656 670.472C216.656 667.955 217.274 665.544 218.512 663.24C219.792 660.936 221.584 659.059 223.888 657.608C226.192 656.157 228.944 655.432 232.144 655.432C235.386 655.432 238.117 656.051 240.336 657.288C242.554 658.483 244.325 660.104 245.648 662.152C247.013 664.2 247.994 666.504 248.592 669.064C249.232 671.581 249.552 674.163 249.552 676.808C249.552 681.757 248.869 686.109 247.504 689.864C246.138 693.576 244.154 696.499 241.552 698.632C238.992 700.723 235.877 701.768 232.208 701.768ZM232.528 680.2C234.533 680.2 236.325 679.752 237.904 678.856C239.482 677.917 240.741 676.68 241.68 675.144C242.618 673.608 243.088 671.944 243.088 670.152C243.088 668.232 242.618 666.525 241.68 665.032C240.741 663.496 239.482 662.301 237.904 661.448C236.325 660.595 234.533 660.168 232.528 660.168C230.522 660.168 228.73 660.595 227.152 661.448C225.573 662.301 224.336 663.496 223.44 665.032C222.544 666.525 222.095 668.253 222.095 670.216C222.095 673.245 223.077 675.677 225.04 677.512C227.045 679.304 229.541 680.2 232.528 680.2ZM253.128 708.616L256.84 694.472H262.408L256.84 708.616H253.128ZM296.289 701.768C293.643 701.768 291.446 701.32 289.697 700.424C287.947 699.528 286.646 698.333 285.793 696.84C284.939 695.347 284.513 693.725 284.513 691.976C284.513 688.733 285.75 686.237 288.225 684.488C290.699 682.739 294.07 681.864 298.337 681.864H306.913V681.48C306.913 678.707 306.187 676.616 304.737 675.208C303.286 673.757 301.345 673.032 298.913 673.032C296.822 673.032 295.009 673.565 293.473 674.632C291.979 675.656 291.041 677.171 290.657 679.176H285.153C285.366 676.872 286.134 674.931 287.457 673.352C288.822 671.773 290.507 670.579 292.513 669.768C294.518 668.915 296.651 668.488 298.913 668.488C303.35 668.488 306.678 669.683 308.897 672.072C311.158 674.419 312.289 677.555 312.289 681.48V701H307.489L307.169 695.304C306.273 697.096 304.95 698.632 303.201 699.912C301.494 701.149 299.19 701.768 296.289 701.768ZM297.121 697.224C299.169 697.224 300.918 696.691 302.369 695.624C303.862 694.557 304.993 693.171 305.761 691.464C306.529 689.757 306.913 687.965 306.913 686.088V686.024H298.785C295.627 686.024 293.387 686.579 292.065 687.688C290.785 688.755 290.145 690.099 290.145 691.72C290.145 693.384 290.742 694.728 291.937 695.752C293.174 696.733 294.902 697.224 297.121 697.224ZM320.354 701V669.256H325.218L325.538 674.952C326.562 672.947 328.034 671.368 329.954 670.216C331.874 669.064 334.05 668.488 336.482 668.488C340.236 668.488 343.223 669.64 345.442 671.944C347.703 674.205 348.833 677.704 348.833 682.44V701H343.458V683.016C343.458 676.403 340.727 673.096 335.266 673.096C332.535 673.096 330.252 674.099 328.418 676.104C326.626 678.067 325.73 680.883 325.73 684.552V701H320.354ZM371.378 701.768C368.221 701.768 365.448 701.043 363.059 699.592C360.712 698.141 358.877 696.157 357.555 693.64C356.275 691.123 355.635 688.264 355.635 685.064C355.635 681.864 356.296 679.027 357.619 676.552C358.941 674.035 360.776 672.072 363.123 670.664C365.469 669.213 368.243 668.488 371.443 668.488C374.045 668.488 376.349 669.021 378.355 670.088C380.36 671.155 381.917 672.648 383.027 674.568V654.92H388.403V701H383.539L383.027 695.752C382.003 697.288 380.531 698.675 378.611 699.912C376.691 701.149 374.28 701.768 371.378 701.768ZM371.955 697.096C374.088 697.096 375.965 696.605 377.587 695.624C379.251 694.6 380.531 693.192 381.427 691.4C382.365 689.608 382.835 687.517 382.835 685.128C382.835 682.739 382.365 680.648 381.427 678.856C380.531 677.064 379.251 675.677 377.587 674.696C375.965 673.672 374.088 673.16 371.955 673.16C369.864 673.16 367.987 673.672 366.323 674.696C364.701 675.677 363.421 677.064 362.483 678.856C361.587 680.648 361.139 682.739 361.139 685.128C361.139 687.517 361.587 689.608 362.483 691.4C363.421 693.192 364.701 694.6 366.323 695.624C367.987 696.605 369.864 697.096 371.955 697.096ZM414.104 701V669.256H418.968L419.352 673.864C420.376 672.157 421.741 670.835 423.448 669.896C425.154 668.957 427.074 668.488 429.208 668.488C431.725 668.488 433.88 669 435.672 670.024C437.506 671.048 438.914 672.605 439.896 674.696C441.005 672.776 442.52 671.261 444.44 670.152C446.402 669.043 448.514 668.488 450.776 668.488C454.573 668.488 457.602 669.64 459.864 671.944C462.125 674.205 463.256 677.704 463.256 682.44V701H457.944V683.016C457.944 679.731 457.282 677.256 455.96 675.592C454.637 673.928 452.738 673.096 450.264 673.096C447.704 673.096 445.57 674.099 443.864 676.104C442.2 678.067 441.368 680.883 441.368 684.552V701H435.992V683.016C435.992 679.731 435.33 677.256 434.008 675.592C432.685 673.928 430.786 673.096 428.312 673.096C425.794 673.096 423.682 674.099 421.976 676.104C420.312 678.067 419.48 680.883 419.48 684.552V701H414.104ZM481.914 701.768C479.268 701.768 477.071 701.32 475.322 700.424C473.572 699.528 472.271 698.333 471.418 696.84C470.564 695.347 470.138 693.725 470.138 691.976C470.138 688.733 471.375 686.237 473.85 684.488C476.324 682.739 479.695 681.864 483.962 681.864H492.538V681.48C492.538 678.707 491.812 676.616 490.362 675.208C488.911 673.757 486.97 673.032 484.538 673.032C482.447 673.032 480.634 673.565 479.098 674.632C477.604 675.656 476.666 677.171 476.282 679.176H470.778C470.991 676.872 471.759 674.931 473.082 673.352C474.447 671.773 476.132 670.579 478.138 669.768C480.143 668.915 482.276 668.488 484.538 668.488C488.975 668.488 492.303 669.683 494.522 672.072C496.783 674.419 497.914 677.555 497.914 681.48V701H493.114L492.794 695.304C491.898 697.096 490.575 698.632 488.826 699.912C487.119 701.149 484.815 701.768 481.914 701.768ZM482.746 697.224C484.794 697.224 486.543 696.691 487.994 695.624C489.487 694.557 490.618 693.171 491.386 691.464C492.154 689.757 492.538 687.965 492.538 686.088V686.024H484.41C481.252 686.024 479.012 686.579 477.69 687.688C476.41 688.755 475.77 690.099 475.77 691.72C475.77 693.384 476.367 694.728 477.562 695.752C478.799 696.733 480.527 697.224 482.746 697.224ZM520.378 701.768C517.221 701.768 514.448 701.043 512.059 699.592C509.712 698.141 507.877 696.157 506.555 693.64C505.275 691.123 504.635 688.264 504.635 685.064C504.635 681.864 505.296 679.027 506.619 676.552C507.941 674.035 509.776 672.072 512.123 670.664C514.469 669.213 517.243 668.488 520.443 668.488C523.045 668.488 525.349 669.021 527.355 670.088C529.36 671.155 530.917 672.648 532.027 674.568V654.92H537.403V701H532.539L532.027 695.752C531.003 697.288 529.531 698.675 527.611 699.912C525.691 701.149 523.28 701.768 520.378 701.768ZM520.955 697.096C523.088 697.096 524.965 696.605 526.587 695.624C528.251 694.6 529.531 693.192 530.427 691.4C531.365 689.608 531.835 687.517 531.835 685.128C531.835 682.739 531.365 680.648 530.427 678.856C529.531 677.064 528.251 675.677 526.587 674.696C524.965 673.672 523.088 673.16 520.955 673.16C518.864 673.16 516.987 673.672 515.323 674.696C513.701 675.677 512.421 677.064 511.483 678.856C510.587 680.648 510.139 682.739 510.139 685.128C510.139 687.517 510.587 689.608 511.483 691.4C512.421 693.192 513.701 694.6 515.323 695.624C516.987 696.605 518.864 697.096 520.955 697.096ZM560.438 701.768C557.409 701.768 554.721 701.085 552.374 699.72C550.027 698.312 548.171 696.371 546.806 693.896C545.483 691.421 544.822 688.499 544.822 685.128C544.822 681.8 545.483 678.899 546.806 676.424C548.129 673.907 549.963 671.965 552.31 670.6C554.699 669.192 557.451 668.488 560.566 668.488C563.638 668.488 566.283 669.192 568.502 670.6C570.763 671.965 572.491 673.779 573.686 676.04C574.881 678.301 575.478 680.733 575.478 683.336C575.478 683.805 575.457 684.275 575.414 684.744C575.414 685.213 575.414 685.747 575.414 686.344H550.134C550.262 688.776 550.817 690.803 551.798 692.424C552.822 694.003 554.081 695.197 555.574 696.008C557.11 696.819 558.731 697.224 560.438 697.224C562.657 697.224 564.513 696.712 566.006 695.688C567.499 694.664 568.587 693.277 569.27 691.528H574.582C573.729 694.472 572.086 696.925 569.654 698.888C567.265 700.808 564.193 701.768 560.438 701.768ZM560.438 673.032C557.878 673.032 555.595 673.821 553.59 675.4C551.627 676.936 550.497 679.197 550.198 682.184H570.166C570.038 679.325 569.057 677.085 567.222 675.464C565.387 673.843 563.126 673.032 560.438 673.032ZM611.509 706.568V701.64C607.328 701.171 604.021 699.677 601.589 697.16C599.157 694.643 597.941 691.443 597.941 687.56H603.573C603.573 689.821 604.234 691.848 605.557 693.64C606.922 695.389 608.906 696.52 611.509 697.032V679.688C611.21 679.603 610.89 679.517 610.549 679.432C610.25 679.304 609.952 679.197 609.653 679.112C606.197 677.917 603.637 676.445 601.973 674.696C600.309 672.904 599.477 670.579 599.477 667.72C599.434 664.392 600.48 661.619 602.613 659.4C604.789 657.181 607.754 655.901 611.509 655.56V650.376H615.925V655.56C619.509 655.987 622.368 657.331 624.501 659.592C626.634 661.853 627.722 664.605 627.765 667.848H622.133C622.133 666.269 621.621 664.755 620.597 663.304C619.573 661.811 618.016 660.808 615.925 660.296V675.784C616.266 675.869 616.608 675.976 616.949 676.104C617.29 676.232 617.653 676.339 618.037 676.424C620.17 677.192 622.09 678.088 623.797 679.112C625.504 680.136 626.826 681.459 627.765 683.08C628.746 684.701 629.237 686.771 629.237 689.288C629.237 691.293 628.746 693.192 627.765 694.984C626.784 696.776 625.29 698.291 623.285 699.528C621.322 700.765 618.869 701.491 615.925 701.704V706.568H611.509ZM605.045 667.208C605.045 669.171 605.621 670.664 606.773 671.688C607.925 672.669 609.504 673.523 611.509 674.248V660.168C609.589 660.467 608.032 661.235 606.837 662.472C605.642 663.667 605.045 665.245 605.045 667.208ZM623.669 689.608C623.669 687.133 622.944 685.299 621.493 684.104C620.042 682.909 618.186 681.928 615.925 681.16V697.16C618.4 696.861 620.298 696.008 621.621 694.6C622.986 693.192 623.669 691.528 623.669 689.608ZM652.093 701.768C649.021 701.768 646.354 701.213 644.093 700.104C641.832 698.995 640.018 697.48 638.653 695.56C637.33 693.597 636.52 691.379 636.221 688.904H641.469C641.981 691.379 643.176 693.384 645.053 694.92C646.93 696.413 649.298 697.16 652.157 697.16C654.29 697.16 656.125 696.669 657.661 695.688C659.197 694.664 660.37 693.299 661.181 691.592C662.034 689.885 662.461 687.987 662.461 685.896C662.461 682.568 661.522 679.88 659.645 677.832C657.768 675.784 655.336 674.76 652.349 674.76C649.874 674.76 647.762 675.315 646.013 676.424C644.264 677.533 642.984 678.984 642.173 680.776H637.053L640.893 656.2H664.381V660.872H645.053L642.429 674.504C643.453 673.267 644.861 672.243 646.653 671.432C648.488 670.621 650.578 670.216 652.925 670.216C655.869 670.216 658.429 670.899 660.605 672.264C662.824 673.629 664.552 675.485 665.789 677.832C667.026 680.179 667.645 682.845 667.645 685.832C667.645 688.691 667.026 691.336 665.789 693.768C664.594 696.2 662.824 698.141 660.477 699.592C658.173 701.043 655.378 701.768 652.093 701.768ZM675.729 701V654.92H681.105V682.632L694.097 669.256H700.689L686.609 683.592L702.481 701H695.633L681.105 684.552V701H675.729ZM735.476 701.768C732.831 701.768 730.633 701.32 728.884 700.424C727.135 699.528 725.833 698.333 724.98 696.84C724.127 695.347 723.7 693.725 723.7 691.976C723.7 688.733 724.937 686.237 727.412 684.488C729.887 682.739 733.257 681.864 737.524 681.864H746.1V681.48C746.1 678.707 745.375 676.616 743.924 675.208C742.473 673.757 740.532 673.032 738.1 673.032C736.009 673.032 734.196 673.565 732.66 674.632C731.167 675.656 730.228 677.171 729.844 679.176H724.34C724.553 676.872 725.321 674.931 726.644 673.352C728.009 671.773 729.695 670.579 731.7 669.768C733.705 668.915 735.839 668.488 738.1 668.488C742.537 668.488 745.865 669.683 748.084 672.072C750.345 674.419 751.476 677.555 751.476 681.48V701H746.676L746.356 695.304C745.46 697.096 744.137 698.632 742.388 699.912C740.681 701.149 738.377 701.768 735.476 701.768ZM736.308 697.224C738.356 697.224 740.105 696.691 741.556 695.624C743.049 694.557 744.18 693.171 744.948 691.464C745.716 689.757 746.1 687.965 746.1 686.088V686.024H737.972C734.815 686.024 732.575 686.579 731.252 687.688C729.972 688.755 729.332 690.099 729.332 691.72C729.332 693.384 729.929 694.728 731.124 695.752C732.361 696.733 734.089 697.224 736.308 697.224ZM117.416 778V746.256H122.28L122.664 750.864C123.688 749.157 125.053 747.835 126.76 746.896C128.467 745.957 130.387 745.488 132.52 745.488C135.037 745.488 137.192 746 138.984 747.024C140.819 748.048 142.227 749.605 143.208 751.696C144.317 749.776 145.832 748.261 147.752 747.152C149.715 746.043 151.827 745.488 154.088 745.488C157.885 745.488 160.915 746.64 163.176 748.944C165.437 751.205 166.568 754.704 166.568 759.44V778H161.256V760.016C161.256 756.731 160.595 754.256 159.272 752.592C157.949 750.928 156.051 750.096 153.576 750.096C151.016 750.096 148.883 751.099 147.176 753.104C145.512 755.067 144.68 757.883 144.68 761.552V778H139.304V760.016C139.304 756.731 138.643 754.256 137.32 752.592C135.997 750.928 134.099 750.096 131.624 750.096C129.107 750.096 126.995 751.099 125.288 753.104C123.624 755.067 122.792 757.883 122.792 761.552V778H117.416ZM189.13 778.768C186.143 778.768 183.455 778.085 181.066 776.72C178.677 775.355 176.778 773.435 175.37 770.96C174.005 768.443 173.322 765.499 173.322 762.128C173.322 758.757 174.026 755.835 175.434 753.36C176.842 750.843 178.741 748.901 181.13 747.536C183.562 746.171 186.271 745.488 189.258 745.488C192.245 745.488 194.933 746.171 197.322 747.536C199.711 748.901 201.589 750.843 202.954 753.36C204.362 755.835 205.066 758.757 205.066 762.128C205.066 765.499 204.362 768.443 202.954 770.96C201.546 773.435 199.626 775.355 197.194 776.72C194.805 778.085 192.117 778.768 189.13 778.768ZM189.13 774.16C190.965 774.16 192.671 773.712 194.25 772.816C195.829 771.92 197.109 770.576 198.09 768.784C199.071 766.992 199.562 764.773 199.562 762.128C199.562 759.483 199.071 757.264 198.09 755.472C197.151 753.68 195.893 752.336 194.314 751.44C192.735 750.544 191.05 750.096 189.258 750.096C187.423 750.096 185.717 750.544 184.138 751.44C182.559 752.336 181.279 753.68 180.298 755.472C179.317 757.264 178.826 759.483 178.826 762.128C178.826 764.773 179.317 766.992 180.298 768.784C181.279 770.576 182.538 771.92 184.074 772.816C185.653 773.712 187.338 774.16 189.13 774.16ZM212.541 778V746.256H217.405L217.725 751.952C218.749 749.947 220.221 748.368 222.141 747.216C224.061 746.064 226.237 745.488 228.669 745.488C232.424 745.488 235.41 746.64 237.629 748.944C239.89 751.205 241.021 754.704 241.021 759.44V778H235.645V760.016C235.645 753.403 232.914 750.096 227.453 750.096C224.722 750.096 222.44 751.099 220.605 753.104C218.813 755.067 217.917 757.883 217.917 761.552V778H212.541ZM261.71 778C258.809 778 256.526 777.296 254.862 775.888C253.198 774.48 252.366 771.941 252.366 768.272V750.8H246.862V746.256H252.366L253.07 738.64H257.742V746.256H267.086V750.8H257.742V768.272C257.742 770.277 258.147 771.643 258.958 772.368C259.769 773.051 261.198 773.392 263.246 773.392H266.574V778H261.71ZM273.916 778V731.92H279.292V751.696C280.359 749.733 281.873 748.219 283.836 747.152C285.799 746.043 287.932 745.488 290.236 745.488C293.905 745.488 296.849 746.64 299.068 748.944C301.287 751.205 302.396 754.704 302.396 759.44V778H297.084V760.016C297.084 753.403 294.417 750.096 289.084 750.096C286.311 750.096 283.985 751.099 282.108 753.104C280.231 755.067 279.292 757.883 279.292 761.552V778H273.916ZM312.397 778.32C311.33 778.32 310.434 777.979 309.709 777.296C309.026 776.571 308.685 775.696 308.685 774.672C308.685 773.648 309.026 772.795 309.709 772.112C310.434 771.387 311.33 771.024 312.397 771.024C313.421 771.024 314.274 771.387 314.957 772.112C315.682 772.795 316.045 773.648 316.045 774.672C316.045 775.696 315.682 776.571 314.957 777.296C314.274 777.979 313.421 778.32 312.397 778.32ZM126.952 932.064L114.664 887.2H120.424L130.088 925.664L141.096 887.2H147.048L157.736 925.664L167.528 887.2H173.288L160.744 932H154.6L143.912 895.008L132.968 932L126.952 932.064ZM182.555 893.216C181.488 893.216 180.592 892.875 179.867 892.192C179.184 891.467 178.843 890.571 178.843 889.504C178.843 888.48 179.184 887.627 179.867 886.944C180.592 886.261 181.488 885.92 182.555 885.92C183.579 885.92 184.454 886.261 185.179 886.944C185.904 887.627 186.267 888.48 186.267 889.504C186.267 890.571 185.904 891.467 185.179 892.192C184.454 892.875 183.579 893.216 182.555 893.216ZM179.867 932V900.256H185.243V932H179.867ZM207.148 932C204.246 932 201.964 931.296 200.3 929.888C198.636 928.48 197.804 925.941 197.804 922.272V904.8H192.299V900.256H197.804L198.508 892.64H203.18V900.256H212.524V904.8H203.18V922.272C203.18 924.277 203.585 925.643 204.396 926.368C205.206 927.051 206.636 927.392 208.684 927.392H212.012V932H207.148ZM219.354 932V885.92H224.73V905.696C225.796 903.733 227.311 902.219 229.274 901.152C231.236 900.043 233.37 899.488 235.674 899.488C239.343 899.488 242.287 900.64 244.506 902.944C246.724 905.205 247.833 908.704 247.833 913.44V932H242.522V914.016C242.522 907.403 239.855 904.096 234.522 904.096C231.748 904.096 229.423 905.099 227.546 907.104C225.668 909.067 224.73 911.883 224.73 915.552V932H219.354ZM259.243 893.216C258.176 893.216 257.28 892.875 256.555 892.192C255.872 891.467 255.531 890.571 255.531 889.504C255.531 888.48 255.872 887.627 256.555 886.944C257.28 886.261 258.176 885.92 259.243 885.92C260.267 885.92 261.141 886.261 261.867 886.944C262.592 887.627 262.955 888.48 262.955 889.504C262.955 890.571 262.592 891.467 261.867 892.192C261.141 892.875 260.267 893.216 259.243 893.216ZM256.555 932V900.256H261.931V932H256.555ZM271.291 932V900.256H276.155L276.475 905.952C277.499 903.947 278.971 902.368 280.891 901.216C282.811 900.064 284.987 899.488 287.419 899.488C291.174 899.488 294.16 900.64 296.379 902.944C298.64 905.205 299.771 908.704 299.771 913.44V932H294.395V914.016C294.395 907.403 291.664 904.096 286.203 904.096C283.472 904.096 281.19 905.099 279.355 907.104C277.563 909.067 276.667 911.883 276.667 915.552V932H271.291ZM335.414 932.768C332.768 932.768 330.571 932.32 328.822 931.424C327.072 930.528 325.771 929.333 324.918 927.84C324.064 926.347 323.638 924.725 323.638 922.976C323.638 919.733 324.875 917.237 327.35 915.488C329.824 913.739 333.195 912.864 337.462 912.864H346.038V912.48C346.038 909.707 345.312 907.616 343.862 906.208C342.411 904.757 340.47 904.032 338.038 904.032C335.947 904.032 334.134 904.565 332.598 905.632C331.104 906.656 330.166 908.171 329.782 910.176H324.278C324.491 907.872 325.259 905.931 326.582 904.352C327.947 902.773 329.632 901.579 331.638 900.768C333.643 899.915 335.776 899.488 338.038 899.488C342.475 899.488 345.803 900.683 348.022 903.072C350.283 905.419 351.414 908.555 351.414 912.48V932H346.614L346.294 926.304C345.398 928.096 344.075 929.632 342.326 930.912C340.619 932.149 338.315 932.768 335.414 932.768ZM336.246 928.224C338.294 928.224 340.043 927.691 341.494 926.624C342.987 925.557 344.118 924.171 344.886 922.464C345.654 920.757 346.038 918.965 346.038 917.088V917.024H337.91C334.752 917.024 332.512 917.579 331.19 918.688C329.91 919.755 329.27 921.099 329.27 922.72C329.27 924.384 329.867 925.728 331.062 926.752C332.299 927.733 334.027 928.224 336.246 928.224ZM378.144 932V904.8H373.344V900.256H378.144V894.752C378.144 891.68 378.912 889.44 380.448 888.032C381.984 886.624 384.224 885.92 387.168 885.92H390.368V890.528H388C386.379 890.528 385.227 890.869 384.544 891.552C383.861 892.192 383.52 893.301 383.52 894.88V900.256H391.328V904.8H383.52V932H378.144ZM410.751 932.768C407.721 932.768 405.033 932.085 402.687 930.72C400.34 929.312 398.484 927.371 397.119 924.896C395.796 922.421 395.135 919.499 395.135 916.128C395.135 912.8 395.796 909.899 397.119 907.424C398.441 904.907 400.276 902.965 402.623 901.6C405.012 900.192 407.764 899.488 410.878 899.488C413.951 899.488 416.596 900.192 418.815 901.6C421.076 902.965 422.804 904.779 423.999 907.04C425.193 909.301 425.791 911.733 425.791 914.336C425.791 914.805 425.769 915.275 425.727 915.744C425.727 916.213 425.727 916.747 425.727 917.344H400.447C400.575 919.776 401.129 921.803 402.111 923.424C403.135 925.003 404.393 926.197 405.887 927.008C407.423 927.819 409.044 928.224 410.751 928.224C412.969 928.224 414.825 927.712 416.319 926.688C417.812 925.664 418.9 924.277 419.583 922.528H424.895C424.041 925.472 422.399 927.925 419.967 929.888C417.577 931.808 414.505 932.768 410.751 932.768ZM410.751 904.032C408.191 904.032 405.908 904.821 403.903 906.4C401.94 907.936 400.809 910.197 400.51 913.184H420.479C420.351 910.325 419.369 908.085 417.535 906.464C415.7 904.843 413.439 904.032 410.751 904.032ZM438.066 932L428.786 900.256H434.162L440.882 925.152L448.306 900.256H454.386L461.874 925.152L468.53 900.256H473.97L464.69 932H459.186L451.378 905.824L443.57 932H438.066ZM496.854 932V900.256H501.718L502.102 904.864C503.126 903.157 504.491 901.835 506.198 900.896C507.904 899.957 509.824 899.488 511.958 899.488C514.475 899.488 516.63 900 518.422 901.024C520.256 902.048 521.664 903.605 522.646 905.696C523.755 903.776 525.27 902.261 527.19 901.152C529.152 900.043 531.264 899.488 533.526 899.488C537.323 899.488 540.352 900.64 542.614 902.944C544.875 905.205 546.006 908.704 546.006 913.44V932H540.694V914.016C540.694 910.731 540.032 908.256 538.71 906.592C537.387 904.928 535.488 904.096 533.014 904.096C530.454 904.096 528.32 905.099 526.614 907.104C524.95 909.067 524.118 911.883 524.118 915.552V932H518.742V914.016C518.742 910.731 518.08 908.256 516.758 906.592C515.435 904.928 513.536 904.096 511.062 904.096C508.544 904.096 506.432 905.099 504.726 907.104C503.062 909.067 502.23 911.883 502.23 915.552V932H496.854ZM568.568 932.768C565.581 932.768 562.893 932.085 560.504 930.72C558.114 929.355 556.216 927.435 554.808 924.96C553.442 922.443 552.76 919.499 552.76 916.128C552.76 912.757 553.464 909.835 554.872 907.36C556.28 904.843 558.178 902.901 560.568 901.536C563 900.171 565.709 899.488 568.696 899.488C571.682 899.488 574.37 900.171 576.76 901.536C579.149 902.901 581.026 904.843 582.392 907.36C583.8 909.835 584.504 912.757 584.504 916.128C584.504 919.499 583.8 922.443 582.392 924.96C580.984 927.435 579.064 929.355 576.632 930.72C574.242 932.085 571.554 932.768 568.568 932.768ZM568.568 928.16C570.402 928.16 572.109 927.712 573.688 926.816C575.266 925.92 576.546 924.576 577.528 922.784C578.509 920.992 579 918.773 579 916.128C579 913.483 578.509 911.264 577.528 909.472C576.589 907.68 575.33 906.336 573.752 905.44C572.173 904.544 570.488 904.096 568.696 904.096C566.861 904.096 565.154 904.544 563.576 905.44C561.997 906.336 560.717 907.68 559.736 909.472C558.754 911.264 558.264 913.483 558.264 916.128C558.264 918.773 558.754 920.992 559.736 922.784C560.717 924.576 561.976 925.92 563.512 926.816C565.09 927.712 566.776 928.16 568.568 928.16ZM591.979 932V900.256H596.843L597.163 905.952C598.187 903.947 599.659 902.368 601.579 901.216C603.499 900.064 605.675 899.488 608.107 899.488C611.861 899.488 614.848 900.64 617.067 902.944C619.328 905.205 620.458 908.704 620.458 913.44V932H615.083V914.016C615.083 907.403 612.352 904.096 606.891 904.096C604.16 904.096 601.877 905.099 600.043 907.104C598.251 909.067 597.355 911.883 597.355 915.552V932H591.979ZM641.148 932C638.246 932 635.964 931.296 634.3 929.888C632.636 928.48 631.804 925.941 631.804 922.272V904.8H626.299V900.256H631.804L632.508 892.64H637.18V900.256H646.524V904.8H637.18V922.272C637.18 924.277 637.585 925.643 638.396 926.368C639.206 927.051 640.636 927.392 642.684 927.392H646.012V932H641.148ZM653.354 932V885.92H658.73V905.696C659.796 903.733 661.311 902.219 663.274 901.152C665.236 900.043 667.37 899.488 669.674 899.488C673.343 899.488 676.287 900.64 678.506 902.944C680.724 905.205 681.833 908.704 681.833 913.44V932H676.522V914.016C676.522 907.403 673.855 904.096 668.522 904.096C665.748 904.096 663.423 905.099 661.546 907.104C659.668 909.067 658.73 911.883 658.73 915.552V932H653.354ZM702.139 932.768C698.341 932.768 695.184 931.808 692.667 929.888C690.149 927.968 688.677 925.365 688.251 922.08H693.755C694.096 923.744 694.971 925.195 696.379 926.432C697.829 927.627 699.771 928.224 702.203 928.224C704.464 928.224 706.128 927.755 707.195 926.816C708.261 925.835 708.795 924.683 708.795 923.36C708.795 921.44 708.091 920.16 706.683 919.52C705.317 918.88 703.376 918.304 700.859 917.792C699.152 917.451 697.445 916.96 695.739 916.32C694.032 915.68 692.603 914.784 691.451 913.632C690.299 912.437 689.723 910.88 689.723 908.96C689.723 906.187 690.747 903.925 692.795 902.176C694.885 900.384 697.701 899.488 701.243 899.488C704.613 899.488 707.365 900.341 709.499 902.048C711.675 903.712 712.933 906.101 713.275 909.216H707.963C707.749 907.595 707.045 906.336 705.851 905.44C704.699 904.501 703.141 904.032 701.179 904.032C699.259 904.032 697.765 904.437 696.699 905.248C695.675 906.059 695.163 907.125 695.163 908.448C695.163 909.728 695.824 910.731 697.147 911.456C698.512 912.181 700.347 912.8 702.651 913.312C704.613 913.739 706.469 914.272 708.219 914.912C710.011 915.509 711.461 916.427 712.571 917.664C713.723 918.859 714.299 920.608 714.299 922.912C714.341 925.771 713.253 928.139 711.035 930.016C708.859 931.851 705.893 932.768 702.139 932.768ZM717.691 939.616L721.403 925.472H726.97L721.403 939.616H717.691ZM762.835 932C759.934 932 757.651 931.296 755.987 929.888C754.323 928.48 753.491 925.941 753.491 922.272V904.8H747.987V900.256H753.491L754.195 892.64H758.867V900.256H768.211V904.8H758.867V922.272C758.867 924.277 759.272 925.643 760.083 926.368C760.894 927.051 762.323 927.392 764.371 927.392H767.699V932H762.835ZM775.041 932V885.92H780.417V905.696C781.484 903.733 782.998 902.219 784.961 901.152C786.924 900.043 789.057 899.488 791.361 899.488C795.03 899.488 797.974 900.64 800.193 902.944C802.412 905.205 803.521 908.704 803.521 913.44V932H798.209V914.016C798.209 907.403 795.542 904.096 790.209 904.096C787.436 904.096 785.11 905.099 783.233 907.104C781.356 909.067 780.417 911.883 780.417 915.552V932H775.041ZM814.93 893.216C813.863 893.216 812.967 892.875 812.242 892.192C811.559 891.467 811.218 890.571 811.218 889.504C811.218 888.48 811.559 887.627 812.242 886.944C812.967 886.261 813.863 885.92 814.93 885.92C815.954 885.92 816.829 886.261 817.554 886.944C818.279 887.627 818.642 888.48 818.642 889.504C818.642 890.571 818.279 891.467 817.554 892.192C816.829 892.875 815.954 893.216 814.93 893.216ZM812.242 932V900.256H817.618V932H812.242ZM839.139 932.768C835.341 932.768 832.184 931.808 829.667 929.888C827.149 927.968 825.677 925.365 825.251 922.08H830.755C831.096 923.744 831.971 925.195 833.379 926.432C834.829 927.627 836.771 928.224 839.203 928.224C841.464 928.224 843.128 927.755 844.195 926.816C845.261 925.835 845.795 924.683 845.795 923.36C845.795 921.44 845.091 920.16 843.683 919.52C842.317 918.88 840.376 918.304 837.859 917.792C836.152 917.451 834.445 916.96 832.739 916.32C831.032 915.68 829.603 914.784 828.451 913.632C827.299 912.437 826.723 910.88 826.723 908.96C826.723 906.187 827.747 903.925 829.795 902.176C831.885 900.384 834.701 899.488 838.243 899.488C841.613 899.488 844.365 900.341 846.499 902.048C848.675 903.712 849.933 906.101 850.275 909.216H844.963C844.749 907.595 844.045 906.336 842.851 905.44C841.699 904.501 840.141 904.032 838.179 904.032C836.259 904.032 834.765 904.437 833.699 905.248C832.675 906.059 832.163 907.125 832.163 908.448C832.163 909.728 832.824 910.731 834.147 911.456C835.512 912.181 837.347 912.8 839.651 913.312C841.613 913.739 843.469 914.272 845.219 914.912C847.011 915.509 848.461 916.427 849.571 917.664C850.723 918.859 851.299 920.608 851.299 922.912C851.341 925.771 850.253 928.139 848.035 930.016C845.859 931.851 842.893 932.768 839.139 932.768ZM134.376 1009.77C131.773 1009.77 129.448 1009.23 127.4 1008.17C125.395 1007.1 123.859 1005.61 122.792 1003.69L122.28 1009H117.416V962.92H122.792V982.504C123.816 980.968 125.267 979.581 127.144 978.344C129.064 977.107 131.496 976.488 134.44 976.488C137.597 976.488 140.349 977.213 142.696 978.664C145.043 980.115 146.856 982.099 148.136 984.616C149.459 987.133 150.12 989.992 150.12 993.192C150.12 996.392 149.459 999.251 148.136 1001.77C146.856 1004.24 145.021 1006.21 142.632 1007.66C140.285 1009.06 137.533 1009.77 134.376 1009.77ZM133.8 1005.1C135.933 1005.1 137.811 1004.61 139.432 1003.62C141.053 1002.6 142.333 1001.19 143.272 999.4C144.211 997.608 144.68 995.517 144.68 993.128C144.68 990.739 144.211 988.648 143.272 986.856C142.333 985.064 141.053 983.677 139.432 982.696C137.811 981.672 135.933 981.16 133.8 981.16C131.667 981.16 129.789 981.672 128.168 982.696C126.547 983.677 125.267 985.064 124.328 986.856C123.389 988.648 122.92 990.739 122.92 993.128C122.92 995.517 123.389 997.608 124.328 999.4C125.267 1001.19 126.547 1002.6 128.168 1003.62C129.789 1004.61 131.667 1005.1 133.8 1005.1ZM171.876 1009.77C168.846 1009.77 166.158 1009.09 163.812 1007.72C161.465 1006.31 159.609 1004.37 158.244 1001.9C156.921 999.421 156.26 996.499 156.26 993.128C156.26 989.8 156.921 986.899 158.244 984.424C159.566 981.907 161.401 979.965 163.748 978.6C166.137 977.192 168.889 976.488 172.003 976.488C175.076 976.488 177.721 977.192 179.94 978.6C182.201 979.965 183.929 981.779 185.124 984.04C186.318 986.301 186.916 988.733 186.916 991.336C186.916 991.805 186.894 992.275 186.852 992.744C186.852 993.213 186.852 993.747 186.852 994.344H161.572C161.7 996.776 162.254 998.803 163.236 1000.42C164.26 1002 165.518 1003.2 167.012 1004.01C168.548 1004.82 170.169 1005.22 171.876 1005.22C174.094 1005.22 175.95 1004.71 177.444 1003.69C178.937 1002.66 180.025 1001.28 180.708 999.528H186.02C185.166 1002.47 183.524 1004.93 181.092 1006.89C178.702 1008.81 175.63 1009.77 171.876 1009.77ZM171.876 981.032C169.316 981.032 167.033 981.821 165.028 983.4C163.065 984.936 161.934 987.197 161.635 990.184H181.604C181.476 987.325 180.494 985.085 178.66 983.464C176.825 981.843 174.564 981.032 171.876 981.032ZM208.633 1009.77C205.604 1009.77 202.873 1009.09 200.441 1007.72C198.052 1006.31 196.153 1004.37 194.745 1001.9C193.38 999.379 192.697 996.456 192.697 993.128C192.697 989.8 193.38 986.899 194.745 984.424C196.153 981.907 198.052 979.965 200.441 978.6C202.873 977.192 205.604 976.488 208.633 976.488C212.388 976.488 215.545 977.469 218.105 979.432C220.708 981.395 222.35 984.019 223.033 987.304H217.529C217.102 985.341 216.057 983.827 214.393 982.76C212.729 981.651 210.788 981.096 208.569 981.096C206.777 981.096 205.092 981.544 203.513 982.44C201.934 983.336 200.654 984.68 199.673 986.472C198.692 988.264 198.201 990.483 198.201 993.128C198.201 995.773 198.692 997.992 199.673 999.784C200.654 1001.58 201.934 1002.94 203.513 1003.88C205.092 1004.78 206.777 1005.22 208.569 1005.22C210.788 1005.22 212.729 1004.69 214.393 1003.62C216.057 1002.51 217.102 1000.96 217.529 998.952H223.033C222.393 1002.15 220.772 1004.75 218.169 1006.76C215.566 1008.77 212.388 1009.77 208.633 1009.77ZM241.101 1009.77C238.456 1009.77 236.258 1009.32 234.509 1008.42C232.76 1007.53 231.458 1006.33 230.605 1004.84C229.752 1003.35 229.325 1001.73 229.325 999.976C229.325 996.733 230.562 994.237 233.037 992.488C235.512 990.739 238.882 989.864 243.149 989.864H251.725V989.48C251.725 986.707 251 984.616 249.549 983.208C248.098 981.757 246.157 981.032 243.725 981.032C241.634 981.032 239.821 981.565 238.285 982.632C236.792 983.656 235.853 985.171 235.469 987.176H229.965C230.178 984.872 230.946 982.931 232.269 981.352C233.634 979.773 235.32 978.579 237.325 977.768C239.33 976.915 241.464 976.488 243.725 976.488C248.162 976.488 251.49 977.683 253.709 980.072C255.97 982.419 257.101 985.555 257.101 989.48V1009H252.301L251.981 1003.3C251.085 1005.1 249.762 1006.63 248.013 1007.91C246.306 1009.15 244.002 1009.77 241.101 1009.77ZM241.933 1005.22C243.981 1005.22 245.73 1004.69 247.181 1003.62C248.674 1002.56 249.805 1001.17 250.573 999.464C251.341 997.757 251.725 995.965 251.725 994.088V994.024H243.597C240.44 994.024 238.2 994.579 236.877 995.688C235.597 996.755 234.957 998.099 234.957 999.72C234.957 1001.38 235.554 1002.73 236.749 1003.75C237.986 1004.73 239.714 1005.22 241.933 1005.22ZM265.166 1009V977.256H270.03L270.414 981.864C271.438 980.157 272.803 978.835 274.51 977.896C276.217 976.957 278.137 976.488 280.27 976.488C282.787 976.488 284.942 977 286.734 978.024C288.569 979.048 289.977 980.605 290.958 982.696C292.067 980.776 293.582 979.261 295.502 978.152C297.465 977.043 299.577 976.488 301.838 976.488C305.635 976.488 308.665 977.64 310.926 979.944C313.187 982.205 314.318 985.704 314.318 990.44V1009H309.006V991.016C309.006 987.731 308.345 985.256 307.022 983.592C305.699 981.928 303.801 981.096 301.326 981.096C298.766 981.096 296.633 982.099 294.926 984.104C293.262 986.067 292.43 988.883 292.43 992.552V1009H287.054V991.016C287.054 987.731 286.393 985.256 285.07 983.592C283.747 981.928 281.849 981.096 279.374 981.096C276.857 981.096 274.745 982.099 273.038 984.104C271.374 986.067 270.542 988.883 270.542 992.552V1009H265.166ZM336.688 1009.77C333.659 1009.77 330.971 1009.09 328.624 1007.72C326.277 1006.31 324.421 1004.37 323.056 1001.9C321.733 999.421 321.072 996.499 321.072 993.128C321.072 989.8 321.733 986.899 323.056 984.424C324.379 981.907 326.213 979.965 328.56 978.6C330.949 977.192 333.701 976.488 336.816 976.488C339.888 976.488 342.533 977.192 344.752 978.6C347.013 979.965 348.741 981.779 349.936 984.04C351.131 986.301 351.728 988.733 351.728 991.336C351.728 991.805 351.707 992.275 351.664 992.744C351.664 993.213 351.664 993.747 351.664 994.344H326.384C326.512 996.776 327.067 998.803 328.048 1000.42C329.072 1002 330.331 1003.2 331.824 1004.01C333.36 1004.82 334.981 1005.22 336.688 1005.22C338.907 1005.22 340.763 1004.71 342.256 1003.69C343.749 1002.66 344.837 1001.28 345.52 999.528H350.832C349.979 1002.47 348.336 1004.93 345.904 1006.89C343.515 1008.81 340.443 1009.77 336.688 1009.77ZM336.688 981.032C334.128 981.032 331.845 981.821 329.84 983.4C327.877 984.936 326.747 987.197 326.448 990.184H346.416C346.288 987.325 345.307 985.085 343.472 983.464C341.637 981.843 339.376 981.032 336.688 981.032ZM387.759 1014.57V1009.64C383.578 1009.17 380.271 1007.68 377.839 1005.16C375.407 1002.64 374.191 999.443 374.191 995.56H379.823C379.823 997.821 380.484 999.848 381.807 1001.64C383.172 1003.39 385.156 1004.52 387.759 1005.03V987.688C387.46 987.603 387.14 987.517 386.799 987.432C386.5 987.304 386.202 987.197 385.903 987.112C382.447 985.917 379.887 984.445 378.223 982.696C376.559 980.904 375.727 978.579 375.727 975.72C375.684 972.392 376.73 969.619 378.863 967.4C381.039 965.181 384.004 963.901 387.759 963.56V958.376H392.175V963.56C395.759 963.987 398.618 965.331 400.751 967.592C402.884 969.853 403.972 972.605 404.015 975.848H398.383C398.383 974.269 397.871 972.755 396.847 971.304C395.823 969.811 394.266 968.808 392.175 968.296V983.784C392.516 983.869 392.858 983.976 393.199 984.104C393.54 984.232 393.903 984.339 394.287 984.424C396.42 985.192 398.34 986.088 400.047 987.112C401.754 988.136 403.076 989.459 404.015 991.08C404.996 992.701 405.487 994.771 405.487 997.288C405.487 999.293 404.996 1001.19 404.015 1002.98C403.034 1004.78 401.54 1006.29 399.535 1007.53C397.572 1008.77 395.119 1009.49 392.175 1009.7V1014.57H387.759ZM381.295 975.208C381.295 977.171 381.871 978.664 383.023 979.688C384.175 980.669 385.754 981.523 387.759 982.248V968.168C385.839 968.467 384.282 969.235 383.087 970.472C381.892 971.667 381.295 973.245 381.295 975.208ZM399.919 997.608C399.919 995.133 399.194 993.299 397.743 992.104C396.292 990.909 394.436 989.928 392.175 989.16V1005.16C394.65 1004.86 396.548 1004.01 397.871 1002.6C399.236 1001.19 399.919 999.528 399.919 997.608ZM427.063 1009.77C424.204 1009.77 421.623 1009.26 419.319 1008.23C417.015 1007.17 415.159 1005.59 413.751 1003.5C412.386 1001.41 411.66 998.803 411.575 995.688H417.015C417.058 998.248 417.954 1000.47 419.703 1002.34C421.452 1004.18 423.906 1005.1 427.063 1005.1C430.22 1005.1 432.588 1004.22 434.167 1002.47C435.788 1000.72 436.599 998.611 436.599 996.136C436.599 994.045 436.087 992.339 435.063 991.016C434.082 989.693 432.738 988.712 431.031 988.072C429.367 987.432 427.532 987.112 425.527 987.112H422.199V982.568H425.527C428.428 982.568 430.69 981.907 432.311 980.584C433.975 979.261 434.807 977.405 434.807 975.016C434.807 973.011 434.146 971.368 432.823 970.088C431.543 968.765 429.623 968.104 427.063 968.104C424.588 968.104 422.604 968.851 421.111 970.344C419.618 971.795 418.786 973.629 418.615 975.848H413.175C413.303 973.416 413.943 971.261 415.095 969.384C416.29 967.507 417.911 966.056 419.959 965.032C422.007 963.965 424.375 963.432 427.063 963.432C429.964 963.432 432.375 963.944 434.295 964.968C436.258 965.992 437.73 967.357 438.711 969.064C439.735 970.771 440.247 972.648 440.247 974.696C440.247 976.957 439.628 979.027 438.391 980.904C437.154 982.739 435.298 983.976 432.823 984.616C435.468 985.171 437.666 986.429 439.415 988.392C441.164 990.355 442.039 992.936 442.039 996.136C442.039 998.611 441.463 1000.89 440.311 1002.98C439.202 1005.03 437.538 1006.67 435.319 1007.91C433.1 1009.15 430.348 1009.77 427.063 1009.77ZM468.208 1009.77C464.24 1009.77 460.805 1008.81 457.904 1006.89C455.045 1004.93 452.848 1002.22 451.312 998.76C449.776 995.261 449.008 991.208 449.008 986.6C449.008 981.992 449.776 977.96 451.312 974.504C452.848 971.005 455.045 968.296 457.904 966.376C460.805 964.413 464.24 963.432 468.208 963.432C472.176 963.432 475.589 964.413 478.448 966.376C481.307 968.296 483.504 971.005 485.04 974.504C486.576 977.96 487.344 981.992 487.344 986.6C487.344 991.208 486.576 995.261 485.04 998.76C483.504 1002.22 481.307 1004.93 478.448 1006.89C475.589 1008.81 472.176 1009.77 468.208 1009.77ZM468.208 1005.03C470.811 1005.03 473.136 1004.31 475.184 1002.86C477.275 1001.36 478.896 999.251 480.048 996.52C481.243 993.747 481.84 990.44 481.84 986.6C481.84 982.76 481.243 979.475 480.048 976.744C478.896 974.013 477.275 971.923 475.184 970.472C473.136 968.979 470.811 968.232 468.208 968.232C465.563 968.232 463.216 968.979 461.168 970.472C459.12 971.923 457.499 974.013 456.304 976.744C455.109 979.475 454.512 982.76 454.512 986.6C454.512 990.44 455.109 993.747 456.304 996.52C457.499 999.251 459.12 1001.36 461.168 1002.86C463.216 1004.31 465.563 1005.03 468.208 1005.03ZM494.791 1009V962.92H500.167V990.632L513.159 977.256H519.751L505.671 991.592L521.543 1009H514.695L500.167 992.552V1009H494.791ZM554.539 1009.77C551.893 1009.77 549.696 1009.32 547.947 1008.42C546.197 1007.53 544.896 1006.33 544.043 1004.84C543.189 1003.35 542.763 1001.73 542.763 999.976C542.763 996.733 544 994.237 546.475 992.488C548.949 990.739 552.32 989.864 556.587 989.864H565.163V989.48C565.163 986.707 564.437 984.616 562.987 983.208C561.536 981.757 559.595 981.032 557.163 981.032C555.072 981.032 553.259 981.565 551.723 982.632C550.229 983.656 549.291 985.171 548.907 987.176H543.403C543.616 984.872 544.384 982.931 545.707 981.352C547.072 979.773 548.757 978.579 550.763 977.768C552.768 976.915 554.901 976.488 557.163 976.488C561.6 976.488 564.928 977.683 567.147 980.072C569.408 982.419 570.539 985.555 570.539 989.48V1009H565.739L565.419 1003.3C564.523 1005.1 563.2 1006.63 561.451 1007.91C559.744 1009.15 557.44 1009.77 554.539 1009.77ZM555.371 1005.22C557.419 1005.22 559.168 1004.69 560.619 1003.62C562.112 1002.56 563.243 1001.17 564.011 999.464C564.779 997.757 565.163 995.965 565.163 994.088V994.024H557.035C553.877 994.024 551.637 994.579 550.315 995.688C549.035 996.755 548.395 998.099 548.395 999.72C548.395 1001.38 548.992 1002.73 550.187 1003.75C551.424 1004.73 553.152 1005.22 555.371 1005.22ZM595.541 1009V977.256H600.405L600.789 981.864C601.813 980.157 603.178 978.835 604.885 977.896C606.592 976.957 608.512 976.488 610.645 976.488C613.162 976.488 615.317 977 617.109 978.024C618.944 979.048 620.352 980.605 621.333 982.696C622.442 980.776 623.957 979.261 625.877 978.152C627.84 977.043 629.952 976.488 632.213 976.488C636.01 976.488 639.04 977.64 641.301 979.944C643.562 982.205 644.693 985.704 644.693 990.44V1009H639.381V991.016C639.381 987.731 638.72 985.256 637.397 983.592C636.074 981.928 634.176 981.096 631.701 981.096C629.141 981.096 627.008 982.099 625.301 984.104C623.637 986.067 622.805 988.883 622.805 992.552V1009H617.429V991.016C617.429 987.731 616.768 985.256 615.445 983.592C614.122 981.928 612.224 981.096 609.749 981.096C607.232 981.096 605.12 982.099 603.413 984.104C601.749 986.067 600.917 988.883 600.917 992.552V1009H595.541ZM667.255 1009.77C664.268 1009.77 661.58 1009.09 659.191 1007.72C656.802 1006.35 654.903 1004.43 653.495 1001.96C652.13 999.443 651.447 996.499 651.447 993.128C651.447 989.757 652.151 986.835 653.559 984.36C654.967 981.843 656.866 979.901 659.255 978.536C661.687 977.171 664.396 976.488 667.383 976.488C670.37 976.488 673.058 977.171 675.447 978.536C677.836 979.901 679.714 981.843 681.079 984.36C682.487 986.835 683.191 989.757 683.191 993.128C683.191 996.499 682.487 999.443 681.079 1001.96C679.671 1004.43 677.751 1006.35 675.319 1007.72C672.93 1009.09 670.242 1009.77 667.255 1009.77ZM667.255 1005.16C669.09 1005.16 670.796 1004.71 672.375 1003.82C673.954 1002.92 675.234 1001.58 676.215 999.784C677.196 997.992 677.687 995.773 677.687 993.128C677.687 990.483 677.196 988.264 676.215 986.472C675.276 984.68 674.018 983.336 672.439 982.44C670.86 981.544 669.175 981.096 667.383 981.096C665.548 981.096 663.842 981.544 662.263 982.44C660.684 983.336 659.404 984.68 658.423 986.472C657.442 988.264 656.951 990.483 656.951 993.128C656.951 995.773 657.442 997.992 658.423 999.784C659.404 1001.58 660.663 1002.92 662.199 1003.82C663.778 1004.71 665.463 1005.16 667.255 1005.16ZM690.666 1009V977.256H695.53L695.85 982.952C696.874 980.947 698.346 979.368 700.266 978.216C702.186 977.064 704.362 976.488 706.794 976.488C710.549 976.488 713.535 977.64 715.754 979.944C718.015 982.205 719.146 985.704 719.146 990.44V1009H713.77V991.016C713.77 984.403 711.039 981.096 705.578 981.096C702.847 981.096 700.565 982.099 698.73 984.104C696.938 986.067 696.042 988.883 696.042 992.552V1009H690.666ZM739.835 1009C736.934 1009 734.651 1008.3 732.987 1006.89C731.323 1005.48 730.491 1002.94 730.491 999.272V981.8H724.987V977.256H730.491L731.195 969.64H735.867V977.256H745.211V981.8H735.867V999.272C735.867 1001.28 736.272 1002.64 737.083 1003.37C737.894 1004.05 739.323 1004.39 741.371 1004.39H744.699V1009H739.835ZM752.041 1009V962.92H757.417V982.696C758.484 980.733 759.998 979.219 761.961 978.152C763.924 977.043 766.057 976.488 768.361 976.488C772.03 976.488 774.974 977.64 777.193 979.944C779.412 982.205 780.521 985.704 780.521 990.44V1009H775.209V991.016C775.209 984.403 772.542 981.096 767.209 981.096C764.436 981.096 762.11 982.099 760.233 984.104C758.356 986.067 757.417 988.883 757.417 992.552V1009H752.041ZM790.522 1009.32C789.455 1009.32 788.559 1008.98 787.834 1008.3C787.151 1007.57 786.81 1006.7 786.81 1005.67C786.81 1004.65 787.151 1003.79 787.834 1003.11C788.559 1002.39 789.455 1002.02 790.522 1002.02C791.546 1002.02 792.399 1002.39 793.082 1003.11C793.807 1003.79 794.17 1004.65 794.17 1005.67C794.17 1006.7 793.807 1007.57 793.082 1008.3C792.399 1008.98 791.546 1009.32 790.522 1009.32Z" fill="#1C1D1E"/>
<path d="M138.309 400.939C135.36 401.267 132.582 400.175 129.71 399.897C128.586 399.789 127.567 398.782 126.43 398.593C123.988 398.189 122.062 397.097 120.386 395.313C119.629 394.508 118.288 394.486 117.409 393.681C115.162 391.627 113.703 389.07 113.096 386.181C112.729 384.428 113.431 382.585 114.881 381.385C115.896 380.545 117.251 380.878 118.406 381.363C120.236 382.131 121.872 383.237 123.276 384.626C125.125 386.455 127.232 387.677 129.832 388.212C131.74 388.603 133.479 389.605 135.441 389.951C138.98 390.58 142.378 390.607 145.504 388.495C146.451 387.857 147.461 387.295 148.48 386.769C151.625 385.156 152.177 382.981 150.12 380.195C149.885 379.875 149.726 379.498 149.509 379.161C147.384 375.853 144.108 373.93 140.796 372.06C138.454 370.739 136.297 369.022 133.52 368.591C133.212 368.541 132.868 368.362 132.659 368.137C131.495 366.897 129.964 366.348 128.387 365.93C126.063 365.31 124.776 363.202 122.769 362.133C122.361 361.913 121.994 361.562 121.591 361.288C118.705 359.333 117.083 356.641 116.376 353.212C115.892 350.862 115.561 348.619 116.118 346.242C116.444 344.849 116.961 343.559 117.912 342.561C120.726 339.609 123.131 336.364 126.439 333.753C129.724 331.164 133.588 329.915 136.968 327.681C138.11 326.926 139.759 326.872 141.2 326.634C143.202 326.311 145.187 326.09 147.112 325.308C148.716 324.657 150.465 325.165 152.105 325.664C153.043 325.951 153.94 326.401 154.891 326.612C159.313 327.596 162.67 332.355 163.105 337.092C163.187 337.991 163.948 338.224 163.979 339.087C164.038 340.88 163.998 342.647 163.49 344.345C162.706 346.97 161.895 349.603 160.853 352.134C159.974 354.268 158.484 355.998 156.282 357.028C154.955 357.648 153.718 357.594 152.58 356.718C151.425 355.828 151.099 354.502 151.466 353.203C152.241 350.448 152.676 347.68 152.091 344.862C151.914 344.013 152.454 343.509 152.626 342.862C153.772 338.539 151.28 335.82 146.867 336.238C144.792 336.436 143.229 337.636 141.317 338.027C139.319 338.436 137.448 339.204 135.695 340.242C135.414 340.409 135.029 340.471 134.834 340.701C132.736 343.123 129.896 344.741 127.789 347.15C126.054 349.127 126.203 350.322 128.129 352.066C130.267 354.008 132.682 355.324 135.441 356.21C136.719 356.619 137.879 357.553 138.925 358.443C139.958 359.32 141.136 359.8 142.35 360.304C146.12 361.872 149.581 363.948 152.771 366.501C153.405 367.009 153.559 368.537 154.982 367.8C155.036 367.773 155.244 367.966 155.344 368.088C157.569 370.775 160.233 373.332 161.32 376.595C162.484 380.091 162.942 383.902 161.578 387.628C160.808 389.731 159.327 391.241 157.936 392.94C155.543 395.861 152.168 397.106 149.164 398.984C147.687 399.91 145.898 399.888 144.24 400.256C142.291 400.683 140.321 400.93 138.332 400.935L138.309 400.939Z" fill="#1C1D1E"/>
<path d="M195.134 337.564C190.059 338.242 184.385 337.427 178.701 337.335C176.694 337.303 174.728 337.193 172.89 336.388C171.93 335.966 170.449 335.683 171.409 333.989C170.604 332.84 171.107 331.91 171.884 331.004C172.95 329.759 174.445 329.379 175.908 329.351C178.011 329.31 179.945 328.587 181.957 328.294C184.334 327.95 186.771 326.907 189.245 328.047C190.534 328.642 191.682 327.731 192.802 327.397C194.356 326.925 195.852 326.742 197.438 326.852C198.426 326.92 199.404 326.902 200.387 326.605C201 326.417 201.827 326.257 202.33 326.518C203.944 327.36 205.595 326.998 207.218 326.856C210.597 326.559 213.985 326.586 217.363 326.092C219.819 325.735 222.338 326.449 224.523 327.722C225.954 328.555 227.28 329.653 226.736 331.718C226.512 332.579 227.44 333.563 226.723 334.328C225.991 335.106 224.871 335.335 223.892 335.76C220.07 337.418 216.161 337.39 212.156 336.639C210.245 336.282 208.498 337.431 206.614 337.619C206.052 337.674 206.239 338.411 206.203 338.896C205.842 343.74 206.29 348.606 205.759 353.45C205.22 358.375 205.009 363.343 204.232 368.227C203.492 372.878 203.117 377.566 202.568 382.231C202.211 385.266 201.964 388.283 201.151 391.259C200.753 392.715 201.539 394.266 201.196 395.901C200.739 398.071 199.921 399.856 197.909 400.731C196.021 401.55 192.491 400.401 191.206 398.625C190.269 397.334 189.194 396.034 189.748 394.12C190.15 392.733 188.911 390.952 190.758 389.885C190.383 388.292 191.211 386.841 191.325 385.298C191.631 381.201 192.404 377.15 192.372 373.007C192.363 371.638 192.93 370.26 193.268 368.891C193.565 367.682 193.917 366.492 193.885 365.229C193.803 362.216 194.837 359.369 195.23 356.425C195.957 351.028 197.036 345.69 198.343 340.402C199.084 337.408 198.924 337.267 195.147 337.56L195.134 337.564Z" fill="#1C1D1E"/>
<path d="M287.327 391.472C287.266 386.128 286.518 380.775 287.512 375.435C287.796 373.907 287.429 372.32 287.489 370.782C287.577 368.517 287.41 366.243 287.587 364.01C287.889 360.167 287.443 356.269 288.404 352.467C288.599 351.689 288.548 350.82 288.446 350.011C287.991 346.363 289.143 342.861 289.412 339.286C289.431 339.04 289.617 338.758 289.538 338.567C288.302 335.516 289.788 332.559 289.83 329.553C289.877 326.192 292.673 324.059 295.363 323.699C299.399 323.158 303.371 322.567 307.603 323.458C312.485 324.486 317.093 325.91 321.664 327.847C324.493 329.048 326.667 330.626 328.562 332.923C329.969 334.633 331.405 336.202 332.501 338.208C334.001 340.951 334.271 343.825 333.769 346.509C333.058 350.325 332.659 354.55 328.576 356.933C327.791 357.392 327.512 358.552 326.657 359.148C325.301 360.085 324.047 361.031 322.323 361.477C320.851 361.859 319.397 362.859 318.296 363.942C315.848 366.348 312.661 367.176 309.563 368.008C307.11 368.667 304.895 369.8 302.521 370.587C301.987 370.764 301.592 371.365 301.058 371.506C300.282 371.715 299.181 371.255 298.768 372.12C298.438 372.811 298.586 373.73 298.554 374.548C298.447 377.077 298.015 379.579 297.843 382.089C297.709 384.027 297.843 386.019 297.871 387.984C297.922 391.791 298.168 395.602 298.071 399.404C297.992 402.438 294.229 404.794 291.312 403.748C290.123 403.32 289.352 402.247 288.748 401.133C287.735 399.263 287.392 397.239 287.331 395.161C287.294 393.928 287.327 392.696 287.327 391.463V391.472ZM322.732 343.611C322.672 340.896 322.658 340.819 320.507 339.404C319.801 338.94 319.141 338.445 318.644 337.781C317.869 336.739 316.754 336.139 315.606 335.661C313.158 334.647 311.008 333.091 308.425 332.268C304.904 331.145 301.406 330.067 297.709 329.707C296.919 329.63 296.557 329.962 296.761 330.699C297.044 331.727 297.337 332.768 297.774 333.737C298.178 334.633 296.714 335.688 298.075 336.439C298.921 339.955 298.898 343.57 298.786 347.104C298.679 350.443 298.819 353.822 298.224 357.151C298.154 357.538 298.257 357.97 298.35 358.366C298.651 359.63 299.404 359.994 300.524 359.348C300.942 359.107 301.234 358.73 301.792 358.639C304.788 358.152 307.408 356.851 309.995 355.305C311.9 354.168 313.911 353.072 316.001 352.298C317.255 351.834 318.245 351.28 318.97 350.247C319.309 349.761 319.68 349.365 320.196 349.051C322.258 347.791 323.15 345.986 322.737 343.607L322.732 343.611Z" fill="#1C1D1E"/>
<path d="M239.272 388.763C242.342 388.064 245.18 388.618 247.93 387.855C249.419 387.441 250.969 387.687 252.493 387.628C255.181 387.523 257.913 387.9 260.539 386.951C261.147 386.729 261.787 386.824 262.44 386.901C264.186 387.119 265.936 387.101 267.696 386.86C269.633 386.592 271.383 387.283 272.889 388.431C275.724 390.593 275.342 394.793 272.285 396.677C270.441 397.813 268.442 397.804 266.438 397.731C265.381 397.695 264.373 397.645 263.404 398.158C261.929 398.943 260.33 398.453 258.913 398.217C254.803 397.527 250.743 398.144 246.66 398.176C243.132 398.203 239.663 398.58 236.175 398.948C234.562 399.116 232.972 398.852 231.399 398.521C229.938 398.212 229.111 397.304 228.556 395.847C227.437 392.9 228.245 390.08 228.911 387.278C229.271 385.761 229.489 384.308 229.542 382.733C229.609 380.816 229.978 378.864 230.28 376.952C230.844 373.374 231.119 369.773 231.573 366.191C232.488 358.966 233.981 351.851 235.14 344.676C235.678 341.352 237.024 338.274 237.464 334.95C237.539 334.378 237.601 333.846 237.552 333.261C237.384 331.158 237.93 330.309 239.796 329.401C240.902 328.865 242.093 328.711 243.275 328.47C247.104 327.685 250.996 327.14 254.865 326.963C257.798 326.831 260.765 326.899 263.715 326.758C265.865 326.658 267.993 326.59 270.135 326.159C272.378 325.705 274.626 326.25 276.63 327.462C278.22 328.42 279.566 331.222 278.758 332.72C277.9 334.314 276.519 335.745 274.577 336.099C271.947 336.576 269.335 336.966 266.598 336.739C264.15 336.535 261.64 336.975 259.166 337.238C258.362 337.325 257.593 337.352 256.802 337.202C253.941 336.657 251.076 337.711 248.193 337.143C247.193 336.948 246.162 337.048 245.136 336.666C243.848 336.19 242.35 337.697 242.844 339.018C243.359 340.394 243.257 341.757 243.217 343.11C243.088 347.773 242.884 352.432 242.635 357.091C242.395 361.609 242.861 362.09 247.264 361.455C247.819 361.373 248.384 361.25 248.903 361.046C252.222 359.743 255.643 360.015 259.064 360.365C261.201 360.583 263.004 361.627 264.639 362.967C265.559 363.725 265.501 364.928 264.639 366.036C263.911 366.976 262.907 367.603 261.885 367.993C258.89 369.128 255.909 370.604 252.582 370.009C249.263 369.415 245.905 370.205 242.604 369.524C241.982 369.396 241.711 369.8 241.546 370.286C241.338 370.908 241.053 371.549 241.049 372.184C241.013 375 240.471 377.724 239.8 380.431C239.783 380.512 239.716 380.599 239.734 380.667C240.431 383.305 239.916 385.92 239.276 388.763H239.272ZM274.164 334.641C274.115 334.614 274.338 334.836 274.515 334.805C274.835 334.746 274.995 334.428 275.004 334.096C275.008 333.824 274.813 333.656 274.569 333.674C274.209 333.697 274.044 333.937 274.164 334.641Z" fill="#1C1D1E"/>
<path d="M386.852 393.726C387.52 390.737 386.541 387.702 387.033 384.699C387.057 384.54 387.057 384.362 387.014 384.203C385.544 378.871 386.623 373.47 386.594 368.106C386.584 366.591 386.518 364.975 387.424 363.592C387.706 363.16 387.51 362.864 387.415 362.473C386.813 360.039 386.899 357.582 387.486 355.175C388.584 350.68 388.78 346.093 389.133 341.525C389.247 340.065 389.352 338.604 389.395 337.139C389.419 336.284 389.009 335.852 388.097 336.379C385.32 337.995 382.256 339.055 379.392 340.506C379.091 340.661 378.829 340.893 378.514 341.011C377.073 341.543 374.801 341.016 374.247 340.047C373.684 339.055 374.085 337.735 375.426 336.543C377.12 335.028 379.077 333.777 380.404 331.902C380.499 331.77 380.643 331.629 380.791 331.579C384.58 330.373 386.694 327.139 389.62 324.9C394.154 321.433 399.003 322.816 400.458 328.19C400.974 330.096 401.117 332.016 400.907 334.045C400.63 336.684 400.935 339.378 400.926 342.044C400.916 344.414 401.036 346.817 399.69 348.978C399.518 349.251 399.389 349.615 399.418 349.924C399.704 353.191 398.812 356.422 398.921 359.643C399.074 364.102 398.105 368.483 398.33 372.919C398.363 373.579 398.339 374.266 398.53 374.885C398.912 376.123 398.988 377.269 398.344 378.47C398.043 379.03 397.805 379.831 397.986 380.386C398.75 382.72 398.072 385.059 398.225 387.379C398.253 387.825 398.153 388.198 397.938 388.553C397.227 389.745 397.16 391.087 397.079 392.388C397.003 393.626 396.526 394.759 396.726 396.11C397.137 398.872 393.824 401.452 390.932 400.933C389.41 400.66 388.384 399.486 387.973 398.408C387.415 396.943 386.556 395.428 386.852 393.731V393.726Z" fill="#1C1D1E"/>
</svg>
