<svg width="600" height="401" viewBox="0 0 600 401" fill="none" xmlns="http://www.w3.org/2000/svg">
<rect width="600" height="400" transform="translate(0 0.25)" fill="#FF9966"/>
<g clip-path="url(#clip0_976_2603)">
<path d="M366.496 178.028C366.942 174.615 371.583 175.423 375.921 177.995C376.638 178.421 377.546 177.894 377.543 177.061C377.539 173.536 377.521 168.8 377.517 166.162C377.517 165.459 377.103 164.82 376.465 164.524C361.88 157.753 349.615 162.674 349.615 172.252C349.615 179.911 357.985 183.356 357.985 183.356L353.106 183.393C352.512 183.396 352.036 183.88 352.036 184.475V226.01C352.036 226.609 352.519 227.092 353.117 227.092H368.762C369.36 227.092 369.843 226.609 369.843 226.01V194.724H376.447C377.045 194.724 377.528 194.241 377.528 193.642V184.46C377.528 183.869 377.045 183.382 376.458 183.378C372.614 183.367 366.002 181.769 366.492 178.028H366.496Z" fill="#1C1D1E"/>
<path d="M99.088 182.061C92.9987 182.061 88.8335 184.796 86.2393 191.293L85.1836 184.32C85.1043 183.789 84.6503 183.4 84.1135 183.4H73.6681C73.07 183.4 72.5872 183.883 72.5872 184.482V238.777C72.5872 239.376 73.07 239.86 73.6681 239.86H89.2407C89.864 239.86 90.3577 239.333 90.318 238.709L89.1758 220.894C91.5467 226.623 95.3948 228.431 99.6753 228.431C108.694 228.431 113.14 220.386 113.14 205.233C113.14 190.081 108.46 182.061 99.088 182.061ZM92.9735 215.768C89.7776 215.768 88.8191 211.056 88.8191 205.244C88.8191 199.432 89.7776 194.721 92.9735 194.721C96.1695 194.721 97.1279 199.432 97.1279 205.244C97.1279 211.056 96.1695 215.768 92.9735 215.768Z" fill="#1C1D1E"/>
<path d="M249.748 181.127C255.64 181.127 260.417 177.145 260.417 172.234C260.417 167.323 255.64 163.341 249.748 163.341C243.856 163.341 239.079 167.323 239.079 172.234C239.079 177.145 243.856 181.127 249.748 181.127Z" fill="#1C1D1E"/>
<path d="M333.452 182.058C326.797 182.058 321.526 184.998 318.885 191.737L317.757 184.32C317.678 183.789 317.224 183.4 316.687 183.4H306.238C305.64 183.4 305.157 183.883 305.157 184.482V226.003C305.157 226.601 305.64 227.085 306.238 227.085H321.893C322.491 227.085 322.974 226.601 322.974 226.003L322.992 198.418C322.992 195.853 324.725 194.771 326.228 194.771C327.73 194.771 329.431 195.586 329.431 198.271V226.003C329.431 226.601 329.914 227.085 330.512 227.085H346.164C346.762 227.085 347.245 226.601 347.245 226.003V196.059C347.245 187.401 342.694 182.061 333.445 182.061L333.452 182.058Z" fill="#1C1D1E"/>
<path fill-rule="evenodd" clip-rule="evenodd" d="M137.22 182.061C127.686 182.061 120.058 187.253 117.756 189.003C117.305 189.345 117.039 189.876 117.039 190.442V200.756C117.039 201.637 118.029 202.149 118.746 201.637C121.434 199.71 126.922 196.344 132.478 196.344C136.564 196.344 138.571 197.849 139.551 200.778C128.587 200.569 115.997 202.762 115.997 215.869C115.997 224.502 120.53 228.427 128.385 228.427C133.681 228.427 138.74 225.328 141.475 220.465L142.34 226.165C142.419 226.695 142.873 227.085 143.41 227.085H153.859C154.457 227.085 154.94 226.602 154.94 226.003V200.735C154.94 190.106 148.692 182.061 137.22 182.061ZM137.148 216.244C134.91 216.201 133.894 213.939 133.901 210.897C133.916 206.002 137.879 203.805 139.944 203.844C139.944 203.844 140.189 206.355 140.178 210.382C140.167 213.733 139.349 216.287 137.148 216.244Z" fill="#1C1D1E"/>
<path d="M528.16 193.642V184.482C528.16 183.883 527.677 183.4 527.079 183.4H515.322V172.057C515.322 171.458 514.839 170.975 514.241 170.975H504.718C504.177 170.975 503.72 171.375 503.648 171.913C502.747 178.836 499.295 183.508 494.712 184.666C494.226 184.789 493.883 185.214 493.883 185.716V193.646C493.883 194.244 494.366 194.728 494.964 194.728H497.375L497.353 194.757C497.353 194.757 497.501 201.604 497.501 215.66C497.501 221.576 501.623 228.46 512.544 228.46C521.159 228.46 525.9 225.231 527.518 223.871C527.925 223.528 528.16 223.023 528.16 222.489V213.376C528.16 212.51 527.201 212.001 526.481 212.474C524.888 213.524 522.416 214.873 520.233 214.873C517.448 214.873 515.325 213.935 515.325 209.252V194.731H527.082C527.68 194.731 528.163 194.248 528.163 193.649L528.16 193.642Z" fill="#1C1D1E"/>
<path fill-rule="evenodd" clip-rule="evenodd" d="M281.869 182.061C269.813 182.061 262.337 188.948 262.337 205.259C262.337 221.569 269.813 228.456 281.869 228.456C293.925 228.456 301.402 221.569 301.402 205.259C301.402 188.948 293.925 182.061 281.869 182.061ZM281.869 215.782C278.706 215.782 277.758 211.071 277.758 205.259C277.758 199.447 278.709 194.735 281.869 194.735C285.029 194.735 285.98 199.447 285.98 205.259C285.98 211.071 285.029 215.782 281.869 215.782Z" fill="#1C1D1E"/>
<path fill-rule="evenodd" clip-rule="evenodd" d="M432.3 182.061C420.244 182.061 412.767 188.948 412.767 205.259C412.767 221.569 420.244 228.456 432.3 228.456C444.355 228.456 451.832 221.569 451.832 205.259C451.832 188.948 444.355 182.061 432.3 182.061ZM432.3 215.782C429.136 215.782 428.188 211.071 428.188 205.259C428.188 199.447 429.14 194.735 432.3 194.735C435.459 194.735 436.411 199.447 436.411 205.259C436.411 211.071 435.459 215.782 432.3 215.782Z" fill="#1C1D1E"/>
<path fill-rule="evenodd" clip-rule="evenodd" d="M473.309 182.061C461.253 182.061 453.777 188.948 453.777 205.259C453.777 221.569 461.253 228.456 473.309 228.456C485.365 228.456 492.842 221.569 492.842 205.259C492.842 188.948 485.365 182.061 473.309 182.061ZM473.309 215.782C470.146 215.782 469.198 211.071 469.198 205.259C469.198 199.447 470.149 194.735 473.309 194.735C476.469 194.735 477.42 199.447 477.42 205.259C477.42 211.071 476.469 215.782 473.309 215.782Z" fill="#1C1D1E"/>
<path d="M214.953 197.794C214.953 196.402 216.044 194.778 217.965 194.778C220.058 194.778 220.977 196.239 220.977 198.956V199.356C220.977 199.955 221.46 200.439 222.058 200.439H235.335C235.948 200.439 236.441 199.934 236.416 199.32C236.092 191.759 232.359 182.058 217.929 182.058C207.444 182.058 199.607 186.683 199.607 195.525C199.607 211.698 222.706 210.789 222.706 214.465C222.706 217.882 210.06 216.468 201.726 210.403C201.016 209.887 200.018 210.403 200.018 211.283V222.265C200.018 222.961 200.414 223.593 201.041 223.892C203.718 225.173 211.231 228.427 218.469 228.427C226.778 228.427 237.497 226.241 237.497 215.959C237.497 201.406 214.949 206.11 214.949 197.794H214.953Z" fill="#1C1D1E"/>
<path d="M174.519 197.794C174.519 196.402 175.611 194.778 177.531 194.778C179.625 194.778 180.543 196.239 180.543 198.956V199.356C180.543 199.955 181.026 200.439 181.624 200.439H194.902C195.514 200.439 196.008 199.934 195.983 199.32C195.658 191.759 191.926 182.058 177.495 182.058C167.01 182.058 159.173 186.683 159.173 195.525C159.173 211.698 182.273 210.789 182.273 214.465C182.273 217.882 169.626 216.468 161.292 210.403C160.582 209.887 159.584 210.403 159.584 211.283V222.265C159.584 222.961 159.98 223.593 160.607 223.892C163.284 225.173 170.797 228.427 178.036 228.427C186.344 228.427 197.064 226.241 197.064 215.959C197.064 201.406 174.515 206.11 174.515 197.794H174.519Z" fill="#1C1D1E"/>
<path d="M257.559 183.403H241.915C241.318 183.403 240.834 183.888 240.834 184.486V226.096C240.834 226.694 241.318 227.179 241.915 227.179H257.559C258.156 227.179 258.64 226.694 258.64 226.096V184.486C258.64 183.888 258.156 183.403 257.559 183.403Z" fill="#1C1D1E"/>
<path d="M407.244 182.018C402.264 181.885 397.692 183.988 395.09 191.932L393.93 184.28C393.851 183.75 393.397 183.36 392.86 183.36H382.411C381.813 183.36 381.33 183.844 381.33 184.442V225.963C381.33 226.562 381.813 227.045 382.411 227.045H398.063C398.661 227.045 399.144 226.562 399.144 225.963V201.186C399.144 196.276 402.826 194.645 405.071 194.652C406.588 194.656 407.305 194.995 408.119 195.587C408.663 195.983 409.434 195.774 409.726 195.168L414.486 185.301C414.72 184.814 414.547 184.248 414.107 183.927C413.055 183.155 410.821 182.112 407.24 182.018H407.244ZM395.887 201.366V201.33C395.887 201.33 395.908 201.355 395.923 201.366H395.887Z" fill="#1C1D1E"/>
</g>
<defs>
<clipPath id="clip0_976_2603">
<rect width="456.153" height="78.647" fill="white" transform="translate(72.2986 161.299)"/>
</clipPath>
</defs>
</svg>
