<svg width="24" height="25" viewBox="0 0 24 25" fill="none" xmlns="http://www.w3.org/2000/svg">
<rect y="0.5" width="24" height="24" rx="4" fill="#00D26A"/>
<path d="M8.9999 16.6698L5.5299 13.1998C5.34292 13.0129 5.08933 12.9078 4.8249 12.9078C4.56048 12.9078 4.30688 13.0129 4.1199 13.1998C3.93292 13.3868 3.82788 13.6404 3.82788 13.9048C3.82788 14.0358 3.85367 14.1654 3.90377 14.2864C3.95388 14.4073 4.02732 14.5173 4.1199 14.6098L8.2999 18.7898C8.6899 19.1798 9.3199 19.1798 9.7099 18.7898L20.2899 8.20983C20.4769 8.02286 20.5819 7.76926 20.5819 7.50483C20.5819 7.24041 20.4769 6.98681 20.2899 6.79983C20.1029 6.61286 19.8493 6.50781 19.5849 6.50781C19.3205 6.50781 19.0669 6.61286 18.8799 6.79983L8.9999 16.6698Z" fill="white"/>
</svg>
