<svg width="960" height="988" viewBox="0 0 960 988" fill="none" xmlns="http://www.w3.org/2000/svg">
<path d="M960 987.182H0.0417627C0.0417627 985.027 0.0417627 982.95 0.0417627 980.872C0.0417627 825.468 -0.115012 670.044 0.178943 514.64C0.237734 485.578 0.590478 456.359 3.37325 427.473C10.389 354.651 33.8857 286.982 73.2953 225.369C148.469 107.846 254.901 34.4163 392.001 8.45031C646.017 -39.6407 890.921 122.23 948.281 374.483C957.158 413.559 960.999 453.204 959.647 493.319C959.392 500.903 959.98 508.507 959.98 516.11C960 670.534 959.98 824.978 959.98 979.402V987.182H960ZM734.693 782.041C735.066 781.982 735.438 781.924 735.83 781.865C750.489 769.95 762.776 756.016 772.085 739.516C772.378 739.222 772.476 738.869 772.418 738.458V738.634C788.35 718.037 800.422 695.168 811.239 671.534C814.904 672.827 818.196 673.983 821.469 675.14V708.807H841.027V676.159C854.627 673.513 864.974 665.812 873.283 655.151C898.367 622.992 899.387 566.22 875.615 532.983C867.777 522.009 858.096 513.386 844.789 509.859C841.125 508.898 840.4 507.233 840.145 503.882C837.734 472.977 832.032 442.719 822.057 413.304C820.763 409.503 819.137 408.288 815.08 408.288C592.498 408.405 369.935 408.405 147.352 408.288C142.747 408.288 140.964 409.875 139.611 414.029C129.95 443.934 123.542 474.427 121.955 505.861C121.798 509.114 121.034 511.231 117.761 512.661C108.55 516.678 101.495 523.4 95.5183 531.337C71.1004 563.848 70.6693 619.621 94.6168 652.466C101.417 661.814 109.687 669.437 120.74 673.552V708.944H140.768V676.688C144.57 676.12 148.391 675.551 152.154 674.983C155.877 682.41 158.993 689.798 163.108 696.598C171.437 710.375 180.314 723.838 188.957 737.439V737.262C189.035 737.634 189.094 738.007 189.172 738.36C198.559 754.625 210.219 768.99 224.996 780.709C225.564 781.12 226.132 781.532 226.7 781.924L226.524 781.904C228.935 784.432 231.208 787.136 233.795 789.488C318.395 866.524 417.516 898.761 531.12 883.965C604.432 874.421 668.279 843.458 723.19 794.074C727.345 790.331 730.99 786.019 734.87 781.982H734.713L734.693 782.041Z" fill="#22221D"/>
<path d="M821.468 675.159C818.196 674.003 814.903 672.847 811.239 671.553C800.421 695.187 788.35 718.057 772.398 738.653C773.26 735.282 773.907 731.833 774.984 728.522C779.982 713.177 781.001 697.48 777.767 681.783C766.93 629.243 718.349 596.222 665.476 605.844C623.088 613.566 591.949 647.782 587.951 690.876C584.992 722.76 595.554 750.568 620.423 771.733C649.505 796.464 682.252 802.304 718.192 789.076C723.836 786.999 729.284 784.412 734.83 782.08C730.95 786.117 727.305 790.428 723.15 794.171C668.24 843.536 604.393 874.519 531.08 884.063C417.477 898.858 318.355 866.602 233.755 789.586C231.168 787.234 228.895 784.549 226.484 782.002C228.268 782.609 230.169 783.021 231.815 783.883C251.823 794.25 272.929 798.679 295.211 794.426C316.278 790.409 334.581 780.826 349.142 764.737C369.974 741.73 378.126 714.529 373.109 684.252C369.268 661.186 358.294 641.491 339.696 626.206C317.983 608.353 293.095 601.709 265.855 604.982C240.927 607.961 219.959 619.641 204.124 639.492C186.154 662.009 179.236 687.544 184.155 716.019C185.409 723.25 187.31 730.364 188.917 737.536C180.275 723.936 171.397 710.473 163.069 696.696C158.953 689.896 155.837 682.488 152.114 675.081C148.351 675.649 144.549 676.217 140.728 676.785C140.728 668.633 140.728 660.5 140.728 652.23H120.7V673.67C109.647 669.535 101.397 661.931 94.5772 652.583C70.6297 619.739 71.0608 563.966 95.4786 531.454C101.436 523.517 108.511 516.776 117.721 512.778C120.994 511.348 121.758 509.251 121.915 505.978C123.483 474.545 129.891 444.052 139.572 414.147C140.924 409.973 142.707 408.405 147.313 408.405C369.895 408.522 592.458 408.522 815.041 408.405C819.078 408.405 820.724 409.62 822.017 413.422C832.012 442.837 837.695 473.094 840.105 503.999C840.36 507.35 841.085 508.996 844.75 509.976C858.056 513.484 867.737 522.126 875.576 533.1C899.347 566.337 898.328 623.09 873.244 655.268C864.935 665.909 854.587 673.63 840.987 676.276C840.987 668.359 840.987 660.442 840.987 652.23H821.429V675.257L821.468 675.159ZM639.373 580.114C639.393 566.944 628.771 556.284 615.524 556.225C602.217 556.166 591.478 566.592 591.282 579.761C591.086 593.008 602.178 604.198 615.445 604.12C628.556 604.042 639.334 593.224 639.354 580.133L639.373 580.114ZM340.872 556.225C327.507 556.225 317.023 566.611 316.983 579.937C316.925 593.244 327.311 603.904 340.558 604.12C353.845 604.335 364.957 593.302 364.878 579.957C364.8 566.709 354.198 556.225 340.892 556.225H340.872ZM527.671 652.054H432.312V666.987H527.671V652.054ZM297.798 523.028H383.75V508.624H297.798V523.028ZM658.128 508.624H572.744V523.126H658.128V508.624Z" fill="white"/>
<path d="M188.937 737.497C187.33 730.325 185.41 723.211 184.175 715.98C179.256 687.505 186.174 661.97 204.144 639.454C219.998 619.602 240.947 607.942 265.875 604.943C293.115 601.67 318.003 608.334 339.716 626.167C358.314 641.452 369.288 661.147 373.129 684.213C378.165 714.49 369.994 741.671 349.162 764.698C334.601 780.787 316.298 790.37 295.231 794.387C272.949 798.64 251.843 794.211 231.835 783.844C230.169 782.982 228.288 782.59 226.504 781.963C226.504 781.963 226.681 781.963 226.681 781.982C226.112 781.571 225.544 781.159 224.976 780.767C210.2 769.048 198.54 754.684 189.153 738.418C189.074 738.046 189.015 737.674 188.937 737.321V737.497Z" fill="#EAEAEA"/>
<path d="M734.87 782.061C729.324 784.412 723.876 786.98 718.232 789.057C682.291 802.285 649.545 796.445 620.463 771.714C595.594 750.549 585.051 722.741 587.991 690.856C591.988 647.763 623.108 613.566 665.516 605.825C718.369 596.203 766.97 629.204 777.807 681.763C781.04 697.461 780.021 713.158 775.024 728.502C773.946 731.814 773.28 735.244 772.437 738.634V738.458C772.261 738.516 771.928 738.595 771.947 738.654C771.947 738.947 772.045 739.222 772.104 739.516C762.796 755.997 750.508 769.95 735.85 781.865C735.477 781.924 735.105 781.982 734.713 782.041H734.87V782.061Z" fill="#EAEAEA"/>
<path d="M120.74 673.611V652.172H140.768C140.768 660.442 140.768 668.575 140.768 676.727C140.768 687.388 140.768 698.029 140.768 709.003H120.74V673.611Z" fill="#B0B0AC"/>
<path d="M821.469 675.159V652.133H841.026C841.026 660.344 841.026 668.261 841.026 676.178C841.026 686.898 841.026 697.617 841.026 708.827H821.469V675.159Z" fill="#B0B0AC"/>
<path d="M188.956 737.321C189.035 737.693 189.093 738.065 189.172 738.418C189.093 738.046 189.035 737.673 188.956 737.321Z" fill="#FED9CB"/>
<path d="M772.085 739.535C772.026 739.241 771.928 738.967 771.928 738.673C771.928 738.614 772.261 738.536 772.418 738.477C772.476 738.889 772.359 739.241 772.085 739.535Z" fill="#FED9CB"/>
<path d="M224.976 780.768C225.544 781.179 226.112 781.591 226.681 781.983C226.112 781.571 225.544 781.16 224.976 780.768Z" fill="#FED9CB"/>
<path d="M734.694 782.041C735.066 781.982 735.438 781.923 735.83 781.865C735.458 781.923 735.086 781.982 734.694 782.041Z" fill="#FED9CB"/>
<path d="M639.374 580.114C639.354 593.204 628.576 604.022 615.465 604.1C602.198 604.179 591.106 593.008 591.302 579.741C591.498 566.572 602.237 556.147 615.544 556.205C628.772 556.264 639.413 566.925 639.393 580.094L639.374 580.114Z" fill="#22221D"/>
<path d="M340.872 556.206C354.179 556.206 364.781 566.69 364.859 579.938C364.938 593.283 353.826 604.316 340.539 604.101C327.292 603.885 316.905 593.224 316.964 579.918C317.023 566.592 327.488 556.206 340.853 556.206H340.872Z" fill="#22221D"/>
<path d="M527.69 652.054V666.987H432.332V652.054H527.69Z" fill="#4A4A44"/>
<path d="M297.818 523.028V508.624H383.77V523.028H297.818Z" fill="#22221D"/>
<path d="M658.128 508.624V523.126H572.744V508.624H658.128Z" fill="#22221D"/>
</svg>
