<svg width="24" height="25" viewBox="0 0 24 25" fill="none" xmlns="http://www.w3.org/2000/svg">
<rect y="0.48291" width="24" height="24" rx="4" fill="#F92F60"/>
<path d="M19.5459 18.4369C19.7572 18.6482 19.876 18.9349 19.876 19.2338C19.876 19.5327 19.7572 19.8193 19.5459 20.0306C19.3346 20.242 19.0479 20.3607 18.749 20.3607C18.4501 20.3607 18.1635 20.242 17.9521 20.0306L12 14.0766L6.0459 20.0288C5.83455 20.2401 5.54791 20.3588 5.24902 20.3588C4.95014 20.3588 4.66349 20.2401 4.45215 20.0288C4.2408 19.8174 4.12207 19.5308 4.12207 19.2319C4.12207 18.933 4.2408 18.6464 4.45215 18.435L10.4062 12.4828L4.45402 6.52877C4.24268 6.31742 4.12395 6.03078 4.12395 5.73189C4.12395 5.43301 4.24268 5.14636 4.45402 4.93502C4.66537 4.72367 4.95201 4.60494 5.2509 4.60494C5.54978 4.60494 5.83643 4.72367 6.04777 4.93502L12 10.8891L17.954 4.93408C18.1654 4.72274 18.452 4.604 18.7509 4.604C19.0498 4.604 19.3364 4.72274 19.5478 4.93408C19.7591 5.14542 19.8778 5.43207 19.8778 5.73096C19.8778 6.02984 19.7591 6.31649 19.5478 6.52783L13.5937 12.4828L19.5459 18.4369Z" fill="white"/>
</svg>
